<?xml version="1.0" encoding="UTF-8" standalone="no"?>
<!DOCTYPE svg PUBLIC "-//W3C//DTD SVG 1.1//EN"
 "http://www.w3.org/Graphics/SVG/1.1/DTD/svg11.dtd">
<!-- Generated by graphviz version 2.38.0 (20140413.2041)
 -->
<!-- Title: Q:/Documents/GitHub/MIDI2LR/Source/CommandMap.h Pages: 1 -->
<svg width="1603pt" height="474pt"
 viewBox="0.00 0.00 1603.00 474.00" xmlns="http://www.w3.org/2000/svg" xmlns:xlink="http://www.w3.org/1999/xlink">
<g id="graph0" class="graph" transform="scale(1 1) rotate(0) translate(4 470)">
<title>Q:/Documents/GitHub/MIDI2LR/Source/CommandMap.h</title>
<polygon fill="white" stroke="none" points="-4,4 -4,-470 1599,-470 1599,4 -4,4"/>
<!-- Node1 -->
<g id="node1" class="node"><title>Node1</title>
<polygon fill="#bfbfbf" stroke="black" points="713.5,-435.5 713.5,-465.5 877.5,-465.5 877.5,-435.5 713.5,-435.5"/>
<text text-anchor="start" x="721.5" y="-453.5" font-family="Helvetica,sans-Serif" font-size="10.00">Q:/Documents/GitHub</text>
<text text-anchor="middle" x="795.5" y="-442.5" font-family="Helvetica,sans-Serif" font-size="10.00">/MIDI2LR/Source/CommandMap.h</text>
</g>
<!-- Node2 -->
<g id="node2" class="node"><title>Node2</title>
<g id="a_node2"><a xlink:href="_command_map_8cpp.html" target="_top" xlink:title="Q:/Documents/GitHub\l/MIDI2LR/Source/CommandMap.cpp">
<polygon fill="white" stroke="black" points="0,-368.5 0,-398.5 175,-398.5 175,-368.5 0,-368.5"/>
<text text-anchor="start" x="8" y="-386.5" font-family="Helvetica,sans-Serif" font-size="10.00">Q:/Documents/GitHub</text>
<text text-anchor="middle" x="87.5" y="-375.5" font-family="Helvetica,sans-Serif" font-size="10.00">/MIDI2LR/Source/CommandMap.cpp</text>
</a>
</g>
</g>
<!-- Node1&#45;&gt;Node2 -->
<g id="edge1" class="edge"><title>Node1&#45;&gt;Node2</title>
<path fill="none" stroke="midnightblue" d="M703.072,-443.765C583.244,-435.894 367.883,-420.261 184.5,-399 181.455,-398.647 178.36,-398.272 175.234,-397.88"/>
<polygon fill="midnightblue" stroke="midnightblue" points="703.096,-447.274 713.303,-444.434 703.553,-440.289 703.096,-447.274"/>
</g>
<!-- Node3 -->
<g id="node3" class="node"><title>Node3</title>
<g id="a_node3"><a xlink:href="_command_menu_8h.html" target="_top" xlink:title="Q:/Documents/GitHub\l/MIDI2LR/Source/CommandMenu.h">
<polygon fill="white" stroke="black" points="193.5,-368.5 193.5,-398.5 363.5,-398.5 363.5,-368.5 193.5,-368.5"/>
<text text-anchor="start" x="201.5" y="-386.5" font-family="Helvetica,sans-Serif" font-size="10.00">Q:/Documents/GitHub</text>
<text text-anchor="middle" x="278.5" y="-375.5" font-family="Helvetica,sans-Serif" font-size="10.00">/MIDI2LR/Source/CommandMenu.h</text>
</a>
</g>
</g>
<!-- Node1&#45;&gt;Node3 -->
<g id="edge2" class="edge"><title>Node1&#45;&gt;Node3</title>
<path fill="none" stroke="midnightblue" d="M703.22,-439.028C618.465,-429.248 489.419,-413.954 377.5,-399 372.937,-398.39 368.258,-397.752 363.536,-397.096"/>
<polygon fill="midnightblue" stroke="midnightblue" points="702.997,-442.525 713.332,-440.192 703.798,-435.571 702.997,-442.525"/>
</g>
<!-- Node5 -->
<g id="node5" class="node"><title>Node5</title>
<g id="a_node5"><a xlink:href="_command_table_model_8h.html" target="_top" xlink:title="Q:/Documents/GitHub\l/MIDI2LR/Source/CommandTable\lModel.h">
<polygon fill="white" stroke="black" points="240,-290.5 240,-331.5 401,-331.5 401,-290.5 240,-290.5"/>
<text text-anchor="start" x="248" y="-319.5" font-family="Helvetica,sans-Serif" font-size="10.00">Q:/Documents/GitHub</text>
<text text-anchor="start" x="248" y="-308.5" font-family="Helvetica,sans-Serif" font-size="10.00">/MIDI2LR/Source/CommandTable</text>
<text text-anchor="middle" x="320.5" y="-297.5" font-family="Helvetica,sans-Serif" font-size="10.00">Model.h</text>
</a>
</g>
</g>
<!-- Node1&#45;&gt;Node5 -->
<g id="edge12" class="edge"><title>Node1&#45;&gt;Node5</title>
<path fill="none" stroke="midnightblue" d="M703.455,-443.623C607.741,-436.393 465.079,-422.147 415.5,-399 398.174,-390.911 361.607,-354.81 339.235,-331.729"/>
<polygon fill="midnightblue" stroke="midnightblue" points="703.203,-447.114 713.435,-444.365 703.721,-440.133 703.203,-447.114"/>
</g>
<!-- Node7 -->
<g id="node7" class="node"><title>Node7</title>
<g id="a_node7"><a xlink:href="_main_component_8h.html" target="_top" xlink:title="Q:/Documents/GitHub\l/MIDI2LR/Source/MainComponent.h">
<polygon fill="white" stroke="black" points="261.5,-140 261.5,-170 433.5,-170 433.5,-140 261.5,-140"/>
<text text-anchor="start" x="269.5" y="-158" font-family="Helvetica,sans-Serif" font-size="10.00">Q:/Documents/GitHub</text>
<text text-anchor="middle" x="347.5" y="-147" font-family="Helvetica,sans-Serif" font-size="10.00">/MIDI2LR/Source/MainComponent.h</text>
</a>
</g>
</g>
<!-- Node1&#45;&gt;Node7 -->
<g id="edge42" class="edge"><title>Node1&#45;&gt;Node7</title>
<path fill="none" stroke="midnightblue" d="M751.474,-431.486C681.464,-401.496 542.562,-336.401 443.5,-254 410.907,-226.889 377.227,-190.1 359.728,-170.199"/>
<polygon fill="midnightblue" stroke="midnightblue" points="750.311,-434.795 760.884,-435.483 753.048,-428.352 750.311,-434.795"/>
</g>
<!-- Node8 -->
<g id="node8" class="node"><title>Node8</title>
<g id="a_node8"><a xlink:href="_main_8cpp.html" target="_top" xlink:title="Q:/Documents/GitHub\l/MIDI2LR/Source/Main.cpp">
<polygon fill="white" stroke="black" points="1213,-0.5 1213,-30.5 1346,-30.5 1346,-0.5 1213,-0.5"/>
<text text-anchor="start" x="1221" y="-18.5" font-family="Helvetica,sans-Serif" font-size="10.00">Q:/Documents/GitHub</text>
<text text-anchor="middle" x="1279.5" y="-7.5" font-family="Helvetica,sans-Serif" font-size="10.00">/MIDI2LR/Source/Main.cpp</text>
</a>
</g>
</g>
<!-- Node1&#45;&gt;Node8 -->
<g id="edge43" class="edge"><title>Node1&#45;&gt;Node8</title>
<path fill="none" stroke="midnightblue" d="M887.774,-447.237C1055.57,-440.598 1393.5,-414.504 1393.5,-312 1393.5,-312 1393.5,-312 1393.5,-154 1393.5,-97.8737 1336.51,-52.3782 1303.12,-30.538"/>
<polygon fill="midnightblue" stroke="midnightblue" points="887.568,-443.742 877.708,-447.62 887.834,-450.737 887.568,-443.742"/>
</g>
<!-- Node12 -->
<g id="node12" class="node"><title>Node12</title>
<g id="a_node12"><a xlink:href="_l_r___i_p_c___in_8h.html" target="_top" xlink:title="Q:/Documents/GitHub\l/MIDI2LR/Source/LR_IPC_In.h">
<polygon fill="white" stroke="black" points="977,-218 977,-248 1124,-248 1124,-218 977,-218"/>
<text text-anchor="start" x="985" y="-236" font-family="Helvetica,sans-Serif" font-size="10.00">Q:/Documents/GitHub</text>
<text text-anchor="middle" x="1050.5" y="-225" font-family="Helvetica,sans-Serif" font-size="10.00">/MIDI2LR/Source/LR_IPC_In.h</text>
</a>
</g>
</g>
<!-- Node1&#45;&gt;Node12 -->
<g id="edge13" class="edge"><title>Node1&#45;&gt;Node12</title>
<path fill="none" stroke="midnightblue" d="M887.601,-436.445C947.882,-422.269 1020.94,-392.852 1051.5,-332 1065.09,-304.935 1059.3,-268.128 1054.51,-248.212"/>
<polygon fill="midnightblue" stroke="midnightblue" points="886.654,-433.07 877.662,-438.673 888.186,-439.9 886.654,-433.07"/>
</g>
<!-- Node14 -->
<g id="node14" class="node"><title>Node14</title>
<g id="a_node14"><a xlink:href="_l_r___i_p_c___out_8h.html" target="_top" xlink:title="Q:/Documents/GitHub\l/MIDI2LR/Source/LR_IPC_Out.h">
<polygon fill="white" stroke="black" points="772,-368.5 772,-398.5 927,-398.5 927,-368.5 772,-368.5"/>
<text text-anchor="start" x="780" y="-386.5" font-family="Helvetica,sans-Serif" font-size="10.00">Q:/Documents/GitHub</text>
<text text-anchor="middle" x="849.5" y="-375.5" font-family="Helvetica,sans-Serif" font-size="10.00">/MIDI2LR/Source/LR_IPC_Out.h</text>
</a>
</g>
</g>
<!-- Node1&#45;&gt;Node14 -->
<g id="edge18" class="edge"><title>Node1&#45;&gt;Node14</title>
<path fill="none" stroke="midnightblue" d="M813.821,-427.447C821.753,-417.899 830.805,-407.004 837.806,-398.577"/>
<polygon fill="midnightblue" stroke="midnightblue" points="810.915,-425.467 807.217,-435.396 816.3,-429.941 810.915,-425.467"/>
</g>
<!-- Node15 -->
<g id="node15" class="node"><title>Node15</title>
<g id="a_node15"><a xlink:href="_profile_manager_8h.html" target="_top" xlink:title="Q:/Documents/GitHub\l/MIDI2LR/Source/ProfileManager.h">
<polygon fill="white" stroke="black" points="656.5,-296 656.5,-326 822.5,-326 822.5,-296 656.5,-296"/>
<text text-anchor="start" x="664.5" y="-314" font-family="Helvetica,sans-Serif" font-size="10.00">Q:/Documents/GitHub</text>
<text text-anchor="middle" x="739.5" y="-303" font-family="Helvetica,sans-Serif" font-size="10.00">/MIDI2LR/Source/ProfileManager.h</text>
</a>
</g>
</g>
<!-- Node1&#45;&gt;Node15 -->
<g id="edge39" class="edge"><title>Node1&#45;&gt;Node15</title>
<path fill="none" stroke="midnightblue" d="M778.996,-426.637C773.492,-418.247 767.698,-408.478 763.5,-399 752.649,-374.503 745.586,-343.915 742.092,-326.303"/>
<polygon fill="midnightblue" stroke="midnightblue" points="776.249,-428.821 784.767,-435.122 782.037,-424.885 776.249,-428.821"/>
</g>
<!-- Node23 -->
<g id="node23" class="node"><title>Node23</title>
<g id="a_node23"><a xlink:href="_l_r___i_p_c___out_8cpp.html" target="_top" xlink:title="Q:/Documents/GitHub\l/MIDI2LR/Source/LR_IPC\l_Out.cpp">
<polygon fill="white" stroke="black" points="916.5,-290.5 916.5,-331.5 1042.5,-331.5 1042.5,-290.5 916.5,-290.5"/>
<text text-anchor="start" x="924.5" y="-319.5" font-family="Helvetica,sans-Serif" font-size="10.00">Q:/Documents/GitHub</text>
<text text-anchor="start" x="924.5" y="-308.5" font-family="Helvetica,sans-Serif" font-size="10.00">/MIDI2LR/Source/LR_IPC</text>
<text text-anchor="middle" x="979.5" y="-297.5" font-family="Helvetica,sans-Serif" font-size="10.00">_Out.cpp</text>
</a>
</g>
</g>
<!-- Node1&#45;&gt;Node23 -->
<g id="edge40" class="edge"><title>Node1&#45;&gt;Node23</title>
<path fill="none" stroke="midnightblue" d="M876.521,-432.248C897.84,-424.739 919.581,-414.076 936.5,-399 956.752,-380.954 968.539,-351.196 974.497,-331.595"/>
<polygon fill="midnightblue" stroke="midnightblue" points="875.164,-429.011 866.774,-435.481 877.368,-435.655 875.164,-429.011"/>
</g>
<!-- Node24 -->
<g id="node24" class="node"><title>Node24</title>
<g id="a_node24"><a xlink:href="_l_r_commands_8cpp.html" target="_top" xlink:title="Q:/Documents/GitHub\l/MIDI2LR/Source/LRCommands.cpp">
<polygon fill="white" stroke="black" points="1422,-368.5 1422,-398.5 1595,-398.5 1595,-368.5 1422,-368.5"/>
<text text-anchor="start" x="1430" y="-386.5" font-family="Helvetica,sans-Serif" font-size="10.00">Q:/Documents/GitHub</text>
<text text-anchor="middle" x="1508.5" y="-375.5" font-family="Helvetica,sans-Serif" font-size="10.00">/MIDI2LR/Source/LRCommands.cpp</text>
</a>
</g>
</g>
<!-- Node1&#45;&gt;Node24 -->
<g id="edge41" class="edge"><title>Node1&#45;&gt;Node24</title>
<path fill="none" stroke="midnightblue" d="M888.06,-443.606C1008.06,-435.565 1223.76,-419.751 1407.5,-399 1412.16,-398.473 1416.95,-397.9 1421.77,-397.296"/>
<polygon fill="midnightblue" stroke="midnightblue" points="887.559,-440.132 877.814,-444.289 888.025,-447.116 887.559,-440.132"/>
</g>
<!-- Node4 -->
<g id="node4" class="node"><title>Node4</title>
<g id="a_node4"><a xlink:href="_command_menu_8cpp.html" target="_top" xlink:title="Q:/Documents/GitHub\l/MIDI2LR/Source/CommandMenu.cpp">
<polygon fill="white" stroke="black" points="41.5,-296 41.5,-326 221.5,-326 221.5,-296 41.5,-296"/>
<text text-anchor="start" x="49.5" y="-314" font-family="Helvetica,sans-Serif" font-size="10.00">Q:/Documents/GitHub</text>
<text text-anchor="middle" x="131.5" y="-303" font-family="Helvetica,sans-Serif" font-size="10.00">/MIDI2LR/Source/CommandMenu.cpp</text>
</a>
</g>
</g>
<!-- Node3&#45;&gt;Node4 -->
<g id="edge3" class="edge"><title>Node3&#45;&gt;Node4</title>
<path fill="none" stroke="midnightblue" d="M239.988,-364.03C215.23,-352.156 183.564,-336.97 160.843,-326.073"/>
<polygon fill="midnightblue" stroke="midnightblue" points="238.575,-367.234 249.106,-368.403 241.603,-360.923 238.575,-367.234"/>
</g>
<!-- Node3&#45;&gt;Node5 -->
<g id="edge4" class="edge"><title>Node3&#45;&gt;Node5</title>
<path fill="none" stroke="midnightblue" d="M292.255,-359.411C297.614,-350.416 303.69,-340.217 308.83,-331.588"/>
<polygon fill="midnightblue" stroke="midnightblue" points="289.111,-357.851 286.999,-368.233 295.124,-361.434 289.111,-357.851"/>
</g>
<!-- Node6 -->
<g id="node6" class="node"><title>Node6</title>
<g id="a_node6"><a xlink:href="_command_table_model_8cpp.html" target="_top" xlink:title="Q:/Documents/GitHub\l/MIDI2LR/Source/CommandTable\lModel.cpp">
<polygon fill="white" stroke="black" points="158,-212.5 158,-253.5 319,-253.5 319,-212.5 158,-212.5"/>
<text text-anchor="start" x="166" y="-241.5" font-family="Helvetica,sans-Serif" font-size="10.00">Q:/Documents/GitHub</text>
<text text-anchor="start" x="166" y="-230.5" font-family="Helvetica,sans-Serif" font-size="10.00">/MIDI2LR/Source/CommandTable</text>
<text text-anchor="middle" x="238.5" y="-219.5" font-family="Helvetica,sans-Serif" font-size="10.00">Model.cpp</text>
</a>
</g>
</g>
<!-- Node5&#45;&gt;Node6 -->
<g id="edge5" class="edge"><title>Node5&#45;&gt;Node6</title>
<path fill="none" stroke="midnightblue" d="M291.899,-283.492C281.258,-273.629 269.387,-262.627 259.545,-253.506"/>
<polygon fill="midnightblue" stroke="midnightblue" points="289.669,-286.197 299.383,-290.428 294.428,-281.063 289.669,-286.197"/>
</g>
<!-- Node5&#45;&gt;Node7 -->
<g id="edge6" class="edge"><title>Node5&#45;&gt;Node7</title>
<path fill="none" stroke="midnightblue" d="M325.671,-280.506C331.46,-247.487 340.603,-195.339 344.989,-170.319"/>
<polygon fill="midnightblue" stroke="midnightblue" points="322.199,-280.042 323.92,-290.496 329.094,-281.25 322.199,-280.042"/>
</g>
<!-- Node7&#45;&gt;Node8 -->
<g id="edge7" class="edge"><title>Node7&#45;&gt;Node8</title>
<path fill="none" stroke="midnightblue" d="M424.095,-137.797C477.247,-125.949 542.92,-109.93 568.5,-98 589.852,-88.0417 589.369,-75.0796 611.5,-67 720.682,-27.1399 1066.58,-18.738 1213,-16.9699"/>
<polygon fill="midnightblue" stroke="midnightblue" points="423.335,-134.381 414.328,-139.959 424.848,-141.215 423.335,-134.381"/>
</g>
<!-- Node9 -->
<g id="node9" class="node"><title>Node9</title>
<g id="a_node9"><a xlink:href="_main_window_8h.html" target="_top" xlink:title="Q:/Documents/GitHub\l/MIDI2LR/Source/MainWindow.h">
<polygon fill="white" stroke="black" points="402,-67.5 402,-97.5 559,-97.5 559,-67.5 402,-67.5"/>
<text text-anchor="start" x="410" y="-85.5" font-family="Helvetica,sans-Serif" font-size="10.00">Q:/Documents/GitHub</text>
<text text-anchor="middle" x="480.5" y="-74.5" font-family="Helvetica,sans-Serif" font-size="10.00">/MIDI2LR/Source/MainWindow.h</text>
</a>
</g>
</g>
<!-- Node7&#45;&gt;Node9 -->
<g id="edge8" class="edge"><title>Node7&#45;&gt;Node9</title>
<path fill="none" stroke="midnightblue" d="M382.937,-135.215C405.248,-123.389 433.575,-108.374 453.951,-97.5729"/>
<polygon fill="midnightblue" stroke="midnightblue" points="381.291,-132.127 374.095,-139.903 384.57,-138.312 381.291,-132.127"/>
</g>
<!-- Node11 -->
<g id="node11" class="node"><title>Node11</title>
<g id="a_node11"><a xlink:href="_main_component_8cpp.html" target="_top" xlink:title="Q:/Documents/GitHub\l/MIDI2LR/Source/MainComponent.cpp">
<polygon fill="white" stroke="black" points="869.5,-67.5 869.5,-97.5 1051.5,-97.5 1051.5,-67.5 869.5,-67.5"/>
<text text-anchor="start" x="877.5" y="-85.5" font-family="Helvetica,sans-Serif" font-size="10.00">Q:/Documents/GitHub</text>
<text text-anchor="middle" x="960.5" y="-74.5" font-family="Helvetica,sans-Serif" font-size="10.00">/MIDI2LR/Source/MainComponent.cpp</text>
</a>
</g>
</g>
<!-- Node7&#45;&gt;Node11 -->
<g id="edge11" class="edge"><title>Node7&#45;&gt;Node11</title>
<path fill="none" stroke="midnightblue" d="M419.192,-138.091C427.365,-136.567 435.596,-135.16 443.5,-134 627.55,-106.982 675.707,-119.356 860.5,-98 863.375,-97.6677 866.296,-97.318 869.243,-96.9545"/>
<polygon fill="midnightblue" stroke="midnightblue" points="418.435,-134.672 409.276,-139.999 419.758,-141.546 418.435,-134.672"/>
</g>
<!-- Node9&#45;&gt;Node8 -->
<g id="edge9" class="edge"><title>Node9&#45;&gt;Node8</title>
<path fill="none" stroke="midnightblue" d="M569.051,-67.5195C570.545,-67.3404 572.029,-67.167 573.5,-67 807.624,-40.4217 1087.11,-25.3266 1212.65,-19.4237"/>
<polygon fill="midnightblue" stroke="midnightblue" points="568.567,-64.0528 559.083,-68.7769 569.443,-70.9978 568.567,-64.0528"/>
</g>
<!-- Node10 -->
<g id="node10" class="node"><title>Node10</title>
<g id="a_node10"><a xlink:href="_main_window_8cpp.html" target="_top" xlink:title="Q:/Documents/GitHub\l/MIDI2LR/Source/MainWindow.cpp">
<polygon fill="white" stroke="black" points="397,-0.5 397,-30.5 564,-30.5 564,-0.5 397,-0.5"/>
<text text-anchor="start" x="405" y="-18.5" font-family="Helvetica,sans-Serif" font-size="10.00">Q:/Documents/GitHub</text>
<text text-anchor="middle" x="480.5" y="-7.5" font-family="Helvetica,sans-Serif" font-size="10.00">/MIDI2LR/Source/MainWindow.cpp</text>
</a>
</g>
</g>
<!-- Node9&#45;&gt;Node10 -->
<g id="edge10" class="edge"><title>Node9&#45;&gt;Node10</title>
<path fill="none" stroke="midnightblue" d="M480.5,-57.1081C480.5,-48.1539 480.5,-38.3227 480.5,-30.5765"/>
<polygon fill="midnightblue" stroke="midnightblue" points="477,-57.3959 480.5,-67.396 484,-57.396 477,-57.3959"/>
</g>
<!-- Node12&#45;&gt;Node7 -->
<g id="edge15" class="edge"><title>Node12&#45;&gt;Node7</title>
<path fill="none" stroke="midnightblue" d="M976.778,-216.162C967.95,-214.59 959.041,-213.153 950.5,-212 726.629,-181.788 667.249,-207.107 443.5,-176 432.202,-174.429 420.242,-172.311 408.741,-170.039"/>
<polygon fill="midnightblue" stroke="midnightblue" points="976.218,-219.618 986.686,-217.987 977.486,-212.734 976.218,-219.618"/>
</g>
<!-- Node12&#45;&gt;Node8 -->
<g id="edge16" class="edge"><title>Node12&#45;&gt;Node8</title>
<path fill="none" stroke="midnightblue" d="M1134.38,-224.182C1198.06,-216.307 1278.06,-201.568 1298.5,-176 1332.98,-132.87 1302.76,-61.0432 1287.29,-30.7103"/>
<polygon fill="midnightblue" stroke="midnightblue" points="1133.82,-220.724 1124.31,-225.388 1134.65,-227.674 1133.82,-220.724"/>
</g>
<!-- Node12&#45;&gt;Node11 -->
<g id="edge17" class="edge"><title>Node12&#45;&gt;Node11</title>
<path fill="none" stroke="midnightblue" d="M1006.69,-213.038C991.337,-204.101 975.66,-191.859 966.5,-176 952.334,-151.474 954.81,-116.951 957.741,-97.7685"/>
<polygon fill="midnightblue" stroke="midnightblue" points="1005.18,-216.202 1015.63,-217.919 1008.53,-210.057 1005.18,-216.202"/>
</g>
<!-- Node13 -->
<g id="node13" class="node"><title>Node13</title>
<g id="a_node13"><a xlink:href="_l_r___i_p_c___in_8cpp.html" target="_top" xlink:title="Q:/Documents/GitHub\l/MIDI2LR/Source/LR_IPC\l_In.cpp">
<polygon fill="white" stroke="black" points="1163.5,-134.5 1163.5,-175.5 1289.5,-175.5 1289.5,-134.5 1163.5,-134.5"/>
<text text-anchor="start" x="1171.5" y="-163.5" font-family="Helvetica,sans-Serif" font-size="10.00">Q:/Documents/GitHub</text>
<text text-anchor="start" x="1171.5" y="-152.5" font-family="Helvetica,sans-Serif" font-size="10.00">/MIDI2LR/Source/LR_IPC</text>
<text text-anchor="middle" x="1226.5" y="-141.5" font-family="Helvetica,sans-Serif" font-size="10.00">_In.cpp</text>
</a>
</g>
</g>
<!-- Node12&#45;&gt;Node13 -->
<g id="edge14" class="edge"><title>Node12&#45;&gt;Node13</title>
<path fill="none" stroke="midnightblue" d="M1092.64,-213.805C1119.3,-202.29 1153.77,-187.408 1181.05,-175.628"/>
<polygon fill="midnightblue" stroke="midnightblue" points="1090.98,-210.705 1083.19,-217.883 1093.76,-217.132 1090.98,-210.705"/>
</g>
<!-- Node14&#45;&gt;Node7 -->
<g id="edge36" class="edge"><title>Node14&#45;&gt;Node7</title>
<path fill="none" stroke="midnightblue" d="M762.105,-366.178C725.921,-358.012 683.974,-346.689 647.5,-332 549.926,-292.704 533.685,-266.144 443.5,-212 419.348,-197.5 391.519,-181.325 372.064,-170.101"/>
<polygon fill="midnightblue" stroke="midnightblue" points="761.629,-369.658 772.149,-368.398 763.14,-362.823 761.629,-369.658"/>
</g>
<!-- Node14&#45;&gt;Node8 -->
<g id="edge38" class="edge"><title>Node14&#45;&gt;Node8</title>
<path fill="none" stroke="midnightblue" d="M857.803,-358.756C866.642,-337.193 882.797,-306.339 907.5,-290 992.334,-233.89 1035.68,-281.866 1133.5,-254 1219.71,-229.441 1269.38,-250.323 1319.5,-176 1346.59,-135.832 1336.7,-112.657 1320.5,-67 1315.52,-52.9513 1304.77,-39.964 1295.53,-30.6785"/>
<polygon fill="midnightblue" stroke="midnightblue" points="854.491,-357.618 854.149,-368.207 861.02,-360.142 854.491,-357.618"/>
</g>
<!-- Node14&#45;&gt;Node15 -->
<g id="edge19" class="edge"><title>Node14&#45;&gt;Node15</title>
<path fill="none" stroke="midnightblue" d="M818.953,-362.922C800.7,-351.224 777.935,-336.634 761.458,-326.073"/>
<polygon fill="midnightblue" stroke="midnightblue" points="817.196,-365.953 827.504,-368.403 820.974,-360.06 817.196,-365.953"/>
</g>
<!-- Node16 -->
<g id="node16" class="node"><title>Node16</title>
<g id="a_node16"><a xlink:href="_settings_manager_8h.html" target="_top" xlink:title="Q:/Documents/GitHub\l/MIDI2LR/Source/SettingsManager.h">
<polygon fill="white" stroke="black" points="766,-218 766,-248 941,-248 941,-218 766,-218"/>
<text text-anchor="start" x="774" y="-236" font-family="Helvetica,sans-Serif" font-size="10.00">Q:/Documents/GitHub</text>
<text text-anchor="middle" x="853.5" y="-225" font-family="Helvetica,sans-Serif" font-size="10.00">/MIDI2LR/Source/SettingsManager.h</text>
</a>
</g>
</g>
<!-- Node14&#45;&gt;Node16 -->
<g id="edge37" class="edge"><title>Node14&#45;&gt;Node16</title>
<path fill="none" stroke="midnightblue" d="M850.154,-358.224C850.994,-327.028 852.426,-273.867 853.112,-248.414"/>
<polygon fill="midnightblue" stroke="midnightblue" points="846.654,-358.171 849.884,-368.261 853.652,-358.359 846.654,-358.171"/>
</g>
<!-- Node14&#45;&gt;Node23 -->
<g id="edge35" class="edge"><title>Node14&#45;&gt;Node23</title>
<path fill="none" stroke="midnightblue" d="M884.586,-363.473C902.743,-353.626 924.882,-341.62 943.211,-331.68"/>
<polygon fill="midnightblue" stroke="midnightblue" points="882.617,-360.559 875.495,-368.403 885.954,-366.712 882.617,-360.559"/>
</g>
<!-- Node15&#45;&gt;Node7 -->
<g id="edge21" class="edge"><title>Node15&#45;&gt;Node7</title>
<path fill="none" stroke="midnightblue" d="M741.515,-285.79C741.942,-263.294 738.616,-230.551 718.5,-212 673.192,-170.218 504.267,-186.292 443.5,-176 433.093,-174.237 422.096,-172.155 411.405,-170.012"/>
<polygon fill="midnightblue" stroke="midnightblue" points="738.013,-285.757 741.061,-295.904 745.006,-286.071 738.013,-285.757"/>
</g>
<!-- Node15&#45;&gt;Node12 -->
<g id="edge20" class="edge"><title>Node15&#45;&gt;Node12</title>
<path fill="none" stroke="midnightblue" d="M806.668,-293.586C862.284,-279.995 940.456,-260.892 993.167,-248.011"/>
<polygon fill="midnightblue" stroke="midnightblue" points="805.788,-290.198 796.905,-295.972 807.45,-296.998 805.788,-290.198"/>
</g>
<!-- Node15&#45;&gt;Node16 -->
<g id="edge22" class="edge"><title>Node15&#45;&gt;Node16</title>
<path fill="none" stroke="midnightblue" d="M769.066,-290.289C788.932,-277.046 814.635,-259.91 832.438,-248.041"/>
<polygon fill="midnightblue" stroke="midnightblue" points="767.054,-287.424 760.675,-295.883 770.937,-293.248 767.054,-287.424"/>
</g>
<!-- Node21 -->
<g id="node21" class="node"><title>Node21</title>
<g id="a_node21"><a xlink:href="_settings_manager_8cpp.html" target="_top" xlink:title="Q:/Documents/GitHub\l/MIDI2LR/Source/SettingsManager.cpp">
<polygon fill="white" stroke="black" points="452,-140 452,-170 637,-170 637,-140 452,-140"/>
<text text-anchor="start" x="460" y="-158" font-family="Helvetica,sans-Serif" font-size="10.00">Q:/Documents/GitHub</text>
<text text-anchor="middle" x="544.5" y="-147" font-family="Helvetica,sans-Serif" font-size="10.00">/MIDI2LR/Source/SettingsManager.cpp</text>
</a>
</g>
</g>
<!-- Node15&#45;&gt;Node21 -->
<g id="edge34" class="edge"><title>Node15&#45;&gt;Node21</title>
<path fill="none" stroke="midnightblue" d="M646.301,-297.187C595.501,-288.087 539.897,-273.921 524.5,-254 505.386,-229.269 523.039,-190.867 535.205,-170.244"/>
<polygon fill="midnightblue" stroke="midnightblue" points="645.931,-300.676 656.383,-298.94 647.13,-293.779 645.931,-300.676"/>
</g>
<!-- Node22 -->
<g id="node22" class="node"><title>Node22</title>
<g id="a_node22"><a xlink:href="_profile_manager_8cpp.html" target="_top" xlink:title="Q:/Documents/GitHub\l/MIDI2LR/Source/ProfileManager.cpp">
<polygon fill="white" stroke="black" points="533.5,-218 533.5,-248 709.5,-248 709.5,-218 533.5,-218"/>
<text text-anchor="start" x="541.5" y="-236" font-family="Helvetica,sans-Serif" font-size="10.00">Q:/Documents/GitHub</text>
<text text-anchor="middle" x="621.5" y="-225" font-family="Helvetica,sans-Serif" font-size="10.00">/MIDI2LR/Source/ProfileManager.cpp</text>
</a>
</g>
</g>
<!-- Node15&#45;&gt;Node22 -->
<g id="edge33" class="edge"><title>Node15&#45;&gt;Node22</title>
<path fill="none" stroke="midnightblue" d="M709.172,-290.467C688.573,-277.199 661.812,-259.963 643.301,-248.041"/>
<polygon fill="midnightblue" stroke="midnightblue" points="707.279,-293.411 717.582,-295.883 711.07,-287.526 707.279,-293.411"/>
</g>
<!-- Node16&#45;&gt;Node7 -->
<g id="edge23" class="edge"><title>Node16&#45;&gt;Node7</title>
<path fill="none" stroke="midnightblue" d="M775.884,-216.135C767.667,-214.648 759.422,-213.238 751.5,-212 615.331,-190.725 579.541,-198.076 443.5,-176 432.913,-174.282 421.723,-172.198 410.868,-170.033"/>
<polygon fill="midnightblue" stroke="midnightblue" points="775.4,-219.604 785.87,-217.978 776.671,-212.721 775.4,-219.604"/>
</g>
<!-- Node16&#45;&gt;Node8 -->
<g id="edge28" class="edge"><title>Node16&#45;&gt;Node8</title>
<path fill="none" stroke="midnightblue" d="M800.328,-214.347C775.819,-204.923 747.019,-191.955 723.5,-176 723.421,-175.946 645.537,-98.0885 645.5,-98 640.227,-85.271 636.152,-77.1218 645.5,-67 683.425,-25.9341 1058.05,-18.2376 1212.97,-16.8142"/>
<polygon fill="midnightblue" stroke="midnightblue" points="799.247,-217.679 809.84,-217.911 801.704,-211.124 799.247,-217.679"/>
</g>
<!-- Node16&#45;&gt;Node9 -->
<g id="edge27" class="edge"><title>Node16&#45;&gt;Node9</title>
<path fill="none" stroke="midnightblue" d="M781.873,-215.063C751.971,-206.127 717.706,-193.345 689.5,-176 666.744,-162.006 669.489,-147.608 646.5,-134 617.985,-117.121 583.327,-105.423 553.069,-97.5709"/>
<polygon fill="midnightblue" stroke="midnightblue" points="781.252,-218.527 791.831,-217.947 783.199,-211.803 781.252,-218.527"/>
</g>
<!-- Node17 -->
<g id="node17" class="node"><title>Node17</title>
<g id="a_node17"><a xlink:href="_version_checker_8h.html" target="_top" xlink:title="Q:/Documents/GitHub\l/MIDI2LR/Source/VersionChecker.h">
<polygon fill="white" stroke="black" points="975.5,-140 975.5,-170 1145.5,-170 1145.5,-140 975.5,-140"/>
<text text-anchor="start" x="983.5" y="-158" font-family="Helvetica,sans-Serif" font-size="10.00">Q:/Documents/GitHub</text>
<text text-anchor="middle" x="1060.5" y="-147" font-family="Helvetica,sans-Serif" font-size="10.00">/MIDI2LR/Source/VersionChecker.h</text>
</a>
</g>
</g>
<!-- Node16&#45;&gt;Node17 -->
<g id="edge24" class="edge"><title>Node16&#45;&gt;Node17</title>
<path fill="none" stroke="midnightblue" d="M901.459,-214.392C938.193,-200.905 988.189,-182.549 1022.26,-170.041"/>
<polygon fill="midnightblue" stroke="midnightblue" points="900.131,-211.151 891.95,-217.883 902.544,-217.722 900.131,-211.151"/>
</g>
<!-- Node19 -->
<g id="node19" class="node"><title>Node19</title>
<g id="a_node19"><a xlink:href="_settings_component_8h.html" target="_top" xlink:title="Q:/Documents/GitHub\l/MIDI2LR/Source/SettingsComponent.h">
<polygon fill="white" stroke="black" points="732,-140 732,-170 919,-170 919,-140 732,-140"/>
<text text-anchor="start" x="740" y="-158" font-family="Helvetica,sans-Serif" font-size="10.00">Q:/Documents/GitHub</text>
<text text-anchor="middle" x="825.5" y="-147" font-family="Helvetica,sans-Serif" font-size="10.00">/MIDI2LR/Source/SettingsComponent.h</text>
</a>
</g>
</g>
<!-- Node16&#45;&gt;Node19 -->
<g id="edge29" class="edge"><title>Node16&#45;&gt;Node19</title>
<path fill="none" stroke="midnightblue" d="M844.644,-207.963C840.071,-195.551 834.648,-180.83 830.743,-170.231"/>
<polygon fill="midnightblue" stroke="midnightblue" points="841.492,-209.532 848.233,-217.705 848.061,-207.112 841.492,-209.532"/>
</g>
<!-- Node16&#45;&gt;Node21 -->
<g id="edge32" class="edge"><title>Node16&#45;&gt;Node21</title>
<path fill="none" stroke="midnightblue" d="M786.42,-215.501C731.184,-201.916 653.728,-182.865 601.464,-170.011"/>
<polygon fill="midnightblue" stroke="midnightblue" points="785.918,-218.982 796.465,-217.972 787.59,-212.185 785.918,-218.982"/>
</g>
<!-- Node17&#45;&gt;Node8 -->
<g id="edge25" class="edge"><title>Node17&#45;&gt;Node8</title>
<path fill="none" stroke="midnightblue" d="M1132.54,-137.604C1186.05,-124.803 1251.29,-107.626 1260.5,-98 1277.98,-79.7357 1280.47,-48.6485 1280.28,-30.6071"/>
<polygon fill="midnightblue" stroke="midnightblue" points="1131.63,-134.224 1122.71,-139.94 1133.25,-141.035 1131.63,-134.224"/>
</g>
<!-- Node18 -->
<g id="node18" class="node"><title>Node18</title>
<g id="a_node18"><a xlink:href="_version_checker_8cpp.html" target="_top" xlink:title="Q:/Documents/GitHub\l/MIDI2LR/Source/VersionChecker.cpp">
<polygon fill="white" stroke="black" points="1070,-67.5 1070,-97.5 1251,-97.5 1251,-67.5 1070,-67.5"/>
<text text-anchor="start" x="1078" y="-85.5" font-family="Helvetica,sans-Serif" font-size="10.00">Q:/Documents/GitHub</text>
<text text-anchor="middle" x="1160.5" y="-74.5" font-family="Helvetica,sans-Serif" font-size="10.00">/MIDI2LR/Source/VersionChecker.cpp</text>
</a>
</g>
</g>
<!-- Node17&#45;&gt;Node18 -->
<g id="edge26" class="edge"><title>Node17&#45;&gt;Node18</title>
<path fill="none" stroke="midnightblue" d="M1088.97,-133.931C1105.48,-122.292 1125.86,-107.924 1140.63,-97.5049"/>
<polygon fill="midnightblue" stroke="midnightblue" points="1086.89,-131.111 1080.74,-139.733 1090.93,-136.832 1086.89,-131.111"/>
</g>
<!-- Node19&#45;&gt;Node11 -->
<g id="edge30" class="edge"><title>Node19&#45;&gt;Node11</title>
<path fill="none" stroke="midnightblue" d="M861.47,-135.215C884.117,-123.389 912.87,-108.374 933.552,-97.5729"/>
<polygon fill="midnightblue" stroke="midnightblue" points="859.739,-132.171 852.495,-139.903 862.979,-138.376 859.739,-132.171"/>
</g>
<!-- Node20 -->
<g id="node20" class="node"><title>Node20</title>
<g id="a_node20"><a xlink:href="_settings_component_8cpp.html" target="_top" xlink:title="Q:/Documents/GitHub\l/MIDI2LR/Source/SettingsComponent.cpp">
<polygon fill="white" stroke="black" points="654,-67.5 654,-97.5 851,-97.5 851,-67.5 654,-67.5"/>
<text text-anchor="start" x="662" y="-85.5" font-family="Helvetica,sans-Serif" font-size="10.00">Q:/Documents/GitHub</text>
<text text-anchor="middle" x="752.5" y="-74.5" font-family="Helvetica,sans-Serif" font-size="10.00">/MIDI2LR/Source/SettingsComponent.cpp</text>
</a>
</g>
</g>
<!-- Node19&#45;&gt;Node20 -->
<g id="edge31" class="edge"><title>Node19&#45;&gt;Node20</title>
<path fill="none" stroke="midnightblue" d="M803.432,-132.688C791.716,-121.373 777.635,-107.774 767.251,-97.7455"/>
<polygon fill="midnightblue" stroke="midnightblue" points="801.103,-135.304 810.727,-139.733 805.966,-130.269 801.103,-135.304"/>
</g>
</g>
</svg>
