<?xml version="1.0" encoding="UTF-8" standalone="no"?>
<!DOCTYPE svg PUBLIC "-//W3C//DTD SVG 1.1//EN"
 "http://www.w3.org/Graphics/SVG/1.1/DTD/svg11.dtd">
<!-- Generated by graphviz version 2.38.0 (20140413.2041)
 -->
<!-- Title: Q:/Documents/GitHub/MIDI2LR/Source/CommandTable.h Pages: 1 -->
<!--zoomable 240 -->
<svg id="main" version="1.1" xmlns="http://www.w3.org/2000/svg" xmlns:xlink="http://www.w3.org/1999/xlink" xml:space="preserve" onload="init(evt)">
<style type="text/css"><![CDATA[
.edge:hover path { stroke: red; }
.edge:hover polygon { stroke: red; fill: red; }
]]></style>
<script type="text/javascript"><![CDATA[
var edges = document.getElementsByTagName('g');
if (edges && edges.length) {
  for (var i=0;i<edges.length;i++) {
    if (edges[i].id.substr(0,4)=='edge') {
      edges[i].setAttribute('class','edge');
    }
  }
}
]]></script>
        <defs>
                <circle id="rim" cx="0" cy="0" r="7"/>
                <circle id="rim2" cx="0" cy="0" r="3.5"/>
                <g id="zoomPlus">
                        <use xlink:href="#rim" fill="#404040">
                                <set attributeName="fill" to="#808080" begin="zoomplus.mouseover" end="zoomplus.mouseout"/>
                        </use>
                        <path d="M-4,0h8M0,-4v8" fill="none" stroke="white" stroke-width="1.5" pointer-events="none"/>
                </g>
                <g id="zoomMin">
                        <use xlink:href="#rim" fill="#404040">
                                <set attributeName="fill" to="#808080" begin="zoomminus.mouseover" end="zoomminus.mouseout"/>
                        </use>
                        <path d="M-4,0h8" fill="none" stroke="white" stroke-width="1.5" pointer-events="none"/>
                </g>
                <g id="dirArrow">
                        <path fill="none" stroke="white" stroke-width="1.5" d="M0,-3.0v7 M-2.5,-0.5L0,-3.0L2.5,-0.5"/>
                </g>
               <g id="resetDef">
                       <use xlink:href="#rim2" fill="#404040">
                               <set attributeName="fill" to="#808080" begin="reset.mouseover" end="reset.mouseout"/>
                       </use>
               </g>
        </defs>

<script type="text/javascript">
var viewWidth = 571;
var viewHeight = 240;
var sectionId = 'dynsection-1';
</script>
<script xlink:href="svgpan.js"/>
<svg id="graph" class="graph">
<g id="viewport">
<title>Q:/Documents/GitHub/MIDI2LR/Source/CommandTable.h</title>
<polygon fill="white" stroke="none" points="-4,4 -4,-236 566.5,-236 566.5,4 -4,4"/>
<!-- Node1 -->
<g id="node1" class="node"><title>Node1</title>
<polygon fill="#bfbfbf" stroke="black" points="102,-201.5 102,-231.5 271,-231.5 271,-201.5 102,-201.5"/>
<text text-anchor="start" x="110" y="-219.5" font-family="Helvetica,sans-Serif" font-size="10.00">Q:/Documents/GitHub</text>
<text text-anchor="middle" x="186.5" y="-208.5" font-family="Helvetica,sans-Serif" font-size="10.00">/MIDI2LR/Source/CommandTable.h</text>
</g>
<!-- Node2 -->
<g id="node2" class="node"><title>Node2</title>
<g id="a_node2"><a xlink:href="_command_table_8cpp.html" target="_top" xlink:title="Q:/Documents/GitHub\l/MIDI2LR/Source/CommandTable.cpp">
<polygon fill="white" stroke="black" points="0,-134.5 0,-164.5 179,-164.5 179,-134.5 0,-134.5"/>
<text text-anchor="start" x="8" y="-152.5" font-family="Helvetica,sans-Serif" font-size="10.00">Q:/Documents/GitHub</text>
<text text-anchor="middle" x="89.5" y="-141.5" font-family="Helvetica,sans-Serif" font-size="10.00">/MIDI2LR/Source/CommandTable.cpp</text>
</a>
</g>
</g>
<!-- Node1&#45;&gt;Node2 -->
<g id="edge1" class="edge"><title>Node1&#45;&gt;Node2</title>
<path fill="none" stroke="midnightblue" d="M157.003,-195.734C141.993,-185.676 124.099,-173.685 110.506,-164.577"/>
<polygon fill="midnightblue" stroke="midnightblue" points="155.197,-198.737 165.452,-201.396 159.094,-192.922 155.197,-198.737"/>
</g>
<!-- Node3 -->
<g id="node3" class="node"><title>Node3</title>
<g id="a_node3"><a xlink:href="_main_component_8h.html" target="_top" xlink:title="Q:/Documents/GitHub\l/MIDI2LR/Source/MainComponent.h">
<polygon fill="white" stroke="black" points="197.5,-134.5 197.5,-164.5 369.5,-164.5 369.5,-134.5 197.5,-134.5"/>
<text text-anchor="start" x="205.5" y="-152.5" font-family="Helvetica,sans-Serif" font-size="10.00">Q:/Documents/GitHub</text>
<text text-anchor="middle" x="283.5" y="-141.5" font-family="Helvetica,sans-Serif" font-size="10.00">/MIDI2LR/Source/MainComponent.h</text>
</a>
</g>
</g>
<!-- Node1&#45;&gt;Node3 -->
<g id="edge2" class="edge"><title>Node1&#45;&gt;Node3</title>
<path fill="none" stroke="midnightblue" d="M215.997,-195.734C231.007,-185.676 248.901,-173.685 262.494,-164.577"/>
<polygon fill="midnightblue" stroke="midnightblue" points="213.906,-192.922 207.548,-201.396 217.803,-198.737 213.906,-192.922"/>
</g>
<!-- Node4 -->
<g id="node4" class="node"><title>Node4</title>
<g id="a_node4"><a xlink:href="_main_8cpp.html" target="_top" xlink:title="Q:/Documents/GitHub\l/MIDI2LR/Source/Main.cpp">
<polygon fill="white" stroke="black" points="110,-0.5 110,-30.5 243,-30.5 243,-0.5 110,-0.5"/>
<text text-anchor="start" x="118" y="-18.5" font-family="Helvetica,sans-Serif" font-size="10.00">Q:/Documents/GitHub</text>
<text text-anchor="middle" x="176.5" y="-7.5" font-family="Helvetica,sans-Serif" font-size="10.00">/MIDI2LR/Source/Main.cpp</text>
</a>
</g>
</g>
<!-- Node3&#45;&gt;Node4 -->
<g id="edge3" class="edge"><title>Node3&#45;&gt;Node4</title>
<path fill="none" stroke="midnightblue" d="M235.198,-129.895C220.508,-122.077 205.597,-111.578 195.5,-98 180.588,-77.9476 177.137,-48.0502 176.478,-30.589"/>
<polygon fill="midnightblue" stroke="midnightblue" points="233.76,-133.089 244.271,-134.421 236.884,-126.825 233.76,-133.089"/>
</g>
<!-- Node5 -->
<g id="node5" class="node"><title>Node5</title>
<g id="a_node5"><a xlink:href="_main_window_8h.html" target="_top" xlink:title="Q:/Documents/GitHub\l/MIDI2LR/Source/MainWindow.h">
<polygon fill="white" stroke="black" points="205,-67.5 205,-97.5 362,-97.5 362,-67.5 205,-67.5"/>
<text text-anchor="start" x="213" y="-85.5" font-family="Helvetica,sans-Serif" font-size="10.00">Q:/Documents/GitHub</text>
<text text-anchor="middle" x="283.5" y="-74.5" font-family="Helvetica,sans-Serif" font-size="10.00">/MIDI2LR/Source/MainWindow.h</text>
</a>
</g>
</g>
<!-- Node3&#45;&gt;Node5 -->
<g id="edge4" class="edge"><title>Node3&#45;&gt;Node5</title>
<path fill="none" stroke="midnightblue" d="M283.5,-124.108C283.5,-115.154 283.5,-105.323 283.5,-97.5765"/>
<polygon fill="midnightblue" stroke="midnightblue" points="280,-124.396 283.5,-134.396 287,-124.396 280,-124.396"/>
</g>
<!-- Node7 -->
<g id="node7" class="node"><title>Node7</title>
<g id="a_node7"><a xlink:href="_main_component_8cpp.html" target="_top" xlink:title="Q:/Documents/GitHub\l/MIDI2LR/Source/MainComponent.cpp">
<polygon fill="white" stroke="black" points="380.5,-67.5 380.5,-97.5 562.5,-97.5 562.5,-67.5 380.5,-67.5"/>
<text text-anchor="start" x="388.5" y="-85.5" font-family="Helvetica,sans-Serif" font-size="10.00">Q:/Documents/GitHub</text>
<text text-anchor="middle" x="471.5" y="-74.5" font-family="Helvetica,sans-Serif" font-size="10.00">/MIDI2LR/Source/MainComponent.cpp</text>
</a>
</g>
</g>
<!-- Node3&#45;&gt;Node7 -->
<g id="edge7" class="edge"><title>Node3&#45;&gt;Node7</title>
<path fill="none" stroke="midnightblue" d="M333.85,-131.092C364.199,-120.599 402.35,-107.408 430.786,-97.5765"/>
<polygon fill="midnightblue" stroke="midnightblue" points="332.601,-127.82 324.293,-134.396 334.888,-134.436 332.601,-127.82"/>
</g>
<!-- Node5&#45;&gt;Node4 -->
<g id="edge5" class="edge"><title>Node5&#45;&gt;Node4</title>
<path fill="none" stroke="midnightblue" d="M251.425,-62.0151C234.774,-51.8999 214.806,-39.7698 199.672,-30.5765"/>
<polygon fill="midnightblue" stroke="midnightblue" points="249.919,-65.1954 260.283,-67.396 253.553,-59.2127 249.919,-65.1954"/>
</g>
<!-- Node6 -->
<g id="node6" class="node"><title>Node6</title>
<g id="a_node6"><a xlink:href="_main_window_8cpp.html" target="_top" xlink:title="Q:/Documents/GitHub\l/MIDI2LR/Source/MainWindow.cpp">
<polygon fill="white" stroke="black" points="261,-0.5 261,-30.5 428,-30.5 428,-0.5 261,-0.5"/>
<text text-anchor="start" x="269" y="-18.5" font-family="Helvetica,sans-Serif" font-size="10.00">Q:/Documents/GitHub</text>
<text text-anchor="middle" x="344.5" y="-7.5" font-family="Helvetica,sans-Serif" font-size="10.00">/MIDI2LR/Source/MainWindow.cpp</text>
</a>
</g>
</g>
<!-- Node5&#45;&gt;Node6 -->
<g id="edge6" class="edge"><title>Node5&#45;&gt;Node6</title>
<path fill="none" stroke="midnightblue" d="M303.654,-60.0243C312.743,-50.3398 323.221,-39.1739 331.29,-30.5765"/>
<polygon fill="midnightblue" stroke="midnightblue" points="301.027,-57.709 296.736,-67.396 306.131,-62.4992 301.027,-57.709"/>
</g>
</g>
</svg>
        <g id="navigator" transform="translate(0 0)" fill="#404254">
                <rect fill="#f2f5e9" fill-opacity="0.5" stroke="#606060" stroke-width=".5" x="0" y="0" width="60" height="60"/>
                <use id="zoomplus" xlink:href="#zoomPlus" x="17" y="9" onmousedown="handleZoom(evt,'in')"/>
                <use id="zoomminus" xlink:href="#zoomMin" x="42" y="9" onmousedown="handleZoom(evt,'out')"/>
                <use id="reset" xlink:href="#resetDef" x="30" y="36" onmousedown="handleReset()"/>
                <g id="arrowUp" xlink:href="#dirArrow" transform="translate(30 24)" onmousedown="handlePan(0,-1)">
                  <use xlink:href="#rim" fill="#404040">
                        <set attributeName="fill" to="#808080" begin="arrowUp.mouseover" end="arrowUp.mouseout"/>
                  </use>
                  <path fill="none" stroke="white" stroke-width="1.5" d="M0,-3.0v7 M-2.5,-0.5L0,-3.0L2.5,-0.5"/>
                </g>
                <g id="arrowRight" xlink:href="#dirArrow" transform="rotate(90) translate(36 -43)" onmousedown="handlePan(1,0)">
                  <use xlink:href="#rim" fill="#404040">
                        <set attributeName="fill" to="#808080" begin="arrowRight.mouseover" end="arrowRight.mouseout"/>
                  </use>
                  <path fill="none" stroke="white" stroke-width="1.5" d="M0,-3.0v7 M-2.5,-0.5L0,-3.0L2.5,-0.5"/>
                </g>
                <g id="arrowDown" xlink:href="#dirArrow" transform="rotate(180) translate(-30 -48)" onmousedown="handlePan(0,1)">
                  <use xlink:href="#rim" fill="#404040">
                        <set attributeName="fill" to="#808080" begin="arrowDown.mouseover" end="arrowDown.mouseout"/>
                  </use>
                  <path fill="none" stroke="white" stroke-width="1.5" d="M0,-3.0v7 M-2.5,-0.5L0,-3.0L2.5,-0.5"/>
                </g>
                <g id="arrowLeft" xlink:href="#dirArrow" transform="rotate(270) translate(-36 17)" onmousedown="handlePan(-1,0)">
                  <use xlink:href="#rim" fill="#404040">
                        <set attributeName="fill" to="#808080" begin="arrowLeft.mouseover" end="arrowLeft.mouseout"/>
                  </use>
                  <path fill="none" stroke="white" stroke-width="1.5" d="M0,-3.0v7 M-2.5,-0.5L0,-3.0L2.5,-0.5"/>
                </g>
        </g>
        <svg viewBox="0 0 15 15" width="100%" height="30px" preserveAspectRatio="xMaxYMin meet">
         <g id="arrow_out" transform="scale(0.3 0.3)">
          <a xlink:href="_command_table_8h__dep__incl_org.svg" target="_base">
           <rect id="button" ry="5" rx="5" y="6" x="6" height="38" width="38"
                fill="#f2f5e9" fill-opacity="0.5" stroke="#606060" stroke-width="1.0"/>
           <path id="arrow"
             d="M 11.500037,31.436501 C 11.940474,20.09759 22.043105,11.32322 32.158766,21.979434 L 37.068811,17.246167 C 37.068811,17.246167 37.088388,32 37.088388,32 L 22.160133,31.978069 C 22.160133,31.978069 26.997745,27.140456 26.997745,27.140456 C 18.528582,18.264221 13.291696,25.230495 11.500037,31.436501 z"
             style="fill:#404040;"/>
          </a>
         </g>
        </svg>
</svg>
