<?xml version="1.0" encoding="UTF-8" standalone="no"?>
<!DOCTYPE svg PUBLIC "-//W3C//DTD SVG 1.1//EN"
 "http://www.w3.org/Graphics/SVG/1.1/DTD/svg11.dtd">
<!-- Generated by graphviz version 2.38.0 (20140413.2041)
 -->
<!-- Title: Q:/Documents/GitHub/MIDI2LR/Source/CommandMenu.cpp Pages: 1 -->
<svg width="406pt" height="274pt"
 viewBox="0.00 0.00 405.50 274.00" xmlns="http://www.w3.org/2000/svg" xmlns:xlink="http://www.w3.org/1999/xlink">
<g id="graph0" class="graph" transform="scale(1 1) rotate(0) translate(4 270)">
<title>Q:/Documents/GitHub/MIDI2LR/Source/CommandMenu.cpp</title>
<polygon fill="white" stroke="none" points="-4,4 -4,-270 401.5,-270 401.5,4 -4,4"/>
<!-- Node1 -->
<g id="node1" class="node"><title>Node1</title>
<polygon fill="#bfbfbf" stroke="black" points="150.5,-235.5 150.5,-265.5 330.5,-265.5 330.5,-235.5 150.5,-235.5"/>
<text text-anchor="start" x="158.5" y="-253.5" font-family="Helvetica,sans-Serif" font-size="10.00">Q:/Documents/GitHub</text>
<text text-anchor="middle" x="240.5" y="-242.5" font-family="Helvetica,sans-Serif" font-size="10.00">/MIDI2LR/Source/CommandMenu.cpp</text>
</g>
<!-- Node2 -->
<g id="node2" class="node"><title>Node2</title>
<polygon fill="white" stroke="#bfbfbf" points="135.5,-179.5 135.5,-198.5 175.5,-198.5 175.5,-179.5 135.5,-179.5"/>
<text text-anchor="middle" x="155.5" y="-186.5" font-family="Helvetica,sans-Serif" font-size="10.00">limits</text>
</g>
<!-- Node1&#45;&gt;Node2 -->
<g id="edge1" class="edge"><title>Node1&#45;&gt;Node2</title>
<path fill="none" stroke="midnightblue" d="M220.356,-235.399C207.113,-226.129 189.822,-214.025 176.424,-204.647"/>
<polygon fill="midnightblue" stroke="midnightblue" points="178.068,-201.525 167.868,-198.658 174.053,-207.26 178.068,-201.525"/>
</g>
<!-- Node3 -->
<g id="node3" class="node"><title>Node3</title>
<g id="a_node3"><a xlink:href="_command_menu_8h.html" target="_top" xlink:title="CommandMenu.h">
<polygon fill="white" stroke="black" points="194,-179.5 194,-198.5 287,-198.5 287,-179.5 194,-179.5"/>
<text text-anchor="middle" x="240.5" y="-186.5" font-family="Helvetica,sans-Serif" font-size="10.00">CommandMenu.h</text>
</a>
</g>
</g>
<!-- Node1&#45;&gt;Node3 -->
<g id="edge2" class="edge"><title>Node1&#45;&gt;Node3</title>
<path fill="none" stroke="midnightblue" d="M240.5,-235.399C240.5,-227.466 240.5,-217.458 240.5,-208.858"/>
<polygon fill="midnightblue" stroke="midnightblue" points="244,-208.658 240.5,-198.658 237,-208.658 244,-208.658"/>
</g>
<!-- Node11 -->
<g id="node11" class="node"><title>Node11</title>
<g id="a_node11"><a xlink:href="_l_r_commands_8h.html" target="_top" xlink:title="LRCommands.h">
<polygon fill="white" stroke="black" points="311.5,-123.5 311.5,-142.5 397.5,-142.5 397.5,-123.5 311.5,-123.5"/>
<text text-anchor="middle" x="354.5" y="-130.5" font-family="Helvetica,sans-Serif" font-size="10.00">LRCommands.h</text>
</a>
</g>
</g>
<!-- Node1&#45;&gt;Node11 -->
<g id="edge12" class="edge"><title>Node1&#45;&gt;Node11</title>
<path fill="none" stroke="midnightblue" d="M256.744,-235.289C267.89,-225.369 282.887,-211.686 295.5,-199 311.367,-183.042 328.558,-163.869 340.268,-150.498"/>
<polygon fill="midnightblue" stroke="midnightblue" points="343.179,-152.483 347.102,-142.641 337.898,-147.889 343.179,-152.483"/>
</g>
<!-- Node4 -->
<g id="node4" class="node"><title>Node4</title>
<polygon fill="white" stroke="#bfbfbf" points="241.5,-123.5 241.5,-142.5 293.5,-142.5 293.5,-123.5 241.5,-123.5"/>
<text text-anchor="middle" x="267.5" y="-130.5" font-family="Helvetica,sans-Serif" font-size="10.00">memory</text>
</g>
<!-- Node3&#45;&gt;Node4 -->
<g id="edge3" class="edge"><title>Node3&#45;&gt;Node4</title>
<path fill="none" stroke="midnightblue" d="M244.959,-179.083C248.654,-171.691 254.023,-160.953 258.594,-151.811"/>
<polygon fill="midnightblue" stroke="midnightblue" points="261.783,-153.261 263.124,-142.751 255.522,-150.13 261.783,-153.261"/>
</g>
<!-- Node5 -->
<g id="node5" class="node"><title>Node5</title>
<polygon fill="white" stroke="#bfbfbf" points="211.5,-56.5 211.5,-86.5 309.5,-86.5 309.5,-56.5 211.5,-56.5"/>
<text text-anchor="start" x="219.5" y="-74.5" font-family="Helvetica,sans-Serif" font-size="10.00">../JuceLibraryCode</text>
<text text-anchor="middle" x="260.5" y="-63.5" font-family="Helvetica,sans-Serif" font-size="10.00">/JuceHeader.h</text>
</g>
<!-- Node3&#45;&gt;Node5 -->
<g id="edge4" class="edge"><title>Node3&#45;&gt;Node5</title>
<path fill="none" stroke="midnightblue" d="M237.448,-179.454C233.412,-166.899 227.375,-142.814 232.5,-123 234.981,-113.41 239.718,-103.699 244.6,-95.3901"/>
<polygon fill="midnightblue" stroke="midnightblue" points="247.712,-97.0162 250.061,-86.6852 241.782,-93.2961 247.712,-97.0162"/>
</g>
<!-- Node6 -->
<g id="node6" class="node"><title>Node6</title>
<g id="a_node6"><a xlink:href="_command_map_8h.html" target="_top" xlink:title="CommandMap.h">
<polygon fill="white" stroke="black" points="97.5,-123.5 97.5,-142.5 185.5,-142.5 185.5,-123.5 97.5,-123.5"/>
<text text-anchor="middle" x="141.5" y="-130.5" font-family="Helvetica,sans-Serif" font-size="10.00">CommandMap.h</text>
</a>
</g>
</g>
<!-- Node3&#45;&gt;Node6 -->
<g id="edge5" class="edge"><title>Node3&#45;&gt;Node6</title>
<path fill="none" stroke="midnightblue" d="M224.594,-179.324C208.862,-170.743 184.558,-157.486 166.291,-147.522"/>
<polygon fill="midnightblue" stroke="midnightblue" points="167.822,-144.37 157.367,-142.655 164.47,-150.516 167.822,-144.37"/>
</g>
<!-- Node6&#45;&gt;Node5 -->
<g id="edge6" class="edge"><title>Node6&#45;&gt;Node5</title>
<path fill="none" stroke="midnightblue" d="M158.55,-123.475C175.42,-115.04 201.79,-101.855 223.484,-91.008"/>
<polygon fill="midnightblue" stroke="midnightblue" points="225.075,-94.1257 232.454,-86.523 221.945,-87.8647 225.075,-94.1257"/>
</g>
<!-- Node7 -->
<g id="node7" class="node"><title>Node7</title>
<polygon fill="white" stroke="#bfbfbf" points="0,-62 0,-81 83,-81 83,-62 0,-62"/>
<text text-anchor="middle" x="41.5" y="-69" font-family="Helvetica,sans-Serif" font-size="10.00">unordered_map</text>
</g>
<!-- Node6&#45;&gt;Node7 -->
<g id="edge7" class="edge"><title>Node6&#45;&gt;Node7</title>
<path fill="none" stroke="midnightblue" d="M127.172,-123.475C110.836,-113.755 83.8976,-97.7266 64.5877,-86.2372"/>
<polygon fill="midnightblue" stroke="midnightblue" points="66.1845,-83.1146 55.801,-81.0091 62.6051,-89.1303 66.1845,-83.1146"/>
</g>
<!-- Node8 -->
<g id="node8" class="node"><title>Node8</title>
<g id="a_node8"><a xlink:href="_subject_8h.html" target="_top" xlink:title="Pattern/Subject.h">
<polygon fill="white" stroke="black" points="101.5,-62 101.5,-81 193.5,-81 193.5,-62 101.5,-62"/>
<text text-anchor="middle" x="147.5" y="-69" font-family="Helvetica,sans-Serif" font-size="10.00">Pattern/Subject.h</text>
</a>
</g>
</g>
<!-- Node6&#45;&gt;Node8 -->
<g id="edge8" class="edge"><title>Node6&#45;&gt;Node8</title>
<path fill="none" stroke="midnightblue" d="M142.36,-123.475C143.206,-115.08 144.527,-101.981 145.618,-91.1631"/>
<polygon fill="midnightblue" stroke="midnightblue" points="149.121,-91.3098 146.642,-81.0091 142.156,-90.6074 149.121,-91.3098"/>
</g>
<!-- Node9 -->
<g id="node9" class="node"><title>Node9</title>
<g id="a_node9"><a xlink:href="_observer_8h.html" target="_top" xlink:title="Observer.h">
<polygon fill="white" stroke="black" points="116,-0.5 116,-19.5 179,-19.5 179,-0.5 116,-0.5"/>
<text text-anchor="middle" x="147.5" y="-7.5" font-family="Helvetica,sans-Serif" font-size="10.00">Observer.h</text>
</a>
</g>
</g>
<!-- Node8&#45;&gt;Node9 -->
<g id="edge9" class="edge"><title>Node8&#45;&gt;Node9</title>
<path fill="none" stroke="midnightblue" d="M142.599,-61.9751C140.768,-53.5803 140.297,-40.4806 141.185,-29.6631"/>
<polygon fill="midnightblue" stroke="midnightblue" points="144.686,-29.897 142.603,-19.5091 137.754,-28.929 144.686,-29.897"/>
</g>
<!-- Node10 -->
<g id="node10" class="node"><title>Node10</title>
<polygon fill="white" stroke="#bfbfbf" points="259.5,-0.5 259.5,-19.5 301.5,-19.5 301.5,-0.5 259.5,-0.5"/>
<text text-anchor="middle" x="280.5" y="-7.5" font-family="Helvetica,sans-Serif" font-size="10.00">vector</text>
</g>
<!-- Node8&#45;&gt;Node10 -->
<g id="edge11" class="edge"><title>Node8&#45;&gt;Node10</title>
<path fill="none" stroke="midnightblue" d="M166.556,-61.9751C188.975,-51.9455 226.405,-35.2002 252.213,-23.6546"/>
<polygon fill="midnightblue" stroke="midnightblue" points="253.781,-26.7877 261.48,-19.5091 250.922,-20.3979 253.781,-26.7877"/>
</g>
<!-- Node9&#45;&gt;Node8 -->
<g id="edge10" class="edge"><title>Node9&#45;&gt;Node8</title>
<path fill="none" stroke="midnightblue" d="M152.397,-19.5091C154.23,-27.898 154.703,-40.9962 153.817,-51.8165"/>
<polygon fill="midnightblue" stroke="midnightblue" points="150.315,-51.5876 152.401,-61.9751 157.248,-52.554 150.315,-51.5876"/>
</g>
<!-- Node11&#45;&gt;Node5 -->
<g id="edge13" class="edge"><title>Node11&#45;&gt;Node5</title>
<path fill="none" stroke="midnightblue" d="M341.032,-123.475C328.063,-115.266 307.987,-102.558 291.124,-91.8845"/>
<polygon fill="midnightblue" stroke="midnightblue" points="292.975,-88.9141 282.654,-86.523 289.232,-94.8287 292.975,-88.9141"/>
</g>
<!-- Node11&#45;&gt;Node10 -->
<g id="edge14" class="edge"><title>Node11&#45;&gt;Node10</title>
<path fill="none" stroke="midnightblue" d="M351.193,-123.183C345.541,-108.608 333.196,-78.8358 318.5,-56 311.943,-45.8105 303.314,-35.4122 295.936,-27.1817"/>
<polygon fill="midnightblue" stroke="midnightblue" points="298.449,-24.7438 289.099,-19.7618 293.302,-29.4874 298.449,-24.7438"/>
</g>
</g>
</svg>
