<?xml version="1.0" encoding="UTF-8" standalone="no"?>
<!DOCTYPE svg PUBLIC "-//W3C//DTD SVG 1.1//EN"
 "http://www.w3.org/Graphics/SVG/1.1/DTD/svg11.dtd">
<!-- Generated by graphviz version 2.38.0 (20140413.2041)
 -->
<!-- Title: Q:/Documents/GitHub/MIDI2LR/Source/CommandMap.h Pages: 1 -->
<svg width="364pt" height="162pt"
 viewBox="0.00 0.00 364.00 162.00" xmlns="http://www.w3.org/2000/svg" xmlns:xlink="http://www.w3.org/1999/xlink">
<g id="graph0" class="graph" transform="scale(1 1) rotate(0) translate(4 158)">
<title>Q:/Documents/GitHub/MIDI2LR/Source/CommandMap.h</title>
<polygon fill="white" stroke="none" points="-4,4 -4,-158 360,-158 360,4 -4,4"/>
<!-- Node1 -->
<g id="node1" class="node"><title>Node1</title>
<polygon fill="#bfbfbf" stroke="black" points="76,-123.5 76,-153.5 240,-153.5 240,-123.5 76,-123.5"/>
<text text-anchor="start" x="84" y="-141.5" font-family="Helvetica,sans-Serif" font-size="10.00">Q:/Documents/GitHub</text>
<text text-anchor="middle" x="158" y="-130.5" font-family="Helvetica,sans-Serif" font-size="10.00">/MIDI2LR/Source/CommandMap.h</text>
</g>
<!-- Node2 -->
<g id="node2" class="node"><title>Node2</title>
<polygon fill="white" stroke="#bfbfbf" points="0,-56.5 0,-86.5 98,-86.5 98,-56.5 0,-56.5"/>
<text text-anchor="start" x="8" y="-74.5" font-family="Helvetica,sans-Serif" font-size="10.00">../JuceLibraryCode</text>
<text text-anchor="middle" x="49" y="-63.5" font-family="Helvetica,sans-Serif" font-size="10.00">/JuceHeader.h</text>
</g>
<!-- Node1&#45;&gt;Node2 -->
<g id="edge1" class="edge"><title>Node1&#45;&gt;Node2</title>
<path fill="none" stroke="midnightblue" d="M134.349,-123.396C118.922,-114.197 98.5795,-102.066 81.6238,-91.9546"/>
<polygon fill="midnightblue" stroke="midnightblue" points="82.9867,-88.6922 72.6052,-86.5765 79.4014,-94.7044 82.9867,-88.6922"/>
</g>
<!-- Node3 -->
<g id="node3" class="node"><title>Node3</title>
<polygon fill="white" stroke="#bfbfbf" points="116.5,-62 116.5,-81 199.5,-81 199.5,-62 116.5,-62"/>
<text text-anchor="middle" x="158" y="-69" font-family="Helvetica,sans-Serif" font-size="10.00">unordered_map</text>
</g>
<!-- Node1&#45;&gt;Node3 -->
<g id="edge2" class="edge"><title>Node1&#45;&gt;Node3</title>
<path fill="none" stroke="midnightblue" d="M158,-123.396C158,-114.064 158,-101.714 158,-91.5173"/>
<polygon fill="midnightblue" stroke="midnightblue" points="161.5,-91.1945 158,-81.1945 154.5,-91.1946 161.5,-91.1945"/>
</g>
<!-- Node4 -->
<g id="node4" class="node"><title>Node4</title>
<g id="a_node4"><a xlink:href="_subject_8h.html" target="_top" xlink:title="Pattern/Subject.h">
<polygon fill="white" stroke="black" points="218,-62 218,-81 310,-81 310,-62 218,-62"/>
<text text-anchor="middle" x="264" y="-69" font-family="Helvetica,sans-Serif" font-size="10.00">Pattern/Subject.h</text>
</a>
</g>
</g>
<!-- Node1&#45;&gt;Node4 -->
<g id="edge3" class="edge"><title>Node1&#45;&gt;Node4</title>
<path fill="none" stroke="midnightblue" d="M181,-123.396C198.941,-112.395 223.72,-97.2002 241.525,-86.2819"/>
<polygon fill="midnightblue" stroke="midnightblue" points="243.432,-89.2183 250.127,-81.007 239.773,-83.2509 243.432,-89.2183"/>
</g>
<!-- Node5 -->
<g id="node5" class="node"><title>Node5</title>
<g id="a_node5"><a xlink:href="_observer_8h.html" target="_top" xlink:title="Observer.h">
<polygon fill="white" stroke="black" points="232.5,-0.5 232.5,-19.5 295.5,-19.5 295.5,-0.5 232.5,-0.5"/>
<text text-anchor="middle" x="264" y="-7.5" font-family="Helvetica,sans-Serif" font-size="10.00">Observer.h</text>
</a>
</g>
</g>
<!-- Node4&#45;&gt;Node5 -->
<g id="edge4" class="edge"><title>Node4&#45;&gt;Node5</title>
<path fill="none" stroke="midnightblue" d="M259.099,-61.9751C257.268,-53.5803 256.797,-40.4806 257.685,-29.6631"/>
<polygon fill="midnightblue" stroke="midnightblue" points="261.186,-29.897 259.103,-19.5091 254.254,-28.929 261.186,-29.897"/>
</g>
<!-- Node6 -->
<g id="node6" class="node"><title>Node6</title>
<polygon fill="white" stroke="#bfbfbf" points="314,-0.5 314,-19.5 356,-19.5 356,-0.5 314,-0.5"/>
<text text-anchor="middle" x="335" y="-7.5" font-family="Helvetica,sans-Serif" font-size="10.00">vector</text>
</g>
<!-- Node4&#45;&gt;Node6 -->
<g id="edge6" class="edge"><title>Node4&#45;&gt;Node6</title>
<path fill="none" stroke="midnightblue" d="M274.173,-61.9751C285.35,-52.6082 303.517,-37.3839 317.091,-26.0081"/>
<polygon fill="midnightblue" stroke="midnightblue" points="319.43,-28.6148 324.846,-19.5091 314.934,-23.2496 319.43,-28.6148"/>
</g>
<!-- Node5&#45;&gt;Node4 -->
<g id="edge5" class="edge"><title>Node5&#45;&gt;Node4</title>
<path fill="none" stroke="midnightblue" d="M268.897,-19.5091C270.73,-27.898 271.203,-40.9962 270.317,-51.8165"/>
<polygon fill="midnightblue" stroke="midnightblue" points="266.815,-51.5876 268.901,-61.9751 273.748,-52.554 266.815,-51.5876"/>
</g>
</g>
</svg>
