<?xml version="1.0" encoding="UTF-8" standalone="no"?>
<!DOCTYPE svg PUBLIC "-//W3C//DTD SVG 1.1//EN"
 "http://www.w3.org/Graphics/SVG/1.1/DTD/svg11.dtd">
<!-- Generated by graphviz version 2.38.0 (20140413.2041)
 -->
<!-- Title: Q:/Documents/GitHub/MIDI2LR/Source/CommandMenu.h Pages: 1 -->
<svg width="658pt" height="329pt"
 viewBox="0.00 0.00 658.00 329.00" xmlns="http://www.w3.org/2000/svg" xmlns:xlink="http://www.w3.org/1999/xlink">
<g id="graph0" class="graph" transform="scale(1 1) rotate(0) translate(4 325)">
<title>Q:/Documents/GitHub/MIDI2LR/Source/CommandMenu.h</title>
<polygon fill="white" stroke="none" points="-4,4 -4,-325 654,-325 654,4 -4,4"/>
<!-- Node1 -->
<g id="node1" class="node"><title>Node1</title>
<polygon fill="#bfbfbf" stroke="black" points="99,-290.5 99,-320.5 269,-320.5 269,-290.5 99,-290.5"/>
<text text-anchor="start" x="107" y="-308.5" font-family="Helvetica,sans-Serif" font-size="10.00">Q:/Documents/GitHub</text>
<text text-anchor="middle" x="184" y="-297.5" font-family="Helvetica,sans-Serif" font-size="10.00">/MIDI2LR/Source/CommandMenu.h</text>
</g>
<!-- Node2 -->
<g id="node2" class="node"><title>Node2</title>
<g id="a_node2"><a xlink:href="_command_menu_8cpp.html" target="_top" xlink:title="Q:/Documents/GitHub\l/MIDI2LR/Source/CommandMenu.cpp">
<polygon fill="white" stroke="black" points="0,-218 0,-248 180,-248 180,-218 0,-218"/>
<text text-anchor="start" x="8" y="-236" font-family="Helvetica,sans-Serif" font-size="10.00">Q:/Documents/GitHub</text>
<text text-anchor="middle" x="90" y="-225" font-family="Helvetica,sans-Serif" font-size="10.00">/MIDI2LR/Source/CommandMenu.cpp</text>
</a>
</g>
</g>
<!-- Node1&#45;&gt;Node2 -->
<g id="edge1" class="edge"><title>Node1&#45;&gt;Node2</title>
<path fill="none" stroke="midnightblue" d="M156.813,-284.11C141.372,-272.529 122.438,-258.328 108.673,-248.005"/>
<polygon fill="midnightblue" stroke="midnightblue" points="154.878,-287.033 164.978,-290.233 159.078,-281.433 154.878,-287.033"/>
</g>
<!-- Node3 -->
<g id="node3" class="node"><title>Node3</title>
<g id="a_node3"><a xlink:href="_command_table_model_8h.html" target="_top" xlink:title="Q:/Documents/GitHub\l/MIDI2LR/Source/CommandTable\lModel.h">
<polygon fill="white" stroke="black" points="198.5,-212.5 198.5,-253.5 359.5,-253.5 359.5,-212.5 198.5,-212.5"/>
<text text-anchor="start" x="206.5" y="-241.5" font-family="Helvetica,sans-Serif" font-size="10.00">Q:/Documents/GitHub</text>
<text text-anchor="start" x="206.5" y="-230.5" font-family="Helvetica,sans-Serif" font-size="10.00">/MIDI2LR/Source/CommandTable</text>
<text text-anchor="middle" x="279" y="-219.5" font-family="Helvetica,sans-Serif" font-size="10.00">Model.h</text>
</a>
</g>
</g>
<!-- Node1&#45;&gt;Node3 -->
<g id="edge2" class="edge"><title>Node1&#45;&gt;Node3</title>
<path fill="none" stroke="midnightblue" d="M211.343,-284.209C224.317,-274.581 239.754,-263.125 252.604,-253.588"/>
<polygon fill="midnightblue" stroke="midnightblue" points="209.169,-281.463 203.225,-290.233 213.341,-287.085 209.169,-281.463"/>
</g>
<!-- Node4 -->
<g id="node4" class="node"><title>Node4</title>
<g id="a_node4"><a xlink:href="_command_table_model_8cpp.html" target="_top" xlink:title="Q:/Documents/GitHub\l/MIDI2LR/Source/CommandTable\lModel.cpp">
<polygon fill="white" stroke="black" points="105.5,-134.5 105.5,-175.5 266.5,-175.5 266.5,-134.5 105.5,-134.5"/>
<text text-anchor="start" x="113.5" y="-163.5" font-family="Helvetica,sans-Serif" font-size="10.00">Q:/Documents/GitHub</text>
<text text-anchor="start" x="113.5" y="-152.5" font-family="Helvetica,sans-Serif" font-size="10.00">/MIDI2LR/Source/CommandTable</text>
<text text-anchor="middle" x="186" y="-141.5" font-family="Helvetica,sans-Serif" font-size="10.00">Model.cpp</text>
</a>
</g>
</g>
<!-- Node3&#45;&gt;Node4 -->
<g id="edge3" class="edge"><title>Node3&#45;&gt;Node4</title>
<path fill="none" stroke="midnightblue" d="M247.263,-206.065C235.018,-196.057 221.248,-184.804 209.869,-175.506"/>
<polygon fill="midnightblue" stroke="midnightblue" points="245.092,-208.81 255.05,-212.428 249.522,-203.39 245.092,-208.81"/>
</g>
<!-- Node5 -->
<g id="node5" class="node"><title>Node5</title>
<g id="a_node5"><a xlink:href="_main_component_8h.html" target="_top" xlink:title="Q:/Documents/GitHub\l/MIDI2LR/Source/MainComponent.h">
<polygon fill="white" stroke="black" points="285,-140 285,-170 457,-170 457,-140 285,-140"/>
<text text-anchor="start" x="293" y="-158" font-family="Helvetica,sans-Serif" font-size="10.00">Q:/Documents/GitHub</text>
<text text-anchor="middle" x="371" y="-147" font-family="Helvetica,sans-Serif" font-size="10.00">/MIDI2LR/Source/MainComponent.h</text>
</a>
</g>
</g>
<!-- Node3&#45;&gt;Node5 -->
<g id="edge4" class="edge"><title>Node3&#45;&gt;Node5</title>
<path fill="none" stroke="midnightblue" d="M310.484,-205.992C324.981,-194.015 341.622,-180.269 353.78,-170.225"/>
<polygon fill="midnightblue" stroke="midnightblue" points="308.173,-203.361 302.692,-212.428 312.631,-208.758 308.173,-203.361"/>
</g>
<!-- Node6 -->
<g id="node6" class="node"><title>Node6</title>
<g id="a_node6"><a xlink:href="_main_8cpp.html" target="_top" xlink:title="Q:/Documents/GitHub\l/MIDI2LR/Source/Main.cpp">
<polygon fill="white" stroke="black" points="197.5,-0.5 197.5,-30.5 330.5,-30.5 330.5,-0.5 197.5,-0.5"/>
<text text-anchor="start" x="205.5" y="-18.5" font-family="Helvetica,sans-Serif" font-size="10.00">Q:/Documents/GitHub</text>
<text text-anchor="middle" x="264" y="-7.5" font-family="Helvetica,sans-Serif" font-size="10.00">/MIDI2LR/Source/Main.cpp</text>
</a>
</g>
</g>
<!-- Node5&#45;&gt;Node6 -->
<g id="edge5" class="edge"><title>Node5&#45;&gt;Node6</title>
<path fill="none" stroke="midnightblue" d="M327.86,-134.858C311.928,-125.802 295.077,-113.523 284,-98 269.529,-77.7202 265.467,-48.1691 264.365,-30.7811"/>
<polygon fill="midnightblue" stroke="midnightblue" points="326.619,-138.164 337.084,-139.818 329.934,-131.999 326.619,-138.164"/>
</g>
<!-- Node7 -->
<g id="node7" class="node"><title>Node7</title>
<g id="a_node7"><a xlink:href="_main_window_8h.html" target="_top" xlink:title="Q:/Documents/GitHub\l/MIDI2LR/Source/MainWindow.h">
<polygon fill="white" stroke="black" points="292.5,-67.5 292.5,-97.5 449.5,-97.5 449.5,-67.5 292.5,-67.5"/>
<text text-anchor="start" x="300.5" y="-85.5" font-family="Helvetica,sans-Serif" font-size="10.00">Q:/Documents/GitHub</text>
<text text-anchor="middle" x="371" y="-74.5" font-family="Helvetica,sans-Serif" font-size="10.00">/MIDI2LR/Source/MainWindow.h</text>
</a>
</g>
</g>
<!-- Node5&#45;&gt;Node7 -->
<g id="edge6" class="edge"><title>Node5&#45;&gt;Node7</title>
<path fill="none" stroke="midnightblue" d="M371,-129.732C371,-119.068 371,-106.914 371,-97.7455"/>
<polygon fill="midnightblue" stroke="midnightblue" points="367.5,-129.733 371,-139.733 374.5,-129.733 367.5,-129.733"/>
</g>
<!-- Node9 -->
<g id="node9" class="node"><title>Node9</title>
<g id="a_node9"><a xlink:href="_main_component_8cpp.html" target="_top" xlink:title="Q:/Documents/GitHub\l/MIDI2LR/Source/MainComponent.cpp">
<polygon fill="white" stroke="black" points="468,-67.5 468,-97.5 650,-97.5 650,-67.5 468,-67.5"/>
<text text-anchor="start" x="476" y="-85.5" font-family="Helvetica,sans-Serif" font-size="10.00">Q:/Documents/GitHub</text>
<text text-anchor="middle" x="559" y="-74.5" font-family="Helvetica,sans-Serif" font-size="10.00">/MIDI2LR/Source/MainComponent.cpp</text>
</a>
</g>
</g>
<!-- Node5&#45;&gt;Node9 -->
<g id="edge9" class="edge"><title>Node5&#45;&gt;Node9</title>
<path fill="none" stroke="midnightblue" d="M418.174,-136.31C450.127,-124.327 491.775,-108.71 521.472,-97.5729"/>
<polygon fill="midnightblue" stroke="midnightblue" points="416.727,-133.114 408.593,-139.903 419.185,-139.669 416.727,-133.114"/>
</g>
<!-- Node7&#45;&gt;Node6 -->
<g id="edge7" class="edge"><title>Node7&#45;&gt;Node6</title>
<path fill="none" stroke="midnightblue" d="M338.925,-62.0151C322.274,-51.8999 302.306,-39.7698 287.172,-30.5765"/>
<polygon fill="midnightblue" stroke="midnightblue" points="337.419,-65.1954 347.783,-67.396 341.053,-59.2127 337.419,-65.1954"/>
</g>
<!-- Node8 -->
<g id="node8" class="node"><title>Node8</title>
<g id="a_node8"><a xlink:href="_main_window_8cpp.html" target="_top" xlink:title="Q:/Documents/GitHub\l/MIDI2LR/Source/MainWindow.cpp">
<polygon fill="white" stroke="black" points="348.5,-0.5 348.5,-30.5 515.5,-30.5 515.5,-0.5 348.5,-0.5"/>
<text text-anchor="start" x="356.5" y="-18.5" font-family="Helvetica,sans-Serif" font-size="10.00">Q:/Documents/GitHub</text>
<text text-anchor="middle" x="432" y="-7.5" font-family="Helvetica,sans-Serif" font-size="10.00">/MIDI2LR/Source/MainWindow.cpp</text>
</a>
</g>
</g>
<!-- Node7&#45;&gt;Node8 -->
<g id="edge8" class="edge"><title>Node7&#45;&gt;Node8</title>
<path fill="none" stroke="midnightblue" d="M391.154,-60.0243C400.243,-50.3398 410.721,-39.1739 418.79,-30.5765"/>
<polygon fill="midnightblue" stroke="midnightblue" points="388.527,-57.709 384.236,-67.396 393.631,-62.4992 388.527,-57.709"/>
</g>
</g>
</svg>
