<?xml version="1.0" encoding="UTF-8" standalone="no"?>
<!DOCTYPE svg PUBLIC "-//W3C//DTD SVG 1.1//EN"
 "http://www.w3.org/Graphics/SVG/1.1/DTD/svg11.dtd">
<!-- Generated by graphviz version 2.38.0 (20140413.2041)
 -->
<!-- Title: Q:/Documents/GitHub/MIDI2LR/Source/CommandMenu.h Pages: 1 -->
<svg width="382pt" height="218pt"
 viewBox="0.00 0.00 382.00 218.00" xmlns="http://www.w3.org/2000/svg" xmlns:xlink="http://www.w3.org/1999/xlink">
<g id="graph0" class="graph" transform="scale(1 1) rotate(0) translate(4 214)">
<title>Q:/Documents/GitHub/MIDI2LR/Source/CommandMenu.h</title>
<polygon fill="white" stroke="none" points="-4,4 -4,-214 378,-214 378,4 -4,4"/>
<!-- Node1 -->
<g id="node1" class="node"><title>Node1</title>
<polygon fill="#bfbfbf" stroke="black" points="0,-179.5 0,-209.5 170,-209.5 170,-179.5 0,-179.5"/>
<text text-anchor="start" x="8" y="-197.5" font-family="Helvetica,sans-Serif" font-size="10.00">Q:/Documents/GitHub</text>
<text text-anchor="middle" x="85" y="-186.5" font-family="Helvetica,sans-Serif" font-size="10.00">/MIDI2LR/Source/CommandMenu.h</text>
</g>
<!-- Node2 -->
<g id="node2" class="node"><title>Node2</title>
<polygon fill="white" stroke="#bfbfbf" points="5,-123.5 5,-142.5 57,-142.5 57,-123.5 5,-123.5"/>
<text text-anchor="middle" x="31" y="-130.5" font-family="Helvetica,sans-Serif" font-size="10.00">memory</text>
</g>
<!-- Node1&#45;&gt;Node2 -->
<g id="edge1" class="edge"><title>Node1&#45;&gt;Node2</title>
<path fill="none" stroke="midnightblue" d="M72.2028,-179.399C64.275,-170.664 54.0635,-159.413 45.7899,-150.296"/>
<polygon fill="midnightblue" stroke="midnightblue" points="48.1698,-147.711 38.8575,-142.658 42.9863,-152.415 48.1698,-147.711"/>
</g>
<!-- Node3 -->
<g id="node3" class="node"><title>Node3</title>
<polygon fill="white" stroke="#bfbfbf" points="18,-56.5 18,-86.5 116,-86.5 116,-56.5 18,-56.5"/>
<text text-anchor="start" x="26" y="-74.5" font-family="Helvetica,sans-Serif" font-size="10.00">../JuceLibraryCode</text>
<text text-anchor="middle" x="67" y="-63.5" font-family="Helvetica,sans-Serif" font-size="10.00">/JuceHeader.h</text>
</g>
<!-- Node1&#45;&gt;Node3 -->
<g id="edge2" class="edge"><title>Node1&#45;&gt;Node3</title>
<path fill="none" stroke="midnightblue" d="M82.8645,-179.145C79.8468,-158.859 74.2941,-121.533 70.6241,-96.8617"/>
<polygon fill="midnightblue" stroke="midnightblue" points="74.0661,-96.2129 69.1327,-86.8368 67.1423,-97.2429 74.0661,-96.2129"/>
</g>
<!-- Node4 -->
<g id="node4" class="node"><title>Node4</title>
<g id="a_node4"><a xlink:href="_command_map_8h.html" target="_top" xlink:title="CommandMap.h">
<polygon fill="white" stroke="black" points="122,-123.5 122,-142.5 210,-142.5 210,-123.5 122,-123.5"/>
<text text-anchor="middle" x="166" y="-130.5" font-family="Helvetica,sans-Serif" font-size="10.00">CommandMap.h</text>
</a>
</g>
</g>
<!-- Node1&#45;&gt;Node4 -->
<g id="edge3" class="edge"><title>Node1&#45;&gt;Node4</title>
<path fill="none" stroke="midnightblue" d="M104.196,-179.399C116.816,-170.129 133.293,-158.025 146.061,-148.647"/>
<polygon fill="midnightblue" stroke="midnightblue" points="148.227,-151.399 154.214,-142.658 144.082,-145.757 148.227,-151.399"/>
</g>
<!-- Node4&#45;&gt;Node3 -->
<g id="edge4" class="edge"><title>Node4&#45;&gt;Node3</title>
<path fill="none" stroke="midnightblue" d="M151.816,-123.475C138.157,-115.266 117.013,-102.558 99.2532,-91.8845"/>
<polygon fill="midnightblue" stroke="midnightblue" points="100.706,-88.6744 90.3323,-86.523 97.1005,-94.6742 100.706,-88.6744"/>
</g>
<!-- Node5 -->
<g id="node5" class="node"><title>Node5</title>
<polygon fill="white" stroke="#bfbfbf" points="134.5,-62 134.5,-81 217.5,-81 217.5,-62 134.5,-62"/>
<text text-anchor="middle" x="176" y="-69" font-family="Helvetica,sans-Serif" font-size="10.00">unordered_map</text>
</g>
<!-- Node4&#45;&gt;Node5 -->
<g id="edge5" class="edge"><title>Node4&#45;&gt;Node5</title>
<path fill="none" stroke="midnightblue" d="M167.433,-123.475C168.844,-115.08 171.045,-101.981 172.863,-91.1631"/>
<polygon fill="midnightblue" stroke="midnightblue" points="176.364,-91.4509 174.57,-81.0091 169.461,-90.2906 176.364,-91.4509"/>
</g>
<!-- Node6 -->
<g id="node6" class="node"><title>Node6</title>
<g id="a_node6"><a xlink:href="_subject_8h.html" target="_top" xlink:title="Pattern/Subject.h">
<polygon fill="white" stroke="black" points="236,-62 236,-81 328,-81 328,-62 236,-62"/>
<text text-anchor="middle" x="282" y="-69" font-family="Helvetica,sans-Serif" font-size="10.00">Pattern/Subject.h</text>
</a>
</g>
</g>
<!-- Node4&#45;&gt;Node6 -->
<g id="edge6" class="edge"><title>Node4&#45;&gt;Node6</title>
<path fill="none" stroke="midnightblue" d="M182.62,-123.475C201.915,-113.578 233.959,-97.1416 256.431,-85.6151"/>
<polygon fill="midnightblue" stroke="midnightblue" points="258.11,-88.6873 265.411,-81.0091 254.916,-82.4589 258.11,-88.6873"/>
</g>
<!-- Node7 -->
<g id="node7" class="node"><title>Node7</title>
<g id="a_node7"><a xlink:href="_observer_8h.html" target="_top" xlink:title="Observer.h">
<polygon fill="white" stroke="black" points="250.5,-0.5 250.5,-19.5 313.5,-19.5 313.5,-0.5 250.5,-0.5"/>
<text text-anchor="middle" x="282" y="-7.5" font-family="Helvetica,sans-Serif" font-size="10.00">Observer.h</text>
</a>
</g>
</g>
<!-- Node6&#45;&gt;Node7 -->
<g id="edge7" class="edge"><title>Node6&#45;&gt;Node7</title>
<path fill="none" stroke="midnightblue" d="M277.099,-61.9751C275.268,-53.5803 274.797,-40.4806 275.685,-29.6631"/>
<polygon fill="midnightblue" stroke="midnightblue" points="279.186,-29.897 277.103,-19.5091 272.254,-28.929 279.186,-29.897"/>
</g>
<!-- Node8 -->
<g id="node8" class="node"><title>Node8</title>
<polygon fill="white" stroke="#bfbfbf" points="332,-0.5 332,-19.5 374,-19.5 374,-0.5 332,-0.5"/>
<text text-anchor="middle" x="353" y="-7.5" font-family="Helvetica,sans-Serif" font-size="10.00">vector</text>
</g>
<!-- Node6&#45;&gt;Node8 -->
<g id="edge9" class="edge"><title>Node6&#45;&gt;Node8</title>
<path fill="none" stroke="midnightblue" d="M292.173,-61.9751C303.35,-52.6082 321.517,-37.3839 335.091,-26.0081"/>
<polygon fill="midnightblue" stroke="midnightblue" points="337.43,-28.6148 342.846,-19.5091 332.934,-23.2496 337.43,-28.6148"/>
</g>
<!-- Node7&#45;&gt;Node6 -->
<g id="edge8" class="edge"><title>Node7&#45;&gt;Node6</title>
<path fill="none" stroke="midnightblue" d="M286.897,-19.5091C288.73,-27.898 289.203,-40.9962 288.317,-51.8165"/>
<polygon fill="midnightblue" stroke="midnightblue" points="284.815,-51.5876 286.901,-61.9751 291.748,-52.554 284.815,-51.5876"/>
</g>
</g>
</svg>
