<?xml version="1.0" encoding="UTF-8" standalone="no"?>
<!DOCTYPE svg PUBLIC "-//W3C//DTD SVG 1.1//EN"
 "http://www.w3.org/Graphics/SVG/1.1/DTD/svg11.dtd">
<!-- Generated by graphviz version 2.38.0 (20140413.2041)
 -->
<!-- Title: Q:/Documents/GitHub/MIDI2LR/Source/CommandTable.cpp Pages: 1 -->
<svg width="187pt" height="162pt"
 viewBox="0.00 0.00 187.00 162.00" xmlns="http://www.w3.org/2000/svg" xmlns:xlink="http://www.w3.org/1999/xlink">
<g id="graph0" class="graph" transform="scale(1 1) rotate(0) translate(4 158)">
<title>Q:/Documents/GitHub/MIDI2LR/Source/CommandTable.cpp</title>
<polygon fill="white" stroke="none" points="-4,4 -4,-158 183,-158 183,4 -4,4"/>
<!-- Node1 -->
<g id="node1" class="node"><title>Node1</title>
<polygon fill="#bfbfbf" stroke="black" points="0,-123.5 0,-153.5 179,-153.5 179,-123.5 0,-123.5"/>
<text text-anchor="start" x="8" y="-141.5" font-family="Helvetica,sans-Serif" font-size="10.00">Q:/Documents/GitHub</text>
<text text-anchor="middle" x="89.5" y="-130.5" font-family="Helvetica,sans-Serif" font-size="10.00">/MIDI2LR/Source/CommandTable.cpp</text>
</g>
<!-- Node2 -->
<g id="node2" class="node"><title>Node2</title>
<g id="a_node2"><a xlink:href="_command_table_8h.html" target="_top" xlink:title="CommandTable.h">
<polygon fill="white" stroke="black" points="43.5,-67.5 43.5,-86.5 135.5,-86.5 135.5,-67.5 43.5,-67.5"/>
<text text-anchor="middle" x="89.5" y="-74.5" font-family="Helvetica,sans-Serif" font-size="10.00">CommandTable.h</text>
</a>
</g>
</g>
<!-- Node1&#45;&gt;Node2 -->
<g id="edge1" class="edge"><title>Node1&#45;&gt;Node2</title>
<path fill="none" stroke="midnightblue" d="M89.5,-123.399C89.5,-115.466 89.5,-105.458 89.5,-96.8583"/>
<polygon fill="midnightblue" stroke="midnightblue" points="93.0001,-96.6577 89.5,-86.6578 86.0001,-96.6578 93.0001,-96.6577"/>
</g>
<!-- Node3 -->
<g id="node3" class="node"><title>Node3</title>
<polygon fill="white" stroke="#bfbfbf" points="40.5,-0.5 40.5,-30.5 138.5,-30.5 138.5,-0.5 40.5,-0.5"/>
<text text-anchor="start" x="48.5" y="-18.5" font-family="Helvetica,sans-Serif" font-size="10.00">../JuceLibraryCode</text>
<text text-anchor="middle" x="89.5" y="-7.5" font-family="Helvetica,sans-Serif" font-size="10.00">/JuceHeader.h</text>
</g>
<!-- Node2&#45;&gt;Node3 -->
<g id="edge2" class="edge"><title>Node2&#45;&gt;Node3</title>
<path fill="none" stroke="midnightblue" d="M89.5,-67.4751C89.5,-60.471 89.5,-50.1919 89.5,-40.6956"/>
<polygon fill="midnightblue" stroke="midnightblue" points="93.0001,-40.5229 89.5,-30.523 86.0001,-40.523 93.0001,-40.5229"/>
</g>
</g>
</svg>
