<?xml version="1.0" encoding="UTF-8" standalone="no"?>
<!DOCTYPE svg PUBLIC "-//W3C//DTD SVG 1.1//EN"
 "http://www.w3.org/Graphics/SVG/1.1/DTD/svg11.dtd">
<!-- Generated by graphviz version 2.38.0 (20140413.2041)
 -->
<!-- Title: Q:/Documents/GitHub/MIDI2LR/Source/CommandTableModel.h Pages: 1 -->
<svg width="367pt" height="285pt"
 viewBox="0.00 0.00 366.50 285.00" xmlns="http://www.w3.org/2000/svg" xmlns:xlink="http://www.w3.org/1999/xlink">
<g id="graph0" class="graph" transform="scale(1 1) rotate(0) translate(4 281)">
<title>Q:/Documents/GitHub/MIDI2LR/Source/CommandTableModel.h</title>
<polygon fill="white" stroke="none" points="-4,4 -4,-281 362.5,-281 362.5,4 -4,4"/>
<!-- Node1 -->
<g id="node1" class="node"><title>Node1</title>
<polygon fill="#bfbfbf" stroke="black" points="0,-235.5 0,-276.5 161,-276.5 161,-235.5 0,-235.5"/>
<text text-anchor="start" x="8" y="-264.5" font-family="Helvetica,sans-Serif" font-size="10.00">Q:/Documents/GitHub</text>
<text text-anchor="start" x="8" y="-253.5" font-family="Helvetica,sans-Serif" font-size="10.00">/MIDI2LR/Source/CommandTable</text>
<text text-anchor="middle" x="80.5" y="-242.5" font-family="Helvetica,sans-Serif" font-size="10.00">Model.h</text>
</g>
<!-- Node2 -->
<g id="node2" class="node"><title>Node2</title>
<polygon fill="white" stroke="#bfbfbf" points="102.5,-0.5 102.5,-19.5 144.5,-19.5 144.5,-0.5 102.5,-0.5"/>
<text text-anchor="middle" x="123.5" y="-7.5" font-family="Helvetica,sans-Serif" font-size="10.00">vector</text>
</g>
<!-- Node1&#45;&gt;Node2 -->
<g id="edge1" class="edge"><title>Node1&#45;&gt;Node2</title>
<path fill="none" stroke="midnightblue" d="M67.919,-235.388C45.5904,-197.855 4.52755,-114.41 39.5,-56 50.9544,-36.8692 73.6306,-25.4093 92.5378,-18.8458"/>
<polygon fill="midnightblue" stroke="midnightblue" points="93.8003,-22.1174 102.28,-15.7653 91.6897,-15.4432 93.8003,-22.1174"/>
</g>
<!-- Node3 -->
<g id="node3" class="node"><title>Node3</title>
<polygon fill="white" stroke="#bfbfbf" points="70.5,-123.5 70.5,-142.5 122.5,-142.5 122.5,-123.5 70.5,-123.5"/>
<text text-anchor="middle" x="96.5" y="-130.5" font-family="Helvetica,sans-Serif" font-size="10.00">memory</text>
</g>
<!-- Node1&#45;&gt;Node3 -->
<g id="edge2" class="edge"><title>Node1&#45;&gt;Node3</title>
<path fill="none" stroke="midnightblue" d="M83.1063,-235.29C86.1225,-212.48 91.0535,-175.189 94.0166,-152.781"/>
<polygon fill="midnightblue" stroke="midnightblue" points="97.525,-152.947 95.3661,-142.575 90.5854,-152.03 97.525,-152.947"/>
</g>
<!-- Node4 -->
<g id="node4" class="node"><title>Node4</title>
<polygon fill="white" stroke="#bfbfbf" points="48.5,-56.5 48.5,-86.5 146.5,-86.5 146.5,-56.5 48.5,-56.5"/>
<text text-anchor="start" x="56.5" y="-74.5" font-family="Helvetica,sans-Serif" font-size="10.00">../JuceLibraryCode</text>
<text text-anchor="middle" x="97.5" y="-63.5" font-family="Helvetica,sans-Serif" font-size="10.00">/JuceHeader.h</text>
</g>
<!-- Node1&#45;&gt;Node4 -->
<g id="edge3" class="edge"><title>Node1&#45;&gt;Node4</title>
<path fill="none" stroke="midnightblue" d="M72.289,-235.308C62.5654,-209.104 49.1531,-161.59 61.5,-123 64.7631,-112.801 70.9241,-102.905 77.2389,-94.6155"/>
<polygon fill="midnightblue" stroke="midnightblue" points="80.1561,-96.5762 83.7603,-86.6133 74.7297,-92.1541 80.1561,-96.5762"/>
</g>
<!-- Node5 -->
<g id="node5" class="node"><title>Node5</title>
<g id="a_node5"><a xlink:href="_command_map_8h.html" target="_top" xlink:title="CommandMap.h">
<polygon fill="white" stroke="black" points="178.5,-123.5 178.5,-142.5 266.5,-142.5 266.5,-123.5 178.5,-123.5"/>
<text text-anchor="middle" x="222.5" y="-130.5" font-family="Helvetica,sans-Serif" font-size="10.00">CommandMap.h</text>
</a>
</g>
</g>
<!-- Node1&#45;&gt;Node5 -->
<g id="edge4" class="edge"><title>Node1&#45;&gt;Node5</title>
<path fill="none" stroke="midnightblue" d="M159.248,-235.425C178.547,-227.126 197.398,-215.426 210.5,-199 220.889,-185.975 223.354,-166.817 223.541,-152.672"/>
<polygon fill="midnightblue" stroke="midnightblue" points="227.039,-152.533 223.311,-142.616 220.041,-152.693 227.039,-152.533"/>
</g>
<!-- Node9 -->
<g id="node9" class="node"><title>Node9</title>
<g id="a_node9"><a xlink:href="_command_menu_8h.html" target="_top" xlink:title="CommandMenu.h">
<polygon fill="white" stroke="black" points="109,-179.5 109,-198.5 202,-198.5 202,-179.5 109,-179.5"/>
<text text-anchor="middle" x="155.5" y="-186.5" font-family="Helvetica,sans-Serif" font-size="10.00">CommandMenu.h</text>
</a>
</g>
</g>
<!-- Node1&#45;&gt;Node9 -->
<g id="edge11" class="edge"><title>Node1&#45;&gt;Node9</title>
<path fill="none" stroke="midnightblue" d="M103.002,-235.498C114.17,-225.82 127.461,-214.3 137.876,-205.274"/>
<polygon fill="midnightblue" stroke="midnightblue" points="140.252,-207.847 145.516,-198.652 135.667,-202.557 140.252,-207.847"/>
</g>
<!-- Node5&#45;&gt;Node4 -->
<g id="edge5" class="edge"><title>Node5&#45;&gt;Node4</title>
<path fill="none" stroke="midnightblue" d="M204.591,-123.475C186.791,-115.002 158.923,-101.737 136.077,-90.8628"/>
<polygon fill="midnightblue" stroke="midnightblue" points="137.494,-87.6607 126.96,-86.523 134.485,-93.9812 137.494,-87.6607"/>
</g>
<!-- Node6 -->
<g id="node6" class="node"><title>Node6</title>
<polygon fill="white" stroke="#bfbfbf" points="165,-62 165,-81 248,-81 248,-62 165,-62"/>
<text text-anchor="middle" x="206.5" y="-69" font-family="Helvetica,sans-Serif" font-size="10.00">unordered_map</text>
</g>
<!-- Node5&#45;&gt;Node6 -->
<g id="edge6" class="edge"><title>Node5&#45;&gt;Node6</title>
<path fill="none" stroke="midnightblue" d="M220.208,-123.475C217.926,-114.992 214.353,-101.704 211.427,-90.8222"/>
<polygon fill="midnightblue" stroke="midnightblue" points="214.765,-89.7571 208.788,-81.0091 208.005,-91.5749 214.765,-89.7571"/>
</g>
<!-- Node7 -->
<g id="node7" class="node"><title>Node7</title>
<g id="a_node7"><a xlink:href="_subject_8h.html" target="_top" xlink:title="Pattern/Subject.h">
<polygon fill="white" stroke="black" points="266.5,-62 266.5,-81 358.5,-81 358.5,-62 266.5,-62"/>
<text text-anchor="middle" x="312.5" y="-69" font-family="Helvetica,sans-Serif" font-size="10.00">Pattern/Subject.h</text>
</a>
</g>
</g>
<!-- Node5&#45;&gt;Node7 -->
<g id="edge7" class="edge"><title>Node5&#45;&gt;Node7</title>
<path fill="none" stroke="midnightblue" d="M235.395,-123.475C249.964,-113.843 273.902,-98.0175 291.245,-86.5517"/>
<polygon fill="midnightblue" stroke="midnightblue" points="293.217,-89.4437 299.629,-81.0091 289.357,-83.6044 293.217,-89.4437"/>
</g>
<!-- Node7&#45;&gt;Node2 -->
<g id="edge10" class="edge"><title>Node7&#45;&gt;Node2</title>
<path fill="none" stroke="midnightblue" d="M285.421,-61.9751C250.714,-51.0488 190.689,-32.1522 154.283,-20.691"/>
<polygon fill="midnightblue" stroke="midnightblue" points="155.271,-17.3328 144.682,-17.6684 153.169,-24.0098 155.271,-17.3328"/>
</g>
<!-- Node8 -->
<g id="node8" class="node"><title>Node8</title>
<g id="a_node8"><a xlink:href="_observer_8h.html" target="_top" xlink:title="Observer.h">
<polygon fill="white" stroke="black" points="281,-0.5 281,-19.5 344,-19.5 344,-0.5 281,-0.5"/>
<text text-anchor="middle" x="312.5" y="-7.5" font-family="Helvetica,sans-Serif" font-size="10.00">Observer.h</text>
</a>
</g>
</g>
<!-- Node7&#45;&gt;Node8 -->
<g id="edge8" class="edge"><title>Node7&#45;&gt;Node8</title>
<path fill="none" stroke="midnightblue" d="M307.599,-61.9751C305.768,-53.5803 305.297,-40.4806 306.185,-29.6631"/>
<polygon fill="midnightblue" stroke="midnightblue" points="309.686,-29.897 307.603,-19.5091 302.754,-28.929 309.686,-29.897"/>
</g>
<!-- Node8&#45;&gt;Node7 -->
<g id="edge9" class="edge"><title>Node8&#45;&gt;Node7</title>
<path fill="none" stroke="midnightblue" d="M317.397,-19.5091C319.23,-27.898 319.703,-40.9962 318.817,-51.8165"/>
<polygon fill="midnightblue" stroke="midnightblue" points="315.315,-51.5876 317.401,-61.9751 322.248,-52.554 315.315,-51.5876"/>
</g>
<!-- Node9&#45;&gt;Node3 -->
<g id="edge12" class="edge"><title>Node9&#45;&gt;Node3</title>
<path fill="none" stroke="midnightblue" d="M146.021,-179.324C137.299,-171.341 124.157,-159.313 113.602,-149.653"/>
<polygon fill="midnightblue" stroke="midnightblue" points="115.892,-147.004 106.152,-142.834 111.166,-152.167 115.892,-147.004"/>
</g>
<!-- Node9&#45;&gt;Node4 -->
<g id="edge13" class="edge"><title>Node9&#45;&gt;Node4</title>
<path fill="none" stroke="midnightblue" d="M153.019,-179.311C149.224,-166.579 141.367,-142.274 131.5,-123 126.567,-113.364 120.139,-103.355 114.202,-94.8138"/>
<polygon fill="midnightblue" stroke="midnightblue" points="116.938,-92.6223 108.276,-86.5216 111.243,-96.6925 116.938,-92.6223"/>
</g>
<!-- Node9&#45;&gt;Node5 -->
<g id="edge14" class="edge"><title>Node9&#45;&gt;Node5</title>
<path fill="none" stroke="midnightblue" d="M166.265,-179.324C176.266,-171.263 191.387,-159.077 203.43,-149.369"/>
<polygon fill="midnightblue" stroke="midnightblue" points="205.95,-151.834 211.539,-142.834 201.557,-146.384 205.95,-151.834"/>
</g>
</g>
</svg>
