<?xml version="1.0" encoding="UTF-8" standalone="no"?>
<!DOCTYPE svg PUBLIC "-//W3C//DTD SVG 1.1//EN"
 "http://www.w3.org/Graphics/SVG/1.1/DTD/svg11.dtd">
<!-- Generated by graphviz version 2.38.0 (20140413.2041)
 -->
<!-- Title: Q:/Documents/GitHub/MIDI2LR/Source/CommandTableModel.cpp Pages: 1 -->
<svg width="494pt" height="341pt"
 viewBox="0.00 0.00 494.00 341.00" xmlns="http://www.w3.org/2000/svg" xmlns:xlink="http://www.w3.org/1999/xlink">
<g id="graph0" class="graph" transform="scale(1 1) rotate(0) translate(4 337)">
<title>Q:/Documents/GitHub/MIDI2LR/Source/CommandTableModel.cpp</title>
<polygon fill="white" stroke="none" points="-4,4 -4,-337 490,-337 490,4 -4,4"/>
<!-- Node1 -->
<g id="node1" class="node"><title>Node1</title>
<polygon fill="#bfbfbf" stroke="black" points="27.5,-291.5 27.5,-332.5 188.5,-332.5 188.5,-291.5 27.5,-291.5"/>
<text text-anchor="start" x="35.5" y="-320.5" font-family="Helvetica,sans-Serif" font-size="10.00">Q:/Documents/GitHub</text>
<text text-anchor="start" x="35.5" y="-309.5" font-family="Helvetica,sans-Serif" font-size="10.00">/MIDI2LR/Source/CommandTable</text>
<text text-anchor="middle" x="108" y="-298.5" font-family="Helvetica,sans-Serif" font-size="10.00">Model.cpp</text>
</g>
<!-- Node2 -->
<g id="node2" class="node"><title>Node2</title>
<g id="a_node2"><a xlink:href="_command_table_model_8h.html" target="_top" xlink:title="CommandTableModel.h">
<polygon fill="white" stroke="black" points="99.5,-235.5 99.5,-254.5 218.5,-254.5 218.5,-235.5 99.5,-235.5"/>
<text text-anchor="middle" x="159" y="-242.5" font-family="Helvetica,sans-Serif" font-size="10.00">CommandTableModel.h</text>
</a>
</g>
</g>
<!-- Node1&#45;&gt;Node2 -->
<g id="edge1" class="edge"><title>Node1&#45;&gt;Node2</title>
<path fill="none" stroke="midnightblue" d="M123.302,-291.498C130.519,-282.299 139.042,-271.436 145.95,-262.632"/>
<polygon fill="midnightblue" stroke="midnightblue" points="148.792,-264.68 152.211,-254.652 143.285,-260.359 148.792,-264.68"/>
</g>
<!-- Node11 -->
<g id="node11" class="node"><title>Node11</title>
<g id="a_node11"><a xlink:href="_l_r_commands_8h.html" target="_top" xlink:title="LRCommands.h">
<polygon fill="white" stroke="black" points="0,-123.5 0,-142.5 86,-142.5 86,-123.5 0,-123.5"/>
<text text-anchor="middle" x="43" y="-130.5" font-family="Helvetica,sans-Serif" font-size="10.00">LRCommands.h</text>
</a>
</g>
</g>
<!-- Node1&#45;&gt;Node11 -->
<g id="edge16" class="edge"><title>Node1&#45;&gt;Node11</title>
<path fill="none" stroke="midnightblue" d="M100.796,-291.382C88.0897,-256.783 61.8849,-185.425 49.6125,-152.006"/>
<polygon fill="midnightblue" stroke="midnightblue" points="52.885,-150.764 46.1522,-142.584 46.3141,-153.177 52.885,-150.764"/>
</g>
<!-- Node3 -->
<g id="node3" class="node"><title>Node3</title>
<polygon fill="white" stroke="#bfbfbf" points="345,-0.5 345,-19.5 387,-19.5 387,-0.5 345,-0.5"/>
<text text-anchor="middle" x="366" y="-7.5" font-family="Helvetica,sans-Serif" font-size="10.00">vector</text>
</g>
<!-- Node2&#45;&gt;Node3 -->
<g id="edge2" class="edge"><title>Node2&#45;&gt;Node3</title>
<path fill="none" stroke="midnightblue" d="M214.318,-235.463C243.289,-228.985 278.21,-217.85 305,-199 360.427,-160.002 366.638,-69.278 366.583,-29.8533"/>
<polygon fill="midnightblue" stroke="midnightblue" points="370.081,-29.7207 366.424,-19.7769 363.082,-29.8307 370.081,-29.7207"/>
</g>
<!-- Node4 -->
<g id="node4" class="node"><title>Node4</title>
<polygon fill="white" stroke="#bfbfbf" points="286,-123.5 286,-142.5 338,-142.5 338,-123.5 286,-123.5"/>
<text text-anchor="middle" x="312" y="-130.5" font-family="Helvetica,sans-Serif" font-size="10.00">memory</text>
</g>
<!-- Node2&#45;&gt;Node4 -->
<g id="edge3" class="edge"><title>Node2&#45;&gt;Node4</title>
<path fill="none" stroke="midnightblue" d="M210.282,-235.449C235.113,-229.036 263.839,-217.963 284,-199 297.123,-186.656 304.399,-167.129 308.221,-152.697"/>
<polygon fill="midnightblue" stroke="midnightblue" points="311.653,-153.39 310.509,-142.857 304.835,-151.804 311.653,-153.39"/>
</g>
<!-- Node5 -->
<g id="node5" class="node"><title>Node5</title>
<polygon fill="white" stroke="#bfbfbf" points="71,-56.5 71,-86.5 169,-86.5 169,-56.5 71,-56.5"/>
<text text-anchor="start" x="79" y="-74.5" font-family="Helvetica,sans-Serif" font-size="10.00">../JuceLibraryCode</text>
<text text-anchor="middle" x="120" y="-63.5" font-family="Helvetica,sans-Serif" font-size="10.00">/JuceHeader.h</text>
</g>
<!-- Node2&#45;&gt;Node5 -->
<g id="edge4" class="edge"><title>Node2&#45;&gt;Node5</title>
<path fill="none" stroke="midnightblue" d="M157.012,-235.26C151.238,-209.866 134.314,-135.444 125.492,-96.6497"/>
<polygon fill="midnightblue" stroke="midnightblue" points="128.865,-95.6977 123.234,-86.7228 122.039,-97.2499 128.865,-95.6977"/>
</g>
<!-- Node6 -->
<g id="node6" class="node"><title>Node6</title>
<g id="a_node6"><a xlink:href="_command_map_8h.html" target="_top" xlink:title="CommandMap.h">
<polygon fill="white" stroke="black" points="180,-123.5 180,-142.5 268,-142.5 268,-123.5 180,-123.5"/>
<text text-anchor="middle" x="224" y="-130.5" font-family="Helvetica,sans-Serif" font-size="10.00">CommandMap.h</text>
</a>
</g>
</g>
<!-- Node2&#45;&gt;Node6 -->
<g id="edge5" class="edge"><title>Node2&#45;&gt;Node6</title>
<path fill="none" stroke="midnightblue" d="M159.171,-235.39C159.784,-222.333 162.38,-197.127 173,-179 180.088,-166.901 191.574,-156.344 201.853,-148.502"/>
<polygon fill="midnightblue" stroke="midnightblue" points="204.01,-151.262 210.08,-142.579 199.92,-145.581 204.01,-151.262"/>
</g>
<!-- Node10 -->
<g id="node10" class="node"><title>Node10</title>
<g id="a_node10"><a xlink:href="_command_menu_8h.html" target="_top" xlink:title="CommandMenu.h">
<polygon fill="white" stroke="black" points="182.5,-179.5 182.5,-198.5 275.5,-198.5 275.5,-179.5 182.5,-179.5"/>
<text text-anchor="middle" x="229" y="-186.5" font-family="Helvetica,sans-Serif" font-size="10.00">CommandMenu.h</text>
</a>
</g>
</g>
<!-- Node2&#45;&gt;Node10 -->
<g id="edge12" class="edge"><title>Node2&#45;&gt;Node10</title>
<path fill="none" stroke="midnightblue" d="M170.247,-235.324C180.797,-227.185 196.801,-214.839 209.442,-205.087"/>
<polygon fill="midnightblue" stroke="midnightblue" points="211.769,-207.713 217.549,-198.834 207.493,-202.171 211.769,-207.713"/>
</g>
<!-- Node6&#45;&gt;Node5 -->
<g id="edge6" class="edge"><title>Node6&#45;&gt;Node5</title>
<path fill="none" stroke="midnightblue" d="M209.099,-123.475C194.619,-115.191 172.13,-102.325 153.37,-91.5913"/>
<polygon fill="midnightblue" stroke="midnightblue" points="154.929,-88.4509 144.511,-86.523 151.453,-94.5269 154.929,-88.4509"/>
</g>
<!-- Node7 -->
<g id="node7" class="node"><title>Node7</title>
<polygon fill="white" stroke="#bfbfbf" points="187.5,-62 187.5,-81 270.5,-81 270.5,-62 187.5,-62"/>
<text text-anchor="middle" x="229" y="-69" font-family="Helvetica,sans-Serif" font-size="10.00">unordered_map</text>
</g>
<!-- Node6&#45;&gt;Node7 -->
<g id="edge7" class="edge"><title>Node6&#45;&gt;Node7</title>
<path fill="none" stroke="midnightblue" d="M224.716,-123.475C225.422,-115.08 226.523,-101.981 227.432,-91.1631"/>
<polygon fill="midnightblue" stroke="midnightblue" points="230.935,-91.2671 228.285,-81.0091 223.96,-90.6808 230.935,-91.2671"/>
</g>
<!-- Node8 -->
<g id="node8" class="node"><title>Node8</title>
<g id="a_node8"><a xlink:href="_subject_8h.html" target="_top" xlink:title="Pattern/Subject.h">
<polygon fill="white" stroke="black" points="394,-62 394,-81 486,-81 486,-62 394,-62"/>
<text text-anchor="middle" x="440" y="-69" font-family="Helvetica,sans-Serif" font-size="10.00">Pattern/Subject.h</text>
</a>
</g>
</g>
<!-- Node6&#45;&gt;Node8 -->
<g id="edge8" class="edge"><title>Node6&#45;&gt;Node8</title>
<path fill="none" stroke="midnightblue" d="M254.948,-123.475C292.881,-113.026 357.278,-95.2868 399.22,-83.7332"/>
<polygon fill="midnightblue" stroke="midnightblue" points="400.398,-87.0392 409.11,-81.0091 398.539,-80.2906 400.398,-87.0392"/>
</g>
<!-- Node8&#45;&gt;Node3 -->
<g id="edge11" class="edge"><title>Node8&#45;&gt;Node3</title>
<path fill="none" stroke="midnightblue" d="M429.398,-61.9751C417.748,-52.6082 398.814,-37.3839 384.665,-26.0081"/>
<polygon fill="midnightblue" stroke="midnightblue" points="386.569,-23.0477 376.583,-19.5091 382.183,-28.503 386.569,-23.0477"/>
</g>
<!-- Node9 -->
<g id="node9" class="node"><title>Node9</title>
<g id="a_node9"><a xlink:href="_observer_8h.html" target="_top" xlink:title="Observer.h">
<polygon fill="white" stroke="black" points="408.5,-0.5 408.5,-19.5 471.5,-19.5 471.5,-0.5 408.5,-0.5"/>
<text text-anchor="middle" x="440" y="-7.5" font-family="Helvetica,sans-Serif" font-size="10.00">Observer.h</text>
</a>
</g>
</g>
<!-- Node8&#45;&gt;Node9 -->
<g id="edge9" class="edge"><title>Node8&#45;&gt;Node9</title>
<path fill="none" stroke="midnightblue" d="M435.099,-61.9751C433.268,-53.5803 432.797,-40.4806 433.685,-29.6631"/>
<polygon fill="midnightblue" stroke="midnightblue" points="437.186,-29.897 435.103,-19.5091 430.254,-28.929 437.186,-29.897"/>
</g>
<!-- Node9&#45;&gt;Node8 -->
<g id="edge10" class="edge"><title>Node9&#45;&gt;Node8</title>
<path fill="none" stroke="midnightblue" d="M444.897,-19.5091C446.73,-27.898 447.203,-40.9962 446.317,-51.8165"/>
<polygon fill="midnightblue" stroke="midnightblue" points="442.815,-51.5876 444.901,-61.9751 449.748,-52.554 442.815,-51.5876"/>
</g>
<!-- Node10&#45;&gt;Node4 -->
<g id="edge13" class="edge"><title>Node10&#45;&gt;Node4</title>
<path fill="none" stroke="midnightblue" d="M242.335,-179.324C255.162,-170.979 274.785,-158.212 289.94,-148.352"/>
<polygon fill="midnightblue" stroke="midnightblue" points="292.224,-151.042 298.698,-142.655 288.407,-145.174 292.224,-151.042"/>
</g>
<!-- Node10&#45;&gt;Node5 -->
<g id="edge14" class="edge"><title>Node10&#45;&gt;Node5</title>
<path fill="none" stroke="midnightblue" d="M215.69,-179.308C203.335,-170.876 184.821,-157.293 171,-143 156.959,-128.479 143.672,-109.894 134.183,-95.4521"/>
<polygon fill="midnightblue" stroke="midnightblue" points="136.874,-93.1663 128.525,-86.644 130.985,-96.9494 136.874,-93.1663"/>
</g>
<!-- Node10&#45;&gt;Node6 -->
<g id="edge15" class="edge"><title>Node10&#45;&gt;Node6</title>
<path fill="none" stroke="midnightblue" d="M228.174,-179.083C227.519,-172.006 226.58,-161.861 225.758,-152.986"/>
<polygon fill="midnightblue" stroke="midnightblue" points="229.217,-152.386 224.81,-142.751 222.247,-153.031 229.217,-152.386"/>
</g>
<!-- Node11&#45;&gt;Node3 -->
<g id="edge18" class="edge"><title>Node11&#45;&gt;Node3</title>
<path fill="none" stroke="midnightblue" d="M42.3412,-123.413C41.639,-107.519 42.6529,-73.5379 62,-56 101.585,-20.1162 265.307,-12.8366 334.695,-11.3676"/>
<polygon fill="midnightblue" stroke="midnightblue" points="335.054,-14.8617 344.988,-11.1783 334.925,-7.86289 335.054,-14.8617"/>
</g>
<!-- Node11&#45;&gt;Node5 -->
<g id="edge17" class="edge"><title>Node11&#45;&gt;Node5</title>
<path fill="none" stroke="midnightblue" d="M54.0322,-123.475C64.3633,-115.492 80.2005,-103.254 93.7679,-92.7703"/>
<polygon fill="midnightblue" stroke="midnightblue" points="96.0798,-95.407 101.853,-86.523 91.7997,-89.868 96.0798,-95.407"/>
</g>
</g>
</svg>
