<?xml version="1.0" encoding="UTF-8" standalone="no"?>
<!DOCTYPE svg PUBLIC "-//W3C//DTD SVG 1.1//EN"
 "http://www.w3.org/Graphics/SVG/1.1/DTD/svg11.dtd">
<!-- Generated by graphviz version 2.38.0 (20140413.2041)
 -->
<!-- Title: Q:/Documents/GitHub/MIDI2LR/Source/LR_IPC_In.h Pages: 1 -->
<svg width="535pt" height="330pt"
 viewBox="0.00 0.00 535.00 330.00" xmlns="http://www.w3.org/2000/svg" xmlns:xlink="http://www.w3.org/1999/xlink">
<g id="graph0" class="graph" transform="scale(1 1) rotate(0) translate(4 326)">
<title>Q:/Documents/GitHub/MIDI2LR/Source/LR_IPC_In.h</title>
<polygon fill="white" stroke="none" points="-4,4 -4,-326 531,-326 531,4 -4,4"/>
<!-- Node1 -->
<g id="node1" class="node"><title>Node1</title>
<polygon fill="#bfbfbf" stroke="black" points="242,-291.5 242,-321.5 389,-321.5 389,-291.5 242,-291.5"/>
<text text-anchor="start" x="250" y="-309.5" font-family="Helvetica,sans-Serif" font-size="10.00">Q:/Documents/GitHub</text>
<text text-anchor="middle" x="315.5" y="-298.5" font-family="Helvetica,sans-Serif" font-size="10.00">/MIDI2LR/Source/LR_IPC_In.h</text>
</g>
<!-- Node2 -->
<g id="node2" class="node"><title>Node2</title>
<polygon fill="white" stroke="#bfbfbf" points="282.5,-56.5 282.5,-86.5 380.5,-86.5 380.5,-56.5 282.5,-56.5"/>
<text text-anchor="start" x="290.5" y="-74.5" font-family="Helvetica,sans-Serif" font-size="10.00">../JuceLibraryCode</text>
<text text-anchor="middle" x="331.5" y="-63.5" font-family="Helvetica,sans-Serif" font-size="10.00">/JuceHeader.h</text>
</g>
<!-- Node1&#45;&gt;Node2 -->
<g id="edge1" class="edge"><title>Node1&#45;&gt;Node2</title>
<path fill="none" stroke="midnightblue" d="M320.52,-291.346C330.768,-260.728 352.481,-186.018 344.5,-123 343.396,-114.285 341.262,-104.922 339.036,-96.6533"/>
<polygon fill="midnightblue" stroke="midnightblue" points="342.36,-95.5453 336.239,-86.897 335.631,-97.4743 342.36,-95.5453"/>
</g>
<!-- Node3 -->
<g id="node3" class="node"><title>Node3</title>
<polygon fill="white" stroke="#bfbfbf" points="0,-62 0,-81 83,-81 83,-62 0,-62"/>
<text text-anchor="middle" x="41.5" y="-69" font-family="Helvetica,sans-Serif" font-size="10.00">unordered_map</text>
</g>
<!-- Node1&#45;&gt;Node3 -->
<g id="edge2" class="edge"><title>Node1&#45;&gt;Node3</title>
<path fill="none" stroke="midnightblue" d="M266.844,-291.486C241.278,-282.974 210.039,-270.703 184.5,-255 121.238,-216.103 99.2992,-206.322 60.5,-143 50.7894,-127.152 45.9694,-106.331 43.6234,-91.4318"/>
<polygon fill="midnightblue" stroke="midnightblue" points="47.0725,-90.8183 42.2716,-81.3736 40.1349,-91.7507 47.0725,-90.8183"/>
</g>
<!-- Node4 -->
<g id="node4" class="node"><title>Node4</title>
<g id="a_node4"><a xlink:href="_command_map_8h.html" target="_top" xlink:title="CommandMap.h">
<polygon fill="white" stroke="black" points="69.5,-123.5 69.5,-142.5 157.5,-142.5 157.5,-123.5 69.5,-123.5"/>
<text text-anchor="middle" x="113.5" y="-130.5" font-family="Helvetica,sans-Serif" font-size="10.00">CommandMap.h</text>
</a>
</g>
</g>
<!-- Node1&#45;&gt;Node4 -->
<g id="edge3" class="edge"><title>Node1&#45;&gt;Node4</title>
<path fill="none" stroke="midnightblue" d="M273.925,-291.428C252.686,-282.965 227.233,-270.757 207.5,-255 170.065,-225.106 138.78,-177.389 123.518,-151.721"/>
<polygon fill="midnightblue" stroke="midnightblue" points="126.361,-149.646 118.311,-142.758 120.308,-153.163 126.361,-149.646"/>
</g>
<!-- Node8 -->
<g id="node8" class="node"><title>Node8</title>
<g id="a_node8"><a xlink:href="_profile_manager_8h.html" target="_top" xlink:title="ProfileManager.h">
<polygon fill="white" stroke="black" points="217,-235.5 217,-254.5 306,-254.5 306,-235.5 217,-235.5"/>
<text text-anchor="middle" x="261.5" y="-242.5" font-family="Helvetica,sans-Serif" font-size="10.00">ProfileManager.h</text>
</a>
</g>
</g>
<!-- Node1&#45;&gt;Node8 -->
<g id="edge10" class="edge"><title>Node1&#45;&gt;Node8</title>
<path fill="none" stroke="midnightblue" d="M302.703,-291.399C294.775,-282.664 284.564,-271.413 276.29,-262.296"/>
<polygon fill="midnightblue" stroke="midnightblue" points="278.67,-259.711 269.357,-254.658 273.486,-264.415 278.67,-259.711"/>
</g>
<!-- Node11 -->
<g id="node11" class="node"><title>Node11</title>
<g id="a_node11"><a xlink:href="_send_keys_8h.html" target="_top" xlink:title="SendKeys.h">
<polygon fill="white" stroke="black" points="397.5,-123.5 397.5,-142.5 467.5,-142.5 467.5,-123.5 397.5,-123.5"/>
<text text-anchor="middle" x="432.5" y="-130.5" font-family="Helvetica,sans-Serif" font-size="10.00">SendKeys.h</text>
</a>
</g>
</g>
<!-- Node1&#45;&gt;Node11 -->
<g id="edge24" class="edge"><title>Node1&#45;&gt;Node11</title>
<path fill="none" stroke="midnightblue" d="M340.863,-291.416C354.984,-282.513 371.984,-269.888 383.5,-255 408.021,-223.3 422.046,-177.66 428.375,-152.463"/>
<polygon fill="midnightblue" stroke="midnightblue" points="431.781,-153.27 430.689,-142.732 424.971,-151.651 431.781,-153.27"/>
</g>
<!-- Node13 -->
<g id="node13" class="node"><title>Node13</title>
<g id="a_node13"><a xlink:href="_m_i_d_i_sender_8h.html" target="_top" xlink:title="MIDISender.h">
<polygon fill="white" stroke="black" points="452,-179.5 452,-198.5 527,-198.5 527,-179.5 452,-179.5"/>
<text text-anchor="middle" x="489.5" y="-186.5" font-family="Helvetica,sans-Serif" font-size="10.00">MIDISender.h</text>
</a>
</g>
</g>
<!-- Node1&#45;&gt;Node13 -->
<g id="edge22" class="edge"><title>Node1&#45;&gt;Node13</title>
<path fill="none" stroke="midnightblue" d="M360.455,-291.428C383.308,-282.997 410.767,-270.819 432.5,-255 450.816,-241.668 467.349,-221.462 477.834,-207.121"/>
<polygon fill="midnightblue" stroke="midnightblue" points="480.89,-208.861 483.808,-198.676 475.176,-204.818 480.89,-208.861"/>
</g>
<!-- Node4&#45;&gt;Node2 -->
<g id="edge4" class="edge"><title>Node4&#45;&gt;Node2</title>
<path fill="none" stroke="midnightblue" d="M144.734,-123.475C177.977,-114.402 231.357,-99.8325 272.553,-88.5888"/>
<polygon fill="midnightblue" stroke="midnightblue" points="273.484,-91.9629 282.209,-85.9533 271.64,-85.2099 273.484,-91.9629"/>
</g>
<!-- Node4&#45;&gt;Node3 -->
<g id="edge5" class="edge"><title>Node4&#45;&gt;Node3</title>
<path fill="none" stroke="midnightblue" d="M103.184,-123.475C91.8494,-114.108 73.4267,-98.8839 59.661,-87.5081"/>
<polygon fill="midnightblue" stroke="midnightblue" points="61.7348,-84.6813 51.7967,-81.0091 57.2756,-90.0773 61.7348,-84.6813"/>
</g>
<!-- Node5 -->
<g id="node5" class="node"><title>Node5</title>
<g id="a_node5"><a xlink:href="_subject_8h.html" target="_top" xlink:title="Pattern/Subject.h">
<polygon fill="white" stroke="black" points="101.5,-62 101.5,-81 193.5,-81 193.5,-62 101.5,-62"/>
<text text-anchor="middle" x="147.5" y="-69" font-family="Helvetica,sans-Serif" font-size="10.00">Pattern/Subject.h</text>
</a>
</g>
</g>
<!-- Node4&#45;&gt;Node5 -->
<g id="edge6" class="edge"><title>Node4&#45;&gt;Node5</title>
<path fill="none" stroke="midnightblue" d="M118.371,-123.475C123.37,-114.727 131.289,-100.869 137.609,-89.8093"/>
<polygon fill="midnightblue" stroke="midnightblue" points="140.715,-91.428 142.638,-81.0091 134.637,-87.955 140.715,-91.428"/>
</g>
<!-- Node6 -->
<g id="node6" class="node"><title>Node6</title>
<g id="a_node6"><a xlink:href="_observer_8h.html" target="_top" xlink:title="Observer.h">
<polygon fill="white" stroke="black" points="116,-0.5 116,-19.5 179,-19.5 179,-0.5 116,-0.5"/>
<text text-anchor="middle" x="147.5" y="-7.5" font-family="Helvetica,sans-Serif" font-size="10.00">Observer.h</text>
</a>
</g>
</g>
<!-- Node5&#45;&gt;Node6 -->
<g id="edge7" class="edge"><title>Node5&#45;&gt;Node6</title>
<path fill="none" stroke="midnightblue" d="M142.599,-61.9751C140.768,-53.5803 140.297,-40.4806 141.185,-29.6631"/>
<polygon fill="midnightblue" stroke="midnightblue" points="144.686,-29.897 142.603,-19.5091 137.754,-28.929 144.686,-29.897"/>
</g>
<!-- Node7 -->
<g id="node7" class="node"><title>Node7</title>
<polygon fill="white" stroke="#bfbfbf" points="197.5,-0.5 197.5,-19.5 239.5,-19.5 239.5,-0.5 197.5,-0.5"/>
<text text-anchor="middle" x="218.5" y="-7.5" font-family="Helvetica,sans-Serif" font-size="10.00">vector</text>
</g>
<!-- Node5&#45;&gt;Node7 -->
<g id="edge9" class="edge"><title>Node5&#45;&gt;Node7</title>
<path fill="none" stroke="midnightblue" d="M157.673,-61.9751C168.85,-52.6082 187.017,-37.3839 200.591,-26.0081"/>
<polygon fill="midnightblue" stroke="midnightblue" points="202.93,-28.6148 208.346,-19.5091 198.434,-23.2496 202.93,-28.6148"/>
</g>
<!-- Node6&#45;&gt;Node5 -->
<g id="edge8" class="edge"><title>Node6&#45;&gt;Node5</title>
<path fill="none" stroke="midnightblue" d="M152.397,-19.5091C154.23,-27.898 154.703,-40.9962 153.817,-51.8165"/>
<polygon fill="midnightblue" stroke="midnightblue" points="150.315,-51.5876 152.401,-61.9751 157.248,-52.554 150.315,-51.5876"/>
</g>
<!-- Node8&#45;&gt;Node2 -->
<g id="edge11" class="edge"><title>Node8&#45;&gt;Node2</title>
<path fill="none" stroke="midnightblue" d="M275.358,-235.478C286.991,-227.54 303.03,-214.6 311.5,-199 328.952,-166.856 332.233,-123.789 332.35,-97.1099"/>
<polygon fill="midnightblue" stroke="midnightblue" points="335.846,-96.7203 332.238,-86.7587 328.846,-96.796 335.846,-96.7203"/>
</g>
<!-- Node8&#45;&gt;Node4 -->
<g id="edge21" class="edge"><title>Node8&#45;&gt;Node4</title>
<path fill="none" stroke="midnightblue" d="M249.887,-235.368C224.706,-216.653 164.83,-172.151 133.456,-148.832"/>
<polygon fill="midnightblue" stroke="midnightblue" points="135.173,-145.748 125.059,-142.591 130.997,-151.366 135.173,-145.748"/>
</g>
<!-- Node9 -->
<g id="node9" class="node"><title>Node9</title>
<g id="a_node9"><a xlink:href="_m_i_d_i_processor_8h.html" target="_top" xlink:title="MIDIProcessor.h">
<polygon fill="white" stroke="black" points="176,-123.5 176,-142.5 265,-142.5 265,-123.5 176,-123.5"/>
<text text-anchor="middle" x="220.5" y="-130.5" font-family="Helvetica,sans-Serif" font-size="10.00">MIDIProcessor.h</text>
</a>
</g>
</g>
<!-- Node8&#45;&gt;Node9 -->
<g id="edge12" class="edge"><title>Node8&#45;&gt;Node9</title>
<path fill="none" stroke="midnightblue" d="M245.766,-235.236C233.611,-227.481 217.688,-214.929 210.5,-199 203.83,-184.219 207.639,-165.831 212.353,-152.389"/>
<polygon fill="midnightblue" stroke="midnightblue" points="215.71,-153.418 216.144,-142.832 209.203,-150.837 215.71,-153.418"/>
</g>
<!-- Node10 -->
<g id="node10" class="node"><title>Node10</title>
<g id="a_node10"><a xlink:href="_l_r___i_p_c___out_8h.html" target="_top" xlink:title="LR_IPC_OUT.h">
<polygon fill="white" stroke="black" points="220,-179.5 220,-198.5 303,-198.5 303,-179.5 220,-179.5"/>
<text text-anchor="middle" x="261.5" y="-186.5" font-family="Helvetica,sans-Serif" font-size="10.00">LR_IPC_OUT.h</text>
</a>
</g>
</g>
<!-- Node8&#45;&gt;Node10 -->
<g id="edge14" class="edge"><title>Node8&#45;&gt;Node10</title>
<path fill="none" stroke="midnightblue" d="M261.5,-235.083C261.5,-228.006 261.5,-217.861 261.5,-208.986"/>
<polygon fill="midnightblue" stroke="midnightblue" points="265,-208.751 261.5,-198.751 258,-208.751 265,-208.751"/>
</g>
<!-- Node9&#45;&gt;Node2 -->
<g id="edge13" class="edge"><title>Node9&#45;&gt;Node2</title>
<path fill="none" stroke="midnightblue" d="M236.404,-123.475C251.999,-115.115 276.298,-102.09 296.429,-91.2991"/>
<polygon fill="midnightblue" stroke="midnightblue" points="298.179,-94.3322 305.339,-86.523 294.872,-88.1627 298.179,-94.3322"/>
</g>
<!-- Node10&#45;&gt;Node2 -->
<g id="edge15" class="edge"><title>Node10&#45;&gt;Node2</title>
<path fill="none" stroke="midnightblue" d="M266.761,-179.319C277.466,-161.657 302.083,-121.039 317.688,-95.2891"/>
<polygon fill="midnightblue" stroke="midnightblue" points="320.798,-96.9114 322.988,-86.5453 314.811,-93.2832 320.798,-96.9114"/>
</g>
<!-- Node10&#45;&gt;Node4 -->
<g id="edge17" class="edge"><title>Node10&#45;&gt;Node4</title>
<path fill="none" stroke="midnightblue" d="M238.049,-179.444C213.367,-170.438 174.315,-156.189 146.523,-146.049"/>
<polygon fill="midnightblue" stroke="midnightblue" points="147.435,-142.656 136.841,-142.516 145.036,-149.232 147.435,-142.656"/>
</g>
<!-- Node10&#45;&gt;Node9 -->
<g id="edge16" class="edge"><title>Node10&#45;&gt;Node9</title>
<path fill="none" stroke="midnightblue" d="M254.73,-179.083C248.938,-171.455 240.442,-160.264 233.362,-150.941"/>
<polygon fill="midnightblue" stroke="midnightblue" points="235.979,-148.599 227.144,-142.751 230.404,-152.832 235.979,-148.599"/>
</g>
<!-- Node10&#45;&gt;Node11 -->
<g id="edge18" class="edge"><title>Node10&#45;&gt;Node11</title>
<path fill="none" stroke="midnightblue" d="M288.595,-179.444C317.488,-170.32 363.425,-155.813 395.605,-145.651"/>
<polygon fill="midnightblue" stroke="midnightblue" points="397.049,-148.865 405.531,-142.516 394.941,-142.19 397.049,-148.865"/>
</g>
<!-- Node11&#45;&gt;Node2 -->
<g id="edge20" class="edge"><title>Node11&#45;&gt;Node2</title>
<path fill="none" stroke="midnightblue" d="M418.029,-123.475C404.094,-115.266 382.523,-102.558 364.405,-91.8845"/>
<polygon fill="midnightblue" stroke="midnightblue" points="365.696,-88.5832 355.304,-86.523 362.143,-94.6144 365.696,-88.5832"/>
</g>
<!-- Node12 -->
<g id="node12" class="node"><title>Node12</title>
<polygon fill="white" stroke="#bfbfbf" points="410.5,-62 410.5,-81 454.5,-81 454.5,-62 410.5,-62"/>
<text text-anchor="middle" x="432.5" y="-69" font-family="Helvetica,sans-Serif" font-size="10.00">mutex</text>
</g>
<!-- Node11&#45;&gt;Node12 -->
<g id="edge19" class="edge"><title>Node11&#45;&gt;Node12</title>
<path fill="none" stroke="midnightblue" d="M432.5,-123.475C432.5,-115.08 432.5,-101.981 432.5,-91.1631"/>
<polygon fill="midnightblue" stroke="midnightblue" points="436,-91.0091 432.5,-81.0091 429,-91.0091 436,-91.0091"/>
</g>
<!-- Node13&#45;&gt;Node2 -->
<g id="edge23" class="edge"><title>Node13&#45;&gt;Node2</title>
<path fill="none" stroke="midnightblue" d="M490.294,-179.257C491.039,-165.561 490.407,-138.968 476.5,-123 464.698,-109.449 425.109,-96.1645 390.275,-86.6243"/>
<polygon fill="midnightblue" stroke="midnightblue" points="391.168,-83.2402 380.603,-84.0356 389.358,-90.0022 391.168,-83.2402"/>
</g>
</g>
</svg>
