<?xml version="1.0" encoding="UTF-8" standalone="no"?>
<!DOCTYPE svg PUBLIC "-//W3C//DTD SVG 1.1//EN"
 "http://www.w3.org/Graphics/SVG/1.1/DTD/svg11.dtd">
<!-- Generated by graphviz version 2.38.0 (20140413.2041)
 -->
<!-- Title: Q:/Documents/GitHub/MIDI2LR/Source/LRCommands.h Pages: 1 -->
<svg width="183pt" height="106pt"
 viewBox="0.00 0.00 182.50 106.00" xmlns="http://www.w3.org/2000/svg" xmlns:xlink="http://www.w3.org/1999/xlink">
<g id="graph0" class="graph" transform="scale(1 1) rotate(0) translate(4 102)">
<title>Q:/Documents/GitHub/MIDI2LR/Source/LRCommands.h</title>
<polygon fill="white" stroke="none" points="-4,4 -4,-102 178.5,-102 178.5,4 -4,4"/>
<!-- Node1 -->
<g id="node1" class="node"><title>Node1</title>
<polygon fill="#bfbfbf" stroke="black" points="11.5,-67.5 11.5,-97.5 174.5,-97.5 174.5,-67.5 11.5,-67.5"/>
<text text-anchor="start" x="19.5" y="-85.5" font-family="Helvetica,sans-Serif" font-size="10.00">Q:/Documents/GitHub</text>
<text text-anchor="middle" x="93" y="-74.5" font-family="Helvetica,sans-Serif" font-size="10.00">/MIDI2LR/Source/LRCommands.h</text>
</g>
<!-- Node2 -->
<g id="node2" class="node"><title>Node2</title>
<polygon fill="white" stroke="#bfbfbf" points="0,-0.5 0,-30.5 98,-30.5 98,-0.5 0,-0.5"/>
<text text-anchor="start" x="8" y="-18.5" font-family="Helvetica,sans-Serif" font-size="10.00">../JuceLibraryCode</text>
<text text-anchor="middle" x="49" y="-7.5" font-family="Helvetica,sans-Serif" font-size="10.00">/JuceHeader.h</text>
</g>
<!-- Node1&#45;&gt;Node2 -->
<g id="edge1" class="edge"><title>Node1&#45;&gt;Node2</title>
<path fill="none" stroke="midnightblue" d="M83.4527,-67.396C77.8598,-59.1338 70.6659,-48.5065 64.2996,-39.1017"/>
<polygon fill="midnightblue" stroke="midnightblue" points="67.0328,-36.8956 58.5287,-30.5765 61.236,-40.8196 67.0328,-36.8956"/>
</g>
<!-- Node3 -->
<g id="node3" class="node"><title>Node3</title>
<polygon fill="white" stroke="#bfbfbf" points="116,-6 116,-25 158,-25 158,-6 116,-6"/>
<text text-anchor="middle" x="137" y="-13" font-family="Helvetica,sans-Serif" font-size="10.00">vector</text>
</g>
<!-- Node1&#45;&gt;Node3 -->
<g id="edge2" class="edge"><title>Node1&#45;&gt;Node3</title>
<path fill="none" stroke="midnightblue" d="M102.547,-67.396C109.272,-57.4617 118.311,-44.1083 125.444,-33.5719"/>
<polygon fill="midnightblue" stroke="midnightblue" points="128.407,-35.4376 131.114,-25.1945 122.61,-31.5136 128.407,-35.4376"/>
</g>
</g>
</svg>
