<?xml version="1.0" encoding="UTF-8" standalone="no"?>
<!DOCTYPE svg PUBLIC "-//W3C//DTD SVG 1.1//EN"
 "http://www.w3.org/Graphics/SVG/1.1/DTD/svg11.dtd">
<!-- Generated by graphviz version 2.38.0 (20140413.2041)
 -->
<!-- Title: Q:/Documents/GitHub/MIDI2LR/Source/LR_IPC_Out.cpp Pages: 1 -->
<svg width="434pt" height="285pt"
 viewBox="0.00 0.00 434.00 285.00" xmlns="http://www.w3.org/2000/svg" xmlns:xlink="http://www.w3.org/1999/xlink">
<g id="graph0" class="graph" transform="scale(1 1) rotate(0) translate(4 281)">
<title>Q:/Documents/GitHub/MIDI2LR/Source/LR_IPC_Out.cpp</title>
<polygon fill="white" stroke="none" points="-4,4 -4,-281 430,-281 430,4 -4,4"/>
<!-- Node1 -->
<g id="node1" class="node"><title>Node1</title>
<polygon fill="#bfbfbf" stroke="black" points="215,-235.5 215,-276.5 341,-276.5 341,-235.5 215,-235.5"/>
<text text-anchor="start" x="223" y="-264.5" font-family="Helvetica,sans-Serif" font-size="10.00">Q:/Documents/GitHub</text>
<text text-anchor="start" x="223" y="-253.5" font-family="Helvetica,sans-Serif" font-size="10.00">/MIDI2LR/Source/LR_IPC</text>
<text text-anchor="middle" x="278" y="-242.5" font-family="Helvetica,sans-Serif" font-size="10.00">_Out.cpp</text>
</g>
<!-- Node2 -->
<g id="node2" class="node"><title>Node2</title>
<g id="a_node2"><a xlink:href="_l_r___i_p_c___out_8h.html" target="_top" xlink:title="LR_IPC_OUT.h">
<polygon fill="white" stroke="black" points="164.5,-179.5 164.5,-198.5 247.5,-198.5 247.5,-179.5 164.5,-179.5"/>
<text text-anchor="middle" x="206" y="-186.5" font-family="Helvetica,sans-Serif" font-size="10.00">LR_IPC_OUT.h</text>
</a>
</g>
</g>
<!-- Node1&#45;&gt;Node2 -->
<g id="edge1" class="edge"><title>Node1&#45;&gt;Node2</title>
<path fill="none" stroke="midnightblue" d="M256.398,-235.498C245.783,-225.915 233.17,-214.528 223.217,-205.543"/>
<polygon fill="midnightblue" stroke="midnightblue" points="225.352,-202.756 215.584,-198.652 220.662,-207.952 225.352,-202.756"/>
</g>
<!-- Node5 -->
<g id="node5" class="node"><title>Node5</title>
<g id="a_node5"><a xlink:href="_command_map_8h.html" target="_top" xlink:title="CommandMap.h">
<polygon fill="white" stroke="black" points="234,-123.5 234,-142.5 322,-142.5 322,-123.5 234,-123.5"/>
<text text-anchor="middle" x="278" y="-130.5" font-family="Helvetica,sans-Serif" font-size="10.00">CommandMap.h</text>
</a>
</g>
</g>
<!-- Node1&#45;&gt;Node5 -->
<g id="edge15" class="edge"><title>Node1&#45;&gt;Node5</title>
<path fill="none" stroke="midnightblue" d="M278,-235.29C278,-212.48 278,-175.189 278,-152.781"/>
<polygon fill="midnightblue" stroke="midnightblue" points="281.5,-152.575 278,-142.575 274.5,-152.575 281.5,-152.575"/>
</g>
<!-- Node12 -->
<g id="node12" class="node"><title>Node12</title>
<g id="a_node12"><a xlink:href="_l_r_commands_8h.html" target="_top" xlink:title="LRCommands.h">
<polygon fill="white" stroke="black" points="340,-123.5 340,-142.5 426,-142.5 426,-123.5 340,-123.5"/>
<text text-anchor="middle" x="383" y="-130.5" font-family="Helvetica,sans-Serif" font-size="10.00">LRCommands.h</text>
</a>
</g>
</g>
<!-- Node1&#45;&gt;Node12 -->
<g id="edge16" class="edge"><title>Node1&#45;&gt;Node12</title>
<path fill="none" stroke="midnightblue" d="M295.104,-235.29C315.624,-211.642 349.65,-172.432 368.79,-150.375"/>
<polygon fill="midnightblue" stroke="midnightblue" points="371.648,-152.422 375.559,-142.575 366.361,-147.834 371.648,-152.422"/>
</g>
<!-- Node3 -->
<g id="node3" class="node"><title>Node3</title>
<polygon fill="white" stroke="#bfbfbf" points="100,-56.5 100,-86.5 198,-86.5 198,-56.5 100,-56.5"/>
<text text-anchor="start" x="108" y="-74.5" font-family="Helvetica,sans-Serif" font-size="10.00">../JuceLibraryCode</text>
<text text-anchor="middle" x="149" y="-63.5" font-family="Helvetica,sans-Serif" font-size="10.00">/JuceHeader.h</text>
</g>
<!-- Node2&#45;&gt;Node3 -->
<g id="edge2" class="edge"><title>Node2&#45;&gt;Node3</title>
<path fill="none" stroke="midnightblue" d="M204.28,-179.237C201.551,-166.411 195.538,-141.992 186,-123 181.025,-113.093 174.14,-103.064 167.658,-94.5822"/>
<polygon fill="midnightblue" stroke="midnightblue" points="170.349,-92.3426 161.395,-86.6786 164.862,-96.69 170.349,-92.3426"/>
</g>
<!-- Node4 -->
<g id="node4" class="node"><title>Node4</title>
<g id="a_node4"><a xlink:href="_m_i_d_i_processor_8h.html" target="_top" xlink:title="MIDIProcessor.h">
<polygon fill="white" stroke="black" points="88.5,-123.5 88.5,-142.5 177.5,-142.5 177.5,-123.5 88.5,-123.5"/>
<text text-anchor="middle" x="133" y="-130.5" font-family="Helvetica,sans-Serif" font-size="10.00">MIDIProcessor.h</text>
</a>
</g>
</g>
<!-- Node2&#45;&gt;Node4 -->
<g id="edge3" class="edge"><title>Node2&#45;&gt;Node4</title>
<path fill="none" stroke="midnightblue" d="M194.271,-179.324C183.163,-171.107 166.258,-158.602 153.017,-148.807"/>
<polygon fill="midnightblue" stroke="midnightblue" points="155.063,-145.967 144.942,-142.834 150.9,-151.595 155.063,-145.967"/>
</g>
<!-- Node2&#45;&gt;Node5 -->
<g id="edge5" class="edge"><title>Node2&#45;&gt;Node5</title>
<path fill="none" stroke="midnightblue" d="M217.568,-179.324C228.42,-171.185 244.881,-158.839 257.883,-149.087"/>
<polygon fill="midnightblue" stroke="midnightblue" points="260.321,-151.634 266.221,-142.834 256.121,-146.034 260.321,-151.634"/>
</g>
<!-- Node10 -->
<g id="node10" class="node"><title>Node10</title>
<g id="a_node10"><a xlink:href="_send_keys_8h.html" target="_top" xlink:title="SendKeys.h">
<polygon fill="white" stroke="black" points="0,-123.5 0,-142.5 70,-142.5 70,-123.5 0,-123.5"/>
<text text-anchor="middle" x="35" y="-130.5" font-family="Helvetica,sans-Serif" font-size="10.00">SendKeys.h</text>
</a>
</g>
</g>
<!-- Node2&#45;&gt;Node10 -->
<g id="edge12" class="edge"><title>Node2&#45;&gt;Node10</title>
<path fill="none" stroke="midnightblue" d="M178.905,-179.444C150.012,-170.32 104.075,-155.813 71.8946,-145.651"/>
<polygon fill="midnightblue" stroke="midnightblue" points="72.5585,-142.19 61.9687,-142.516 70.4505,-148.865 72.5585,-142.19"/>
</g>
<!-- Node4&#45;&gt;Node3 -->
<g id="edge4" class="edge"><title>Node4&#45;&gt;Node3</title>
<path fill="none" stroke="midnightblue" d="M135.292,-123.475C137.196,-116.396 140,-105.97 142.576,-96.3896"/>
<polygon fill="midnightblue" stroke="midnightblue" points="146.012,-97.0888 145.229,-86.523 139.252,-95.271 146.012,-97.0888"/>
</g>
<!-- Node5&#45;&gt;Node3 -->
<g id="edge6" class="edge"><title>Node5&#45;&gt;Node3</title>
<path fill="none" stroke="midnightblue" d="M259.517,-123.475C241.066,-114.965 212.133,-101.619 188.498,-90.718"/>
<polygon fill="midnightblue" stroke="midnightblue" points="189.949,-87.5332 179.403,-86.523 187.017,-93.8896 189.949,-87.5332"/>
</g>
<!-- Node6 -->
<g id="node6" class="node"><title>Node6</title>
<polygon fill="white" stroke="#bfbfbf" points="326.5,-62 326.5,-81 409.5,-81 409.5,-62 326.5,-62"/>
<text text-anchor="middle" x="368" y="-69" font-family="Helvetica,sans-Serif" font-size="10.00">unordered_map</text>
</g>
<!-- Node5&#45;&gt;Node6 -->
<g id="edge7" class="edge"><title>Node5&#45;&gt;Node6</title>
<path fill="none" stroke="midnightblue" d="M290.895,-123.475C305.464,-113.843 329.402,-98.0175 346.745,-86.5517"/>
<polygon fill="midnightblue" stroke="midnightblue" points="348.717,-89.4437 355.129,-81.0091 344.857,-83.6044 348.717,-89.4437"/>
</g>
<!-- Node7 -->
<g id="node7" class="node"><title>Node7</title>
<g id="a_node7"><a xlink:href="_subject_8h.html" target="_top" xlink:title="Pattern/Subject.h">
<polygon fill="white" stroke="black" points="216,-62 216,-81 308,-81 308,-62 216,-62"/>
<text text-anchor="middle" x="262" y="-69" font-family="Helvetica,sans-Serif" font-size="10.00">Pattern/Subject.h</text>
</a>
</g>
</g>
<!-- Node5&#45;&gt;Node7 -->
<g id="edge8" class="edge"><title>Node5&#45;&gt;Node7</title>
<path fill="none" stroke="midnightblue" d="M275.708,-123.475C273.426,-114.992 269.853,-101.704 266.927,-90.8222"/>
<polygon fill="midnightblue" stroke="midnightblue" points="270.265,-89.7571 264.288,-81.0091 263.505,-91.5749 270.265,-89.7571"/>
</g>
<!-- Node8 -->
<g id="node8" class="node"><title>Node8</title>
<g id="a_node8"><a xlink:href="_observer_8h.html" target="_top" xlink:title="Observer.h">
<polygon fill="white" stroke="black" points="230.5,-0.5 230.5,-19.5 293.5,-19.5 293.5,-0.5 230.5,-0.5"/>
<text text-anchor="middle" x="262" y="-7.5" font-family="Helvetica,sans-Serif" font-size="10.00">Observer.h</text>
</a>
</g>
</g>
<!-- Node7&#45;&gt;Node8 -->
<g id="edge9" class="edge"><title>Node7&#45;&gt;Node8</title>
<path fill="none" stroke="midnightblue" d="M257.099,-61.9751C255.268,-53.5803 254.797,-40.4806 255.685,-29.6631"/>
<polygon fill="midnightblue" stroke="midnightblue" points="259.186,-29.897 257.103,-19.5091 252.254,-28.929 259.186,-29.897"/>
</g>
<!-- Node9 -->
<g id="node9" class="node"><title>Node9</title>
<polygon fill="white" stroke="#bfbfbf" points="364,-0.5 364,-19.5 406,-19.5 406,-0.5 364,-0.5"/>
<text text-anchor="middle" x="385" y="-7.5" font-family="Helvetica,sans-Serif" font-size="10.00">vector</text>
</g>
<!-- Node7&#45;&gt;Node9 -->
<g id="edge11" class="edge"><title>Node7&#45;&gt;Node9</title>
<path fill="none" stroke="midnightblue" d="M279.623,-61.9751C300.174,-52.0338 334.364,-35.4947 358.207,-23.961"/>
<polygon fill="midnightblue" stroke="midnightblue" points="359.932,-27.0145 367.41,-19.5091 356.884,-20.7131 359.932,-27.0145"/>
</g>
<!-- Node8&#45;&gt;Node7 -->
<g id="edge10" class="edge"><title>Node8&#45;&gt;Node7</title>
<path fill="none" stroke="midnightblue" d="M266.897,-19.5091C268.73,-27.898 269.203,-40.9962 268.317,-51.8165"/>
<polygon fill="midnightblue" stroke="midnightblue" points="264.815,-51.5876 266.901,-61.9751 271.748,-52.554 264.815,-51.5876"/>
</g>
<!-- Node10&#45;&gt;Node3 -->
<g id="edge14" class="edge"><title>Node10&#45;&gt;Node3</title>
<path fill="none" stroke="midnightblue" d="M51.3334,-123.475C67.4225,-115.078 92.5312,-101.973 113.261,-91.1534"/>
<polygon fill="midnightblue" stroke="midnightblue" points="114.887,-94.2528 122.132,-86.523 111.648,-88.0472 114.887,-94.2528"/>
</g>
<!-- Node11 -->
<g id="node11" class="node"><title>Node11</title>
<polygon fill="white" stroke="#bfbfbf" points="13,-62 13,-81 57,-81 57,-62 13,-62"/>
<text text-anchor="middle" x="35" y="-69" font-family="Helvetica,sans-Serif" font-size="10.00">mutex</text>
</g>
<!-- Node10&#45;&gt;Node11 -->
<g id="edge13" class="edge"><title>Node10&#45;&gt;Node11</title>
<path fill="none" stroke="midnightblue" d="M35,-123.475C35,-115.08 35,-101.981 35,-91.1631"/>
<polygon fill="midnightblue" stroke="midnightblue" points="38.5001,-91.0091 35,-81.0091 31.5001,-91.0091 38.5001,-91.0091"/>
</g>
<!-- Node12&#45;&gt;Node3 -->
<g id="edge17" class="edge"><title>Node12&#45;&gt;Node3</title>
<path fill="none" stroke="midnightblue" d="M349.474,-123.475C312.7,-114.125 252.97,-98.9369 208.257,-87.5675"/>
<polygon fill="midnightblue" stroke="midnightblue" points="208.94,-84.13 198.386,-85.0576 207.215,-90.9141 208.94,-84.13"/>
</g>
<!-- Node12&#45;&gt;Node9 -->
<g id="edge18" class="edge"><title>Node12&#45;&gt;Node9</title>
<path fill="none" stroke="midnightblue" d="M393.162,-123.185C401.908,-114.87 413.9,-101.539 419,-87 423.561,-73.9989 423.38,-69.063 419,-56 415.396,-45.2512 408.097,-35.0204 401.183,-27.0378"/>
<polygon fill="midnightblue" stroke="midnightblue" points="403.655,-24.5561 394.288,-19.6053 398.523,-29.3168 403.655,-24.5561"/>
</g>
</g>
</svg>
