<?xml version="1.0" encoding="UTF-8" standalone="no"?>
<!DOCTYPE svg PUBLIC "-//W3C//DTD SVG 1.1//EN"
 "http://www.w3.org/Graphics/SVG/1.1/DTD/svg11.dtd">
<!-- Generated by graphviz version 2.38.0 (20140413.2041)
 -->
<!-- Title: Q:/Documents/GitHub/MIDI2LR/Source/LR_IPC_Out.h Pages: 1 -->
<svg width="387pt" height="218pt"
 viewBox="0.00 0.00 386.88 218.00" xmlns="http://www.w3.org/2000/svg" xmlns:xlink="http://www.w3.org/1999/xlink">
<g id="graph0" class="graph" transform="scale(1 1) rotate(0) translate(4 214)">
<title>Q:/Documents/GitHub/MIDI2LR/Source/LR_IPC_Out.h</title>
<polygon fill="white" stroke="none" points="-4,4 -4,-214 382.88,-214 382.88,4 -4,4"/>
<!-- Node1 -->
<g id="node1" class="node"><title>Node1</title>
<polygon fill="#bfbfbf" stroke="black" points="33.3804,-179.5 33.3804,-209.5 188.38,-209.5 188.38,-179.5 33.3804,-179.5"/>
<text text-anchor="start" x="41.3804" y="-197.5" font-family="Helvetica,sans-Serif" font-size="10.00">Q:/Documents/GitHub</text>
<text text-anchor="middle" x="110.88" y="-186.5" font-family="Helvetica,sans-Serif" font-size="10.00">/MIDI2LR/Source/LR_IPC_Out.h</text>
</g>
<!-- Node2 -->
<g id="node2" class="node"><title>Node2</title>
<polygon fill="white" stroke="#bfbfbf" points="6.88037,-56.5 6.88037,-86.5 104.88,-86.5 104.88,-56.5 6.88037,-56.5"/>
<text text-anchor="start" x="14.8804" y="-74.5" font-family="Helvetica,sans-Serif" font-size="10.00">../JuceLibraryCode</text>
<text text-anchor="middle" x="55.8804" y="-63.5" font-family="Helvetica,sans-Serif" font-size="10.00">/JuceHeader.h</text>
</g>
<!-- Node1&#45;&gt;Node2 -->
<g id="edge1" class="edge"><title>Node1&#45;&gt;Node2</title>
<path fill="none" stroke="midnightblue" d="M52.3562,-179.425C33.6095,-171.851 14.8771,-160.35 3.88037,-143 -7.17486,-125.558 8.12581,-106.785 24.9343,-93.0001"/>
<polygon fill="midnightblue" stroke="midnightblue" points="27.3937,-95.5247 33.198,-86.6613 23.1333,-89.9705 27.3937,-95.5247"/>
</g>
<!-- Node3 -->
<g id="node3" class="node"><title>Node3</title>
<g id="a_node3"><a xlink:href="_m_i_d_i_processor_8h.html" target="_top" xlink:title="MIDIProcessor.h">
<polygon fill="white" stroke="black" points="13.3804,-123.5 13.3804,-142.5 102.38,-142.5 102.38,-123.5 13.3804,-123.5"/>
<text text-anchor="middle" x="57.8804" y="-130.5" font-family="Helvetica,sans-Serif" font-size="10.00">MIDIProcessor.h</text>
</a>
</g>
</g>
<!-- Node1&#45;&gt;Node3 -->
<g id="edge2" class="edge"><title>Node1&#45;&gt;Node3</title>
<path fill="none" stroke="midnightblue" d="M98.3201,-179.399C90.5392,-170.664 80.5168,-159.413 72.3964,-150.296"/>
<polygon fill="midnightblue" stroke="midnightblue" points="74.8573,-147.797 65.5923,-142.658 69.6303,-152.453 74.8573,-147.797"/>
</g>
<!-- Node4 -->
<g id="node4" class="node"><title>Node4</title>
<g id="a_node4"><a xlink:href="_command_map_8h.html" target="_top" xlink:title="CommandMap.h">
<polygon fill="white" stroke="black" points="120.88,-123.5 120.88,-142.5 208.88,-142.5 208.88,-123.5 120.88,-123.5"/>
<text text-anchor="middle" x="164.88" y="-130.5" font-family="Helvetica,sans-Serif" font-size="10.00">CommandMap.h</text>
</a>
</g>
</g>
<!-- Node1&#45;&gt;Node4 -->
<g id="edge4" class="edge"><title>Node1&#45;&gt;Node4</title>
<path fill="none" stroke="midnightblue" d="M123.678,-179.399C131.605,-170.664 141.817,-159.413 150.091,-150.296"/>
<polygon fill="midnightblue" stroke="midnightblue" points="152.894,-152.415 157.023,-142.658 147.711,-147.711 152.894,-152.415"/>
</g>
<!-- Node9 -->
<g id="node9" class="node"><title>Node9</title>
<g id="a_node9"><a xlink:href="_send_keys_8h.html" target="_top" xlink:title="SendKeys.h">
<polygon fill="white" stroke="black" points="226.88,-123.5 226.88,-142.5 296.88,-142.5 296.88,-123.5 226.88,-123.5"/>
<text text-anchor="middle" x="261.88" y="-130.5" font-family="Helvetica,sans-Serif" font-size="10.00">SendKeys.h</text>
</a>
</g>
</g>
<!-- Node1&#45;&gt;Node9 -->
<g id="edge11" class="edge"><title>Node1&#45;&gt;Node9</title>
<path fill="none" stroke="midnightblue" d="M146.665,-179.399C172.114,-169.372 205.977,-156.028 230.399,-146.405"/>
<polygon fill="midnightblue" stroke="midnightblue" points="231.888,-149.58 239.909,-142.658 229.322,-143.068 231.888,-149.58"/>
</g>
<!-- Node3&#45;&gt;Node2 -->
<g id="edge3" class="edge"><title>Node3&#45;&gt;Node2</title>
<path fill="none" stroke="midnightblue" d="M57.5938,-123.475C57.3584,-116.471 57.0129,-106.192 56.6937,-96.6956"/>
<polygon fill="midnightblue" stroke="midnightblue" points="60.1858,-96.3997 56.3517,-86.523 53.1897,-96.6349 60.1858,-96.3997"/>
</g>
<!-- Node4&#45;&gt;Node2 -->
<g id="edge5" class="edge"><title>Node4&#45;&gt;Node2</title>
<path fill="none" stroke="midnightblue" d="M149.263,-123.475C134.018,-115.153 110.302,-102.207 90.5864,-91.445"/>
<polygon fill="midnightblue" stroke="midnightblue" points="92.0239,-88.2423 81.5695,-86.523 88.67,-94.3865 92.0239,-88.2423"/>
</g>
<!-- Node5 -->
<g id="node5" class="node"><title>Node5</title>
<polygon fill="white" stroke="#bfbfbf" points="123.38,-62 123.38,-81 206.38,-81 206.38,-62 123.38,-62"/>
<text text-anchor="middle" x="164.88" y="-69" font-family="Helvetica,sans-Serif" font-size="10.00">unordered_map</text>
</g>
<!-- Node4&#45;&gt;Node5 -->
<g id="edge6" class="edge"><title>Node4&#45;&gt;Node5</title>
<path fill="none" stroke="midnightblue" d="M164.88,-123.475C164.88,-115.08 164.88,-101.981 164.88,-91.1631"/>
<polygon fill="midnightblue" stroke="midnightblue" points="168.38,-91.0091 164.88,-81.0091 161.38,-91.0091 168.38,-91.0091"/>
</g>
<!-- Node6 -->
<g id="node6" class="node"><title>Node6</title>
<g id="a_node6"><a xlink:href="_subject_8h.html" target="_top" xlink:title="Pattern/Subject.h">
<polygon fill="white" stroke="black" points="224.88,-62 224.88,-81 316.88,-81 316.88,-62 224.88,-62"/>
<text text-anchor="middle" x="270.88" y="-69" font-family="Helvetica,sans-Serif" font-size="10.00">Pattern/Subject.h</text>
</a>
</g>
</g>
<!-- Node4&#45;&gt;Node6 -->
<g id="edge7" class="edge"><title>Node4&#45;&gt;Node6</title>
<path fill="none" stroke="midnightblue" d="M180.068,-123.475C197.542,-113.666 226.459,-97.4346 246.964,-85.925"/>
<polygon fill="midnightblue" stroke="midnightblue" points="248.714,-88.956 255.721,-81.0091 245.288,-82.8519 248.714,-88.956"/>
</g>
<!-- Node7 -->
<g id="node7" class="node"><title>Node7</title>
<g id="a_node7"><a xlink:href="_observer_8h.html" target="_top" xlink:title="Observer.h">
<polygon fill="white" stroke="black" points="239.38,-0.5 239.38,-19.5 302.38,-19.5 302.38,-0.5 239.38,-0.5"/>
<text text-anchor="middle" x="270.88" y="-7.5" font-family="Helvetica,sans-Serif" font-size="10.00">Observer.h</text>
</a>
</g>
</g>
<!-- Node6&#45;&gt;Node7 -->
<g id="edge8" class="edge"><title>Node6&#45;&gt;Node7</title>
<path fill="none" stroke="midnightblue" d="M265.98,-61.9751C264.149,-53.5803 263.677,-40.4806 264.566,-29.6631"/>
<polygon fill="midnightblue" stroke="midnightblue" points="268.067,-29.897 265.983,-19.5091 261.134,-28.929 268.067,-29.897"/>
</g>
<!-- Node8 -->
<g id="node8" class="node"><title>Node8</title>
<polygon fill="white" stroke="#bfbfbf" points="320.88,-0.5 320.88,-19.5 362.88,-19.5 362.88,-0.5 320.88,-0.5"/>
<text text-anchor="middle" x="341.88" y="-7.5" font-family="Helvetica,sans-Serif" font-size="10.00">vector</text>
</g>
<!-- Node6&#45;&gt;Node8 -->
<g id="edge10" class="edge"><title>Node6&#45;&gt;Node8</title>
<path fill="none" stroke="midnightblue" d="M281.053,-61.9751C292.23,-52.6082 310.397,-37.3839 323.972,-26.0081"/>
<polygon fill="midnightblue" stroke="midnightblue" points="326.31,-28.6148 331.727,-19.5091 321.814,-23.2496 326.31,-28.6148"/>
</g>
<!-- Node7&#45;&gt;Node6 -->
<g id="edge9" class="edge"><title>Node7&#45;&gt;Node6</title>
<path fill="none" stroke="midnightblue" d="M275.778,-19.5091C277.61,-27.898 278.083,-40.9962 277.197,-51.8165"/>
<polygon fill="midnightblue" stroke="midnightblue" points="273.695,-51.5876 275.781,-61.9751 280.628,-52.554 273.695,-51.5876"/>
</g>
<!-- Node9&#45;&gt;Node2 -->
<g id="edge13" class="edge"><title>Node9&#45;&gt;Node2</title>
<path fill="none" stroke="midnightblue" d="M232.366,-123.475C201.728,-114.626 152.99,-100.549 114.487,-89.4277"/>
<polygon fill="midnightblue" stroke="midnightblue" points="115.009,-85.9354 104.43,-86.523 113.067,-92.6605 115.009,-85.9354"/>
</g>
<!-- Node10 -->
<g id="node10" class="node"><title>Node10</title>
<polygon fill="white" stroke="#bfbfbf" points="334.88,-62 334.88,-81 378.88,-81 378.88,-62 334.88,-62"/>
<text text-anchor="middle" x="356.88" y="-69" font-family="Helvetica,sans-Serif" font-size="10.00">mutex</text>
</g>
<!-- Node9&#45;&gt;Node10 -->
<g id="edge12" class="edge"><title>Node9&#45;&gt;Node10</title>
<path fill="none" stroke="midnightblue" d="M275.492,-123.475C290.941,-113.799 316.37,-97.8721 334.696,-86.3941"/>
<polygon fill="midnightblue" stroke="midnightblue" points="336.677,-89.2834 343.294,-81.0091 332.962,-83.3509 336.677,-89.2834"/>
</g>
</g>
</svg>
