<?xml version="1.0" encoding="UTF-8" standalone="no"?>
<!DOCTYPE svg PUBLIC "-//W3C//DTD SVG 1.1//EN"
 "http://www.w3.org/Graphics/SVG/1.1/DTD/svg11.dtd">
<!-- Generated by graphviz version 2.38.0 (20140413.2041)
 -->
<!-- Title: Q:/Documents/GitHub/MIDI2LR/Source/LRCommands.h Pages: 1 -->
<svg width="1092pt" height="117pt"
 viewBox="0.00 0.00 1091.50 117.00" xmlns="http://www.w3.org/2000/svg" xmlns:xlink="http://www.w3.org/1999/xlink">
<g id="graph0" class="graph" transform="scale(1 1) rotate(0) translate(4 113)">
<title>Q:/Documents/GitHub/MIDI2LR/Source/LRCommands.h</title>
<polygon fill="white" stroke="none" points="-4,4 -4,-113 1087.5,-113 1087.5,4 -4,4"/>
<!-- Node1 -->
<g id="node1" class="node"><title>Node1</title>
<polygon fill="#bfbfbf" stroke="black" points="472,-78.5 472,-108.5 635,-108.5 635,-78.5 472,-78.5"/>
<text text-anchor="start" x="480" y="-96.5" font-family="Helvetica,sans-Serif" font-size="10.00">Q:/Documents/GitHub</text>
<text text-anchor="middle" x="553.5" y="-85.5" font-family="Helvetica,sans-Serif" font-size="10.00">/MIDI2LR/Source/LRCommands.h</text>
</g>
<!-- Node2 -->
<g id="node2" class="node"><title>Node2</title>
<g id="a_node2"><a xlink:href="_command_map_8cpp.html" target="_top" xlink:title="Q:/Documents/GitHub\l/MIDI2LR/Source/CommandMap.cpp">
<polygon fill="white" stroke="black" points="0,-6 0,-36 175,-36 175,-6 0,-6"/>
<text text-anchor="start" x="8" y="-24" font-family="Helvetica,sans-Serif" font-size="10.00">Q:/Documents/GitHub</text>
<text text-anchor="middle" x="87.5" y="-13" font-family="Helvetica,sans-Serif" font-size="10.00">/MIDI2LR/Source/CommandMap.cpp</text>
</a>
</g>
</g>
<!-- Node1&#45;&gt;Node2 -->
<g id="edge1" class="edge"><title>Node1&#45;&gt;Node2</title>
<path fill="none" stroke="midnightblue" d="M461.583,-81.6653C386.768,-72.4275 278.541,-58.1113 184.5,-42 174.162,-40.2289 163.243,-38.1662 152.607,-36.0516"/>
<polygon fill="midnightblue" stroke="midnightblue" points="461.561,-85.1888 471.913,-82.9347 462.415,-78.2411 461.561,-85.1888"/>
</g>
<!-- Node3 -->
<g id="node3" class="node"><title>Node3</title>
<g id="a_node3"><a xlink:href="_command_menu_8cpp.html" target="_top" xlink:title="Q:/Documents/GitHub\l/MIDI2LR/Source/CommandMenu.cpp">
<polygon fill="white" stroke="black" points="193.5,-6 193.5,-36 373.5,-36 373.5,-6 193.5,-6"/>
<text text-anchor="start" x="201.5" y="-24" font-family="Helvetica,sans-Serif" font-size="10.00">Q:/Documents/GitHub</text>
<text text-anchor="middle" x="283.5" y="-13" font-family="Helvetica,sans-Serif" font-size="10.00">/MIDI2LR/Source/CommandMenu.cpp</text>
</a>
</g>
</g>
<!-- Node1&#45;&gt;Node3 -->
<g id="edge2" class="edge"><title>Node1&#45;&gt;Node3</title>
<path fill="none" stroke="midnightblue" d="M489.902,-75.8938C443.564,-63.7945 381.468,-47.5806 337.526,-36.1069"/>
<polygon fill="midnightblue" stroke="midnightblue" points="489.274,-79.3472 499.834,-78.4872 491.043,-72.5742 489.274,-79.3472"/>
</g>
<!-- Node4 -->
<g id="node4" class="node"><title>Node4</title>
<g id="a_node4"><a xlink:href="_command_table_model_8cpp.html" target="_top" xlink:title="Q:/Documents/GitHub\l/MIDI2LR/Source/CommandTable\lModel.cpp">
<polygon fill="white" stroke="black" points="392,-0.5 392,-41.5 553,-41.5 553,-0.5 392,-0.5"/>
<text text-anchor="start" x="400" y="-29.5" font-family="Helvetica,sans-Serif" font-size="10.00">Q:/Documents/GitHub</text>
<text text-anchor="start" x="400" y="-18.5" font-family="Helvetica,sans-Serif" font-size="10.00">/MIDI2LR/Source/CommandTable</text>
<text text-anchor="middle" x="472.5" y="-7.5" font-family="Helvetica,sans-Serif" font-size="10.00">Model.cpp</text>
</a>
</g>
</g>
<!-- Node1&#45;&gt;Node4 -->
<g id="edge3" class="edge"><title>Node1&#45;&gt;Node4</title>
<path fill="none" stroke="midnightblue" d="M529.552,-71.6567C518.624,-62.1451 505.754,-50.9432 495.006,-41.5884"/>
<polygon fill="midnightblue" stroke="midnightblue" points="527.268,-74.3081 537.108,-78.2333 531.863,-69.0279 527.268,-74.3081"/>
</g>
<!-- Node5 -->
<g id="node5" class="node"><title>Node5</title>
<g id="a_node5"><a xlink:href="_l_r___i_p_c___out_8cpp.html" target="_top" xlink:title="Q:/Documents/GitHub\l/MIDI2LR/Source/LR_IPC\l_Out.cpp">
<polygon fill="white" stroke="black" points="571.5,-0.5 571.5,-41.5 697.5,-41.5 697.5,-0.5 571.5,-0.5"/>
<text text-anchor="start" x="579.5" y="-29.5" font-family="Helvetica,sans-Serif" font-size="10.00">Q:/Documents/GitHub</text>
<text text-anchor="start" x="579.5" y="-18.5" font-family="Helvetica,sans-Serif" font-size="10.00">/MIDI2LR/Source/LR_IPC</text>
<text text-anchor="middle" x="634.5" y="-7.5" font-family="Helvetica,sans-Serif" font-size="10.00">_Out.cpp</text>
</a>
</g>
</g>
<!-- Node1&#45;&gt;Node5 -->
<g id="edge4" class="edge"><title>Node1&#45;&gt;Node5</title>
<path fill="none" stroke="midnightblue" d="M577.448,-71.6567C588.376,-62.1451 601.246,-50.9432 611.994,-41.5884"/>
<polygon fill="midnightblue" stroke="midnightblue" points="575.137,-69.0279 569.892,-78.2333 579.732,-74.3081 575.137,-69.0279"/>
</g>
<!-- Node6 -->
<g id="node6" class="node"><title>Node6</title>
<g id="a_node6"><a xlink:href="_l_r_commands_8cpp.html" target="_top" xlink:title="Q:/Documents/GitHub\l/MIDI2LR/Source/LRCommands.cpp">
<polygon fill="white" stroke="black" points="716,-6 716,-36 889,-36 889,-6 716,-6"/>
<text text-anchor="start" x="724" y="-24" font-family="Helvetica,sans-Serif" font-size="10.00">Q:/Documents/GitHub</text>
<text text-anchor="middle" x="802.5" y="-13" font-family="Helvetica,sans-Serif" font-size="10.00">/MIDI2LR/Source/LRCommands.cpp</text>
</a>
</g>
</g>
<!-- Node1&#45;&gt;Node6 -->
<g id="edge5" class="edge"><title>Node1&#45;&gt;Node6</title>
<path fill="none" stroke="midnightblue" d="M612.69,-75.7414C655.365,-63.6586 712.321,-47.5325 752.676,-36.1069"/>
<polygon fill="midnightblue" stroke="midnightblue" points="611.66,-72.3952 602.992,-78.4872 613.567,-79.1305 611.66,-72.3952"/>
</g>
<!-- Node7 -->
<g id="node7" class="node"><title>Node7</title>
<g id="a_node7"><a xlink:href="_profile_manager_8cpp.html" target="_top" xlink:title="Q:/Documents/GitHub\l/MIDI2LR/Source/ProfileManager.cpp">
<polygon fill="white" stroke="black" points="907.5,-6 907.5,-36 1083.5,-36 1083.5,-6 907.5,-6"/>
<text text-anchor="start" x="915.5" y="-24" font-family="Helvetica,sans-Serif" font-size="10.00">Q:/Documents/GitHub</text>
<text text-anchor="middle" x="995.5" y="-13" font-family="Helvetica,sans-Serif" font-size="10.00">/MIDI2LR/Source/ProfileManager.cpp</text>
</a>
</g>
</g>
<!-- Node1&#45;&gt;Node7 -->
<g id="edge6" class="edge"><title>Node1&#45;&gt;Node7</title>
<path fill="none" stroke="midnightblue" d="M645.336,-80.5328C714.981,-71.1002 812.983,-57.062 898.5,-42 908.745,-40.1956 919.565,-38.127 930.116,-36.0199"/>
<polygon fill="midnightblue" stroke="midnightblue" points="644.713,-77.085 635.271,-81.8907 645.649,-84.0222 644.713,-77.085"/>
</g>
</g>
</svg>
