<?xml version="1.0" encoding="UTF-8" standalone="no"?>
<!DOCTYPE svg PUBLIC "-//W3C//DTD SVG 1.1//EN"
 "http://www.w3.org/Graphics/SVG/1.1/DTD/svg11.dtd">
<!-- Generated by graphviz version 2.38.0 (20140413.2041)
 -->
<!-- Title: Q:/Documents/GitHub/MIDI2LR/Source/LR_IPC_In.h Pages: 1 -->
<!--zoomable 251 -->
<svg id="main" version="1.1" xmlns="http://www.w3.org/2000/svg" xmlns:xlink="http://www.w3.org/1999/xlink" xml:space="preserve" onload="init(evt)">
<style type="text/css"><![CDATA[
.edge:hover path { stroke: red; }
.edge:hover polygon { stroke: red; fill: red; }
]]></style>
<script type="text/javascript"><![CDATA[
var edges = document.getElementsByTagName('g');
if (edges && edges.length) {
  for (var i=0;i<edges.length;i++) {
    if (edges[i].id.substr(0,4)=='edge') {
      edges[i].setAttribute('class','edge');
    }
  }
}
]]></script>
        <defs>
                <circle id="rim" cx="0" cy="0" r="7"/>
                <circle id="rim2" cx="0" cy="0" r="3.5"/>
                <g id="zoomPlus">
                        <use xlink:href="#rim" fill="#404040">
                                <set attributeName="fill" to="#808080" begin="zoomplus.mouseover" end="zoomplus.mouseout"/>
                        </use>
                        <path d="M-4,0h8M0,-4v8" fill="none" stroke="white" stroke-width="1.5" pointer-events="none"/>
                </g>
                <g id="zoomMin">
                        <use xlink:href="#rim" fill="#404040">
                                <set attributeName="fill" to="#808080" begin="zoomminus.mouseover" end="zoomminus.mouseout"/>
                        </use>
                        <path d="M-4,0h8" fill="none" stroke="white" stroke-width="1.5" pointer-events="none"/>
                </g>
                <g id="dirArrow">
                        <path fill="none" stroke="white" stroke-width="1.5" d="M0,-3.0v7 M-2.5,-0.5L0,-3.0L2.5,-0.5"/>
                </g>
               <g id="resetDef">
                       <use xlink:href="#rim2" fill="#404040">
                               <set attributeName="fill" to="#808080" begin="reset.mouseover" end="reset.mouseout"/>
                       </use>
               </g>
        </defs>

<script type="text/javascript">
var viewWidth = 586;
var viewHeight = 251;
var sectionId = 'dynsection-1';
</script>
<script xlink:href="svgpan.js"/>
<svg id="graph" class="graph">
<g id="viewport">
<title>Q:/Documents/GitHub/MIDI2LR/Source/LR_IPC_In.h</title>
<polygon fill="white" stroke="none" points="-4,4 -4,-247 582,-247 582,4 -4,4"/>
<!-- Node1 -->
<g id="node1" class="node"><title>Node1</title>
<polygon fill="#bfbfbf" stroke="black" points="144.5,-212.5 144.5,-242.5 291.5,-242.5 291.5,-212.5 144.5,-212.5"/>
<text text-anchor="start" x="152.5" y="-230.5" font-family="Helvetica,sans-Serif" font-size="10.00">Q:/Documents/GitHub</text>
<text text-anchor="middle" x="218" y="-219.5" font-family="Helvetica,sans-Serif" font-size="10.00">/MIDI2LR/Source/LR_IPC_In.h</text>
</g>
<!-- Node2 -->
<g id="node2" class="node"><title>Node2</title>
<g id="a_node2"><a xlink:href="_l_r___i_p_c___in_8cpp.html" target="_top" xlink:title="Q:/Documents/GitHub\l/MIDI2LR/Source/LR_IPC\l_In.cpp">
<polygon fill="white" stroke="black" points="0,-134.5 0,-175.5 126,-175.5 126,-134.5 0,-134.5"/>
<text text-anchor="start" x="8" y="-163.5" font-family="Helvetica,sans-Serif" font-size="10.00">Q:/Documents/GitHub</text>
<text text-anchor="start" x="8" y="-152.5" font-family="Helvetica,sans-Serif" font-size="10.00">/MIDI2LR/Source/LR_IPC</text>
<text text-anchor="middle" x="63" y="-141.5" font-family="Helvetica,sans-Serif" font-size="10.00">_In.cpp</text>
</a>
</g>
</g>
<!-- Node1&#45;&gt;Node2 -->
<g id="edge1" class="edge"><title>Node1&#45;&gt;Node2</title>
<path fill="none" stroke="midnightblue" d="M177.612,-208.13C155.605,-198.12 128.372,-185.734 105.974,-175.546"/>
<polygon fill="midnightblue" stroke="midnightblue" points="176.454,-211.448 187.006,-212.403 179.352,-205.076 176.454,-211.448"/>
</g>
<!-- Node3 -->
<g id="node3" class="node"><title>Node3</title>
<g id="a_node3"><a xlink:href="_main_component_8h.html" target="_top" xlink:title="Q:/Documents/GitHub\l/MIDI2LR/Source/MainComponent.h">
<polygon fill="white" stroke="black" points="197,-140 197,-170 369,-170 369,-140 197,-140"/>
<text text-anchor="start" x="205" y="-158" font-family="Helvetica,sans-Serif" font-size="10.00">Q:/Documents/GitHub</text>
<text text-anchor="middle" x="283" y="-147" font-family="Helvetica,sans-Serif" font-size="10.00">/MIDI2LR/Source/MainComponent.h</text>
</a>
</g>
</g>
<!-- Node1&#45;&gt;Node3 -->
<g id="edge2" class="edge"><title>Node1&#45;&gt;Node3</title>
<path fill="none" stroke="midnightblue" d="M237.948,-204.864C248.32,-193.614 260.708,-180.179 269.866,-170.246"/>
<polygon fill="midnightblue" stroke="midnightblue" points="235.359,-202.509 231.154,-212.233 240.505,-207.254 235.359,-202.509"/>
</g>
<!-- Node4 -->
<g id="node4" class="node"><title>Node4</title>
<g id="a_node4"><a xlink:href="_main_8cpp.html" target="_top" xlink:title="Q:/Documents/GitHub\l/MIDI2LR/Source/Main.cpp">
<polygon fill="white" stroke="black" points="106.5,-0.5 106.5,-30.5 239.5,-30.5 239.5,-0.5 106.5,-0.5"/>
<text text-anchor="start" x="114.5" y="-18.5" font-family="Helvetica,sans-Serif" font-size="10.00">Q:/Documents/GitHub</text>
<text text-anchor="middle" x="173" y="-7.5" font-family="Helvetica,sans-Serif" font-size="10.00">/MIDI2LR/Source/Main.cpp</text>
</a>
</g>
</g>
<!-- Node1&#45;&gt;Node4 -->
<g id="edge8" class="edge"><title>Node1&#45;&gt;Node4</title>
<path fill="none" stroke="midnightblue" d="M201.656,-203.867C196.414,-195.498 191.155,-185.684 188,-176 171.202,-124.431 171.291,-58.8799 172.288,-30.5686"/>
<polygon fill="midnightblue" stroke="midnightblue" points="198.801,-205.896 207.236,-212.307 204.64,-202.035 198.801,-205.896"/>
</g>
<!-- Node7 -->
<g id="node7" class="node"><title>Node7</title>
<g id="a_node7"><a xlink:href="_main_component_8cpp.html" target="_top" xlink:title="Q:/Documents/GitHub\l/MIDI2LR/Source/MainComponent.cpp">
<polygon fill="white" stroke="black" points="396,-67.5 396,-97.5 578,-97.5 578,-67.5 396,-67.5"/>
<text text-anchor="start" x="404" y="-85.5" font-family="Helvetica,sans-Serif" font-size="10.00">Q:/Documents/GitHub</text>
<text text-anchor="middle" x="487" y="-74.5" font-family="Helvetica,sans-Serif" font-size="10.00">/MIDI2LR/Source/MainComponent.cpp</text>
</a>
</g>
</g>
<!-- Node1&#45;&gt;Node7 -->
<g id="edge9" class="edge"><title>Node1&#45;&gt;Node7</title>
<path fill="none" stroke="midnightblue" d="M292.021,-209.773C319.977,-201.775 351.429,-190.679 378,-176 416.887,-154.517 454.684,-117.853 473.903,-97.7406"/>
<polygon fill="midnightblue" stroke="midnightblue" points="290.991,-206.427 282.292,-212.474 292.864,-213.172 290.991,-206.427"/>
</g>
<!-- Node3&#45;&gt;Node4 -->
<g id="edge3" class="edge"><title>Node3&#45;&gt;Node4</title>
<path fill="none" stroke="midnightblue" d="M250.919,-134.04C237.323,-124.406 222.094,-111.916 211,-98 194.359,-77.1252 182.994,-47.774 177.282,-30.5843"/>
<polygon fill="midnightblue" stroke="midnightblue" points="249.326,-137.191 259.557,-139.945 253.277,-131.412 249.326,-137.191"/>
</g>
<!-- Node5 -->
<g id="node5" class="node"><title>Node5</title>
<g id="a_node5"><a xlink:href="_main_window_8h.html" target="_top" xlink:title="Q:/Documents/GitHub\l/MIDI2LR/Source/MainWindow.h">
<polygon fill="white" stroke="black" points="220.5,-67.5 220.5,-97.5 377.5,-97.5 377.5,-67.5 220.5,-67.5"/>
<text text-anchor="start" x="228.5" y="-85.5" font-family="Helvetica,sans-Serif" font-size="10.00">Q:/Documents/GitHub</text>
<text text-anchor="middle" x="299" y="-74.5" font-family="Helvetica,sans-Serif" font-size="10.00">/MIDI2LR/Source/MainWindow.h</text>
</a>
</g>
</g>
<!-- Node3&#45;&gt;Node5 -->
<g id="edge4" class="edge"><title>Node3&#45;&gt;Node5</title>
<path fill="none" stroke="midnightblue" d="M288.508,-129.732C290.928,-119.068 293.686,-106.914 295.767,-97.7455"/>
<polygon fill="midnightblue" stroke="midnightblue" points="285.038,-129.207 286.238,-139.733 291.864,-130.756 285.038,-129.207"/>
</g>
<!-- Node3&#45;&gt;Node7 -->
<g id="edge7" class="edge"><title>Node3&#45;&gt;Node7</title>
<path fill="none" stroke="midnightblue" d="M333.294,-136.619C368.081,-124.597 413.775,-108.806 446.279,-97.5729"/>
<polygon fill="midnightblue" stroke="midnightblue" points="332.1,-133.328 323.792,-139.903 334.387,-139.944 332.1,-133.328"/>
</g>
<!-- Node5&#45;&gt;Node4 -->
<g id="edge5" class="edge"><title>Node5&#45;&gt;Node4</title>
<path fill="none" stroke="midnightblue" d="M262.585,-62.7143C242.713,-52.4631 218.52,-39.9826 200.287,-30.5765"/>
<polygon fill="midnightblue" stroke="midnightblue" points="261.168,-65.9218 271.66,-67.396 264.377,-59.7008 261.168,-65.9218"/>
</g>
<!-- Node6 -->
<g id="node6" class="node"><title>Node6</title>
<g id="a_node6"><a xlink:href="_main_window_8cpp.html" target="_top" xlink:title="Q:/Documents/GitHub\l/MIDI2LR/Source/MainWindow.cpp">
<polygon fill="white" stroke="black" points="257.5,-0.5 257.5,-30.5 424.5,-30.5 424.5,-0.5 257.5,-0.5"/>
<text text-anchor="start" x="265.5" y="-18.5" font-family="Helvetica,sans-Serif" font-size="10.00">Q:/Documents/GitHub</text>
<text text-anchor="middle" x="341" y="-7.5" font-family="Helvetica,sans-Serif" font-size="10.00">/MIDI2LR/Source/MainWindow.cpp</text>
</a>
</g>
</g>
<!-- Node5&#45;&gt;Node6 -->
<g id="edge6" class="edge"><title>Node5&#45;&gt;Node6</title>
<path fill="none" stroke="midnightblue" d="M313.624,-58.8669C319.703,-49.4594 326.569,-38.8334 331.904,-30.5765"/>
<polygon fill="midnightblue" stroke="midnightblue" points="310.601,-57.0973 308.113,-67.396 316.48,-60.8963 310.601,-57.0973"/>
</g>
</g>
</svg>
        <g id="navigator" transform="translate(0 0)" fill="#404254">
                <rect fill="#f2f5e9" fill-opacity="0.5" stroke="#606060" stroke-width=".5" x="0" y="0" width="60" height="60"/>
                <use id="zoomplus" xlink:href="#zoomPlus" x="17" y="9" onmousedown="handleZoom(evt,'in')"/>
                <use id="zoomminus" xlink:href="#zoomMin" x="42" y="9" onmousedown="handleZoom(evt,'out')"/>
                <use id="reset" xlink:href="#resetDef" x="30" y="36" onmousedown="handleReset()"/>
                <g id="arrowUp" xlink:href="#dirArrow" transform="translate(30 24)" onmousedown="handlePan(0,-1)">
                  <use xlink:href="#rim" fill="#404040">
                        <set attributeName="fill" to="#808080" begin="arrowUp.mouseover" end="arrowUp.mouseout"/>
                  </use>
                  <path fill="none" stroke="white" stroke-width="1.5" d="M0,-3.0v7 M-2.5,-0.5L0,-3.0L2.5,-0.5"/>
                </g>
                <g id="arrowRight" xlink:href="#dirArrow" transform="rotate(90) translate(36 -43)" onmousedown="handlePan(1,0)">
                  <use xlink:href="#rim" fill="#404040">
                        <set attributeName="fill" to="#808080" begin="arrowRight.mouseover" end="arrowRight.mouseout"/>
                  </use>
                  <path fill="none" stroke="white" stroke-width="1.5" d="M0,-3.0v7 M-2.5,-0.5L0,-3.0L2.5,-0.5"/>
                </g>
                <g id="arrowDown" xlink:href="#dirArrow" transform="rotate(180) translate(-30 -48)" onmousedown="handlePan(0,1)">
                  <use xlink:href="#rim" fill="#404040">
                        <set attributeName="fill" to="#808080" begin="arrowDown.mouseover" end="arrowDown.mouseout"/>
                  </use>
                  <path fill="none" stroke="white" stroke-width="1.5" d="M0,-3.0v7 M-2.5,-0.5L0,-3.0L2.5,-0.5"/>
                </g>
                <g id="arrowLeft" xlink:href="#dirArrow" transform="rotate(270) translate(-36 17)" onmousedown="handlePan(-1,0)">
                  <use xlink:href="#rim" fill="#404040">
                        <set attributeName="fill" to="#808080" begin="arrowLeft.mouseover" end="arrowLeft.mouseout"/>
                  </use>
                  <path fill="none" stroke="white" stroke-width="1.5" d="M0,-3.0v7 M-2.5,-0.5L0,-3.0L2.5,-0.5"/>
                </g>
        </g>
        <svg viewBox="0 0 15 15" width="100%" height="30px" preserveAspectRatio="xMaxYMin meet">
         <g id="arrow_out" transform="scale(0.3 0.3)">
          <a xlink:href="_l_r___i_p_c___in_8h__dep__incl_org.svg" target="_base">
           <rect id="button" ry="5" rx="5" y="6" x="6" height="38" width="38"
                fill="#f2f5e9" fill-opacity="0.5" stroke="#606060" stroke-width="1.0"/>
           <path id="arrow"
             d="M 11.500037,31.436501 C 11.940474,20.09759 22.043105,11.32322 32.158766,21.979434 L 37.068811,17.246167 C 37.068811,17.246167 37.088388,32 37.088388,32 L 22.160133,31.978069 C 22.160133,31.978069 26.997745,27.140456 26.997745,27.140456 C 18.528582,18.264221 13.291696,25.230495 11.500037,31.436501 z"
             style="fill:#404040;"/>
          </a>
         </g>
        </svg>
</svg>
