<?xml version="1.0" encoding="UTF-8" standalone="no"?>
<!DOCTYPE svg PUBLIC "-//W3C//DTD SVG 1.1//EN"
 "http://www.w3.org/Graphics/SVG/1.1/DTD/svg11.dtd">
<!-- Generated by graphviz version 2.38.0 (20140413.2041)
 -->
<!-- Title: Q:/Documents/GitHub/MIDI2LR/Source/LRCommands.cpp Pages: 1 -->
<svg width="331pt" height="218pt"
 viewBox="0.00 0.00 330.77 218.00" xmlns="http://www.w3.org/2000/svg" xmlns:xlink="http://www.w3.org/1999/xlink">
<g id="graph0" class="graph" transform="scale(1 1) rotate(0) translate(4 214)">
<title>Q:/Documents/GitHub/MIDI2LR/Source/LRCommands.cpp</title>
<polygon fill="white" stroke="none" points="-4,4 -4,-214 326.774,-214 326.774,4 -4,4"/>
<!-- Node1 -->
<g id="node1" class="node"><title>Node1</title>
<polygon fill="#bfbfbf" stroke="black" points="61,-179.5 61,-209.5 234,-209.5 234,-179.5 61,-179.5"/>
<text text-anchor="start" x="69" y="-197.5" font-family="Helvetica,sans-Serif" font-size="10.00">Q:/Documents/GitHub</text>
<text text-anchor="middle" x="147.5" y="-186.5" font-family="Helvetica,sans-Serif" font-size="10.00">/MIDI2LR/Source/LRCommands.cpp</text>
</g>
<!-- Node2 -->
<g id="node2" class="node"><title>Node2</title>
<polygon fill="white" stroke="#bfbfbf" points="0,-62 0,-81 83,-81 83,-62 0,-62"/>
<text text-anchor="middle" x="41.5" y="-69" font-family="Helvetica,sans-Serif" font-size="10.00">unordered_map</text>
</g>
<!-- Node1&#45;&gt;Node2 -->
<g id="edge1" class="edge"><title>Node1&#45;&gt;Node2</title>
<path fill="none" stroke="midnightblue" d="M131.055,-179.127C120.229,-169.359 105.989,-155.914 94.5,-143 79.1373,-125.733 63.466,-104.319 53.1905,-89.6513"/>
<polygon fill="midnightblue" stroke="midnightblue" points="55.8417,-87.3315 47.2747,-81.0979 50.0845,-91.3134 55.8417,-87.3315"/>
</g>
<!-- Node3 -->
<g id="node3" class="node"><title>Node3</title>
<g id="a_node3"><a xlink:href="_l_r_commands_8h.html" target="_top" xlink:title="LRCommands.h">
<polygon fill="white" stroke="black" points="217.5,-123.5 217.5,-142.5 303.5,-142.5 303.5,-123.5 217.5,-123.5"/>
<text text-anchor="middle" x="260.5" y="-130.5" font-family="Helvetica,sans-Serif" font-size="10.00">LRCommands.h</text>
</a>
</g>
</g>
<!-- Node1&#45;&gt;Node3 -->
<g id="edge2" class="edge"><title>Node1&#45;&gt;Node3</title>
<path fill="none" stroke="midnightblue" d="M174.279,-179.399C192.562,-169.773 216.648,-157.09 234.715,-147.577"/>
<polygon fill="midnightblue" stroke="midnightblue" points="236.84,-150.414 244.057,-142.658 233.578,-144.22 236.84,-150.414"/>
</g>
<!-- Node6 -->
<g id="node6" class="node"><title>Node6</title>
<g id="a_node6"><a xlink:href="_command_map_8h.html" target="_top" xlink:title="CommandMap.h">
<polygon fill="white" stroke="black" points="103.5,-123.5 103.5,-142.5 191.5,-142.5 191.5,-123.5 103.5,-123.5"/>
<text text-anchor="middle" x="147.5" y="-130.5" font-family="Helvetica,sans-Serif" font-size="10.00">CommandMap.h</text>
</a>
</g>
</g>
<!-- Node1&#45;&gt;Node6 -->
<g id="edge5" class="edge"><title>Node1&#45;&gt;Node6</title>
<path fill="none" stroke="midnightblue" d="M147.5,-179.399C147.5,-171.466 147.5,-161.458 147.5,-152.858"/>
<polygon fill="midnightblue" stroke="midnightblue" points="151,-152.658 147.5,-142.658 144,-152.658 151,-152.658"/>
</g>
<!-- Node4 -->
<g id="node4" class="node"><title>Node4</title>
<polygon fill="white" stroke="#bfbfbf" points="211.5,-56.5 211.5,-86.5 309.5,-86.5 309.5,-56.5 211.5,-56.5"/>
<text text-anchor="start" x="219.5" y="-74.5" font-family="Helvetica,sans-Serif" font-size="10.00">../JuceLibraryCode</text>
<text text-anchor="middle" x="260.5" y="-63.5" font-family="Helvetica,sans-Serif" font-size="10.00">/JuceHeader.h</text>
</g>
<!-- Node3&#45;&gt;Node4 -->
<g id="edge3" class="edge"><title>Node3&#45;&gt;Node4</title>
<path fill="none" stroke="midnightblue" d="M260.5,-123.475C260.5,-116.471 260.5,-106.192 260.5,-96.6956"/>
<polygon fill="midnightblue" stroke="midnightblue" points="264,-96.5229 260.5,-86.523 257,-96.523 264,-96.5229"/>
</g>
<!-- Node5 -->
<g id="node5" class="node"><title>Node5</title>
<polygon fill="white" stroke="#bfbfbf" points="256.5,-0.5 256.5,-19.5 298.5,-19.5 298.5,-0.5 256.5,-0.5"/>
<text text-anchor="middle" x="277.5" y="-7.5" font-family="Helvetica,sans-Serif" font-size="10.00">vector</text>
</g>
<!-- Node3&#45;&gt;Node5 -->
<g id="edge4" class="edge"><title>Node3&#45;&gt;Node5</title>
<path fill="none" stroke="midnightblue" d="M278.889,-123.471C292.601,-115.997 310.315,-103.71 318.5,-87 324.561,-74.6268 323.475,-68.8481 318.5,-56 314.046,-44.498 305.132,-34.1311 296.751,-26.2546"/>
<polygon fill="midnightblue" stroke="midnightblue" points="298.872,-23.4599 289.041,-19.5103 294.263,-28.7286 298.872,-23.4599"/>
</g>
<!-- Node6&#45;&gt;Node2 -->
<g id="edge7" class="edge"><title>Node6&#45;&gt;Node2</title>
<path fill="none" stroke="midnightblue" d="M132.313,-123.475C114.838,-113.666 85.9213,-97.4346 65.4168,-85.925"/>
<polygon fill="midnightblue" stroke="midnightblue" points="67.0924,-82.8519 56.659,-81.0091 63.666,-88.956 67.0924,-82.8519"/>
</g>
<!-- Node6&#45;&gt;Node4 -->
<g id="edge6" class="edge"><title>Node6&#45;&gt;Node4</title>
<path fill="none" stroke="midnightblue" d="M163.69,-123.475C179.567,-115.115 204.303,-102.09 224.798,-91.2991"/>
<polygon fill="midnightblue" stroke="midnightblue" points="226.65,-94.279 233.868,-86.523 223.389,-88.0852 226.65,-94.279"/>
</g>
<!-- Node7 -->
<g id="node7" class="node"><title>Node7</title>
<g id="a_node7"><a xlink:href="_subject_8h.html" target="_top" xlink:title="Pattern/Subject.h">
<polygon fill="white" stroke="black" points="101.5,-62 101.5,-81 193.5,-81 193.5,-62 101.5,-62"/>
<text text-anchor="middle" x="147.5" y="-69" font-family="Helvetica,sans-Serif" font-size="10.00">Pattern/Subject.h</text>
</a>
</g>
</g>
<!-- Node6&#45;&gt;Node7 -->
<g id="edge8" class="edge"><title>Node6&#45;&gt;Node7</title>
<path fill="none" stroke="midnightblue" d="M147.5,-123.475C147.5,-115.08 147.5,-101.981 147.5,-91.1631"/>
<polygon fill="midnightblue" stroke="midnightblue" points="151,-91.0091 147.5,-81.0091 144,-91.0091 151,-91.0091"/>
</g>
<!-- Node7&#45;&gt;Node5 -->
<g id="edge11" class="edge"><title>Node7&#45;&gt;Node5</title>
<path fill="none" stroke="midnightblue" d="M166.126,-61.9751C187.943,-51.9897 224.304,-35.3476 249.517,-23.8075"/>
<polygon fill="midnightblue" stroke="midnightblue" points="251.272,-26.8534 258.909,-19.5091 248.359,-20.4884 251.272,-26.8534"/>
</g>
<!-- Node8 -->
<g id="node8" class="node"><title>Node8</title>
<g id="a_node8"><a xlink:href="_observer_8h.html" target="_top" xlink:title="Observer.h">
<polygon fill="white" stroke="black" points="116,-0.5 116,-19.5 179,-19.5 179,-0.5 116,-0.5"/>
<text text-anchor="middle" x="147.5" y="-7.5" font-family="Helvetica,sans-Serif" font-size="10.00">Observer.h</text>
</a>
</g>
</g>
<!-- Node7&#45;&gt;Node8 -->
<g id="edge9" class="edge"><title>Node7&#45;&gt;Node8</title>
<path fill="none" stroke="midnightblue" d="M142.599,-61.9751C140.768,-53.5803 140.297,-40.4806 141.185,-29.6631"/>
<polygon fill="midnightblue" stroke="midnightblue" points="144.686,-29.897 142.603,-19.5091 137.754,-28.929 144.686,-29.897"/>
</g>
<!-- Node8&#45;&gt;Node7 -->
<g id="edge10" class="edge"><title>Node8&#45;&gt;Node7</title>
<path fill="none" stroke="midnightblue" d="M152.397,-19.5091C154.23,-27.898 154.703,-40.9962 153.817,-51.8165"/>
<polygon fill="midnightblue" stroke="midnightblue" points="150.315,-51.5876 152.401,-61.9751 157.248,-52.554 150.315,-51.5876"/>
</g>
</g>
</svg>
