<?xml version="1.0" encoding="UTF-8" standalone="no"?>
<!DOCTYPE svg PUBLIC "-//W3C//DTD SVG 1.1//EN"
 "http://www.w3.org/Graphics/SVG/1.1/DTD/svg11.dtd">
<!-- Generated by graphviz version 2.38.0 (20140413.2041)
 -->
<!-- Title: Q:/Documents/GitHub/MIDI2LR/Source/LR_IPC_Out.h Pages: 1 -->
<!--zoomable 396 -->
<svg id="main" version="1.1" xmlns="http://www.w3.org/2000/svg" xmlns:xlink="http://www.w3.org/1999/xlink" xml:space="preserve" onload="init(evt)">
<style type="text/css"><![CDATA[
.edge:hover path { stroke: red; }
.edge:hover polygon { stroke: red; fill: red; }
]]></style>
<script type="text/javascript"><![CDATA[
var edges = document.getElementsByTagName('g');
if (edges && edges.length) {
  for (var i=0;i<edges.length;i++) {
    if (edges[i].id.substr(0,4)=='edge') {
      edges[i].setAttribute('class','edge');
    }
  }
}
]]></script>
        <defs>
                <circle id="rim" cx="0" cy="0" r="7"/>
                <circle id="rim2" cx="0" cy="0" r="3.5"/>
                <g id="zoomPlus">
                        <use xlink:href="#rim" fill="#404040">
                                <set attributeName="fill" to="#808080" begin="zoomplus.mouseover" end="zoomplus.mouseout"/>
                        </use>
                        <path d="M-4,0h8M0,-4v8" fill="none" stroke="white" stroke-width="1.5" pointer-events="none"/>
                </g>
                <g id="zoomMin">
                        <use xlink:href="#rim" fill="#404040">
                                <set attributeName="fill" to="#808080" begin="zoomminus.mouseover" end="zoomminus.mouseout"/>
                        </use>
                        <path d="M-4,0h8" fill="none" stroke="white" stroke-width="1.5" pointer-events="none"/>
                </g>
                <g id="dirArrow">
                        <path fill="none" stroke="white" stroke-width="1.5" d="M0,-3.0v7 M-2.5,-0.5L0,-3.0L2.5,-0.5"/>
                </g>
               <g id="resetDef">
                       <use xlink:href="#rim2" fill="#404040">
                               <set attributeName="fill" to="#808080" begin="reset.mouseover" end="reset.mouseout"/>
                       </use>
               </g>
        </defs>

<script type="text/javascript">
var viewWidth = 1084;
var viewHeight = 396;
var sectionId = 'dynsection-1';
</script>
<script xlink:href="svgpan.js"/>
<svg id="graph" class="graph">
<g id="viewport">
<title>Q:/Documents/GitHub/MIDI2LR/Source/LR_IPC_Out.h</title>
<polygon fill="white" stroke="none" points="-4,4 -4,-392 1079.78,-392 1079.78,4 -4,4"/>
<!-- Node1 -->
<g id="node1" class="node"><title>Node1</title>
<polygon fill="#bfbfbf" stroke="black" points="521.5,-357.5 521.5,-387.5 676.5,-387.5 676.5,-357.5 521.5,-357.5"/>
<text text-anchor="start" x="529.5" y="-375.5" font-family="Helvetica,sans-Serif" font-size="10.00">Q:/Documents/GitHub</text>
<text text-anchor="middle" x="599" y="-364.5" font-family="Helvetica,sans-Serif" font-size="10.00">/MIDI2LR/Source/LR_IPC_Out.h</text>
</g>
<!-- Node2 -->
<g id="node2" class="node"><title>Node2</title>
<g id="a_node2"><a xlink:href="_profile_manager_8h.html" target="_top" xlink:title="Q:/Documents/GitHub\l/MIDI2LR/Source/ProfileManager.h">
<polygon fill="white" stroke="black" points="516,-285 516,-315 682,-315 682,-285 516,-285"/>
<text text-anchor="start" x="524" y="-303" font-family="Helvetica,sans-Serif" font-size="10.00">Q:/Documents/GitHub</text>
<text text-anchor="middle" x="599" y="-292" font-family="Helvetica,sans-Serif" font-size="10.00">/MIDI2LR/Source/ProfileManager.h</text>
</a>
</g>
</g>
<!-- Node1&#45;&gt;Node2 -->
<g id="edge1" class="edge"><title>Node1&#45;&gt;Node2</title>
<path fill="none" stroke="midnightblue" d="M599,-347.232C599,-336.568 599,-324.414 599,-315.246"/>
<polygon fill="midnightblue" stroke="midnightblue" points="595.5,-347.233 599,-357.233 602.5,-347.233 595.5,-347.233"/>
</g>
<!-- Node5 -->
<g id="node5" class="node"><title>Node5</title>
<g id="a_node5"><a xlink:href="_main_component_8h.html" target="_top" xlink:title="Q:/Documents/GitHub\l/MIDI2LR/Source/MainComponent.h">
<polygon fill="white" stroke="black" points="705,-140 705,-170 877,-170 877,-140 705,-140"/>
<text text-anchor="start" x="713" y="-158" font-family="Helvetica,sans-Serif" font-size="10.00">Q:/Documents/GitHub</text>
<text text-anchor="middle" x="791" y="-147" font-family="Helvetica,sans-Serif" font-size="10.00">/MIDI2LR/Source/MainComponent.h</text>
</a>
</g>
</g>
<!-- Node1&#45;&gt;Node5 -->
<g id="edge27" class="edge"><title>Node1&#45;&gt;Node5</title>
<path fill="none" stroke="midnightblue" d="M659.205,-354.056C710.349,-335.643 780.346,-301.066 812,-243 824.866,-219.398 810.753,-187.965 800.248,-170.063"/>
<polygon fill="midnightblue" stroke="midnightblue" points="657.857,-350.819 649.567,-357.417 660.162,-357.429 657.857,-350.819"/>
</g>
<!-- Node6 -->
<g id="node6" class="node"><title>Node6</title>
<g id="a_node6"><a xlink:href="_main_8cpp.html" target="_top" xlink:title="Q:/Documents/GitHub\l/MIDI2LR/Source/Main.cpp">
<polygon fill="white" stroke="black" points="305.5,-0.5 305.5,-30.5 438.5,-30.5 438.5,-0.5 305.5,-0.5"/>
<text text-anchor="start" x="313.5" y="-18.5" font-family="Helvetica,sans-Serif" font-size="10.00">Q:/Documents/GitHub</text>
<text text-anchor="middle" x="372" y="-7.5" font-family="Helvetica,sans-Serif" font-size="10.00">/MIDI2LR/Source/Main.cpp</text>
</a>
</g>
</g>
<!-- Node1&#45;&gt;Node6 -->
<g id="edge29" class="edge"><title>Node1&#45;&gt;Node6</title>
<path fill="none" stroke="midnightblue" d="M511.09,-368.671C344.648,-360.91 0,-332.306 0,-228.5 0,-228.5 0,-228.5 0,-154 0,-112.322 2.29351,-92.8335 35,-67 75.7961,-34.7768 219.41,-22.9962 305.441,-18.7768"/>
<polygon fill="midnightblue" stroke="midnightblue" points="511.158,-372.177 521.305,-369.131 511.473,-365.185 511.158,-372.177"/>
</g>
<!-- Node10 -->
<g id="node10" class="node"><title>Node10</title>
<g id="a_node10"><a xlink:href="_settings_manager_8h.html" target="_top" xlink:title="Q:/Documents/GitHub\l/MIDI2LR/Source/SettingsManager.h">
<polygon fill="white" stroke="black" points="357.5,-212.5 357.5,-242.5 532.5,-242.5 532.5,-212.5 357.5,-212.5"/>
<text text-anchor="start" x="365.5" y="-230.5" font-family="Helvetica,sans-Serif" font-size="10.00">Q:/Documents/GitHub</text>
<text text-anchor="middle" x="445" y="-219.5" font-family="Helvetica,sans-Serif" font-size="10.00">/MIDI2LR/Source/SettingsManager.h</text>
</a>
</g>
</g>
<!-- Node1&#45;&gt;Node10 -->
<g id="edge28" class="edge"><title>Node1&#45;&gt;Node10</title>
<path fill="none" stroke="midnightblue" d="M555.228,-352.879C538.952,-344.628 521.045,-333.854 507,-321 481.614,-297.767 461.556,-262.122 451.69,-242.558"/>
<polygon fill="midnightblue" stroke="midnightblue" points="554.059,-356.203 564.582,-357.442 557.129,-349.912 554.059,-356.203"/>
</g>
<!-- Node17 -->
<g id="node17" class="node"><title>Node17</title>
<g id="a_node17"><a xlink:href="_l_r___i_p_c___out_8cpp.html" target="_top" xlink:title="Q:/Documents/GitHub\l/MIDI2LR/Source/LR_IPC\l_Out.cpp">
<polygon fill="white" stroke="black" points="859,-279.5 859,-320.5 985,-320.5 985,-279.5 859,-279.5"/>
<text text-anchor="start" x="867" y="-308.5" font-family="Helvetica,sans-Serif" font-size="10.00">Q:/Documents/GitHub</text>
<text text-anchor="start" x="867" y="-297.5" font-family="Helvetica,sans-Serif" font-size="10.00">/MIDI2LR/Source/LR_IPC</text>
<text text-anchor="middle" x="922" y="-286.5" font-family="Helvetica,sans-Serif" font-size="10.00">_Out.cpp</text>
</a>
</g>
</g>
<!-- Node1&#45;&gt;Node17 -->
<g id="edge26" class="edge"><title>Node1&#45;&gt;Node17</title>
<path fill="none" stroke="midnightblue" d="M682.392,-355.493C730.132,-346.052 791.079,-333.528 845,-321 849.44,-319.968 854.014,-318.871 858.615,-317.74"/>
<polygon fill="midnightblue" stroke="midnightblue" points="681.547,-352.092 672.412,-357.46 682.9,-358.96 681.547,-352.092"/>
</g>
<!-- Node3 -->
<g id="node3" class="node"><title>Node3</title>
<g id="a_node3"><a xlink:href="_l_r___i_p_c___in_8h.html" target="_top" xlink:title="Q:/Documents/GitHub\l/MIDI2LR/Source/LR_IPC_In.h">
<polygon fill="white" stroke="black" points="859.5,-212.5 859.5,-242.5 1006.5,-242.5 1006.5,-212.5 859.5,-212.5"/>
<text text-anchor="start" x="867.5" y="-230.5" font-family="Helvetica,sans-Serif" font-size="10.00">Q:/Documents/GitHub</text>
<text text-anchor="middle" x="933" y="-219.5" font-family="Helvetica,sans-Serif" font-size="10.00">/MIDI2LR/Source/LR_IPC_In.h</text>
</a>
</g>
</g>
<!-- Node2&#45;&gt;Node3 -->
<g id="edge2" class="edge"><title>Node2&#45;&gt;Node3</title>
<path fill="none" stroke="midnightblue" d="M675.179,-282.92C732.85,-270.747 811.288,-254.191 866.453,-242.547"/>
<polygon fill="midnightblue" stroke="midnightblue" points="674.449,-279.497 665.387,-284.987 675.894,-286.346 674.449,-279.497"/>
</g>
<!-- Node2&#45;&gt;Node5 -->
<g id="edge12" class="edge"><title>Node2&#45;&gt;Node5</title>
<path fill="none" stroke="midnightblue" d="M598.089,-274.591C598.694,-255.315 602.652,-228.931 618,-212 632.788,-195.686 682.83,-180.523 725.314,-170.101"/>
<polygon fill="midnightblue" stroke="midnightblue" points="594.588,-274.716 598.053,-284.728 601.588,-274.741 594.588,-274.716"/>
</g>
<!-- Node2&#45;&gt;Node10 -->
<g id="edge13" class="edge"><title>Node2&#45;&gt;Node10</title>
<path fill="none" stroke="midnightblue" d="M558.997,-280.687C533.01,-268.79 499.648,-253.518 475.741,-242.573"/>
<polygon fill="midnightblue" stroke="midnightblue" points="557.657,-283.923 568.206,-284.903 560.57,-277.558 557.657,-283.923"/>
</g>
<!-- Node15 -->
<g id="node15" class="node"><title>Node15</title>
<g id="a_node15"><a xlink:href="_settings_manager_8cpp.html" target="_top" xlink:title="Q:/Documents/GitHub\l/MIDI2LR/Source/SettingsManager.cpp">
<polygon fill="white" stroke="black" points="501.5,-140 501.5,-170 686.5,-170 686.5,-140 501.5,-140"/>
<text text-anchor="start" x="509.5" y="-158" font-family="Helvetica,sans-Serif" font-size="10.00">Q:/Documents/GitHub</text>
<text text-anchor="middle" x="594" y="-147" font-family="Helvetica,sans-Serif" font-size="10.00">/MIDI2LR/Source/SettingsManager.cpp</text>
</a>
</g>
</g>
<!-- Node2&#45;&gt;Node15 -->
<g id="edge25" class="edge"><title>Node2&#45;&gt;Node15</title>
<path fill="none" stroke="midnightblue" d="M591.641,-275.047C588.982,-265.219 586.313,-253.664 585,-243 581.846,-217.379 586.85,-187.421 590.568,-170.184"/>
<polygon fill="midnightblue" stroke="midnightblue" points="588.346,-276.256 594.457,-284.911 595.077,-274.334 588.346,-276.256"/>
</g>
<!-- Node16 -->
<g id="node16" class="node"><title>Node16</title>
<g id="a_node16"><a xlink:href="_profile_manager_8cpp.html" target="_top" xlink:title="Q:/Documents/GitHub\l/MIDI2LR/Source/ProfileManager.cpp">
<polygon fill="white" stroke="black" points="627,-212.5 627,-242.5 803,-242.5 803,-212.5 627,-212.5"/>
<text text-anchor="start" x="635" y="-230.5" font-family="Helvetica,sans-Serif" font-size="10.00">Q:/Documents/GitHub</text>
<text text-anchor="middle" x="715" y="-219.5" font-family="Helvetica,sans-Serif" font-size="10.00">/MIDI2LR/Source/ProfileManager.cpp</text>
</a>
</g>
</g>
<!-- Node2&#45;&gt;Node16 -->
<g id="edge24" class="edge"><title>Node2&#45;&gt;Node16</title>
<path fill="none" stroke="midnightblue" d="M630.951,-279.582C650.243,-267.857 674.389,-253.182 691.845,-242.573"/>
<polygon fill="midnightblue" stroke="midnightblue" points="628.923,-276.718 622.196,-284.903 632.559,-282.7 628.923,-276.718"/>
</g>
<!-- Node4 -->
<g id="node4" class="node"><title>Node4</title>
<g id="a_node4"><a xlink:href="_l_r___i_p_c___in_8cpp.html" target="_top" xlink:title="Q:/Documents/GitHub\l/MIDI2LR/Source/LR_IPC\l_In.cpp">
<polygon fill="white" stroke="black" points="933,-134.5 933,-175.5 1059,-175.5 1059,-134.5 933,-134.5"/>
<text text-anchor="start" x="941" y="-163.5" font-family="Helvetica,sans-Serif" font-size="10.00">Q:/Documents/GitHub</text>
<text text-anchor="start" x="941" y="-152.5" font-family="Helvetica,sans-Serif" font-size="10.00">/MIDI2LR/Source/LR_IPC</text>
<text text-anchor="middle" x="996" y="-141.5" font-family="Helvetica,sans-Serif" font-size="10.00">_In.cpp</text>
</a>
</g>
</g>
<!-- Node3&#45;&gt;Node4 -->
<g id="edge3" class="edge"><title>Node3&#45;&gt;Node4</title>
<path fill="none" stroke="midnightblue" d="M952.623,-204.541C960.901,-195.278 970.461,-184.58 978.495,-175.588"/>
<polygon fill="midnightblue" stroke="midnightblue" points="949.803,-202.445 945.749,-212.233 955.022,-207.109 949.803,-202.445"/>
</g>
<!-- Node3&#45;&gt;Node5 -->
<g id="edge4" class="edge"><title>Node3&#45;&gt;Node5</title>
<path fill="none" stroke="midnightblue" d="M895.482,-207.873C871.613,-196.023 841.197,-180.922 819.345,-170.073"/>
<polygon fill="midnightblue" stroke="midnightblue" points="894.092,-211.091 904.605,-212.403 897.205,-204.821 894.092,-211.091"/>
</g>
<!-- Node3&#45;&gt;Node6 -->
<g id="edge10" class="edge"><title>Node3&#45;&gt;Node6</title>
<path fill="none" stroke="midnightblue" d="M1016.38,-212.635C1036.52,-205.157 1055.75,-193.662 1068,-176 1078.64,-160.662 1078.02,-149.752 1068,-134 1030.34,-74.7716 992.743,-85.356 925,-67 913.383,-63.8522 583.214,-34.871 438.681,-22.287"/>
<polygon fill="midnightblue" stroke="midnightblue" points="1015.11,-209.369 1006.76,-215.894 1017.36,-215.999 1015.11,-209.369"/>
</g>
<!-- Node9 -->
<g id="node9" class="node"><title>Node9</title>
<g id="a_node9"><a xlink:href="_main_component_8cpp.html" target="_top" xlink:title="Q:/Documents/GitHub\l/MIDI2LR/Source/MainComponent.cpp">
<polygon fill="white" stroke="black" points="734,-67.5 734,-97.5 916,-97.5 916,-67.5 734,-67.5"/>
<text text-anchor="start" x="742" y="-85.5" font-family="Helvetica,sans-Serif" font-size="10.00">Q:/Documents/GitHub</text>
<text text-anchor="middle" x="825" y="-74.5" font-family="Helvetica,sans-Serif" font-size="10.00">/MIDI2LR/Source/MainComponent.cpp</text>
</a>
</g>
</g>
<!-- Node3&#45;&gt;Node9 -->
<g id="edge11" class="edge"><title>Node3&#45;&gt;Node9</title>
<path fill="none" stroke="midnightblue" d="M924.16,-202.86C916.091,-183.184 902.864,-155.082 886,-134 874.664,-119.828 858.8,-106.845 846.092,-97.592"/>
<polygon fill="midnightblue" stroke="midnightblue" points="920.963,-204.292 927.901,-212.299 927.47,-201.713 920.963,-204.292"/>
</g>
<!-- Node5&#45;&gt;Node6 -->
<g id="edge5" class="edge"><title>Node5&#45;&gt;Node6</title>
<path fill="none" stroke="midnightblue" d="M713.596,-137.874C648.589,-124.036 563.962,-105.218 549,-98 529.057,-88.3788 529.311,-77.8326 510,-67 482.409,-51.5232 449.17,-39.1913 422.227,-30.5888"/>
<polygon fill="midnightblue" stroke="midnightblue" points="712.931,-141.311 723.44,-139.963 714.384,-134.463 712.931,-141.311"/>
</g>
<!-- Node7 -->
<g id="node7" class="node"><title>Node7</title>
<g id="a_node7"><a xlink:href="_main_window_8h.html" target="_top" xlink:title="Q:/Documents/GitHub\l/MIDI2LR/Source/MainWindow.h">
<polygon fill="white" stroke="black" points="558.5,-67.5 558.5,-97.5 715.5,-97.5 715.5,-67.5 558.5,-67.5"/>
<text text-anchor="start" x="566.5" y="-85.5" font-family="Helvetica,sans-Serif" font-size="10.00">Q:/Documents/GitHub</text>
<text text-anchor="middle" x="637" y="-74.5" font-family="Helvetica,sans-Serif" font-size="10.00">/MIDI2LR/Source/MainWindow.h</text>
</a>
</g>
</g>
<!-- Node5&#45;&gt;Node7 -->
<g id="edge6" class="edge"><title>Node5&#45;&gt;Node7</title>
<path fill="none" stroke="midnightblue" d="M750.997,-135.687C725.01,-123.79 691.648,-108.518 667.741,-97.5729"/>
<polygon fill="midnightblue" stroke="midnightblue" points="749.657,-138.923 760.206,-139.903 752.57,-132.558 749.657,-138.923"/>
</g>
<!-- Node5&#45;&gt;Node9 -->
<g id="edge9" class="edge"><title>Node5&#45;&gt;Node9</title>
<path fill="none" stroke="midnightblue" d="M802.383,-130.396C807.602,-119.576 813.616,-107.106 818.13,-97.7455"/>
<polygon fill="midnightblue" stroke="midnightblue" points="799.072,-129.206 797.88,-139.733 805.377,-132.246 799.072,-129.206"/>
</g>
<!-- Node7&#45;&gt;Node6 -->
<g id="edge7" class="edge"><title>Node7&#45;&gt;Node6</title>
<path fill="none" stroke="midnightblue" d="M569.941,-65.0515C526.617,-54.425 470.83,-40.7414 429.529,-30.6109"/>
<polygon fill="midnightblue" stroke="midnightblue" points="569.279,-68.4929 579.825,-67.476 570.947,-61.6945 569.279,-68.4929"/>
</g>
<!-- Node8 -->
<g id="node8" class="node"><title>Node8</title>
<g id="a_node8"><a xlink:href="_main_window_8cpp.html" target="_top" xlink:title="Q:/Documents/GitHub\l/MIDI2LR/Source/MainWindow.cpp">
<polygon fill="white" stroke="black" points="553.5,-0.5 553.5,-30.5 720.5,-30.5 720.5,-0.5 553.5,-0.5"/>
<text text-anchor="start" x="561.5" y="-18.5" font-family="Helvetica,sans-Serif" font-size="10.00">Q:/Documents/GitHub</text>
<text text-anchor="middle" x="637" y="-7.5" font-family="Helvetica,sans-Serif" font-size="10.00">/MIDI2LR/Source/MainWindow.cpp</text>
</a>
</g>
</g>
<!-- Node7&#45;&gt;Node8 -->
<g id="edge8" class="edge"><title>Node7&#45;&gt;Node8</title>
<path fill="none" stroke="midnightblue" d="M637,-57.1081C637,-48.1539 637,-38.3227 637,-30.5765"/>
<polygon fill="midnightblue" stroke="midnightblue" points="633.5,-57.3959 637,-67.396 640.5,-57.396 633.5,-57.3959"/>
</g>
<!-- Node10&#45;&gt;Node5 -->
<g id="edge14" class="edge"><title>Node10&#45;&gt;Node5</title>
<path fill="none" stroke="midnightblue" d="M524.99,-210.471C574.068,-200.604 638.188,-187.656 695,-176 704.339,-174.084 714.186,-172.049 723.872,-170.039"/>
<polygon fill="midnightblue" stroke="midnightblue" points="524.182,-207.063 515.068,-212.465 525.562,-213.926 524.182,-207.063"/>
</g>
<!-- Node10&#45;&gt;Node6 -->
<g id="edge19" class="edge"><title>Node10&#45;&gt;Node6</title>
<path fill="none" stroke="midnightblue" d="M347.176,-220.162C239.532,-212.189 79.1154,-196.96 60,-176 27.3433,-140.192 25.5607,-103.881 57,-67 88.2595,-30.3299 222.548,-20.1784 305.369,-17.4376"/>
<polygon fill="midnightblue" stroke="midnightblue" points="347.193,-223.673 357.421,-220.911 347.703,-216.691 347.193,-223.673"/>
</g>
<!-- Node10&#45;&gt;Node7 -->
<g id="edge18" class="edge"><title>Node10&#45;&gt;Node7</title>
<path fill="none" stroke="midnightblue" d="M451.605,-202.484C458.487,-181.679 471.225,-152.145 492,-134 511.877,-116.64 538.065,-105.155 562.71,-97.5965"/>
<polygon fill="midnightblue" stroke="midnightblue" points="448.215,-201.598 448.607,-212.185 454.903,-203.664 448.215,-201.598"/>
</g>
<!-- Node11 -->
<g id="node11" class="node"><title>Node11</title>
<g id="a_node11"><a xlink:href="_version_checker_8h.html" target="_top" xlink:title="Q:/Documents/GitHub\l/MIDI2LR/Source/VersionChecker.h">
<polygon fill="white" stroke="black" points="69,-140 69,-170 239,-170 239,-140 69,-140"/>
<text text-anchor="start" x="77" y="-158" font-family="Helvetica,sans-Serif" font-size="10.00">Q:/Documents/GitHub</text>
<text text-anchor="middle" x="154" y="-147" font-family="Helvetica,sans-Serif" font-size="10.00">/MIDI2LR/Source/VersionChecker.h</text>
</a>
</g>
</g>
<!-- Node10&#45;&gt;Node11 -->
<g id="edge15" class="edge"><title>Node10&#45;&gt;Node11</title>
<path fill="none" stroke="midnightblue" d="M377.395,-210.122C327.356,-197.999 259.886,-181.653 212.228,-170.107"/>
<polygon fill="midnightblue" stroke="midnightblue" points="376.617,-213.534 387.16,-212.487 378.265,-206.731 376.617,-213.534"/>
</g>
<!-- Node13 -->
<g id="node13" class="node"><title>Node13</title>
<g id="a_node13"><a xlink:href="_settings_component_8h.html" target="_top" xlink:title="Q:/Documents/GitHub\l/MIDI2LR/Source/SettingsComponent.h">
<polygon fill="white" stroke="black" points="257.5,-140 257.5,-170 444.5,-170 444.5,-140 257.5,-140"/>
<text text-anchor="start" x="265.5" y="-158" font-family="Helvetica,sans-Serif" font-size="10.00">Q:/Documents/GitHub</text>
<text text-anchor="middle" x="351" y="-147" font-family="Helvetica,sans-Serif" font-size="10.00">/MIDI2LR/Source/SettingsComponent.h</text>
</a>
</g>
</g>
<!-- Node10&#45;&gt;Node13 -->
<g id="edge20" class="edge"><title>Node10&#45;&gt;Node13</title>
<path fill="none" stroke="midnightblue" d="M417.813,-206.11C402.372,-194.529 383.438,-180.328 369.673,-170.005"/>
<polygon fill="midnightblue" stroke="midnightblue" points="415.878,-209.033 425.978,-212.233 420.078,-203.433 415.878,-209.033"/>
</g>
<!-- Node10&#45;&gt;Node15 -->
<g id="edge23" class="edge"><title>Node10&#45;&gt;Node15</title>
<path fill="none" stroke="midnightblue" d="M484.036,-208.03C509.131,-196.156 541.228,-180.97 564.257,-170.073"/>
<polygon fill="midnightblue" stroke="midnightblue" points="482.337,-204.962 474.794,-212.403 485.33,-211.289 482.337,-204.962"/>
</g>
<!-- Node11&#45;&gt;Node6 -->
<g id="edge16" class="edge"><title>Node11&#45;&gt;Node6</title>
<path fill="none" stroke="midnightblue" d="M191.849,-135.18C211.46,-124.945 235.524,-111.616 256,-98 274.437,-85.7391 277.057,-79.9739 295,-67 312.878,-54.0733 333.856,-40.4085 349.398,-30.5577"/>
<polygon fill="midnightblue" stroke="midnightblue" points="190.179,-132.103 182.898,-139.8 193.39,-138.324 190.179,-132.103"/>
</g>
<!-- Node12 -->
<g id="node12" class="node"><title>Node12</title>
<g id="a_node12"><a xlink:href="_version_checker_8cpp.html" target="_top" xlink:title="Q:/Documents/GitHub\l/MIDI2LR/Source/VersionChecker.cpp">
<polygon fill="white" stroke="black" points="66.5,-67.5 66.5,-97.5 247.5,-97.5 247.5,-67.5 66.5,-67.5"/>
<text text-anchor="start" x="74.5" y="-85.5" font-family="Helvetica,sans-Serif" font-size="10.00">Q:/Documents/GitHub</text>
<text text-anchor="middle" x="157" y="-74.5" font-family="Helvetica,sans-Serif" font-size="10.00">/MIDI2LR/Source/VersionChecker.cpp</text>
</a>
</g>
</g>
<!-- Node11&#45;&gt;Node12 -->
<g id="edge17" class="edge"><title>Node11&#45;&gt;Node12</title>
<path fill="none" stroke="midnightblue" d="M155.033,-129.732C155.486,-119.068 156.004,-106.914 156.394,-97.7455"/>
<polygon fill="midnightblue" stroke="midnightblue" points="151.536,-129.593 154.607,-139.733 158.529,-129.891 151.536,-129.593"/>
</g>
<!-- Node13&#45;&gt;Node9 -->
<g id="edge21" class="edge"><title>Node13&#45;&gt;Node9</title>
<path fill="none" stroke="midnightblue" d="M454.651,-138.584C538.051,-126.179 654.11,-108.917 733.963,-97.0403"/>
<polygon fill="midnightblue" stroke="midnightblue" points="454.023,-135.138 444.647,-140.071 455.053,-142.062 454.023,-135.138"/>
</g>
<!-- Node14 -->
<g id="node14" class="node"><title>Node14</title>
<g id="a_node14"><a xlink:href="_settings_component_8cpp.html" target="_top" xlink:title="Q:/Documents/GitHub\l/MIDI2LR/Source/SettingsComponent.cpp">
<polygon fill="white" stroke="black" points="304.5,-67.5 304.5,-97.5 501.5,-97.5 501.5,-67.5 304.5,-67.5"/>
<text text-anchor="start" x="312.5" y="-85.5" font-family="Helvetica,sans-Serif" font-size="10.00">Q:/Documents/GitHub</text>
<text text-anchor="middle" x="403" y="-74.5" font-family="Helvetica,sans-Serif" font-size="10.00">/MIDI2LR/Source/SettingsComponent.cpp</text>
</a>
</g>
</g>
<!-- Node13&#45;&gt;Node14 -->
<g id="edge22" class="edge"><title>Node13&#45;&gt;Node14</title>
<path fill="none" stroke="midnightblue" d="M367.68,-131.385C375.826,-120.342 385.378,-107.392 392.493,-97.7455"/>
<polygon fill="midnightblue" stroke="midnightblue" points="364.642,-129.608 361.523,-139.733 370.276,-133.763 364.642,-129.608"/>
</g>
</g>
</svg>
        <g id="navigator" transform="translate(0 0)" fill="#404254">
                <rect fill="#f2f5e9" fill-opacity="0.5" stroke="#606060" stroke-width=".5" x="0" y="0" width="60" height="60"/>
                <use id="zoomplus" xlink:href="#zoomPlus" x="17" y="9" onmousedown="handleZoom(evt,'in')"/>
                <use id="zoomminus" xlink:href="#zoomMin" x="42" y="9" onmousedown="handleZoom(evt,'out')"/>
                <use id="reset" xlink:href="#resetDef" x="30" y="36" onmousedown="handleReset()"/>
                <g id="arrowUp" xlink:href="#dirArrow" transform="translate(30 24)" onmousedown="handlePan(0,-1)">
                  <use xlink:href="#rim" fill="#404040">
                        <set attributeName="fill" to="#808080" begin="arrowUp.mouseover" end="arrowUp.mouseout"/>
                  </use>
                  <path fill="none" stroke="white" stroke-width="1.5" d="M0,-3.0v7 M-2.5,-0.5L0,-3.0L2.5,-0.5"/>
                </g>
                <g id="arrowRight" xlink:href="#dirArrow" transform="rotate(90) translate(36 -43)" onmousedown="handlePan(1,0)">
                  <use xlink:href="#rim" fill="#404040">
                        <set attributeName="fill" to="#808080" begin="arrowRight.mouseover" end="arrowRight.mouseout"/>
                  </use>
                  <path fill="none" stroke="white" stroke-width="1.5" d="M0,-3.0v7 M-2.5,-0.5L0,-3.0L2.5,-0.5"/>
                </g>
                <g id="arrowDown" xlink:href="#dirArrow" transform="rotate(180) translate(-30 -48)" onmousedown="handlePan(0,1)">
                  <use xlink:href="#rim" fill="#404040">
                        <set attributeName="fill" to="#808080" begin="arrowDown.mouseover" end="arrowDown.mouseout"/>
                  </use>
                  <path fill="none" stroke="white" stroke-width="1.5" d="M0,-3.0v7 M-2.5,-0.5L0,-3.0L2.5,-0.5"/>
                </g>
                <g id="arrowLeft" xlink:href="#dirArrow" transform="rotate(270) translate(-36 17)" onmousedown="handlePan(-1,0)">
                  <use xlink:href="#rim" fill="#404040">
                        <set attributeName="fill" to="#808080" begin="arrowLeft.mouseover" end="arrowLeft.mouseout"/>
                  </use>
                  <path fill="none" stroke="white" stroke-width="1.5" d="M0,-3.0v7 M-2.5,-0.5L0,-3.0L2.5,-0.5"/>
                </g>
        </g>
        <svg viewBox="0 0 15 15" width="100%" height="30px" preserveAspectRatio="xMaxYMin meet">
         <g id="arrow_out" transform="scale(0.3 0.3)">
          <a xlink:href="_l_r___i_p_c___out_8h__dep__incl_org.svg" target="_base">
           <rect id="button" ry="5" rx="5" y="6" x="6" height="38" width="38"
                fill="#f2f5e9" fill-opacity="0.5" stroke="#606060" stroke-width="1.0"/>
           <path id="arrow"
             d="M 11.500037,31.436501 C 11.940474,20.09759 22.043105,11.32322 32.158766,21.979434 L 37.068811,17.246167 C 37.068811,17.246167 37.088388,32 37.088388,32 L 22.160133,31.978069 C 22.160133,31.978069 26.997745,27.140456 26.997745,27.140456 C 18.528582,18.264221 13.291696,25.230495 11.500037,31.436501 z"
             style="fill:#404040;"/>
          </a>
         </g>
        </svg>
</svg>
