<?xml version="1.0" encoding="UTF-8" standalone="no"?>
<!DOCTYPE svg PUBLIC "-//W3C//DTD SVG 1.1//EN"
 "http://www.w3.org/Graphics/SVG/1.1/DTD/svg11.dtd">
<!-- Generated by graphviz version 2.38.0 (20140413.2041)
 -->
<!-- Title: Q:/Documents/GitHub/MIDI2LR/Source/MIDIProcessor.h Pages: 1 -->
<!--zoomable 463 -->
<svg id="main" version="1.1" xmlns="http://www.w3.org/2000/svg" xmlns:xlink="http://www.w3.org/1999/xlink" xml:space="preserve" onload="init(evt)">
<style type="text/css"><![CDATA[
.edge:hover path { stroke: red; }
.edge:hover polygon { stroke: red; fill: red; }
]]></style>
<script type="text/javascript"><![CDATA[
var edges = document.getElementsByTagName('g');
if (edges && edges.length) {
  for (var i=0;i<edges.length;i++) {
    if (edges[i].id.substr(0,4)=='edge') {
      edges[i].setAttribute('class','edge');
    }
  }
}
]]></script>
        <defs>
                <circle id="rim" cx="0" cy="0" r="7"/>
                <circle id="rim2" cx="0" cy="0" r="3.5"/>
                <g id="zoomPlus">
                        <use xlink:href="#rim" fill="#404040">
                                <set attributeName="fill" to="#808080" begin="zoomplus.mouseover" end="zoomplus.mouseout"/>
                        </use>
                        <path d="M-4,0h8M0,-4v8" fill="none" stroke="white" stroke-width="1.5" pointer-events="none"/>
                </g>
                <g id="zoomMin">
                        <use xlink:href="#rim" fill="#404040">
                                <set attributeName="fill" to="#808080" begin="zoomminus.mouseover" end="zoomminus.mouseout"/>
                        </use>
                        <path d="M-4,0h8" fill="none" stroke="white" stroke-width="1.5" pointer-events="none"/>
                </g>
                <g id="dirArrow">
                        <path fill="none" stroke="white" stroke-width="1.5" d="M0,-3.0v7 M-2.5,-0.5L0,-3.0L2.5,-0.5"/>
                </g>
               <g id="resetDef">
                       <use xlink:href="#rim2" fill="#404040">
                               <set attributeName="fill" to="#808080" begin="reset.mouseover" end="reset.mouseout"/>
                       </use>
               </g>
        </defs>

<script type="text/javascript">
var viewWidth = 1278;
var viewHeight = 463;
var sectionId = 'dynsection-1';
</script>
<script xlink:href="svgpan.js"/>
<svg id="graph" class="graph">
<g id="viewport">
<title>Q:/Documents/GitHub/MIDI2LR/Source/MIDIProcessor.h</title>
<polygon fill="white" stroke="none" points="-4,4 -4,-459 1273.65,-459 1273.65,4 -4,4"/>
<!-- Node1 -->
<g id="node1" class="node"><title>Node1</title>
<polygon fill="#bfbfbf" stroke="black" points="379.486,-424.5 379.486,-454.5 544.486,-454.5 544.486,-424.5 379.486,-424.5"/>
<text text-anchor="start" x="387.486" y="-442.5" font-family="Helvetica,sans-Serif" font-size="10.00">Q:/Documents/GitHub</text>
<text text-anchor="middle" x="461.986" y="-431.5" font-family="Helvetica,sans-Serif" font-size="10.00">/MIDI2LR/Source/MIDIProcessor.h</text>
</g>
<!-- Node2 -->
<g id="node2" class="node"><title>Node2</title>
<g id="a_node2"><a xlink:href="_profile_manager_8h.html" target="_top" xlink:title="Q:/Documents/GitHub\l/MIDI2LR/Source/ProfileManager.h">
<polygon fill="white" stroke="black" points="322.986,-285 322.986,-315 488.986,-315 488.986,-285 322.986,-285"/>
<text text-anchor="start" x="330.986" y="-303" font-family="Helvetica,sans-Serif" font-size="10.00">Q:/Documents/GitHub</text>
<text text-anchor="middle" x="405.986" y="-292" font-family="Helvetica,sans-Serif" font-size="10.00">/MIDI2LR/Source/ProfileManager.h</text>
</a>
</g>
</g>
<!-- Node1&#45;&gt;Node2 -->
<g id="edge1" class="edge"><title>Node1&#45;&gt;Node2</title>
<path fill="none" stroke="midnightblue" d="M445.482,-415.637C439.977,-407.247 434.184,-397.478 429.986,-388 419.134,-363.503 412.071,-332.915 408.577,-315.303"/>
<polygon fill="midnightblue" stroke="midnightblue" points="442.734,-417.821 451.252,-424.122 448.522,-413.885 442.734,-417.821"/>
</g>
<!-- Node5 -->
<g id="node5" class="node"><title>Node5</title>
<g id="a_node5"><a xlink:href="_main_component_8h.html" target="_top" xlink:title="Q:/Documents/GitHub\l/MIDI2LR/Source/MainComponent.h">
<polygon fill="white" stroke="black" points="198.986,-140 198.986,-170 370.986,-170 370.986,-140 198.986,-140"/>
<text text-anchor="start" x="206.986" y="-158" font-family="Helvetica,sans-Serif" font-size="10.00">Q:/Documents/GitHub</text>
<text text-anchor="middle" x="284.986" y="-147" font-family="Helvetica,sans-Serif" font-size="10.00">/MIDI2LR/Source/MainComponent.h</text>
</a>
</g>
</g>
<!-- Node1&#45;&gt;Node5 -->
<g id="edge32" class="edge"><title>Node1&#45;&gt;Node5</title>
<path fill="none" stroke="midnightblue" d="M427.363,-419.025C393.963,-398.6 344.155,-363.573 313.986,-321 280.689,-274.014 281.55,-201.005 283.65,-170.335"/>
<polygon fill="midnightblue" stroke="midnightblue" points="425.942,-422.253 436.318,-424.393 429.54,-416.249 425.942,-422.253"/>
</g>
<!-- Node17 -->
<g id="node17" class="node"><title>Node17</title>
<g id="a_node17"><a xlink:href="_l_r___i_p_c___out_8h.html" target="_top" xlink:title="Q:/Documents/GitHub\l/MIDI2LR/Source/LR_IPC_Out.h">
<polygon fill="white" stroke="black" points="439.486,-357.5 439.486,-387.5 594.486,-387.5 594.486,-357.5 439.486,-357.5"/>
<text text-anchor="start" x="447.486" y="-375.5" font-family="Helvetica,sans-Serif" font-size="10.00">Q:/Documents/GitHub</text>
<text text-anchor="middle" x="516.986" y="-364.5" font-family="Helvetica,sans-Serif" font-size="10.00">/MIDI2LR/Source/LR_IPC_Out.h</text>
</a>
</g>
</g>
<!-- Node1&#45;&gt;Node17 -->
<g id="edge26" class="edge"><title>Node1&#45;&gt;Node17</title>
<path fill="none" stroke="midnightblue" d="M480.401,-416.736C488.539,-407.119 497.872,-396.089 505.075,-387.577"/>
<polygon fill="midnightblue" stroke="midnightblue" points="477.708,-414.501 473.92,-424.396 483.051,-419.023 477.708,-414.501"/>
</g>
<!-- Node19 -->
<g id="node19" class="node"><title>Node19</title>
<g id="a_node19"><a xlink:href="_m_i_d_i_processor_8cpp.html" target="_top" xlink:title="Q:/Documents/GitHub\l/MIDI2LR/Source/MIDIProcessor.cpp">
<polygon fill="white" stroke="black" points="612.986,-357.5 612.986,-387.5 788.986,-387.5 788.986,-357.5 612.986,-357.5"/>
<text text-anchor="start" x="620.986" y="-375.5" font-family="Helvetica,sans-Serif" font-size="10.00">Q:/Documents/GitHub</text>
<text text-anchor="middle" x="700.986" y="-364.5" font-family="Helvetica,sans-Serif" font-size="10.00">/MIDI2LR/Source/MIDIProcessor.cpp</text>
</a>
</g>
</g>
<!-- Node1&#45;&gt;Node19 -->
<g id="edge33" class="edge"><title>Node1&#45;&gt;Node19</title>
<path fill="none" stroke="midnightblue" d="M523.207,-421.85C562.173,-411.252 612.087,-397.677 649.101,-387.611"/>
<polygon fill="midnightblue" stroke="midnightblue" points="522.282,-418.474 513.551,-424.476 524.119,-425.229 522.282,-418.474"/>
</g>
<!-- Node3 -->
<g id="node3" class="node"><title>Node3</title>
<g id="a_node3"><a xlink:href="_l_r___i_p_c___in_8h.html" target="_top" xlink:title="Q:/Documents/GitHub\l/MIDI2LR/Source/LR_IPC_In.h">
<polygon fill="white" stroke="black" points="71.4857,-212.5 71.4857,-242.5 218.486,-242.5 218.486,-212.5 71.4857,-212.5"/>
<text text-anchor="start" x="79.4857" y="-230.5" font-family="Helvetica,sans-Serif" font-size="10.00">Q:/Documents/GitHub</text>
<text text-anchor="middle" x="144.986" y="-219.5" font-family="Helvetica,sans-Serif" font-size="10.00">/MIDI2LR/Source/LR_IPC_In.h</text>
</a>
</g>
</g>
<!-- Node2&#45;&gt;Node3 -->
<g id="edge2" class="edge"><title>Node2&#45;&gt;Node3</title>
<path fill="none" stroke="midnightblue" d="M344.225,-282.318C299.463,-270.227 239.599,-254.057 197.211,-242.607"/>
<polygon fill="midnightblue" stroke="midnightblue" points="343.542,-285.758 354.108,-284.987 345.367,-279.001 343.542,-285.758"/>
</g>
<!-- Node2&#45;&gt;Node5 -->
<g id="edge12" class="edge"><title>Node2&#45;&gt;Node5</title>
<path fill="none" stroke="midnightblue" d="M353.378,-280.662C335.246,-271.895 316.396,-259.604 303.986,-243 287.788,-221.329 284.857,-188.631 284.624,-170.109"/>
<polygon fill="midnightblue" stroke="midnightblue" points="352.206,-283.973 362.757,-284.93 355.105,-277.602 352.206,-283.973"/>
</g>
<!-- Node10 -->
<g id="node10" class="node"><title>Node10</title>
<g id="a_node10"><a xlink:href="_settings_manager_8h.html" target="_top" xlink:title="Q:/Documents/GitHub\l/MIDI2LR/Source/SettingsManager.h">
<polygon fill="white" stroke="black" points="597.486,-212.5 597.486,-242.5 772.486,-242.5 772.486,-212.5 597.486,-212.5"/>
<text text-anchor="start" x="605.486" y="-230.5" font-family="Helvetica,sans-Serif" font-size="10.00">Q:/Documents/GitHub</text>
<text text-anchor="middle" x="684.986" y="-219.5" font-family="Helvetica,sans-Serif" font-size="10.00">/MIDI2LR/Source/SettingsManager.h</text>
</a>
</g>
</g>
<!-- Node2&#45;&gt;Node10 -->
<g id="edge13" class="edge"><title>Node2&#45;&gt;Node10</title>
<path fill="none" stroke="midnightblue" d="M471.403,-282.47C519.317,-270.362 583.656,-254.105 629.159,-242.607"/>
<polygon fill="midnightblue" stroke="midnightblue" points="470.279,-279.144 461.441,-284.987 471.993,-285.931 470.279,-279.144"/>
</g>
<!-- Node15 -->
<g id="node15" class="node"><title>Node15</title>
<g id="a_node15"><a xlink:href="_settings_manager_8cpp.html" target="_top" xlink:title="Q:/Documents/GitHub\l/MIDI2LR/Source/SettingsManager.cpp">
<polygon fill="white" stroke="black" points="389.486,-140 389.486,-170 574.486,-170 574.486,-140 389.486,-140"/>
<text text-anchor="start" x="397.486" y="-158" font-family="Helvetica,sans-Serif" font-size="10.00">Q:/Documents/GitHub</text>
<text text-anchor="middle" x="481.986" y="-147" font-family="Helvetica,sans-Serif" font-size="10.00">/MIDI2LR/Source/SettingsManager.cpp</text>
</a>
</g>
</g>
<!-- Node2&#45;&gt;Node15 -->
<g id="edge25" class="edge"><title>Node2&#45;&gt;Node15</title>
<path fill="none" stroke="midnightblue" d="M456.028,-280.443C472.381,-271.713 488.71,-259.504 497.986,-243 511.002,-219.839 499.119,-188.25 490.046,-170.202"/>
<polygon fill="midnightblue" stroke="midnightblue" points="454.38,-277.353 446.985,-284.94 457.497,-283.621 454.38,-277.353"/>
</g>
<!-- Node16 -->
<g id="node16" class="node"><title>Node16</title>
<g id="a_node16"><a xlink:href="_profile_manager_8cpp.html" target="_top" xlink:title="Q:/Documents/GitHub\l/MIDI2LR/Source/ProfileManager.cpp">
<polygon fill="white" stroke="black" points="312.986,-212.5 312.986,-242.5 488.986,-242.5 488.986,-212.5 312.986,-212.5"/>
<text text-anchor="start" x="320.986" y="-230.5" font-family="Helvetica,sans-Serif" font-size="10.00">Q:/Documents/GitHub</text>
<text text-anchor="middle" x="400.986" y="-219.5" font-family="Helvetica,sans-Serif" font-size="10.00">/MIDI2LR/Source/ProfileManager.cpp</text>
</a>
</g>
</g>
<!-- Node2&#45;&gt;Node16 -->
<g id="edge24" class="edge"><title>Node2&#45;&gt;Node16</title>
<path fill="none" stroke="midnightblue" d="M404.265,-274.732C403.508,-264.068 402.646,-251.914 401.996,-242.746"/>
<polygon fill="midnightblue" stroke="midnightblue" points="400.775,-275.006 404.974,-284.733 407.758,-274.511 400.775,-275.006"/>
</g>
<!-- Node4 -->
<g id="node4" class="node"><title>Node4</title>
<g id="a_node4"><a xlink:href="_l_r___i_p_c___in_8cpp.html" target="_top" xlink:title="Q:/Documents/GitHub\l/MIDI2LR/Source/LR_IPC\l_In.cpp">
<polygon fill="white" stroke="black" points="16.9857,-134.5 16.9857,-175.5 142.986,-175.5 142.986,-134.5 16.9857,-134.5"/>
<text text-anchor="start" x="24.9857" y="-163.5" font-family="Helvetica,sans-Serif" font-size="10.00">Q:/Documents/GitHub</text>
<text text-anchor="start" x="24.9857" y="-152.5" font-family="Helvetica,sans-Serif" font-size="10.00">/MIDI2LR/Source/LR_IPC</text>
<text text-anchor="middle" x="79.9857" y="-141.5" font-family="Helvetica,sans-Serif" font-size="10.00">_In.cpp</text>
</a>
</g>
</g>
<!-- Node3&#45;&gt;Node4 -->
<g id="edge3" class="edge"><title>Node3&#45;&gt;Node4</title>
<path fill="none" stroke="midnightblue" d="M124.998,-204.821C116.399,-195.494 106.42,-184.671 98.046,-175.588"/>
<polygon fill="midnightblue" stroke="midnightblue" points="122.48,-207.254 131.832,-212.233 127.627,-202.509 122.48,-207.254"/>
</g>
<!-- Node3&#45;&gt;Node5 -->
<g id="edge4" class="edge"><title>Node3&#45;&gt;Node5</title>
<path fill="none" stroke="midnightblue" d="M181.976,-207.873C205.508,-196.023 235.496,-180.922 257.04,-170.073"/>
<polygon fill="midnightblue" stroke="midnightblue" points="180.338,-204.779 172.98,-212.403 183.486,-211.031 180.338,-204.779"/>
</g>
<!-- Node6 -->
<g id="node6" class="node"><title>Node6</title>
<g id="a_node6"><a xlink:href="_main_8cpp.html" target="_top" xlink:title="Q:/Documents/GitHub\l/MIDI2LR/Source/Main.cpp">
<polygon fill="white" stroke="black" points="629.486,-0.5 629.486,-30.5 762.486,-30.5 762.486,-0.5 629.486,-0.5"/>
<text text-anchor="start" x="637.486" y="-18.5" font-family="Helvetica,sans-Serif" font-size="10.00">Q:/Documents/GitHub</text>
<text text-anchor="middle" x="695.986" y="-7.5" font-family="Helvetica,sans-Serif" font-size="10.00">/MIDI2LR/Source/Main.cpp</text>
</a>
</g>
</g>
<!-- Node3&#45;&gt;Node6 -->
<g id="edge10" class="edge"><title>Node3&#45;&gt;Node6</title>
<path fill="none" stroke="midnightblue" d="M61.608,-213.336C40.7287,-205.875 20.6832,-194.213 7.98572,-176 -2.68972,-160.687 -2.62298,-149.359 7.98572,-134 77.9707,-32.6773 470.507,-18.178 629.304,-16.5046"/>
<polygon fill="midnightblue" stroke="midnightblue" points="60.644,-216.703 71.2364,-216.477 62.815,-210.048 60.644,-216.703"/>
</g>
<!-- Node9 -->
<g id="node9" class="node"><title>Node9</title>
<g id="a_node9"><a xlink:href="_main_component_8cpp.html" target="_top" xlink:title="Q:/Documents/GitHub\l/MIDI2LR/Source/MainComponent.cpp">
<polygon fill="white" stroke="black" points="193.986,-67.5 193.986,-97.5 375.986,-97.5 375.986,-67.5 193.986,-67.5"/>
<text text-anchor="start" x="201.986" y="-85.5" font-family="Helvetica,sans-Serif" font-size="10.00">Q:/Documents/GitHub</text>
<text text-anchor="middle" x="284.986" y="-74.5" font-family="Helvetica,sans-Serif" font-size="10.00">/MIDI2LR/Source/MainComponent.cpp</text>
</a>
</g>
</g>
<!-- Node3&#45;&gt;Node9 -->
<g id="edge11" class="edge"><title>Node3&#45;&gt;Node9</title>
<path fill="none" stroke="midnightblue" d="M151.958,-202.608C158.876,-182.321 171.19,-153.481 189.986,-134 205.419,-118.004 227.032,-105.967 245.744,-97.6652"/>
<polygon fill="midnightblue" stroke="midnightblue" points="148.557,-201.751 148.826,-212.342 155.22,-203.895 148.557,-201.751"/>
</g>
<!-- Node5&#45;&gt;Node6 -->
<g id="edge5" class="edge"><title>Node5&#45;&gt;Node6</title>
<path fill="none" stroke="midnightblue" d="M336.684,-136.704C418.993,-109.168 578.247,-55.8893 653.992,-30.5489"/>
<polygon fill="midnightblue" stroke="midnightblue" points="335.411,-133.439 327.038,-139.931 337.632,-140.078 335.411,-133.439"/>
</g>
<!-- Node7 -->
<g id="node7" class="node"><title>Node7</title>
<g id="a_node7"><a xlink:href="_main_window_8h.html" target="_top" xlink:title="Q:/Documents/GitHub\l/MIDI2LR/Source/MainWindow.h">
<polygon fill="white" stroke="black" points="882.486,-67.5 882.486,-97.5 1039.49,-97.5 1039.49,-67.5 882.486,-67.5"/>
<text text-anchor="start" x="890.486" y="-85.5" font-family="Helvetica,sans-Serif" font-size="10.00">Q:/Documents/GitHub</text>
<text text-anchor="middle" x="960.986" y="-74.5" font-family="Helvetica,sans-Serif" font-size="10.00">/MIDI2LR/Source/MainWindow.h</text>
</a>
</g>
</g>
<!-- Node5&#45;&gt;Node7 -->
<g id="edge6" class="edge"><title>Node5&#45;&gt;Node7</title>
<path fill="none" stroke="midnightblue" d="M355.734,-138.064C363.885,-136.538 372.099,-135.138 379.986,-134 580.322,-105.091 632.514,-117.483 833.986,-98 849.669,-96.4834 866.421,-94.6927 882.444,-92.8966"/>
<polygon fill="midnightblue" stroke="midnightblue" points="355.001,-134.641 345.849,-139.979 356.332,-141.513 355.001,-134.641"/>
</g>
<!-- Node5&#45;&gt;Node9 -->
<g id="edge9" class="edge"><title>Node5&#45;&gt;Node9</title>
<path fill="none" stroke="midnightblue" d="M284.986,-129.732C284.986,-119.068 284.986,-106.914 284.986,-97.7455"/>
<polygon fill="midnightblue" stroke="midnightblue" points="281.486,-129.733 284.986,-139.733 288.486,-129.733 281.486,-129.733"/>
</g>
<!-- Node7&#45;&gt;Node6 -->
<g id="edge7" class="edge"><title>Node7&#45;&gt;Node6</title>
<path fill="none" stroke="midnightblue" d="M893.927,-65.0515C850.603,-54.425 794.816,-40.7414 753.515,-30.6109"/>
<polygon fill="midnightblue" stroke="midnightblue" points="893.265,-68.4929 903.811,-67.476 894.933,-61.6945 893.265,-68.4929"/>
</g>
<!-- Node8 -->
<g id="node8" class="node"><title>Node8</title>
<g id="a_node8"><a xlink:href="_main_window_8cpp.html" target="_top" xlink:title="Q:/Documents/GitHub\l/MIDI2LR/Source/MainWindow.cpp">
<polygon fill="white" stroke="black" points="877.486,-0.5 877.486,-30.5 1044.49,-30.5 1044.49,-0.5 877.486,-0.5"/>
<text text-anchor="start" x="885.486" y="-18.5" font-family="Helvetica,sans-Serif" font-size="10.00">Q:/Documents/GitHub</text>
<text text-anchor="middle" x="960.986" y="-7.5" font-family="Helvetica,sans-Serif" font-size="10.00">/MIDI2LR/Source/MainWindow.cpp</text>
</a>
</g>
</g>
<!-- Node7&#45;&gt;Node8 -->
<g id="edge8" class="edge"><title>Node7&#45;&gt;Node8</title>
<path fill="none" stroke="midnightblue" d="M960.986,-57.1081C960.986,-48.1539 960.986,-38.3227 960.986,-30.5765"/>
<polygon fill="midnightblue" stroke="midnightblue" points="957.486,-57.3959 960.986,-67.396 964.486,-57.396 957.486,-57.3959"/>
</g>
<!-- Node10&#45;&gt;Node5 -->
<g id="edge14" class="edge"><title>Node10&#45;&gt;Node5</title>
<path fill="none" stroke="midnightblue" d="M587.169,-211.411C527.244,-201.893 449.047,-188.981 379.986,-176 370.213,-174.163 359.898,-172.111 349.811,-170.039"/>
<polygon fill="midnightblue" stroke="midnightblue" points="586.956,-214.921 597.38,-213.028 588.051,-208.007 586.956,-214.921"/>
</g>
<!-- Node10&#45;&gt;Node6 -->
<g id="edge19" class="edge"><title>Node10&#45;&gt;Node6</title>
<path fill="none" stroke="midnightblue" d="M649.948,-206.754C639.026,-198.714 628.219,-188.37 621.986,-176 600.177,-132.721 595.957,-109.642 618.986,-67 627.798,-50.6829 644.433,-38.7844 659.994,-30.6504"/>
<polygon fill="midnightblue" stroke="midnightblue" points="648.022,-209.677 658.248,-212.448 651.982,-203.905 648.022,-209.677"/>
</g>
<!-- Node10&#45;&gt;Node7 -->
<g id="edge18" class="edge"><title>Node10&#45;&gt;Node7</title>
<path fill="none" stroke="midnightblue" d="M783.006,-225.168C869.526,-221.668 986.382,-210.463 1015.99,-176 1028.15,-161.84 1023.5,-151.09 1015.99,-134 1009.36,-118.928 995.775,-106.381 983.763,-97.5644"/>
<polygon fill="midnightblue" stroke="midnightblue" points="782.74,-221.676 772.879,-225.549 783.003,-228.671 782.74,-221.676"/>
</g>
<!-- Node11 -->
<g id="node11" class="node"><title>Node11</title>
<g id="a_node11"><a xlink:href="_version_checker_8h.html" target="_top" xlink:title="Q:/Documents/GitHub\l/MIDI2LR/Source/VersionChecker.h">
<polygon fill="white" stroke="black" points="836.986,-140 836.986,-170 1006.99,-170 1006.99,-140 836.986,-140"/>
<text text-anchor="start" x="844.986" y="-158" font-family="Helvetica,sans-Serif" font-size="10.00">Q:/Documents/GitHub</text>
<text text-anchor="middle" x="921.986" y="-147" font-family="Helvetica,sans-Serif" font-size="10.00">/MIDI2LR/Source/VersionChecker.h</text>
</a>
</g>
</g>
<!-- Node10&#45;&gt;Node11 -->
<g id="edge15" class="edge"><title>Node10&#45;&gt;Node11</title>
<path fill="none" stroke="midnightblue" d="M741.837,-209.589C782.398,-197.523 836.315,-181.484 874.563,-170.107"/>
<polygon fill="midnightblue" stroke="midnightblue" points="740.68,-206.281 732.093,-212.487 742.676,-212.991 740.68,-206.281"/>
</g>
<!-- Node13 -->
<g id="node13" class="node"><title>Node13</title>
<g id="a_node13"><a xlink:href="_settings_component_8h.html" target="_top" xlink:title="Q:/Documents/GitHub\l/MIDI2LR/Source/SettingsComponent.h">
<polygon fill="white" stroke="black" points="631.486,-140 631.486,-170 818.486,-170 818.486,-140 631.486,-140"/>
<text text-anchor="start" x="639.486" y="-158" font-family="Helvetica,sans-Serif" font-size="10.00">Q:/Documents/GitHub</text>
<text text-anchor="middle" x="724.986" y="-147" font-family="Helvetica,sans-Serif" font-size="10.00">/MIDI2LR/Source/SettingsComponent.h</text>
</a>
</g>
</g>
<!-- Node10&#45;&gt;Node13 -->
<g id="edge20" class="edge"><title>Node10&#45;&gt;Node13</title>
<path fill="none" stroke="midnightblue" d="M698.19,-203.227C704.373,-192.33 711.538,-179.701 716.903,-170.246"/>
<polygon fill="midnightblue" stroke="midnightblue" points="694.971,-201.808 693.08,-212.233 701.059,-205.263 694.971,-201.808"/>
</g>
<!-- Node10&#45;&gt;Node15 -->
<g id="edge23" class="edge"><title>Node10&#45;&gt;Node15</title>
<path fill="none" stroke="midnightblue" d="M634.938,-209.119C600.322,-197.097 554.851,-181.306 522.508,-170.073"/>
<polygon fill="midnightblue" stroke="midnightblue" points="633.799,-212.428 644.394,-212.403 636.095,-205.816 633.799,-212.428"/>
</g>
<!-- Node11&#45;&gt;Node6 -->
<g id="edge16" class="edge"><title>Node11&#45;&gt;Node6</title>
<path fill="none" stroke="midnightblue" d="M904.514,-132.011C888.095,-112.605 861.924,-84.721 833.986,-67 808.456,-50.8071 776.992,-38.7848 750.558,-30.5416"/>
<polygon fill="midnightblue" stroke="midnightblue" points="901.855,-134.288 910.93,-139.755 907.245,-129.822 901.855,-134.288"/>
</g>
<!-- Node12 -->
<g id="node12" class="node"><title>Node12</title>
<g id="a_node12"><a xlink:href="_version_checker_8cpp.html" target="_top" xlink:title="Q:/Documents/GitHub\l/MIDI2LR/Source/VersionChecker.cpp">
<polygon fill="white" stroke="black" points="1057.49,-67.5 1057.49,-97.5 1238.49,-97.5 1238.49,-67.5 1057.49,-67.5"/>
<text text-anchor="start" x="1065.49" y="-85.5" font-family="Helvetica,sans-Serif" font-size="10.00">Q:/Documents/GitHub</text>
<text text-anchor="middle" x="1147.99" y="-74.5" font-family="Helvetica,sans-Serif" font-size="10.00">/MIDI2LR/Source/VersionChecker.cpp</text>
</a>
</g>
</g>
<!-- Node11&#45;&gt;Node12 -->
<g id="edge17" class="edge"><title>Node11&#45;&gt;Node12</title>
<path fill="none" stroke="midnightblue" d="M976.936,-136.858C1015.53,-124.82 1066.52,-108.912 1102.76,-97.6069"/>
<polygon fill="midnightblue" stroke="midnightblue" points="975.41,-133.668 966.906,-139.987 977.495,-140.35 975.41,-133.668"/>
</g>
<!-- Node13&#45;&gt;Node9 -->
<g id="edge21" class="edge"><title>Node13&#45;&gt;Node9</title>
<path fill="none" stroke="midnightblue" d="M627.443,-138.371C551.223,-126.159 446.226,-109.335 372.652,-97.5465"/>
<polygon fill="midnightblue" stroke="midnightblue" points="627.102,-141.861 637.53,-139.987 628.21,-134.949 627.102,-141.861"/>
</g>
<!-- Node14 -->
<g id="node14" class="node"><title>Node14</title>
<g id="a_node14"><a xlink:href="_settings_component_8cpp.html" target="_top" xlink:title="Q:/Documents/GitHub\l/MIDI2LR/Source/SettingsComponent.cpp">
<polygon fill="white" stroke="black" points="628.486,-67.5 628.486,-97.5 825.486,-97.5 825.486,-67.5 628.486,-67.5"/>
<text text-anchor="start" x="636.486" y="-85.5" font-family="Helvetica,sans-Serif" font-size="10.00">Q:/Documents/GitHub</text>
<text text-anchor="middle" x="726.986" y="-74.5" font-family="Helvetica,sans-Serif" font-size="10.00">/MIDI2LR/Source/SettingsComponent.cpp</text>
</a>
</g>
</g>
<!-- Node13&#45;&gt;Node14 -->
<g id="edge22" class="edge"><title>Node13&#45;&gt;Node14</title>
<path fill="none" stroke="midnightblue" d="M725.674,-129.732C725.977,-119.068 726.321,-106.914 726.582,-97.7455"/>
<polygon fill="midnightblue" stroke="midnightblue" points="722.176,-129.638 725.39,-139.733 729.173,-129.837 722.176,-129.638"/>
</g>
<!-- Node17&#45;&gt;Node2 -->
<g id="edge27" class="edge"><title>Node17&#45;&gt;Node2</title>
<path fill="none" stroke="midnightblue" d="M486.161,-351.922C467.742,-340.224 444.77,-325.634 428.143,-315.073"/>
<polygon fill="midnightblue" stroke="midnightblue" points="484.472,-354.996 494.79,-357.403 488.225,-349.087 484.472,-354.996"/>
</g>
<!-- Node17&#45;&gt;Node5 -->
<g id="edge29" class="edge"><title>Node17&#45;&gt;Node5</title>
<path fill="none" stroke="midnightblue" d="M521.786,-346.916C527.002,-312.396 530.694,-249.584 497.986,-212 492.817,-206.06 406.084,-184.572 344.91,-170.009"/>
<polygon fill="midnightblue" stroke="midnightblue" points="518.287,-346.621 520.084,-357.062 525.19,-347.779 518.287,-346.621"/>
</g>
<!-- Node17&#45;&gt;Node6 -->
<g id="edge31" class="edge"><title>Node17&#45;&gt;Node6</title>
<path fill="none" stroke="midnightblue" d="M604.86,-355.885C802.912,-320.543 1266.99,-236.842 1266.99,-228.5 1266.99,-228.5 1266.99,-228.5 1266.99,-154 1266.99,-114.422 1277.65,-93.2013 1247.99,-67 1243.48,-63.0157 908.681,-34.3995 762.751,-22.0976"/>
<polygon fill="midnightblue" stroke="midnightblue" points="604.005,-352.482 594.775,-357.684 605.234,-359.373 604.005,-352.482"/>
</g>
<!-- Node17&#45;&gt;Node10 -->
<g id="edge30" class="edge"><title>Node17&#45;&gt;Node10</title>
<path fill="none" stroke="midnightblue" d="M599.541,-355.092C634.367,-346.391 669.33,-334.668 679.986,-321 697.587,-298.423 693.129,-262.522 688.778,-242.741"/>
<polygon fill="midnightblue" stroke="midnightblue" points="598.638,-351.709 589.743,-357.465 600.285,-358.513 598.638,-351.709"/>
</g>
<!-- Node18 -->
<g id="node18" class="node"><title>Node18</title>
<g id="a_node18"><a xlink:href="_l_r___i_p_c___out_8cpp.html" target="_top" xlink:title="Q:/Documents/GitHub\l/MIDI2LR/Source/LR_IPC\l_Out.cpp">
<polygon fill="white" stroke="black" points="544.986,-279.5 544.986,-320.5 670.986,-320.5 670.986,-279.5 544.986,-279.5"/>
<text text-anchor="start" x="552.986" y="-308.5" font-family="Helvetica,sans-Serif" font-size="10.00">Q:/Documents/GitHub</text>
<text text-anchor="start" x="552.986" y="-297.5" font-family="Helvetica,sans-Serif" font-size="10.00">/MIDI2LR/Source/LR_IPC</text>
<text text-anchor="middle" x="607.986" y="-286.5" font-family="Helvetica,sans-Serif" font-size="10.00">_Out.cpp</text>
</a>
</g>
</g>
<!-- Node17&#45;&gt;Node18 -->
<g id="edge28" class="edge"><title>Node17&#45;&gt;Node18</title>
<path fill="none" stroke="midnightblue" d="M543.533,-350.933C555.886,-341.363 570.509,-330.034 582.701,-320.588"/>
<polygon fill="midnightblue" stroke="midnightblue" points="541.163,-348.342 535.401,-357.233 545.45,-353.876 541.163,-348.342"/>
</g>
</g>
</svg>
        <g id="navigator" transform="translate(0 0)" fill="#404254">
                <rect fill="#f2f5e9" fill-opacity="0.5" stroke="#606060" stroke-width=".5" x="0" y="0" width="60" height="60"/>
                <use id="zoomplus" xlink:href="#zoomPlus" x="17" y="9" onmousedown="handleZoom(evt,'in')"/>
                <use id="zoomminus" xlink:href="#zoomMin" x="42" y="9" onmousedown="handleZoom(evt,'out')"/>
                <use id="reset" xlink:href="#resetDef" x="30" y="36" onmousedown="handleReset()"/>
                <g id="arrowUp" xlink:href="#dirArrow" transform="translate(30 24)" onmousedown="handlePan(0,-1)">
                  <use xlink:href="#rim" fill="#404040">
                        <set attributeName="fill" to="#808080" begin="arrowUp.mouseover" end="arrowUp.mouseout"/>
                  </use>
                  <path fill="none" stroke="white" stroke-width="1.5" d="M0,-3.0v7 M-2.5,-0.5L0,-3.0L2.5,-0.5"/>
                </g>
                <g id="arrowRight" xlink:href="#dirArrow" transform="rotate(90) translate(36 -43)" onmousedown="handlePan(1,0)">
                  <use xlink:href="#rim" fill="#404040">
                        <set attributeName="fill" to="#808080" begin="arrowRight.mouseover" end="arrowRight.mouseout"/>
                  </use>
                  <path fill="none" stroke="white" stroke-width="1.5" d="M0,-3.0v7 M-2.5,-0.5L0,-3.0L2.5,-0.5"/>
                </g>
                <g id="arrowDown" xlink:href="#dirArrow" transform="rotate(180) translate(-30 -48)" onmousedown="handlePan(0,1)">
                  <use xlink:href="#rim" fill="#404040">
                        <set attributeName="fill" to="#808080" begin="arrowDown.mouseover" end="arrowDown.mouseout"/>
                  </use>
                  <path fill="none" stroke="white" stroke-width="1.5" d="M0,-3.0v7 M-2.5,-0.5L0,-3.0L2.5,-0.5"/>
                </g>
                <g id="arrowLeft" xlink:href="#dirArrow" transform="rotate(270) translate(-36 17)" onmousedown="handlePan(-1,0)">
                  <use xlink:href="#rim" fill="#404040">
                        <set attributeName="fill" to="#808080" begin="arrowLeft.mouseover" end="arrowLeft.mouseout"/>
                  </use>
                  <path fill="none" stroke="white" stroke-width="1.5" d="M0,-3.0v7 M-2.5,-0.5L0,-3.0L2.5,-0.5"/>
                </g>
        </g>
        <svg viewBox="0 0 15 15" width="100%" height="30px" preserveAspectRatio="xMaxYMin meet">
         <g id="arrow_out" transform="scale(0.3 0.3)">
          <a xlink:href="_m_i_d_i_processor_8h__dep__incl_org.svg" target="_base">
           <rect id="button" ry="5" rx="5" y="6" x="6" height="38" width="38"
                fill="#f2f5e9" fill-opacity="0.5" stroke="#606060" stroke-width="1.0"/>
           <path id="arrow"
             d="M 11.500037,31.436501 C 11.940474,20.09759 22.043105,11.32322 32.158766,21.979434 L 37.068811,17.246167 C 37.068811,17.246167 37.088388,32 37.088388,32 L 22.160133,31.978069 C 22.160133,31.978069 26.997745,27.140456 26.997745,27.140456 C 18.528582,18.264221 13.291696,25.230495 11.500037,31.436501 z"
             style="fill:#404040;"/>
          </a>
         </g>
        </svg>
</svg>
