<?xml version="1.0" encoding="UTF-8" standalone="no"?>
<!DOCTYPE svg PUBLIC "-//W3C//DTD SVG 1.1//EN"
 "http://www.w3.org/Graphics/SVG/1.1/DTD/svg11.dtd">
<!-- Generated by graphviz version 2.38.0 (20140413.2041)
 -->
<!-- Title: Q:/Documents/GitHub/MIDI2LR/Source/MainComponent.h Pages: 1 -->
<svg width="461pt" height="173pt"
 viewBox="0.00 0.00 460.50 173.00" xmlns="http://www.w3.org/2000/svg" xmlns:xlink="http://www.w3.org/1999/xlink">
<g id="graph0" class="graph" transform="scale(1 1) rotate(0) translate(4 169)">
<title>Q:/Documents/GitHub/MIDI2LR/Source/MainComponent.h</title>
<polygon fill="white" stroke="none" points="-4,4 -4,-169 456.5,-169 456.5,4 -4,4"/>
<!-- Node1 -->
<g id="node1" class="node"><title>Node1</title>
<polygon fill="#bfbfbf" stroke="black" points="87.5,-134.5 87.5,-164.5 259.5,-164.5 259.5,-134.5 87.5,-134.5"/>
<text text-anchor="start" x="95.5" y="-152.5" font-family="Helvetica,sans-Serif" font-size="10.00">Q:/Documents/GitHub</text>
<text text-anchor="middle" x="173.5" y="-141.5" font-family="Helvetica,sans-Serif" font-size="10.00">/MIDI2LR/Source/MainComponent.h</text>
</g>
<!-- Node2 -->
<g id="node2" class="node"><title>Node2</title>
<g id="a_node2"><a xlink:href="_main_8cpp.html" target="_top" xlink:title="Q:/Documents/GitHub\l/MIDI2LR/Source/Main.cpp">
<polygon fill="white" stroke="black" points="0,-0.5 0,-30.5 133,-30.5 133,-0.5 0,-0.5"/>
<text text-anchor="start" x="8" y="-18.5" font-family="Helvetica,sans-Serif" font-size="10.00">Q:/Documents/GitHub</text>
<text text-anchor="middle" x="66.5" y="-7.5" font-family="Helvetica,sans-Serif" font-size="10.00">/MIDI2LR/Source/Main.cpp</text>
</a>
</g>
</g>
<!-- Node1&#45;&gt;Node2 -->
<g id="edge1" class="edge"><title>Node1&#45;&gt;Node2</title>
<path fill="none" stroke="midnightblue" d="M125.198,-129.895C110.508,-122.077 95.5974,-111.578 85.5,-98 70.5879,-77.9476 67.137,-48.0502 66.4779,-30.589"/>
<polygon fill="midnightblue" stroke="midnightblue" points="123.76,-133.089 134.271,-134.421 126.884,-126.825 123.76,-133.089"/>
</g>
<!-- Node3 -->
<g id="node3" class="node"><title>Node3</title>
<g id="a_node3"><a xlink:href="_main_window_8h.html" target="_top" xlink:title="Q:/Documents/GitHub\l/MIDI2LR/Source/MainWindow.h">
<polygon fill="white" stroke="black" points="95,-67.5 95,-97.5 252,-97.5 252,-67.5 95,-67.5"/>
<text text-anchor="start" x="103" y="-85.5" font-family="Helvetica,sans-Serif" font-size="10.00">Q:/Documents/GitHub</text>
<text text-anchor="middle" x="173.5" y="-74.5" font-family="Helvetica,sans-Serif" font-size="10.00">/MIDI2LR/Source/MainWindow.h</text>
</a>
</g>
</g>
<!-- Node1&#45;&gt;Node3 -->
<g id="edge2" class="edge"><title>Node1&#45;&gt;Node3</title>
<path fill="none" stroke="midnightblue" d="M173.5,-124.108C173.5,-115.154 173.5,-105.323 173.5,-97.5765"/>
<polygon fill="midnightblue" stroke="midnightblue" points="170,-124.396 173.5,-134.396 177,-124.396 170,-124.396"/>
</g>
<!-- Node5 -->
<g id="node5" class="node"><title>Node5</title>
<g id="a_node5"><a xlink:href="_main_component_8cpp.html" target="_top" xlink:title="Q:/Documents/GitHub\l/MIDI2LR/Source/MainComponent.cpp">
<polygon fill="white" stroke="black" points="270.5,-67.5 270.5,-97.5 452.5,-97.5 452.5,-67.5 270.5,-67.5"/>
<text text-anchor="start" x="278.5" y="-85.5" font-family="Helvetica,sans-Serif" font-size="10.00">Q:/Documents/GitHub</text>
<text text-anchor="middle" x="361.5" y="-74.5" font-family="Helvetica,sans-Serif" font-size="10.00">/MIDI2LR/Source/MainComponent.cpp</text>
</a>
</g>
</g>
<!-- Node1&#45;&gt;Node5 -->
<g id="edge5" class="edge"><title>Node1&#45;&gt;Node5</title>
<path fill="none" stroke="midnightblue" d="M223.85,-131.092C254.199,-120.599 292.35,-107.408 320.786,-97.5765"/>
<polygon fill="midnightblue" stroke="midnightblue" points="222.601,-127.82 214.293,-134.396 224.888,-134.436 222.601,-127.82"/>
</g>
<!-- Node3&#45;&gt;Node2 -->
<g id="edge3" class="edge"><title>Node3&#45;&gt;Node2</title>
<path fill="none" stroke="midnightblue" d="M141.425,-62.0151C124.774,-51.8999 104.806,-39.7698 89.6721,-30.5765"/>
<polygon fill="midnightblue" stroke="midnightblue" points="139.919,-65.1954 150.283,-67.396 143.553,-59.2127 139.919,-65.1954"/>
</g>
<!-- Node4 -->
<g id="node4" class="node"><title>Node4</title>
<g id="a_node4"><a xlink:href="_main_window_8cpp.html" target="_top" xlink:title="Q:/Documents/GitHub\l/MIDI2LR/Source/MainWindow.cpp">
<polygon fill="white" stroke="black" points="151,-0.5 151,-30.5 318,-30.5 318,-0.5 151,-0.5"/>
<text text-anchor="start" x="159" y="-18.5" font-family="Helvetica,sans-Serif" font-size="10.00">Q:/Documents/GitHub</text>
<text text-anchor="middle" x="234.5" y="-7.5" font-family="Helvetica,sans-Serif" font-size="10.00">/MIDI2LR/Source/MainWindow.cpp</text>
</a>
</g>
</g>
<!-- Node3&#45;&gt;Node4 -->
<g id="edge4" class="edge"><title>Node3&#45;&gt;Node4</title>
<path fill="none" stroke="midnightblue" d="M193.654,-60.0243C202.743,-50.3398 213.221,-39.1739 221.29,-30.5765"/>
<polygon fill="midnightblue" stroke="midnightblue" points="191.027,-57.709 186.736,-67.396 196.131,-62.4992 191.027,-57.709"/>
</g>
</g>
</svg>
