<?xml version="1.0" encoding="UTF-8" standalone="no"?>
<!DOCTYPE svg PUBLIC "-//W3C//DTD SVG 1.1//EN"
 "http://www.w3.org/Graphics/SVG/1.1/DTD/svg11.dtd">
<!-- Generated by graphviz version 2.38.0 (20140413.2041)
 -->
<!-- Title: Q:/Documents/GitHub/MIDI2LR/Source/MainWindow.h Pages: 1 -->
<!--zoomable 442 -->
<svg id="main" version="1.1" xmlns="http://www.w3.org/2000/svg" xmlns:xlink="http://www.w3.org/1999/xlink" xml:space="preserve" onload="init(evt)">
<style type="text/css"><![CDATA[
.edge:hover path { stroke: red; }
.edge:hover polygon { stroke: red; fill: red; }
]]></style>
<script type="text/javascript"><![CDATA[
var edges = document.getElementsByTagName('g');
if (edges && edges.length) {
  for (var i=0;i<edges.length;i++) {
    if (edges[i].id.substr(0,4)=='edge') {
      edges[i].setAttribute('class','edge');
    }
  }
}
]]></script>
        <defs>
                <circle id="rim" cx="0" cy="0" r="7"/>
                <circle id="rim2" cx="0" cy="0" r="3.5"/>
                <g id="zoomPlus">
                        <use xlink:href="#rim" fill="#404040">
                                <set attributeName="fill" to="#808080" begin="zoomplus.mouseover" end="zoomplus.mouseout"/>
                        </use>
                        <path d="M-4,0h8M0,-4v8" fill="none" stroke="white" stroke-width="1.5" pointer-events="none"/>
                </g>
                <g id="zoomMin">
                        <use xlink:href="#rim" fill="#404040">
                                <set attributeName="fill" to="#808080" begin="zoomminus.mouseover" end="zoomminus.mouseout"/>
                        </use>
                        <path d="M-4,0h8" fill="none" stroke="white" stroke-width="1.5" pointer-events="none"/>
                </g>
                <g id="dirArrow">
                        <path fill="none" stroke="white" stroke-width="1.5" d="M0,-3.0v7 M-2.5,-0.5L0,-3.0L2.5,-0.5"/>
                </g>
               <g id="resetDef">
                       <use xlink:href="#rim2" fill="#404040">
                               <set attributeName="fill" to="#808080" begin="reset.mouseover" end="reset.mouseout"/>
                       </use>
               </g>
        </defs>

<script type="text/javascript">
var viewWidth = 993;
var viewHeight = 442;
var sectionId = 'dynsection-0';
</script>
<script xlink:href="svgpan.js"/>
<svg id="graph" class="graph">
<g id="viewport">
<title>Q:/Documents/GitHub/MIDI2LR/Source/MainWindow.h</title>
<polygon fill="white" stroke="none" points="-4,4 -4,-438 989,-438 989,4 -4,4"/>
<!-- Node1 -->
<g id="node1" class="node"><title>Node1</title>
<polygon fill="#bfbfbf" stroke="black" points="681.5,-403.5 681.5,-433.5 838.5,-433.5 838.5,-403.5 681.5,-403.5"/>
<text text-anchor="start" x="689.5" y="-421.5" font-family="Helvetica,sans-Serif" font-size="10.00">Q:/Documents/GitHub</text>
<text text-anchor="middle" x="760" y="-410.5" font-family="Helvetica,sans-Serif" font-size="10.00">/MIDI2LR/Source/MainWindow.h</text>
</g>
<!-- Node2 -->
<g id="node2" class="node"><title>Node2</title>
<polygon fill="white" stroke="#bfbfbf" points="566,-56.5 566,-86.5 664,-86.5 664,-56.5 566,-56.5"/>
<text text-anchor="start" x="574" y="-74.5" font-family="Helvetica,sans-Serif" font-size="10.00">../JuceLibraryCode</text>
<text text-anchor="middle" x="615" y="-63.5" font-family="Helvetica,sans-Serif" font-size="10.00">/JuceHeader.h</text>
</g>
<!-- Node1&#45;&gt;Node2 -->
<g id="edge1" class="edge"><title>Node1&#45;&gt;Node2</title>
<path fill="none" stroke="midnightblue" d="M838.694,-409.308C903.578,-397.681 985,-369.619 985,-302 985,-302 985,-302 985,-188 985,-123.69 778.746,-91.0255 674.225,-78.6015"/>
<polygon fill="midnightblue" stroke="midnightblue" points="674.471,-75.1066 664.133,-77.4273 673.662,-82.0597 674.471,-75.1066"/>
</g>
<!-- Node3 -->
<g id="node3" class="node"><title>Node3</title>
<g id="a_node3"><a xlink:href="_main_component_8h.html" target="_top" xlink:title="MainComponent.h">
<polygon fill="white" stroke="black" points="597.5,-347.5 597.5,-366.5 692.5,-366.5 692.5,-347.5 597.5,-347.5"/>
<text text-anchor="middle" x="645" y="-354.5" font-family="Helvetica,sans-Serif" font-size="10.00">MainComponent.h</text>
</a>
</g>
</g>
<!-- Node1&#45;&gt;Node3 -->
<g id="edge2" class="edge"><title>Node1&#45;&gt;Node3</title>
<path fill="none" stroke="midnightblue" d="M732.747,-403.399C713.968,-393.684 689.174,-380.855 670.732,-371.314"/>
<polygon fill="midnightblue" stroke="midnightblue" points="672.224,-368.145 661.734,-366.658 669.007,-374.362 672.224,-368.145"/>
</g>
<!-- Node22 -->
<g id="node22" class="node"><title>Node22</title>
<g id="a_node22"><a xlink:href="_settings_manager_8h.html" target="_top" xlink:title="SettingsManager.h">
<polygon fill="white" stroke="black" points="711,-291.5 711,-310.5 809,-310.5 809,-291.5 711,-291.5"/>
<text text-anchor="middle" x="760" y="-298.5" font-family="Helvetica,sans-Serif" font-size="10.00">SettingsManager.h</text>
</a>
</g>
</g>
<!-- Node1&#45;&gt;Node22 -->
<g id="edge50" class="edge"><title>Node1&#45;&gt;Node22</title>
<path fill="none" stroke="midnightblue" d="M760,-403.337C760,-382.622 760,-344.016 760,-320.899"/>
<polygon fill="midnightblue" stroke="midnightblue" points="763.5,-320.669 760,-310.669 756.5,-320.669 763.5,-320.669"/>
</g>
<!-- Node3&#45;&gt;Node2 -->
<g id="edge3" class="edge"><title>Node3&#45;&gt;Node2</title>
<path fill="none" stroke="midnightblue" d="M692.625,-355.893C731.299,-353.232 784.706,-343.313 818,-311 839.598,-290.038 837,-276.098 837,-246 837,-246 837,-246 837,-188 837,-114.593 740.296,-87.7717 674.538,-78.0187"/>
<polygon fill="midnightblue" stroke="midnightblue" points="674.655,-74.5016 664.269,-76.5955 673.694,-81.4353 674.655,-74.5016"/>
</g>
<!-- Node4 -->
<g id="node4" class="node"><title>Node4</title>
<g id="a_node4"><a xlink:href="_command_table_8h.html" target="_top" xlink:title="CommandTable.h">
<polygon fill="white" stroke="black" points="865,-179.5 865,-198.5 957,-198.5 957,-179.5 865,-179.5"/>
<text text-anchor="middle" x="911" y="-186.5" font-family="Helvetica,sans-Serif" font-size="10.00">CommandTable.h</text>
</a>
</g>
</g>
<!-- Node3&#45;&gt;Node4 -->
<g id="edge4" class="edge"><title>Node3&#45;&gt;Node4</title>
<path fill="none" stroke="midnightblue" d="M692.697,-350.411C745.618,-343.388 826.76,-329.92 851,-311 884.317,-284.995 900.462,-235.623 907.1,-208.682"/>
<polygon fill="midnightblue" stroke="midnightblue" points="910.578,-209.17 909.385,-198.643 903.753,-207.617 910.578,-209.17"/>
</g>
<!-- Node5 -->
<g id="node5" class="node"><title>Node5</title>
<g id="a_node5"><a xlink:href="_command_table_model_8h.html" target="_top" xlink:title="CommandTableModel.h">
<polygon fill="white" stroke="black" points="19.5,-235.5 19.5,-254.5 138.5,-254.5 138.5,-235.5 19.5,-235.5"/>
<text text-anchor="middle" x="79" y="-242.5" font-family="Helvetica,sans-Serif" font-size="10.00">CommandTableModel.h</text>
</a>
</g>
</g>
<!-- Node3&#45;&gt;Node5 -->
<g id="edge6" class="edge"><title>Node3&#45;&gt;Node5</title>
<path fill="none" stroke="midnightblue" d="M597.195,-355.368C489.691,-353.348 232.097,-345 153,-311 128.08,-300.288 105.631,-277.895 92.1583,-262.409"/>
<polygon fill="midnightblue" stroke="midnightblue" points="94.746,-260.048 85.6383,-254.635 89.3824,-264.546 94.746,-260.048"/>
</g>
<!-- Node8 -->
<g id="node8" class="node"><title>Node8</title>
<g id="a_node8"><a xlink:href="_command_map_8h.html" target="_top" xlink:title="CommandMap.h">
<polygon fill="white" stroke="black" points="221,-123.5 221,-142.5 309,-142.5 309,-123.5 221,-123.5"/>
<text text-anchor="middle" x="265" y="-130.5" font-family="Helvetica,sans-Serif" font-size="10.00">CommandMap.h</text>
</a>
</g>
</g>
<!-- Node3&#45;&gt;Node8 -->
<g id="edge37" class="edge"><title>Node3&#45;&gt;Node8</title>
<path fill="none" stroke="midnightblue" d="M597.364,-356.248C499.663,-355.919 280.603,-350.639 219,-311 188.033,-291.074 171.018,-268.639 186,-235 195.731,-213.151 210.79,-217.458 226,-199 238.137,-184.27 249.04,-165.368 256.211,-151.749"/>
<polygon fill="midnightblue" stroke="midnightblue" points="259.493,-153.018 260.926,-142.52 253.259,-149.833 259.493,-153.018"/>
</g>
<!-- Node13 -->
<g id="node13" class="node"><title>Node13</title>
<g id="a_node13"><a xlink:href="_m_i_d_i_processor_8h.html" target="_top" xlink:title="MIDIProcessor.h">
<polygon fill="white" stroke="black" points="681.5,-123.5 681.5,-142.5 770.5,-142.5 770.5,-123.5 681.5,-123.5"/>
<text text-anchor="middle" x="726" y="-130.5" font-family="Helvetica,sans-Serif" font-size="10.00">MIDIProcessor.h</text>
</a>
</g>
</g>
<!-- Node3&#45;&gt;Node13 -->
<g id="edge21" class="edge"><title>Node3&#45;&gt;Node13</title>
<path fill="none" stroke="midnightblue" d="M650.707,-347.416C661.824,-330.397 686.636,-290.912 702,-255 712.231,-231.086 713.807,-224.487 719,-199 722.12,-183.689 723.908,-166.047 724.896,-153.01"/>
<polygon fill="midnightblue" stroke="midnightblue" points="728.396,-153.123 725.57,-142.912 721.411,-152.657 728.396,-153.123"/>
</g>
<!-- Node14 -->
<g id="node14" class="node"><title>Node14</title>
<g id="a_node14"><a xlink:href="_l_r___i_p_c___out_8h.html" target="_top" xlink:title="LR_IPC_OUT.h">
<polygon fill="white" stroke="black" points="573.5,-179.5 573.5,-198.5 656.5,-198.5 656.5,-179.5 573.5,-179.5"/>
<text text-anchor="middle" x="615" y="-186.5" font-family="Helvetica,sans-Serif" font-size="10.00">LR_IPC_OUT.h</text>
</a>
</g>
</g>
<!-- Node3&#45;&gt;Node14 -->
<g id="edge23" class="edge"><title>Node3&#45;&gt;Node14</title>
<path fill="none" stroke="midnightblue" d="M638.969,-347.341C627.653,-330.503 603.603,-291.769 595,-255 591.185,-238.693 597.737,-220.502 604.34,-207.52"/>
<polygon fill="midnightblue" stroke="midnightblue" points="607.429,-209.167 609.228,-198.726 601.31,-205.767 607.429,-209.167"/>
</g>
<!-- Node17 -->
<g id="node17" class="node"><title>Node17</title>
<g id="a_node17"><a xlink:href="_profile_manager_8h.html" target="_top" xlink:title="ProfileManager.h">
<polygon fill="white" stroke="black" points="604.5,-235.5 604.5,-254.5 693.5,-254.5 693.5,-235.5 604.5,-235.5"/>
<text text-anchor="middle" x="649" y="-242.5" font-family="Helvetica,sans-Serif" font-size="10.00">ProfileManager.h</text>
</a>
</g>
</g>
<!-- Node3&#45;&gt;Node17 -->
<g id="edge30" class="edge"><title>Node3&#45;&gt;Node17</title>
<path fill="none" stroke="midnightblue" d="M645.314,-347.368C645.959,-329.617 647.448,-288.666 648.324,-264.597"/>
<polygon fill="midnightblue" stroke="midnightblue" points="651.822,-264.712 648.688,-254.591 644.826,-264.458 651.822,-264.712"/>
</g>
<!-- Node18 -->
<g id="node18" class="node"><title>Node18</title>
<g id="a_node18"><a xlink:href="_resizable_layout_8h.html" target="_top" xlink:title="ResizableLayout.h">
<polygon fill="white" stroke="black" points="228.5,-291.5 228.5,-310.5 325.5,-310.5 325.5,-291.5 228.5,-291.5"/>
<text text-anchor="middle" x="277" y="-298.5" font-family="Helvetica,sans-Serif" font-size="10.00">ResizableLayout.h</text>
</a>
</g>
</g>
<!-- Node3&#45;&gt;Node18 -->
<g id="edge35" class="edge"><title>Node3&#45;&gt;Node18</title>
<path fill="none" stroke="midnightblue" d="M597.268,-348.996C530.26,-339.163 408.399,-321.281 335.858,-310.637"/>
<polygon fill="midnightblue" stroke="midnightblue" points="335.928,-307.11 325.525,-309.121 334.911,-314.035 335.928,-307.11"/>
</g>
<!-- Node20 -->
<g id="node20" class="node"><title>Node20</title>
<g id="a_node20"><a xlink:href="_l_r___i_p_c___in_8h.html" target="_top" xlink:title="LR_IPC_In.h">
<polygon fill="white" stroke="black" points="377.5,-291.5 377.5,-310.5 448.5,-310.5 448.5,-291.5 377.5,-291.5"/>
<text text-anchor="middle" x="413" y="-298.5" font-family="Helvetica,sans-Serif" font-size="10.00">LR_IPC_In.h</text>
</a>
</g>
</g>
<!-- Node3&#45;&gt;Node20 -->
<g id="edge38" class="edge"><title>Node3&#45;&gt;Node20</title>
<path fill="none" stroke="midnightblue" d="M608.239,-347.444C567.7,-338.008 502.428,-322.815 458.645,-312.624"/>
<polygon fill="midnightblue" stroke="midnightblue" points="459.36,-309.197 448.827,-310.339 457.773,-316.015 459.36,-309.197"/>
</g>
<!-- Node3&#45;&gt;Node22 -->
<g id="edge46" class="edge"><title>Node3&#45;&gt;Node22</title>
<path fill="none" stroke="midnightblue" d="M663.222,-347.444C681.896,-338.675 711.156,-324.935 732.617,-314.858"/>
<polygon fill="midnightblue" stroke="midnightblue" points="734.299,-317.935 741.863,-310.516 731.324,-311.599 734.299,-317.935"/>
</g>
<!-- Node4&#45;&gt;Node2 -->
<g id="edge5" class="edge"><title>Node4&#45;&gt;Node2</title>
<path fill="none" stroke="midnightblue" d="M905.561,-179.251C896.245,-165.049 875.816,-137.146 851,-123 796.172,-91.7462 724.163,-79.7879 674.172,-75.2388"/>
<polygon fill="midnightblue" stroke="midnightblue" points="674.424,-71.7477 664.166,-74.4002 673.839,-78.7233 674.424,-71.7477"/>
</g>
<!-- Node5&#45;&gt;Node2 -->
<g id="edge9" class="edge"><title>Node5&#45;&gt;Node2</title>
<path fill="none" stroke="midnightblue" d="M103.014,-235.499C121.551,-228.041 146.99,-215.761 165,-199 194.072,-171.943 178.4,-144.174 212,-123 274.97,-83.3172 471.472,-98.5622 545,-87 548.477,-86.4533 552.042,-85.8497 555.634,-85.2087"/>
<polygon fill="midnightblue" stroke="midnightblue" points="556.586,-88.5917 565.775,-83.3187 555.303,-81.7101 556.586,-88.5917"/>
</g>
<!-- Node6 -->
<g id="node6" class="node"><title>Node6</title>
<polygon fill="white" stroke="#bfbfbf" points="0,-0.5 0,-19.5 42,-19.5 42,-0.5 0,-0.5"/>
<text text-anchor="middle" x="21" y="-7.5" font-family="Helvetica,sans-Serif" font-size="10.00">vector</text>
</g>
<!-- Node5&#45;&gt;Node6 -->
<g id="edge7" class="edge"><title>Node5&#45;&gt;Node6</title>
<path fill="none" stroke="midnightblue" d="M72.4411,-235.38C65.9334,-226.566 55.9529,-212.317 49,-199 36.624,-175.296 32.5712,-169.154 27,-143 18.5864,-103.502 18.9069,-55.9076 19.9279,-30.029"/>
<polygon fill="midnightblue" stroke="midnightblue" points="23.4365,-29.9295 20.4175,-19.774 16.4445,-29.5957 23.4365,-29.9295"/>
</g>
<!-- Node7 -->
<g id="node7" class="node"><title>Node7</title>
<polygon fill="white" stroke="#bfbfbf" points="36,-123.5 36,-142.5 88,-142.5 88,-123.5 36,-123.5"/>
<text text-anchor="middle" x="62" y="-130.5" font-family="Helvetica,sans-Serif" font-size="10.00">memory</text>
</g>
<!-- Node5&#45;&gt;Node7 -->
<g id="edge8" class="edge"><title>Node5&#45;&gt;Node7</title>
<path fill="none" stroke="midnightblue" d="M72.3713,-235.275C66.2349,-226.607 57.5421,-212.669 54,-199 49.9893,-183.522 52.7989,-165.435 56.146,-152.276"/>
<polygon fill="midnightblue" stroke="midnightblue" points="59.5438,-153.125 58.946,-142.547 52.8168,-151.189 59.5438,-153.125"/>
</g>
<!-- Node5&#45;&gt;Node8 -->
<g id="edge10" class="edge"><title>Node5&#45;&gt;Node8</title>
<path fill="none" stroke="midnightblue" d="M112.826,-235.446C137.882,-228.158 172.183,-216.123 199,-199 219.654,-185.812 239.103,-165.295 251.465,-150.846"/>
<polygon fill="midnightblue" stroke="midnightblue" points="254.491,-152.681 258.193,-142.754 249.109,-148.205 254.491,-152.681"/>
</g>
<!-- Node12 -->
<g id="node12" class="node"><title>Node12</title>
<g id="a_node12"><a xlink:href="_command_menu_8h.html" target="_top" xlink:title="CommandMenu.h">
<polygon fill="white" stroke="black" points="63.5,-179.5 63.5,-198.5 156.5,-198.5 156.5,-179.5 63.5,-179.5"/>
<text text-anchor="middle" x="110" y="-186.5" font-family="Helvetica,sans-Serif" font-size="10.00">CommandMenu.h</text>
</a>
</g>
</g>
<!-- Node5&#45;&gt;Node12 -->
<g id="edge17" class="edge"><title>Node5&#45;&gt;Node12</title>
<path fill="none" stroke="midnightblue" d="M84.119,-235.083C88.4075,-227.613 94.6582,-216.724 99.9423,-207.52"/>
<polygon fill="midnightblue" stroke="midnightblue" points="103.033,-209.166 104.976,-198.751 96.9621,-205.681 103.033,-209.166"/>
</g>
<!-- Node8&#45;&gt;Node2 -->
<g id="edge11" class="edge"><title>Node8&#45;&gt;Node2</title>
<path fill="none" stroke="midnightblue" d="M309.236,-125.518C364.514,-117.274 461.954,-102.267 545,-87 548.462,-86.3636 552.015,-85.6903 555.598,-84.9961"/>
<polygon fill="midnightblue" stroke="midnightblue" points="556.588,-88.3683 565.721,-82.9973 555.232,-81.5009 556.588,-88.3683"/>
</g>
<!-- Node9 -->
<g id="node9" class="node"><title>Node9</title>
<polygon fill="white" stroke="#bfbfbf" points="259.5,-62 259.5,-81 342.5,-81 342.5,-62 259.5,-62"/>
<text text-anchor="middle" x="301" y="-69" font-family="Helvetica,sans-Serif" font-size="10.00">unordered_map</text>
</g>
<!-- Node8&#45;&gt;Node9 -->
<g id="edge12" class="edge"><title>Node8&#45;&gt;Node9</title>
<path fill="none" stroke="midnightblue" d="M270.158,-123.475C275.451,-114.727 283.835,-100.869 290.527,-89.8093"/>
<polygon fill="midnightblue" stroke="midnightblue" points="293.67,-91.3768 295.852,-81.0091 287.68,-87.7531 293.67,-91.3768"/>
</g>
<!-- Node10 -->
<g id="node10" class="node"><title>Node10</title>
<g id="a_node10"><a xlink:href="_subject_8h.html" target="_top" xlink:title="Pattern/Subject.h">
<polygon fill="white" stroke="black" points="69,-62 69,-81 161,-81 161,-62 69,-62"/>
<text text-anchor="middle" x="115" y="-69" font-family="Helvetica,sans-Serif" font-size="10.00">Pattern/Subject.h</text>
</a>
</g>
</g>
<!-- Node8&#45;&gt;Node10 -->
<g id="edge13" class="edge"><title>Node8&#45;&gt;Node10</title>
<path fill="none" stroke="midnightblue" d="M243.509,-123.475C217.89,-113.313 174.89,-96.2564 145.755,-84.6996"/>
<polygon fill="midnightblue" stroke="midnightblue" points="147.037,-81.4429 136.451,-81.0091 144.456,-87.9497 147.037,-81.4429"/>
</g>
<!-- Node10&#45;&gt;Node6 -->
<g id="edge16" class="edge"><title>Node10&#45;&gt;Node6</title>
<path fill="none" stroke="midnightblue" d="M101.532,-61.9751C86.3152,-52.3431 61.3133,-36.5175 43.1992,-25.0517"/>
<polygon fill="midnightblue" stroke="midnightblue" points="44.7644,-21.9002 34.4429,-19.5091 41.0205,-27.8149 44.7644,-21.9002"/>
</g>
<!-- Node11 -->
<g id="node11" class="node"><title>Node11</title>
<g id="a_node11"><a xlink:href="_observer_8h.html" target="_top" xlink:title="Observer.h">
<polygon fill="white" stroke="black" points="83.5,-0.5 83.5,-19.5 146.5,-19.5 146.5,-0.5 83.5,-0.5"/>
<text text-anchor="middle" x="115" y="-7.5" font-family="Helvetica,sans-Serif" font-size="10.00">Observer.h</text>
</a>
</g>
</g>
<!-- Node10&#45;&gt;Node11 -->
<g id="edge14" class="edge"><title>Node10&#45;&gt;Node11</title>
<path fill="none" stroke="midnightblue" d="M110.099,-61.9751C108.268,-53.5803 107.797,-40.4806 108.685,-29.6631"/>
<polygon fill="midnightblue" stroke="midnightblue" points="112.186,-29.897 110.103,-19.5091 105.254,-28.929 112.186,-29.897"/>
</g>
<!-- Node11&#45;&gt;Node10 -->
<g id="edge15" class="edge"><title>Node11&#45;&gt;Node10</title>
<path fill="none" stroke="midnightblue" d="M119.897,-19.5091C121.73,-27.898 122.203,-40.9962 121.317,-51.8165"/>
<polygon fill="midnightblue" stroke="midnightblue" points="117.815,-51.5876 119.901,-61.9751 124.748,-52.554 117.815,-51.5876"/>
</g>
<!-- Node12&#45;&gt;Node2 -->
<g id="edge19" class="edge"><title>Node12&#45;&gt;Node2</title>
<path fill="none" stroke="midnightblue" d="M115.098,-179.393C124.229,-164.869 144.885,-135.826 171,-123 245.944,-86.191 462.444,-99.4863 545,-87 548.48,-86.4737 552.048,-85.886 555.642,-85.257"/>
<polygon fill="midnightblue" stroke="midnightblue" points="556.585,-88.6425 565.787,-83.3919 555.319,-81.7579 556.585,-88.6425"/>
</g>
<!-- Node12&#45;&gt;Node7 -->
<g id="edge18" class="edge"><title>Node12&#45;&gt;Node7</title>
<path fill="none" stroke="midnightblue" d="M102.074,-179.083C95.1539,-171.298 84.9346,-159.801 76.548,-150.367"/>
<polygon fill="midnightblue" stroke="midnightblue" points="79.0383,-147.9 69.7787,-142.751 73.8065,-152.55 79.0383,-147.9"/>
</g>
<!-- Node12&#45;&gt;Node8 -->
<g id="edge20" class="edge"><title>Node12&#45;&gt;Node8</title>
<path fill="none" stroke="midnightblue" d="M134.56,-179.444C160.523,-170.399 201.668,-156.064 230.797,-145.916"/>
<polygon fill="midnightblue" stroke="midnightblue" points="232.263,-149.112 240.555,-142.516 229.96,-142.501 232.263,-149.112"/>
</g>
<!-- Node13&#45;&gt;Node2 -->
<g id="edge22" class="edge"><title>Node13&#45;&gt;Node2</title>
<path fill="none" stroke="midnightblue" d="M710.096,-123.475C694.501,-115.115 670.202,-102.09 650.071,-91.2991"/>
<polygon fill="midnightblue" stroke="midnightblue" points="651.628,-88.1627 641.161,-86.523 648.321,-94.3322 651.628,-88.1627"/>
</g>
<!-- Node14&#45;&gt;Node2 -->
<g id="edge24" class="edge"><title>Node14&#45;&gt;Node2</title>
<path fill="none" stroke="midnightblue" d="M615,-179.319C615,-161.967 615,-122.457 615,-96.6579"/>
<polygon fill="midnightblue" stroke="midnightblue" points="618.5,-96.5453 615,-86.5453 611.5,-96.5453 618.5,-96.5453"/>
</g>
<!-- Node14&#45;&gt;Node8 -->
<g id="edge26" class="edge"><title>Node14&#45;&gt;Node8</title>
<path fill="none" stroke="midnightblue" d="M573.416,-181.281C568.557,-180.507 563.669,-179.733 559,-179 475.507,-165.901 378.599,-151.157 319.559,-142.226"/>
<polygon fill="midnightblue" stroke="midnightblue" points="319.756,-138.716 309.345,-140.682 318.709,-145.638 319.756,-138.716"/>
</g>
<!-- Node14&#45;&gt;Node13 -->
<g id="edge25" class="edge"><title>Node14&#45;&gt;Node13</title>
<path fill="none" stroke="midnightblue" d="M632.834,-179.324C650.716,-170.625 678.475,-157.12 699.046,-147.113"/>
<polygon fill="midnightblue" stroke="midnightblue" points="700.749,-150.177 708.21,-142.655 697.687,-143.882 700.749,-150.177"/>
</g>
<!-- Node15 -->
<g id="node15" class="node"><title>Node15</title>
<g id="a_node15"><a xlink:href="_send_keys_8h.html" target="_top" xlink:title="SendKeys.h">
<polygon fill="white" stroke="black" points="479,-123.5 479,-142.5 549,-142.5 549,-123.5 479,-123.5"/>
<text text-anchor="middle" x="514" y="-130.5" font-family="Helvetica,sans-Serif" font-size="10.00">SendKeys.h</text>
</a>
</g>
</g>
<!-- Node14&#45;&gt;Node15 -->
<g id="edge27" class="edge"><title>Node14&#45;&gt;Node15</title>
<path fill="none" stroke="midnightblue" d="M598.773,-179.324C582.649,-170.703 557.7,-157.364 539.036,-147.386"/>
<polygon fill="midnightblue" stroke="midnightblue" points="540.656,-144.283 530.187,-142.655 537.356,-150.456 540.656,-144.283"/>
</g>
<!-- Node15&#45;&gt;Node2 -->
<g id="edge29" class="edge"><title>Node15&#45;&gt;Node2</title>
<path fill="none" stroke="midnightblue" d="M528.471,-123.475C542.406,-115.266 563.977,-102.558 582.095,-91.8845"/>
<polygon fill="midnightblue" stroke="midnightblue" points="584.357,-94.6144 591.196,-86.523 580.804,-88.5832 584.357,-94.6144"/>
</g>
<!-- Node16 -->
<g id="node16" class="node"><title>Node16</title>
<polygon fill="white" stroke="#bfbfbf" points="492,-62 492,-81 536,-81 536,-62 492,-62"/>
<text text-anchor="middle" x="514" y="-69" font-family="Helvetica,sans-Serif" font-size="10.00">mutex</text>
</g>
<!-- Node15&#45;&gt;Node16 -->
<g id="edge28" class="edge"><title>Node15&#45;&gt;Node16</title>
<path fill="none" stroke="midnightblue" d="M514,-123.475C514,-115.08 514,-101.981 514,-91.1631"/>
<polygon fill="midnightblue" stroke="midnightblue" points="517.5,-91.0091 514,-81.0091 510.5,-91.0091 517.5,-91.0091"/>
</g>
<!-- Node17&#45;&gt;Node2 -->
<g id="edge31" class="edge"><title>Node17&#45;&gt;Node2</title>
<path fill="none" stroke="midnightblue" d="M653.805,-235.197C660.009,-222.728 669.504,-199.19 665,-179 658.174,-148.4 641.559,-116.208 629.347,-95.3336"/>
<polygon fill="midnightblue" stroke="midnightblue" points="632.244,-93.3589 624.097,-86.5855 626.242,-96.961 632.244,-93.3589"/>
</g>
<!-- Node17&#45;&gt;Node8 -->
<g id="edge34" class="edge"><title>Node17&#45;&gt;Node8</title>
<path fill="none" stroke="midnightblue" d="M632.728,-235.387C599.736,-217.935 527.834,-179.962 525,-179 456.268,-155.68 373.024,-143.989 319.557,-138.465"/>
<polygon fill="midnightblue" stroke="midnightblue" points="319.571,-134.949 309.273,-137.441 318.877,-141.915 319.571,-134.949"/>
</g>
<!-- Node17&#45;&gt;Node13 -->
<g id="edge32" class="edge"><title>Node17&#45;&gt;Node13</title>
<path fill="none" stroke="midnightblue" d="M661.54,-235.253C672.628,-226.983 688.611,-213.681 699,-199 709.137,-184.675 716.397,-165.967 720.819,-152.302"/>
<polygon fill="midnightblue" stroke="midnightblue" points="724.207,-153.188 723.756,-142.603 717.508,-151.159 724.207,-153.188"/>
</g>
<!-- Node17&#45;&gt;Node14 -->
<g id="edge33" class="edge"><title>Node17&#45;&gt;Node14</title>
<path fill="none" stroke="midnightblue" d="M643.386,-235.083C638.633,-227.534 631.682,-216.495 625.848,-207.23"/>
<polygon fill="midnightblue" stroke="midnightblue" points="628.8,-205.349 620.51,-198.751 622.876,-209.078 628.8,-205.349"/>
</g>
<!-- Node19 -->
<g id="node19" class="node"><title>Node19</title>
<polygon fill="white" stroke="#bfbfbf" points="195,-235.5 195,-254.5 271,-254.5 271,-235.5 195,-235.5"/>
<text text-anchor="middle" x="233" y="-242.5" font-family="Helvetica,sans-Serif" font-size="10.00">JuceHeader.h</text>
</g>
<!-- Node18&#45;&gt;Node19 -->
<g id="edge36" class="edge"><title>Node18&#45;&gt;Node19</title>
<path fill="none" stroke="midnightblue" d="M269.734,-291.083C263.455,-283.377 254.212,-272.033 246.569,-262.653"/>
<polygon fill="midnightblue" stroke="midnightblue" points="249.161,-260.293 240.131,-254.751 243.734,-264.714 249.161,-260.293"/>
</g>
<!-- Node20&#45;&gt;Node2 -->
<g id="edge39" class="edge"><title>Node20&#45;&gt;Node2</title>
<path fill="none" stroke="midnightblue" d="M411.063,-291.479C406.834,-270.832 398.626,-217.03 418,-179 433.417,-148.736 441.567,-141.579 470,-123 496.035,-105.988 528.457,-93.993 556.036,-85.9757"/>
<polygon fill="midnightblue" stroke="midnightblue" points="557.27,-89.2651 565.957,-83.2001 555.384,-82.5239 557.27,-89.2651"/>
</g>
<!-- Node20&#45;&gt;Node8 -->
<g id="edge41" class="edge"><title>Node20&#45;&gt;Node8</title>
<path fill="none" stroke="midnightblue" d="M384.873,-291.396C365.458,-284.261 340.149,-272.437 323,-255 293.973,-225.485 277.297,-178.642 269.812,-152.75"/>
<polygon fill="midnightblue" stroke="midnightblue" points="273.093,-151.48 267.082,-142.755 266.341,-153.324 273.093,-151.48"/>
</g>
<!-- Node20&#45;&gt;Node9 -->
<g id="edge40" class="edge"><title>Node20&#45;&gt;Node9</title>
<path fill="none" stroke="midnightblue" d="M399.197,-291.239C387.488,-283.147 371.039,-270.118 361,-255 326.868,-203.599 337.398,-181.572 318,-123 314.45,-112.281 310.42,-100.303 307.176,-90.7031"/>
<polygon fill="midnightblue" stroke="midnightblue" points="310.436,-89.4184 303.913,-81.0694 303.806,-91.6637 310.436,-89.4184"/>
</g>
<!-- Node20&#45;&gt;Node15 -->
<g id="edge45" class="edge"><title>Node20&#45;&gt;Node15</title>
<path fill="none" stroke="midnightblue" d="M411.947,-291.445C409.806,-270.257 407.067,-214.498 432,-179 442.435,-164.144 459.394,-153.681 475.189,-146.608"/>
<polygon fill="midnightblue" stroke="midnightblue" points="476.901,-149.688 484.805,-142.633 474.226,-143.219 476.901,-149.688"/>
</g>
<!-- Node20&#45;&gt;Node17 -->
<g id="edge42" class="edge"><title>Node20&#45;&gt;Node17</title>
<path fill="none" stroke="midnightblue" d="M448.587,-291.857C489.409,-282.517 556.515,-267.162 601.705,-256.822"/>
<polygon fill="midnightblue" stroke="midnightblue" points="602.593,-260.209 611.561,-254.567 601.032,-253.385 602.593,-260.209"/>
</g>
<!-- Node21 -->
<g id="node21" class="node"><title>Node21</title>
<g id="a_node21"><a xlink:href="_m_i_d_i_sender_8h.html" target="_top" xlink:title="MIDISender.h">
<polygon fill="white" stroke="black" points="441.5,-179.5 441.5,-198.5 516.5,-198.5 516.5,-179.5 441.5,-179.5"/>
<text text-anchor="middle" x="479" y="-186.5" font-family="Helvetica,sans-Serif" font-size="10.00">MIDISender.h</text>
</a>
</g>
</g>
<!-- Node20&#45;&gt;Node21 -->
<g id="edge43" class="edge"><title>Node20&#45;&gt;Node21</title>
<path fill="none" stroke="midnightblue" d="M418.179,-291.368C429.023,-273.296 454.294,-231.176 468.616,-207.307"/>
<polygon fill="midnightblue" stroke="midnightblue" points="471.701,-208.967 473.845,-198.591 465.699,-205.366 471.701,-208.967"/>
</g>
<!-- Node21&#45;&gt;Node2 -->
<g id="edge44" class="edge"><title>Node21&#45;&gt;Node2</title>
<path fill="none" stroke="midnightblue" d="M498.469,-179.446C515.294,-171.487 539.717,-158.536 558,-143 574.389,-129.074 589.521,-109.929 600.07,-95.104"/>
<polygon fill="midnightblue" stroke="midnightblue" points="603.2,-96.7309 606.015,-86.5168 597.445,-92.7461 603.2,-96.7309"/>
</g>
<!-- Node22&#45;&gt;Node2 -->
<g id="edge47" class="edge"><title>Node22&#45;&gt;Node2</title>
<path fill="none" stroke="midnightblue" d="M764.738,-291.178C778.983,-263.323 818.104,-175.956 779,-123 755.141,-90.6882 710.924,-78.4038 674.411,-74.0139"/>
<polygon fill="midnightblue" stroke="midnightblue" points="674.647,-70.5197 664.34,-72.975 673.928,-77.4828 674.647,-70.5197"/>
</g>
<!-- Node22&#45;&gt;Node14 -->
<g id="edge48" class="edge"><title>Node22&#45;&gt;Node14</title>
<path fill="none" stroke="midnightblue" d="M753.715,-291.076C743.889,-277.607 723.749,-251.872 702,-235 684.882,-221.72 663.254,-210.513 645.845,-202.604"/>
<polygon fill="midnightblue" stroke="midnightblue" points="647.225,-199.387 636.662,-198.557 644.402,-205.793 647.225,-199.387"/>
</g>
<!-- Node22&#45;&gt;Node17 -->
<g id="edge49" class="edge"><title>Node22&#45;&gt;Node17</title>
<path fill="none" stroke="midnightblue" d="M742.166,-291.324C724.284,-282.625 696.525,-269.12 675.954,-259.113"/>
<polygon fill="midnightblue" stroke="midnightblue" points="677.313,-255.882 666.79,-254.655 674.251,-262.177 677.313,-255.882"/>
</g>
</g>
</svg>
        <g id="navigator" transform="translate(0 0)" fill="#404254">
                <rect fill="#f2f5e9" fill-opacity="0.5" stroke="#606060" stroke-width=".5" x="0" y="0" width="60" height="60"/>
                <use id="zoomplus" xlink:href="#zoomPlus" x="17" y="9" onmousedown="handleZoom(evt,'in')"/>
                <use id="zoomminus" xlink:href="#zoomMin" x="42" y="9" onmousedown="handleZoom(evt,'out')"/>
                <use id="reset" xlink:href="#resetDef" x="30" y="36" onmousedown="handleReset()"/>
                <g id="arrowUp" xlink:href="#dirArrow" transform="translate(30 24)" onmousedown="handlePan(0,-1)">
                  <use xlink:href="#rim" fill="#404040">
                        <set attributeName="fill" to="#808080" begin="arrowUp.mouseover" end="arrowUp.mouseout"/>
                  </use>
                  <path fill="none" stroke="white" stroke-width="1.5" d="M0,-3.0v7 M-2.5,-0.5L0,-3.0L2.5,-0.5"/>
                </g>
                <g id="arrowRight" xlink:href="#dirArrow" transform="rotate(90) translate(36 -43)" onmousedown="handlePan(1,0)">
                  <use xlink:href="#rim" fill="#404040">
                        <set attributeName="fill" to="#808080" begin="arrowRight.mouseover" end="arrowRight.mouseout"/>
                  </use>
                  <path fill="none" stroke="white" stroke-width="1.5" d="M0,-3.0v7 M-2.5,-0.5L0,-3.0L2.5,-0.5"/>
                </g>
                <g id="arrowDown" xlink:href="#dirArrow" transform="rotate(180) translate(-30 -48)" onmousedown="handlePan(0,1)">
                  <use xlink:href="#rim" fill="#404040">
                        <set attributeName="fill" to="#808080" begin="arrowDown.mouseover" end="arrowDown.mouseout"/>
                  </use>
                  <path fill="none" stroke="white" stroke-width="1.5" d="M0,-3.0v7 M-2.5,-0.5L0,-3.0L2.5,-0.5"/>
                </g>
                <g id="arrowLeft" xlink:href="#dirArrow" transform="rotate(270) translate(-36 17)" onmousedown="handlePan(-1,0)">
                  <use xlink:href="#rim" fill="#404040">
                        <set attributeName="fill" to="#808080" begin="arrowLeft.mouseover" end="arrowLeft.mouseout"/>
                  </use>
                  <path fill="none" stroke="white" stroke-width="1.5" d="M0,-3.0v7 M-2.5,-0.5L0,-3.0L2.5,-0.5"/>
                </g>
        </g>
        <svg viewBox="0 0 15 15" width="100%" height="30px" preserveAspectRatio="xMaxYMin meet">
         <g id="arrow_out" transform="scale(0.3 0.3)">
          <a xlink:href="_main_window_8h__incl_org.svg" target="_base">
           <rect id="button" ry="5" rx="5" y="6" x="6" height="38" width="38"
                fill="#f2f5e9" fill-opacity="0.5" stroke="#606060" stroke-width="1.0"/>
           <path id="arrow"
             d="M 11.500037,31.436501 C 11.940474,20.09759 22.043105,11.32322 32.158766,21.979434 L 37.068811,17.246167 C 37.068811,17.246167 37.088388,32 37.088388,32 L 22.160133,31.978069 C 22.160133,31.978069 26.997745,27.140456 26.997745,27.140456 C 18.528582,18.264221 13.291696,25.230495 11.500037,31.436501 z"
             style="fill:#404040;"/>
          </a>
         </g>
        </svg>
</svg>
