<?xml version="1.0" encoding="UTF-8" standalone="no"?>
<!DOCTYPE svg PUBLIC "-//W3C//DTD SVG 1.1//EN"
 "http://www.w3.org/Graphics/SVG/1.1/DTD/svg11.dtd">
<!-- Generated by graphviz version 2.38.0 (20140413.2041)
 -->
<!-- Title: Q:/Documents/GitHub/MIDI2LR/Source/MainComponent.h Pages: 1 -->
<svg width="955pt" height="386pt"
 viewBox="0.00 0.00 955.00 386.00" xmlns="http://www.w3.org/2000/svg" xmlns:xlink="http://www.w3.org/1999/xlink">
<g id="graph0" class="graph" transform="scale(1 1) rotate(0) translate(4 382)">
<title>Q:/Documents/GitHub/MIDI2LR/Source/MainComponent.h</title>
<polygon fill="white" stroke="none" points="-4,4 -4,-382 951,-382 951,4 -4,4"/>
<!-- Node1 -->
<g id="node1" class="node"><title>Node1</title>
<polygon fill="#bfbfbf" stroke="black" points="578,-347.5 578,-377.5 750,-377.5 750,-347.5 578,-347.5"/>
<text text-anchor="start" x="586" y="-365.5" font-family="Helvetica,sans-Serif" font-size="10.00">Q:/Documents/GitHub</text>
<text text-anchor="middle" x="664" y="-354.5" font-family="Helvetica,sans-Serif" font-size="10.00">/MIDI2LR/Source/MainComponent.h</text>
</g>
<!-- Node2 -->
<g id="node2" class="node"><title>Node2</title>
<polygon fill="white" stroke="#bfbfbf" points="512,-56.5 512,-86.5 610,-86.5 610,-56.5 512,-56.5"/>
<text text-anchor="start" x="520" y="-74.5" font-family="Helvetica,sans-Serif" font-size="10.00">../JuceLibraryCode</text>
<text text-anchor="middle" x="561" y="-63.5" font-family="Helvetica,sans-Serif" font-size="10.00">/JuceHeader.h</text>
</g>
<!-- Node1&#45;&gt;Node2 -->
<g id="edge1" class="edge"><title>Node1&#45;&gt;Node2</title>
<path fill="none" stroke="midnightblue" d="M750.091,-358.624C798.186,-353.43 857.253,-340.778 902,-311 931.252,-291.534 947,-281.136 947,-246 947,-246 947,-246 947,-188 947,-79.9004 713.561,-100.717 620.182,-86.8644"/>
<polygon fill="midnightblue" stroke="midnightblue" points="620.741,-83.4092 610.291,-85.1517 619.547,-90.3066 620.741,-83.4092"/>
</g>
<!-- Node3 -->
<g id="node3" class="node"><title>Node3</title>
<g id="a_node3"><a xlink:href="_command_table_8h.html" target="_top" xlink:title="CommandTable.h">
<polygon fill="white" stroke="black" points="535,-179.5 535,-198.5 627,-198.5 627,-179.5 535,-179.5"/>
<text text-anchor="middle" x="581" y="-186.5" font-family="Helvetica,sans-Serif" font-size="10.00">CommandTable.h</text>
</a>
</g>
</g>
<!-- Node1&#45;&gt;Node3 -->
<g id="edge2" class="edge"><title>Node1&#45;&gt;Node3</title>
<path fill="none" stroke="midnightblue" d="M657.208,-347.465C642.191,-316.436 606.19,-242.049 589.617,-207.806"/>
<polygon fill="midnightblue" stroke="midnightblue" points="592.649,-206.036 585.143,-198.56 586.349,-209.086 592.649,-206.036"/>
</g>
<!-- Node4 -->
<g id="node4" class="node"><title>Node4</title>
<g id="a_node4"><a xlink:href="_command_table_model_8h.html" target="_top" xlink:title="CommandTableModel.h">
<polygon fill="white" stroke="black" points="113.5,-235.5 113.5,-254.5 232.5,-254.5 232.5,-235.5 113.5,-235.5"/>
<text text-anchor="middle" x="173" y="-242.5" font-family="Helvetica,sans-Serif" font-size="10.00">CommandTableModel.h</text>
</a>
</g>
</g>
<!-- Node1&#45;&gt;Node4 -->
<g id="edge4" class="edge"><title>Node1&#45;&gt;Node4</title>
<path fill="none" stroke="midnightblue" d="M577.72,-357.056C473.3,-350.643 304.332,-336.646 247,-311 222.24,-299.924 199.753,-277.618 186.228,-262.251"/>
<polygon fill="midnightblue" stroke="midnightblue" points="188.821,-259.898 179.678,-254.544 183.486,-264.43 188.821,-259.898"/>
</g>
<!-- Node7 -->
<g id="node7" class="node"><title>Node7</title>
<g id="a_node7"><a xlink:href="_command_map_8h.html" target="_top" xlink:title="CommandMap.h">
<polygon fill="white" stroke="black" points="221,-123.5 221,-142.5 309,-142.5 309,-123.5 221,-123.5"/>
<text text-anchor="middle" x="265" y="-130.5" font-family="Helvetica,sans-Serif" font-size="10.00">CommandMap.h</text>
</a>
</g>
</g>
<!-- Node1&#45;&gt;Node7 -->
<g id="edge35" class="edge"><title>Node1&#45;&gt;Node7</title>
<path fill="none" stroke="midnightblue" d="M577.637,-357.949C496.498,-350.091 376.69,-326.186 302,-255 273.604,-227.936 266.82,-179.753 265.314,-153.083"/>
<polygon fill="midnightblue" stroke="midnightblue" points="268.801,-152.66 264.939,-142.794 261.805,-152.915 268.801,-152.66"/>
</g>
<!-- Node12 -->
<g id="node12" class="node"><title>Node12</title>
<g id="a_node12"><a xlink:href="_m_i_d_i_processor_8h.html" target="_top" xlink:title="MIDIProcessor.h">
<polygon fill="white" stroke="black" points="715.5,-123.5 715.5,-142.5 804.5,-142.5 804.5,-123.5 715.5,-123.5"/>
<text text-anchor="middle" x="760" y="-130.5" font-family="Helvetica,sans-Serif" font-size="10.00">MIDIProcessor.h</text>
</a>
</g>
</g>
<!-- Node1&#45;&gt;Node12 -->
<g id="edge19" class="edge"><title>Node1&#45;&gt;Node12</title>
<path fill="none" stroke="midnightblue" d="M750.01,-352.631C803.908,-345.097 866.237,-332.068 883,-311 929.197,-252.938 830.043,-178.635 782.983,-148.081"/>
<polygon fill="midnightblue" stroke="midnightblue" points="784.64,-144.987 774.325,-142.571 780.882,-150.893 784.64,-144.987"/>
</g>
<!-- Node13 -->
<g id="node13" class="node"><title>Node13</title>
<g id="a_node13"><a xlink:href="_l_r___i_p_c___out_8h.html" target="_top" xlink:title="LR_IPC_OUT.h">
<polygon fill="white" stroke="black" points="683.5,-179.5 683.5,-198.5 766.5,-198.5 766.5,-179.5 683.5,-179.5"/>
<text text-anchor="middle" x="725" y="-186.5" font-family="Helvetica,sans-Serif" font-size="10.00">LR_IPC_OUT.h</text>
</a>
</g>
</g>
<!-- Node1&#45;&gt;Node13 -->
<g id="edge21" class="edge"><title>Node1&#45;&gt;Node13</title>
<path fill="none" stroke="midnightblue" d="M667.402,-347.175C673.241,-323.421 686.094,-274.575 702,-235 705.722,-225.74 710.677,-215.824 715.035,-207.664"/>
<polygon fill="midnightblue" stroke="midnightblue" points="718.188,-209.194 719.931,-198.743 712.052,-205.826 718.188,-209.194"/>
</g>
<!-- Node16 -->
<g id="node16" class="node"><title>Node16</title>
<g id="a_node16"><a xlink:href="_profile_manager_8h.html" target="_top" xlink:title="ProfileManager.h">
<polygon fill="white" stroke="black" points="711.5,-235.5 711.5,-254.5 800.5,-254.5 800.5,-235.5 711.5,-235.5"/>
<text text-anchor="middle" x="756" y="-242.5" font-family="Helvetica,sans-Serif" font-size="10.00">ProfileManager.h</text>
</a>
</g>
</g>
<!-- Node1&#45;&gt;Node16 -->
<g id="edge28" class="edge"><title>Node1&#45;&gt;Node16</title>
<path fill="none" stroke="midnightblue" d="M675.281,-347.337C692.309,-325.96 724.513,-285.53 742.673,-262.731"/>
<polygon fill="midnightblue" stroke="midnightblue" points="745.602,-264.672 749.094,-254.669 740.126,-260.311 745.602,-264.672"/>
</g>
<!-- Node17 -->
<g id="node17" class="node"><title>Node17</title>
<g id="a_node17"><a xlink:href="_resizable_layout_8h.html" target="_top" xlink:title="ResizableLayout.h">
<polygon fill="white" stroke="black" points="31.5,-291.5 31.5,-310.5 128.5,-310.5 128.5,-291.5 31.5,-291.5"/>
<text text-anchor="middle" x="80" y="-298.5" font-family="Helvetica,sans-Serif" font-size="10.00">ResizableLayout.h</text>
</a>
</g>
</g>
<!-- Node1&#45;&gt;Node17 -->
<g id="edge33" class="edge"><title>Node1&#45;&gt;Node17</title>
<path fill="none" stroke="midnightblue" d="M577.829,-352.721C457.462,-340.457 242.154,-318.521 138.682,-307.979"/>
<polygon fill="midnightblue" stroke="midnightblue" points="139.028,-304.496 128.725,-306.964 138.318,-311.46 139.028,-304.496"/>
</g>
<!-- Node19 -->
<g id="node19" class="node"><title>Node19</title>
<g id="a_node19"><a xlink:href="_l_r___i_p_c___in_8h.html" target="_top" xlink:title="LR_IPC_In.h">
<polygon fill="white" stroke="black" points="443.5,-291.5 443.5,-310.5 514.5,-310.5 514.5,-291.5 443.5,-291.5"/>
<text text-anchor="middle" x="479" y="-298.5" font-family="Helvetica,sans-Serif" font-size="10.00">LR_IPC_In.h</text>
</a>
</g>
</g>
<!-- Node1&#45;&gt;Node19 -->
<g id="edge36" class="edge"><title>Node1&#45;&gt;Node19</title>
<path fill="none" stroke="midnightblue" d="M620.158,-347.399C588.19,-337.118 545.384,-323.351 515.322,-313.682"/>
<polygon fill="midnightblue" stroke="midnightblue" points="516.24,-310.301 505.649,-310.571 514.097,-316.965 516.24,-310.301"/>
</g>
<!-- Node21 -->
<g id="node21" class="node"><title>Node21</title>
<g id="a_node21"><a xlink:href="_settings_manager_8h.html" target="_top" xlink:title="SettingsManager.h">
<polygon fill="white" stroke="black" points="776,-291.5 776,-310.5 874,-310.5 874,-291.5 776,-291.5"/>
<text text-anchor="middle" x="825" y="-298.5" font-family="Helvetica,sans-Serif" font-size="10.00">SettingsManager.h</text>
</a>
</g>
</g>
<!-- Node1&#45;&gt;Node21 -->
<g id="edge44" class="edge"><title>Node1&#45;&gt;Node21</title>
<path fill="none" stroke="midnightblue" d="M702.155,-347.399C729.53,-337.283 766.037,-323.791 792.126,-314.149"/>
<polygon fill="midnightblue" stroke="midnightblue" points="793.406,-317.407 801.573,-310.658 790.98,-310.841 793.406,-317.407"/>
</g>
<!-- Node3&#45;&gt;Node2 -->
<g id="edge3" class="edge"><title>Node3&#45;&gt;Node2</title>
<path fill="none" stroke="midnightblue" d="M579.497,-179.319C576.492,-161.967 569.651,-122.457 565.183,-96.6579"/>
<polygon fill="midnightblue" stroke="midnightblue" points="568.587,-95.8015 563.432,-86.5453 561.69,-96.9959 568.587,-95.8015"/>
</g>
<!-- Node4&#45;&gt;Node2 -->
<g id="edge7" class="edge"><title>Node4&#45;&gt;Node2</title>
<path fill="none" stroke="midnightblue" d="M172.907,-235.313C173.178,-212.81 177.265,-152.337 212,-123 233.724,-104.652 407.726,-86.3382 501.542,-77.6723"/>
<polygon fill="midnightblue" stroke="midnightblue" points="502.102,-81.1356 511.742,-76.7388 501.465,-74.1648 502.102,-81.1356"/>
</g>
<!-- Node5 -->
<g id="node5" class="node"><title>Node5</title>
<polygon fill="white" stroke="#bfbfbf" points="0,-0.5 0,-19.5 42,-19.5 42,-0.5 0,-0.5"/>
<text text-anchor="middle" x="21" y="-7.5" font-family="Helvetica,sans-Serif" font-size="10.00">vector</text>
</g>
<!-- Node4&#45;&gt;Node5 -->
<g id="edge5" class="edge"><title>Node4&#45;&gt;Node5</title>
<path fill="none" stroke="midnightblue" d="M115.18,-235.418C90.6802,-229.078 63.5651,-218.075 45,-199 0.0764084,-152.844 9.82183,-67.3529 16.8974,-29.6687"/>
<polygon fill="midnightblue" stroke="midnightblue" points="20.3809,-30.1018 18.944,-19.6049 13.5213,-28.7068 20.3809,-30.1018"/>
</g>
<!-- Node6 -->
<g id="node6" class="node"><title>Node6</title>
<polygon fill="white" stroke="#bfbfbf" points="36,-123.5 36,-142.5 88,-142.5 88,-123.5 36,-123.5"/>
<text text-anchor="middle" x="62" y="-130.5" font-family="Helvetica,sans-Serif" font-size="10.00">memory</text>
</g>
<!-- Node4&#45;&gt;Node6 -->
<g id="edge6" class="edge"><title>Node4&#45;&gt;Node6</title>
<path fill="none" stroke="midnightblue" d="M113.265,-235.948C90.8586,-229.701 67.5604,-218.625 54,-199 44.6262,-185.434 48.4411,-166.377 53.5097,-152.404"/>
<polygon fill="midnightblue" stroke="midnightblue" points="56.858,-153.465 57.4324,-142.886 50.386,-150.798 56.858,-153.465"/>
</g>
<!-- Node4&#45;&gt;Node7 -->
<g id="edge8" class="edge"><title>Node4&#45;&gt;Node7</title>
<path fill="none" stroke="midnightblue" d="M180.219,-235.368C195.536,-217.055 231.505,-174.049 251.315,-150.362"/>
<polygon fill="midnightblue" stroke="midnightblue" points="254.084,-152.508 257.814,-142.591 248.714,-148.017 254.084,-152.508"/>
</g>
<!-- Node11 -->
<g id="node11" class="node"><title>Node11</title>
<g id="a_node11"><a xlink:href="_command_menu_8h.html" target="_top" xlink:title="CommandMenu.h">
<polygon fill="white" stroke="black" points="63.5,-179.5 63.5,-198.5 156.5,-198.5 156.5,-179.5 63.5,-179.5"/>
<text text-anchor="middle" x="110" y="-186.5" font-family="Helvetica,sans-Serif" font-size="10.00">CommandMenu.h</text>
</a>
</g>
</g>
<!-- Node4&#45;&gt;Node11 -->
<g id="edge15" class="edge"><title>Node4&#45;&gt;Node11</title>
<path fill="none" stroke="midnightblue" d="M162.878,-235.324C153.474,-227.263 139.256,-215.077 127.931,-205.369"/>
<polygon fill="midnightblue" stroke="midnightblue" points="130.177,-202.684 120.306,-198.834 125.621,-207.999 130.177,-202.684"/>
</g>
<!-- Node7&#45;&gt;Node2 -->
<g id="edge9" class="edge"><title>Node7&#45;&gt;Node2</title>
<path fill="none" stroke="midnightblue" d="M307.41,-123.475C358.381,-113.229 444.217,-95.9749 501.725,-84.4151"/>
<polygon fill="midnightblue" stroke="midnightblue" points="502.649,-87.7994 511.763,-82.3972 501.27,-80.9367 502.649,-87.7994"/>
</g>
<!-- Node8 -->
<g id="node8" class="node"><title>Node8</title>
<polygon fill="white" stroke="#bfbfbf" points="259.5,-62 259.5,-81 342.5,-81 342.5,-62 259.5,-62"/>
<text text-anchor="middle" x="301" y="-69" font-family="Helvetica,sans-Serif" font-size="10.00">unordered_map</text>
</g>
<!-- Node7&#45;&gt;Node8 -->
<g id="edge10" class="edge"><title>Node7&#45;&gt;Node8</title>
<path fill="none" stroke="midnightblue" d="M270.158,-123.475C275.451,-114.727 283.835,-100.869 290.527,-89.8093"/>
<polygon fill="midnightblue" stroke="midnightblue" points="293.67,-91.3768 295.852,-81.0091 287.68,-87.7531 293.67,-91.3768"/>
</g>
<!-- Node9 -->
<g id="node9" class="node"><title>Node9</title>
<g id="a_node9"><a xlink:href="_subject_8h.html" target="_top" xlink:title="Pattern/Subject.h">
<polygon fill="white" stroke="black" points="69,-62 69,-81 161,-81 161,-62 69,-62"/>
<text text-anchor="middle" x="115" y="-69" font-family="Helvetica,sans-Serif" font-size="10.00">Pattern/Subject.h</text>
</a>
</g>
</g>
<!-- Node7&#45;&gt;Node9 -->
<g id="edge11" class="edge"><title>Node7&#45;&gt;Node9</title>
<path fill="none" stroke="midnightblue" d="M243.509,-123.475C217.89,-113.313 174.89,-96.2564 145.755,-84.6996"/>
<polygon fill="midnightblue" stroke="midnightblue" points="147.037,-81.4429 136.451,-81.0091 144.456,-87.9497 147.037,-81.4429"/>
</g>
<!-- Node9&#45;&gt;Node5 -->
<g id="edge14" class="edge"><title>Node9&#45;&gt;Node5</title>
<path fill="none" stroke="midnightblue" d="M101.532,-61.9751C86.3152,-52.3431 61.3133,-36.5175 43.1992,-25.0517"/>
<polygon fill="midnightblue" stroke="midnightblue" points="44.7644,-21.9002 34.4429,-19.5091 41.0205,-27.8149 44.7644,-21.9002"/>
</g>
<!-- Node10 -->
<g id="node10" class="node"><title>Node10</title>
<g id="a_node10"><a xlink:href="_observer_8h.html" target="_top" xlink:title="Observer.h">
<polygon fill="white" stroke="black" points="83.5,-0.5 83.5,-19.5 146.5,-19.5 146.5,-0.5 83.5,-0.5"/>
<text text-anchor="middle" x="115" y="-7.5" font-family="Helvetica,sans-Serif" font-size="10.00">Observer.h</text>
</a>
</g>
</g>
<!-- Node9&#45;&gt;Node10 -->
<g id="edge12" class="edge"><title>Node9&#45;&gt;Node10</title>
<path fill="none" stroke="midnightblue" d="M110.099,-61.9751C108.268,-53.5803 107.797,-40.4806 108.685,-29.6631"/>
<polygon fill="midnightblue" stroke="midnightblue" points="112.186,-29.897 110.103,-19.5091 105.254,-28.929 112.186,-29.897"/>
</g>
<!-- Node10&#45;&gt;Node9 -->
<g id="edge13" class="edge"><title>Node10&#45;&gt;Node9</title>
<path fill="none" stroke="midnightblue" d="M119.897,-19.5091C121.73,-27.898 122.203,-40.9962 121.317,-51.8165"/>
<polygon fill="midnightblue" stroke="midnightblue" points="117.815,-51.5876 119.901,-61.9751 124.748,-52.554 117.815,-51.5876"/>
</g>
<!-- Node11&#45;&gt;Node2 -->
<g id="edge17" class="edge"><title>Node11&#45;&gt;Node2</title>
<path fill="none" stroke="midnightblue" d="M115.143,-179.483C124.343,-165.096 145.099,-136.253 171,-123 227.386,-94.1481 406.908,-80.5907 501.452,-75.3137"/>
<polygon fill="midnightblue" stroke="midnightblue" points="501.92,-78.7935 511.715,-74.7548 501.54,-71.8038 501.92,-78.7935"/>
</g>
<!-- Node11&#45;&gt;Node6 -->
<g id="edge16" class="edge"><title>Node11&#45;&gt;Node6</title>
<path fill="none" stroke="midnightblue" d="M102.074,-179.083C95.1539,-171.298 84.9346,-159.801 76.548,-150.367"/>
<polygon fill="midnightblue" stroke="midnightblue" points="79.0383,-147.9 69.7787,-142.751 73.8065,-152.55 79.0383,-147.9"/>
</g>
<!-- Node11&#45;&gt;Node7 -->
<g id="edge18" class="edge"><title>Node11&#45;&gt;Node7</title>
<path fill="none" stroke="midnightblue" d="M134.56,-179.444C160.523,-170.399 201.668,-156.064 230.797,-145.916"/>
<polygon fill="midnightblue" stroke="midnightblue" points="232.263,-149.112 240.555,-142.516 229.96,-142.501 232.263,-149.112"/>
</g>
<!-- Node12&#45;&gt;Node2 -->
<g id="edge20" class="edge"><title>Node12&#45;&gt;Node2</title>
<path fill="none" stroke="midnightblue" d="M731.488,-123.475C701.892,-114.626 654.81,-100.549 617.615,-89.4277"/>
<polygon fill="midnightblue" stroke="midnightblue" points="618.484,-86.0344 607.9,-86.523 616.479,-92.741 618.484,-86.0344"/>
</g>
<!-- Node13&#45;&gt;Node2 -->
<g id="edge22" class="edge"><title>Node13&#45;&gt;Node2</title>
<path fill="none" stroke="midnightblue" d="M719.243,-179.412C709.851,-165.93 690.053,-139.623 668,-123 650.53,-109.831 629.076,-98.8787 609.976,-90.578"/>
<polygon fill="midnightblue" stroke="midnightblue" points="611.103,-87.2547 600.528,-86.5999 608.386,-93.7062 611.103,-87.2547"/>
</g>
<!-- Node13&#45;&gt;Node7 -->
<g id="edge24" class="edge"><title>Node13&#45;&gt;Node7</title>
<path fill="none" stroke="midnightblue" d="M683.367,-183.113C599.912,-173.316 412.217,-151.282 319.268,-140.371"/>
<polygon fill="midnightblue" stroke="midnightblue" points="319.565,-136.881 309.225,-139.192 318.749,-143.834 319.565,-136.881"/>
</g>
<!-- Node13&#45;&gt;Node12 -->
<g id="edge23" class="edge"><title>Node13&#45;&gt;Node12</title>
<path fill="none" stroke="midnightblue" d="M730.78,-179.083C735.672,-171.534 742.827,-160.495 748.833,-151.23"/>
<polygon fill="midnightblue" stroke="midnightblue" points="751.826,-153.046 754.328,-142.751 745.952,-149.239 751.826,-153.046"/>
</g>
<!-- Node14 -->
<g id="node14" class="node"><title>Node14</title>
<g id="a_node14"><a xlink:href="_send_keys_8h.html" target="_top" xlink:title="SendKeys.h">
<polygon fill="white" stroke="black" points="589,-123.5 589,-142.5 659,-142.5 659,-123.5 589,-123.5"/>
<text text-anchor="middle" x="624" y="-130.5" font-family="Helvetica,sans-Serif" font-size="10.00">SendKeys.h</text>
</a>
</g>
</g>
<!-- Node13&#45;&gt;Node14 -->
<g id="edge25" class="edge"><title>Node13&#45;&gt;Node14</title>
<path fill="none" stroke="midnightblue" d="M708.773,-179.324C692.649,-170.703 667.7,-157.364 649.036,-147.386"/>
<polygon fill="midnightblue" stroke="midnightblue" points="650.656,-144.283 640.187,-142.655 647.356,-150.456 650.656,-144.283"/>
</g>
<!-- Node14&#45;&gt;Node2 -->
<g id="edge27" class="edge"><title>Node14&#45;&gt;Node2</title>
<path fill="none" stroke="midnightblue" d="M614.974,-123.475C606.76,-115.718 594.293,-103.943 583.409,-93.6645"/>
<polygon fill="midnightblue" stroke="midnightblue" points="585.521,-90.8447 575.848,-86.523 580.715,-95.9338 585.521,-90.8447"/>
</g>
<!-- Node15 -->
<g id="node15" class="node"><title>Node15</title>
<polygon fill="white" stroke="#bfbfbf" points="628,-62 628,-81 672,-81 672,-62 628,-62"/>
<text text-anchor="middle" x="650" y="-69" font-family="Helvetica,sans-Serif" font-size="10.00">mutex</text>
</g>
<!-- Node14&#45;&gt;Node15 -->
<g id="edge26" class="edge"><title>Node14&#45;&gt;Node15</title>
<path fill="none" stroke="midnightblue" d="M627.725,-123.475C631.471,-114.904 637.36,-101.427 642.142,-90.483"/>
<polygon fill="midnightblue" stroke="midnightblue" points="645.485,-91.5739 646.282,-81.0091 639.07,-88.771 645.485,-91.5739"/>
</g>
<!-- Node16&#45;&gt;Node2 -->
<g id="edge29" class="edge"><title>Node16&#45;&gt;Node2</title>
<path fill="none" stroke="midnightblue" d="M766.193,-235.249C789.638,-214.093 843.138,-159.246 813,-123 786.664,-91.3267 676.405,-95.619 620.423,-86.9069"/>
<polygon fill="midnightblue" stroke="midnightblue" points="620.781,-83.414 610.313,-85.0473 619.514,-90.2986 620.781,-83.414"/>
</g>
<!-- Node16&#45;&gt;Node7 -->
<g id="edge32" class="edge"><title>Node16&#45;&gt;Node7</title>
<path fill="none" stroke="midnightblue" d="M711.339,-241.103C648.255,-236.27 529.828,-224.459 432,-199 381.248,-185.792 324.927,-161.797 292.376,-146.946"/>
<polygon fill="midnightblue" stroke="midnightblue" points="293.615,-143.664 283.069,-142.653 290.683,-150.02 293.615,-143.664"/>
</g>
<!-- Node16&#45;&gt;Node12 -->
<g id="edge30" class="edge"><title>Node16&#45;&gt;Node12</title>
<path fill="none" stroke="midnightblue" d="M760.876,-235.372C765.559,-226.552 772.308,-212.299 775,-199 778.228,-183.057 773.399,-165.042 768.382,-152.028"/>
<polygon fill="midnightblue" stroke="midnightblue" points="771.594,-150.639 764.468,-142.799 765.15,-153.371 771.594,-150.639"/>
</g>
<!-- Node16&#45;&gt;Node13 -->
<g id="edge31" class="edge"><title>Node16&#45;&gt;Node13</title>
<path fill="none" stroke="midnightblue" d="M750.881,-235.083C746.592,-227.613 740.342,-216.724 735.058,-207.52"/>
<polygon fill="midnightblue" stroke="midnightblue" points="738.038,-205.681 730.024,-198.751 731.967,-209.166 738.038,-205.681"/>
</g>
<!-- Node18 -->
<g id="node18" class="node"><title>Node18</title>
<polygon fill="white" stroke="#bfbfbf" points="19,-235.5 19,-254.5 95,-254.5 95,-235.5 19,-235.5"/>
<text text-anchor="middle" x="57" y="-242.5" font-family="Helvetica,sans-Serif" font-size="10.00">JuceHeader.h</text>
</g>
<!-- Node17&#45;&gt;Node18 -->
<g id="edge34" class="edge"><title>Node17&#45;&gt;Node18</title>
<path fill="none" stroke="midnightblue" d="M76.202,-291.083C73.0872,-283.77 68.5772,-273.181 64.7107,-264.103"/>
<polygon fill="midnightblue" stroke="midnightblue" points="67.8661,-262.58 60.7273,-254.751 61.4259,-265.323 67.8661,-262.58"/>
</g>
<!-- Node19&#45;&gt;Node2 -->
<g id="edge37" class="edge"><title>Node19&#45;&gt;Node2</title>
<path fill="none" stroke="midnightblue" d="M470.75,-291.319C452.678,-271.2 412.693,-219.977 432,-179 450.702,-139.307 492.262,-109.371 523.184,-91.5004"/>
<polygon fill="midnightblue" stroke="midnightblue" points="524.984,-94.5039 531.998,-86.5632 521.563,-88.3967 524.984,-94.5039"/>
</g>
<!-- Node19&#45;&gt;Node7 -->
<g id="edge39" class="edge"><title>Node19&#45;&gt;Node7</title>
<path fill="none" stroke="midnightblue" d="M443.192,-297.949C408.778,-294.234 357.104,-283.861 323,-255 291.103,-228.006 275.43,-179.435 268.905,-152.777"/>
<polygon fill="midnightblue" stroke="midnightblue" points="272.272,-151.799 266.648,-142.82 265.445,-153.347 272.272,-151.799"/>
</g>
<!-- Node19&#45;&gt;Node8 -->
<g id="edge38" class="edge"><title>Node19&#45;&gt;Node8</title>
<path fill="none" stroke="midnightblue" d="M468.256,-291.288C457.895,-282.631 442.055,-268.7 430,-255 380.544,-198.795 332.355,-123.638 311.62,-90.0282"/>
<polygon fill="midnightblue" stroke="midnightblue" points="314.512,-88.0498 306.307,-81.3477 308.542,-91.7041 314.512,-88.0498"/>
</g>
<!-- Node19&#45;&gt;Node14 -->
<g id="edge43" class="edge"><title>Node19&#45;&gt;Node14</title>
<path fill="none" stroke="midnightblue" d="M506.775,-291.467C543.986,-278.361 608.519,-249.355 636,-199 643.973,-184.391 639.06,-165.473 633.304,-151.817"/>
<polygon fill="midnightblue" stroke="midnightblue" points="636.368,-150.109 628.936,-142.558 630.037,-153.096 636.368,-150.109"/>
</g>
<!-- Node19&#45;&gt;Node16 -->
<g id="edge40" class="edge"><title>Node19&#45;&gt;Node16</title>
<path fill="none" stroke="midnightblue" d="M514.646,-293.051C562.241,-283.773 646.961,-267.257 702.306,-256.467"/>
<polygon fill="midnightblue" stroke="midnightblue" points="703.137,-259.871 712.283,-254.522 701.798,-253.001 703.137,-259.871"/>
</g>
<!-- Node20 -->
<g id="node20" class="node"><title>Node20</title>
<g id="a_node20"><a xlink:href="_m_i_d_i_sender_8h.html" target="_top" xlink:title="MIDISender.h">
<polygon fill="white" stroke="black" points="441.5,-179.5 441.5,-198.5 516.5,-198.5 516.5,-179.5 441.5,-179.5"/>
<text text-anchor="middle" x="479" y="-186.5" font-family="Helvetica,sans-Serif" font-size="10.00">MIDISender.h</text>
</a>
</g>
</g>
<!-- Node19&#45;&gt;Node20 -->
<g id="edge41" class="edge"><title>Node19&#45;&gt;Node20</title>
<path fill="none" stroke="midnightblue" d="M479,-291.368C479,-273.617 479,-232.666 479,-208.597"/>
<polygon fill="midnightblue" stroke="midnightblue" points="482.5,-208.591 479,-198.591 475.5,-208.591 482.5,-208.591"/>
</g>
<!-- Node20&#45;&gt;Node2 -->
<g id="edge42" class="edge"><title>Node20&#45;&gt;Node2</title>
<path fill="none" stroke="midnightblue" d="M485.163,-179.319C497.757,-161.579 526.793,-120.682 545.061,-94.9512"/>
<polygon fill="midnightblue" stroke="midnightblue" points="548.093,-96.7255 551.028,-86.5453 542.386,-92.6732 548.093,-96.7255"/>
</g>
<!-- Node21&#45;&gt;Node2 -->
<g id="edge45" class="edge"><title>Node21&#45;&gt;Node2</title>
<path fill="none" stroke="midnightblue" d="M828.934,-291.329C841.048,-263.179 874.482,-173.264 832,-123 802.768,-88.4128 680.95,-95.7915 620.494,-86.893"/>
<polygon fill="midnightblue" stroke="midnightblue" points="620.756,-83.3856 610.301,-85.1016 619.544,-90.2799 620.756,-83.3856"/>
</g>
<!-- Node21&#45;&gt;Node13 -->
<g id="edge46" class="edge"><title>Node21&#45;&gt;Node13</title>
<path fill="none" stroke="midnightblue" d="M825.027,-291.476C824.642,-278.08 822.114,-251.891 809,-235 797.381,-220.034 779.347,-209.453 762.962,-202.328"/>
<polygon fill="midnightblue" stroke="midnightblue" points="764.15,-199.033 753.567,-198.525 761.524,-205.521 764.15,-199.033"/>
</g>
<!-- Node21&#45;&gt;Node16 -->
<g id="edge47" class="edge"><title>Node21&#45;&gt;Node16</title>
<path fill="none" stroke="midnightblue" d="M813.914,-291.324C803.514,-283.185 787.739,-270.839 775.278,-261.087"/>
<polygon fill="midnightblue" stroke="midnightblue" points="777.32,-258.241 767.288,-254.834 773.006,-263.753 777.32,-258.241"/>
</g>
</g>
</svg>
