<?xml version="1.0" encoding="UTF-8" standalone="no"?>
<!DOCTYPE svg PUBLIC "-//W3C//DTD SVG 1.1//EN"
 "http://www.w3.org/Graphics/SVG/1.1/DTD/svg11.dtd">
<!-- Generated by graphviz version 2.38.0 (20140413.2041)
 -->
<!-- Title: Q:/Documents/GitHub/MIDI2LR/Source/MainComponent.cpp Pages: 1 -->
<svg width="1010pt" height="442pt"
 viewBox="0.00 0.00 1009.76 442.00" xmlns="http://www.w3.org/2000/svg" xmlns:xlink="http://www.w3.org/1999/xlink">
<g id="graph0" class="graph" transform="scale(1 1) rotate(0) translate(4 438)">
<title>Q:/Documents/GitHub/MIDI2LR/Source/MainComponent.cpp</title>
<polygon fill="white" stroke="none" points="-4,4 -4,-438 1005.76,-438 1005.76,4 -4,4"/>
<!-- Node1 -->
<g id="node1" class="node"><title>Node1</title>
<polygon fill="#bfbfbf" stroke="black" points="480.403,-403.5 480.403,-433.5 662.403,-433.5 662.403,-403.5 480.403,-403.5"/>
<text text-anchor="start" x="488.403" y="-421.5" font-family="Helvetica,sans-Serif" font-size="10.00">Q:/Documents/GitHub</text>
<text text-anchor="middle" x="571.403" y="-410.5" font-family="Helvetica,sans-Serif" font-size="10.00">/MIDI2LR/Source/MainComponent.cpp</text>
</g>
<!-- Node2 -->
<g id="node2" class="node"><title>Node2</title>
<g id="a_node2"><a xlink:href="_main_component_8h.html" target="_top" xlink:title="MainComponent.h">
<polygon fill="white" stroke="black" points="569.903,-347.5 569.903,-366.5 664.903,-366.5 664.903,-347.5 569.903,-347.5"/>
<text text-anchor="middle" x="617.403" y="-354.5" font-family="Helvetica,sans-Serif" font-size="10.00">MainComponent.h</text>
</a>
</g>
</g>
<!-- Node1&#45;&gt;Node2 -->
<g id="edge1" class="edge"><title>Node1&#45;&gt;Node2</title>
<path fill="none" stroke="midnightblue" d="M582.304,-403.399C588.988,-394.753 597.579,-383.642 604.588,-374.576"/>
<polygon fill="midnightblue" stroke="midnightblue" points="607.362,-376.71 610.709,-366.658 601.824,-372.428 607.362,-376.71"/>
</g>
<!-- Node20 -->
<g id="node20" class="node"><title>Node20</title>
<g id="a_node20"><a xlink:href="_l_r___i_p_c___in_8h.html" target="_top" xlink:title="LR_IPC_In.h">
<polygon fill="white" stroke="black" points="397.903,-291.5 397.903,-310.5 468.903,-310.5 468.903,-291.5 397.903,-291.5"/>
<text text-anchor="middle" x="433.403" y="-298.5" font-family="Helvetica,sans-Serif" font-size="10.00">LR_IPC_In.h</text>
</a>
</g>
</g>
<!-- Node1&#45;&gt;Node20 -->
<g id="edge49" class="edge"><title>Node1&#45;&gt;Node20</title>
<path fill="none" stroke="midnightblue" d="M554.481,-403.337C528.374,-381.487 478.485,-339.732 451.616,-317.244"/>
<polygon fill="midnightblue" stroke="midnightblue" points="453.676,-314.404 443.761,-310.669 449.183,-319.772 453.676,-314.404"/>
</g>
<!-- Node21 -->
<g id="node21" class="node"><title>Node21</title>
<g id="a_node21"><a xlink:href="_m_i_d_i_sender_8h.html" target="_top" xlink:title="MIDISender.h">
<polygon fill="white" stroke="black" points="444.903,-235.5 444.903,-254.5 519.903,-254.5 519.903,-235.5 444.903,-235.5"/>
<text text-anchor="middle" x="482.403" y="-242.5" font-family="Helvetica,sans-Serif" font-size="10.00">MIDISender.h</text>
</a>
</g>
</g>
<!-- Node1&#45;&gt;Node21 -->
<g id="edge50" class="edge"><title>Node1&#45;&gt;Node21</title>
<path fill="none" stroke="midnightblue" d="M564.119,-403.465C548.017,-372.436 509.414,-298.049 491.643,-263.806"/>
<polygon fill="midnightblue" stroke="midnightblue" points="494.558,-261.824 486.845,-254.56 488.344,-265.048 494.558,-261.824"/>
</g>
<!-- Node23 -->
<g id="node23" class="node"><title>Node23</title>
<g id="a_node23"><a xlink:href="_settings_component_8h.html" target="_top" xlink:title="SettingsComponent.h">
<polygon fill="white" stroke="black" points="776.403,-347.5 776.403,-366.5 886.403,-366.5 886.403,-347.5 776.403,-347.5"/>
<text text-anchor="middle" x="831.403" y="-354.5" font-family="Helvetica,sans-Serif" font-size="10.00">SettingsComponent.h</text>
</a>
</g>
</g>
<!-- Node1&#45;&gt;Node23 -->
<g id="edge51" class="edge"><title>Node1&#45;&gt;Node23</title>
<path fill="none" stroke="midnightblue" d="M632.69,-403.475C679.112,-392.851 741.939,-378.473 784.425,-368.751"/>
<polygon fill="midnightblue" stroke="midnightblue" points="785.265,-372.149 794.232,-366.506 783.703,-365.325 785.265,-372.149"/>
</g>
<!-- Node3 -->
<g id="node3" class="node"><title>Node3</title>
<polygon fill="white" stroke="#bfbfbf" points="504.403,-56.5 504.403,-86.5 602.403,-86.5 602.403,-56.5 504.403,-56.5"/>
<text text-anchor="start" x="512.403" y="-74.5" font-family="Helvetica,sans-Serif" font-size="10.00">../JuceLibraryCode</text>
<text text-anchor="middle" x="553.403" y="-63.5" font-family="Helvetica,sans-Serif" font-size="10.00">/JuceHeader.h</text>
</g>
<!-- Node2&#45;&gt;Node3 -->
<g id="edge2" class="edge"><title>Node2&#45;&gt;Node3</title>
<path fill="none" stroke="midnightblue" d="M665.027,-355.893C703.702,-353.232 757.109,-343.313 790.403,-311 812.001,-290.038 809.403,-276.098 809.403,-246 809.403,-246 809.403,-246 809.403,-188 809.403,-102.198 688.44,-79.7807 612.812,-74.1498"/>
<polygon fill="midnightblue" stroke="midnightblue" points="612.669,-70.6327 602.459,-73.4618 612.205,-77.6172 612.669,-70.6327"/>
</g>
<!-- Node4 -->
<g id="node4" class="node"><title>Node4</title>
<g id="a_node4"><a xlink:href="_command_table_8h.html" target="_top" xlink:title="CommandTable.h">
<polygon fill="white" stroke="black" points="837.403,-179.5 837.403,-198.5 929.403,-198.5 929.403,-179.5 837.403,-179.5"/>
<text text-anchor="middle" x="883.403" y="-186.5" font-family="Helvetica,sans-Serif" font-size="10.00">CommandTable.h</text>
</a>
</g>
</g>
<!-- Node2&#45;&gt;Node4 -->
<g id="edge3" class="edge"><title>Node2&#45;&gt;Node4</title>
<path fill="none" stroke="midnightblue" d="M665.1,-350.411C718.021,-343.388 799.163,-329.92 823.403,-311 856.72,-284.995 872.865,-235.623 879.503,-208.682"/>
<polygon fill="midnightblue" stroke="midnightblue" points="882.981,-209.17 881.788,-198.643 876.156,-207.617 882.981,-209.17"/>
</g>
<!-- Node5 -->
<g id="node5" class="node"><title>Node5</title>
<g id="a_node5"><a xlink:href="_command_table_model_8h.html" target="_top" xlink:title="CommandTableModel.h">
<polygon fill="white" stroke="black" points="207.903,-235.5 207.903,-254.5 326.903,-254.5 326.903,-235.5 207.903,-235.5"/>
<text text-anchor="middle" x="267.403" y="-242.5" font-family="Helvetica,sans-Serif" font-size="10.00">CommandTableModel.h</text>
</a>
</g>
</g>
<!-- Node2&#45;&gt;Node5 -->
<g id="edge5" class="edge"><title>Node2&#45;&gt;Node5</title>
<path fill="none" stroke="midnightblue" d="M569.812,-350.859C522.709,-344.801 449.062,-332.696 388.403,-311 351.534,-297.813 312.18,-274.801 288.698,-259.993"/>
<polygon fill="midnightblue" stroke="midnightblue" points="290.538,-257.015 280.228,-254.571 286.764,-262.91 290.538,-257.015"/>
</g>
<!-- Node8 -->
<g id="node8" class="node"><title>Node8</title>
<g id="a_node8"><a xlink:href="_command_map_8h.html" target="_top" xlink:title="CommandMap.h">
<polygon fill="white" stroke="black" points="116.403,-123.5 116.403,-142.5 204.403,-142.5 204.403,-123.5 116.403,-123.5"/>
<text text-anchor="middle" x="160.403" y="-130.5" font-family="Helvetica,sans-Serif" font-size="10.00">CommandMap.h</text>
</a>
</g>
</g>
<!-- Node2&#45;&gt;Node8 -->
<g id="edge36" class="edge"><title>Node2&#45;&gt;Node8</title>
<path fill="none" stroke="midnightblue" d="M569.702,-351.241C465.961,-339.983 224.324,-308.569 164.403,-255 137.893,-231.301 131.701,-213.714 139.403,-179 141.527,-169.426 145.909,-159.476 150.124,-151.374"/>
<polygon fill="midnightblue" stroke="midnightblue" points="153.225,-152.999 155.019,-142.557 147.105,-149.601 153.225,-152.999"/>
</g>
<!-- Node13 -->
<g id="node13" class="node"><title>Node13</title>
<g id="a_node13"><a xlink:href="_m_i_d_i_processor_8h.html" target="_top" xlink:title="MIDIProcessor.h">
<polygon fill="white" stroke="black" points="634.903,-123.5 634.903,-142.5 723.903,-142.5 723.903,-123.5 634.903,-123.5"/>
<text text-anchor="middle" x="679.403" y="-130.5" font-family="Helvetica,sans-Serif" font-size="10.00">MIDIProcessor.h</text>
</a>
</g>
</g>
<!-- Node2&#45;&gt;Node13 -->
<g id="edge20" class="edge"><title>Node2&#45;&gt;Node13</title>
<path fill="none" stroke="midnightblue" d="M623.288,-347.32C638.433,-324.376 678.466,-259.711 691.403,-199 694.728,-183.392 690.9,-165.561 686.709,-152.527"/>
<polygon fill="midnightblue" stroke="midnightblue" points="689.915,-151.099 683.251,-142.862 683.324,-153.456 689.915,-151.099"/>
</g>
<!-- Node14 -->
<g id="node14" class="node"><title>Node14</title>
<g id="a_node14"><a xlink:href="_l_r___i_p_c___out_8h.html" target="_top" xlink:title="LR_IPC_OUT.h">
<polygon fill="white" stroke="black" points="581.903,-179.5 581.903,-198.5 664.903,-198.5 664.903,-179.5 581.903,-179.5"/>
<text text-anchor="middle" x="623.403" y="-186.5" font-family="Helvetica,sans-Serif" font-size="10.00">LR_IPC_OUT.h</text>
</a>
</g>
</g>
<!-- Node2&#45;&gt;Node14 -->
<g id="edge22" class="edge"><title>Node2&#45;&gt;Node14</title>
<path fill="none" stroke="midnightblue" d="M620.402,-347.209C626.831,-327.278 640.922,-277.116 635.403,-235 634.247,-226.181 631.869,-216.633 629.532,-208.61"/>
<polygon fill="midnightblue" stroke="midnightblue" points="632.802,-207.337 626.49,-198.827 626.118,-209.415 632.802,-207.337"/>
</g>
<!-- Node17 -->
<g id="node17" class="node"><title>Node17</title>
<g id="a_node17"><a xlink:href="_profile_manager_8h.html" target="_top" xlink:title="ProfileManager.h">
<polygon fill="white" stroke="black" points="537.903,-235.5 537.903,-254.5 626.903,-254.5 626.903,-235.5 537.903,-235.5"/>
<text text-anchor="middle" x="582.403" y="-242.5" font-family="Helvetica,sans-Serif" font-size="10.00">ProfileManager.h</text>
</a>
</g>
</g>
<!-- Node2&#45;&gt;Node17 -->
<g id="edge29" class="edge"><title>Node2&#45;&gt;Node17</title>
<path fill="none" stroke="midnightblue" d="M614.656,-347.368C608.983,-329.537 595.86,-288.295 588.216,-264.272"/>
<polygon fill="midnightblue" stroke="midnightblue" points="591.504,-263.059 585.136,-254.591 584.833,-265.182 591.504,-263.059"/>
</g>
<!-- Node18 -->
<g id="node18" class="node"><title>Node18</title>
<g id="a_node18"><a xlink:href="_resizable_layout_8h.html" target="_top" xlink:title="ResizableLayout.h">
<polygon fill="white" stroke="black" points="875.903,-291.5 875.903,-310.5 972.903,-310.5 972.903,-291.5 875.903,-291.5"/>
<text text-anchor="middle" x="924.403" y="-298.5" font-family="Helvetica,sans-Serif" font-size="10.00">ResizableLayout.h</text>
</a>
</g>
</g>
<!-- Node2&#45;&gt;Node18 -->
<g id="edge34" class="edge"><title>Node2&#45;&gt;Node18</title>
<path fill="none" stroke="midnightblue" d="M665.035,-347.622C719.133,-338.106 807.438,-322.574 865.736,-312.319"/>
<polygon fill="midnightblue" stroke="midnightblue" points="866.656,-315.711 875.898,-310.532 865.443,-308.817 866.656,-315.711"/>
</g>
<!-- Node2&#45;&gt;Node20 -->
<g id="edge37" class="edge"><title>Node2&#45;&gt;Node20</title>
<path fill="none" stroke="midnightblue" d="M588.247,-347.444C556.889,-338.241 506.872,-323.562 472.206,-313.388"/>
<polygon fill="midnightblue" stroke="midnightblue" points="473.003,-309.974 462.422,-310.516 471.031,-316.691 473.003,-309.974"/>
</g>
<!-- Node22 -->
<g id="node22" class="node"><title>Node22</title>
<g id="a_node22"><a xlink:href="_settings_manager_8h.html" target="_top" xlink:title="SettingsManager.h">
<polygon fill="white" stroke="black" points="683.403,-291.5 683.403,-310.5 781.403,-310.5 781.403,-291.5 683.403,-291.5"/>
<text text-anchor="middle" x="732.403" y="-298.5" font-family="Helvetica,sans-Serif" font-size="10.00">SettingsManager.h</text>
</a>
</g>
</g>
<!-- Node2&#45;&gt;Node22 -->
<g id="edge45" class="edge"><title>Node2&#45;&gt;Node22</title>
<path fill="none" stroke="midnightblue" d="M635.625,-347.444C654.298,-338.675 683.559,-324.935 705.02,-314.858"/>
<polygon fill="midnightblue" stroke="midnightblue" points="706.702,-317.935 714.266,-310.516 703.726,-311.599 706.702,-317.935"/>
</g>
<!-- Node4&#45;&gt;Node3 -->
<g id="edge4" class="edge"><title>Node4&#45;&gt;Node3</title>
<path fill="none" stroke="midnightblue" d="M878.005,-179.179C868.747,-164.873 848.4,-136.823 823.403,-123 757.499,-86.5558 670.159,-75.8576 612.909,-73.0096"/>
<polygon fill="midnightblue" stroke="midnightblue" points="612.722,-69.4984 602.581,-72.5648 612.421,-76.492 612.722,-69.4984"/>
</g>
<!-- Node5&#45;&gt;Node3 -->
<g id="edge8" class="edge"><title>Node5&#45;&gt;Node3</title>
<path fill="none" stroke="midnightblue" d="M277.24,-235.489C287.094,-226.76 302.47,-212.576 314.403,-199 342.103,-167.486 335.834,-146.778 370.403,-123 407.171,-97.71 456.238,-85.0451 494.308,-78.725"/>
<polygon fill="midnightblue" stroke="midnightblue" points="494.893,-82.1763 504.235,-77.1782 493.815,-75.2597 494.893,-82.1763"/>
</g>
<!-- Node6 -->
<g id="node6" class="node"><title>Node6</title>
<polygon fill="white" stroke="#bfbfbf" points="13.4027,-0.5 13.4027,-19.5 55.4027,-19.5 55.4027,-0.5 13.4027,-0.5"/>
<text text-anchor="middle" x="34.4027" y="-7.5" font-family="Helvetica,sans-Serif" font-size="10.00">vector</text>
</g>
<!-- Node5&#45;&gt;Node6 -->
<g id="edge6" class="edge"><title>Node5&#45;&gt;Node6</title>
<path fill="none" stroke="midnightblue" d="M229.687,-235.487C167.722,-219.141 46.9101,-176.727 3.40274,-87 -6.35439,-66.8774 7.50169,-42.8647 19.6863,-27.2938"/>
<polygon fill="midnightblue" stroke="midnightblue" points="22.397,-29.5082 26.123,-19.5901 17.0253,-25.0199 22.397,-29.5082"/>
</g>
<!-- Node7 -->
<g id="node7" class="node"><title>Node7</title>
<polygon fill="white" stroke="#bfbfbf" points="271.403,-123.5 271.403,-142.5 323.403,-142.5 323.403,-123.5 271.403,-123.5"/>
<text text-anchor="middle" x="297.403" y="-130.5" font-family="Helvetica,sans-Serif" font-size="10.00">memory</text>
</g>
<!-- Node5&#45;&gt;Node7 -->
<g id="edge7" class="edge"><title>Node5&#45;&gt;Node7</title>
<path fill="none" stroke="midnightblue" d="M275.885,-235.234C283.457,-226.75 294.006,-213.131 298.403,-199 303.07,-183.997 302.365,-166.089 300.751,-152.872"/>
<polygon fill="midnightblue" stroke="midnightblue" points="304.163,-152.022 299.21,-142.656 297.241,-153.066 304.163,-152.022"/>
</g>
<!-- Node5&#45;&gt;Node8 -->
<g id="edge9" class="edge"><title>Node5&#45;&gt;Node8</title>
<path fill="none" stroke="midnightblue" d="M211.489,-235.458C189.93,-229.136 167.38,-218.137 154.403,-199 145.178,-185.397 148.331,-166.345 152.798,-152.384"/>
<polygon fill="midnightblue" stroke="midnightblue" points="156.128,-153.468 156.287,-142.875 149.556,-151.057 156.128,-153.468"/>
</g>
<!-- Node12 -->
<g id="node12" class="node"><title>Node12</title>
<g id="a_node12"><a xlink:href="_command_menu_8h.html" target="_top" xlink:title="CommandMenu.h">
<polygon fill="white" stroke="black" points="196.903,-179.5 196.903,-198.5 289.903,-198.5 289.903,-179.5 196.903,-179.5"/>
<text text-anchor="middle" x="243.403" y="-186.5" font-family="Helvetica,sans-Serif" font-size="10.00">CommandMenu.h</text>
</a>
</g>
</g>
<!-- Node5&#45;&gt;Node12 -->
<g id="edge16" class="edge"><title>Node5&#45;&gt;Node12</title>
<path fill="none" stroke="midnightblue" d="M263.44,-235.083C260.189,-227.77 255.483,-217.181 251.449,-208.103"/>
<polygon fill="midnightblue" stroke="midnightblue" points="254.552,-206.468 247.292,-198.751 248.155,-209.311 254.552,-206.468"/>
</g>
<!-- Node8&#45;&gt;Node3 -->
<g id="edge10" class="edge"><title>Node8&#45;&gt;Node3</title>
<path fill="none" stroke="midnightblue" d="M204.721,-125.29C275.612,-114.557 414.591,-93.5161 494.007,-81.4925"/>
<polygon fill="midnightblue" stroke="midnightblue" points="494.969,-84.8868 504.332,-79.9292 493.921,-77.9657 494.969,-84.8868"/>
</g>
<!-- Node9 -->
<g id="node9" class="node"><title>Node9</title>
<polygon fill="white" stroke="#bfbfbf" points="12.9027,-62 12.9027,-81 95.9027,-81 95.9027,-62 12.9027,-62"/>
<text text-anchor="middle" x="54.4027" y="-69" font-family="Helvetica,sans-Serif" font-size="10.00">unordered_map</text>
</g>
<!-- Node8&#45;&gt;Node9 -->
<g id="edge11" class="edge"><title>Node8&#45;&gt;Node9</title>
<path fill="none" stroke="midnightblue" d="M145.216,-123.475C127.741,-113.666 98.8241,-97.4346 78.3195,-85.925"/>
<polygon fill="midnightblue" stroke="midnightblue" points="79.9951,-82.8519 69.5618,-81.0091 76.5687,-88.956 79.9951,-82.8519"/>
</g>
<!-- Node10 -->
<g id="node10" class="node"><title>Node10</title>
<g id="a_node10"><a xlink:href="_subject_8h.html" target="_top" xlink:title="Pattern/Subject.h">
<polygon fill="white" stroke="black" points="114.403,-62 114.403,-81 206.403,-81 206.403,-62 114.403,-62"/>
<text text-anchor="middle" x="160.403" y="-69" font-family="Helvetica,sans-Serif" font-size="10.00">Pattern/Subject.h</text>
</a>
</g>
</g>
<!-- Node8&#45;&gt;Node10 -->
<g id="edge12" class="edge"><title>Node8&#45;&gt;Node10</title>
<path fill="none" stroke="midnightblue" d="M160.403,-123.475C160.403,-115.08 160.403,-101.981 160.403,-91.1631"/>
<polygon fill="midnightblue" stroke="midnightblue" points="163.903,-91.0091 160.403,-81.0091 156.903,-91.0091 163.903,-91.0091"/>
</g>
<!-- Node10&#45;&gt;Node6 -->
<g id="edge15" class="edge"><title>Node10&#45;&gt;Node6</title>
<path fill="none" stroke="midnightblue" d="M142.35,-61.9751C121.204,-51.9897 85.9624,-35.3476 61.5245,-23.8075"/>
<polygon fill="midnightblue" stroke="midnightblue" points="62.959,-20.6143 52.422,-19.5091 59.9699,-26.9441 62.959,-20.6143"/>
</g>
<!-- Node11 -->
<g id="node11" class="node"><title>Node11</title>
<g id="a_node11"><a xlink:href="_observer_8h.html" target="_top" xlink:title="Observer.h">
<polygon fill="white" stroke="black" points="128.903,-0.5 128.903,-19.5 191.903,-19.5 191.903,-0.5 128.903,-0.5"/>
<text text-anchor="middle" x="160.403" y="-7.5" font-family="Helvetica,sans-Serif" font-size="10.00">Observer.h</text>
</a>
</g>
</g>
<!-- Node10&#45;&gt;Node11 -->
<g id="edge13" class="edge"><title>Node10&#45;&gt;Node11</title>
<path fill="none" stroke="midnightblue" d="M155.502,-61.9751C153.671,-53.5803 153.2,-40.4806 154.088,-29.6631"/>
<polygon fill="midnightblue" stroke="midnightblue" points="157.589,-29.897 155.506,-19.5091 150.656,-28.929 157.589,-29.897"/>
</g>
<!-- Node11&#45;&gt;Node10 -->
<g id="edge14" class="edge"><title>Node11&#45;&gt;Node10</title>
<path fill="none" stroke="midnightblue" d="M165.3,-19.5091C167.133,-27.898 167.606,-40.9962 166.719,-51.8165"/>
<polygon fill="midnightblue" stroke="midnightblue" points="163.217,-51.5876 165.303,-61.9751 170.15,-52.554 163.217,-51.5876"/>
</g>
<!-- Node12&#45;&gt;Node3 -->
<g id="edge18" class="edge"><title>Node12&#45;&gt;Node3</title>
<path fill="none" stroke="midnightblue" d="M243.23,-179.346C243.454,-165.28 246.094,-137.569 262.403,-123 271.018,-115.304 411.74,-93.4134 494.284,-81.1299"/>
<polygon fill="midnightblue" stroke="midnightblue" points="494.917,-84.5744 504.295,-79.6447 493.89,-77.6502 494.917,-84.5744"/>
</g>
<!-- Node12&#45;&gt;Node7 -->
<g id="edge17" class="edge"><title>Node12&#45;&gt;Node7</title>
<path fill="none" stroke="midnightblue" d="M252.32,-179.083C260.183,-171.22 271.834,-159.569 281.321,-150.081"/>
<polygon fill="midnightblue" stroke="midnightblue" points="284.055,-152.297 288.652,-142.751 279.106,-147.347 284.055,-152.297"/>
</g>
<!-- Node12&#45;&gt;Node8 -->
<g id="edge19" class="edge"><title>Node12&#45;&gt;Node8</title>
<path fill="none" stroke="midnightblue" d="M230.067,-179.324C217.241,-170.979 197.618,-158.212 182.463,-148.352"/>
<polygon fill="midnightblue" stroke="midnightblue" points="183.996,-145.174 173.705,-142.655 180.178,-151.042 183.996,-145.174"/>
</g>
<!-- Node13&#45;&gt;Node3 -->
<g id="edge21" class="edge"><title>Node13&#45;&gt;Node3</title>
<path fill="none" stroke="midnightblue" d="M661.35,-123.475C643.408,-115.002 615.317,-101.737 592.289,-90.8628"/>
<polygon fill="midnightblue" stroke="midnightblue" points="593.635,-87.6282 583.098,-86.523 590.646,-93.958 593.635,-87.6282"/>
</g>
<!-- Node14&#45;&gt;Node3 -->
<g id="edge23" class="edge"><title>Node14&#45;&gt;Node3</title>
<path fill="none" stroke="midnightblue" d="M618.141,-179.319C607.437,-161.657 582.82,-121.039 567.214,-95.2891"/>
<polygon fill="midnightblue" stroke="midnightblue" points="570.091,-93.2832 561.915,-86.5453 564.105,-96.9114 570.091,-93.2832"/>
</g>
<!-- Node14&#45;&gt;Node8 -->
<g id="edge25" class="edge"><title>Node14&#45;&gt;Node8</title>
<path fill="none" stroke="midnightblue" d="M581.498,-183.113C497.391,-173.303 308.097,-151.226 214.667,-140.329"/>
<polygon fill="midnightblue" stroke="midnightblue" points="214.912,-136.834 204.574,-139.152 214.101,-143.787 214.912,-136.834"/>
</g>
<!-- Node14&#45;&gt;Node13 -->
<g id="edge24" class="edge"><title>Node14&#45;&gt;Node13</title>
<path fill="none" stroke="midnightblue" d="M632.4,-179.324C640.597,-171.42 652.908,-159.548 662.875,-149.938"/>
<polygon fill="midnightblue" stroke="midnightblue" points="665.473,-152.295 670.242,-142.834 660.614,-147.256 665.473,-152.295"/>
</g>
<!-- Node15 -->
<g id="node15" class="node"><title>Node15</title>
<g id="a_node15"><a xlink:href="_send_keys_8h.html" target="_top" xlink:title="SendKeys.h">
<polygon fill="white" stroke="black" points="379.403,-123.5 379.403,-142.5 449.403,-142.5 449.403,-123.5 379.403,-123.5"/>
<text text-anchor="middle" x="414.403" y="-130.5" font-family="Helvetica,sans-Serif" font-size="10.00">SendKeys.h</text>
</a>
</g>
</g>
<!-- Node14&#45;&gt;Node15 -->
<g id="edge26" class="edge"><title>Node14&#45;&gt;Node15</title>
<path fill="none" stroke="midnightblue" d="M590.286,-179.444C554.285,-170.142 496.633,-155.246 457.217,-145.062"/>
<polygon fill="midnightblue" stroke="midnightblue" points="457.922,-141.629 447.364,-142.516 456.171,-148.407 457.922,-141.629"/>
</g>
<!-- Node15&#45;&gt;Node3 -->
<g id="edge28" class="edge"><title>Node15&#45;&gt;Node3</title>
<path fill="none" stroke="midnightblue" d="M434.318,-123.475C454.287,-114.927 485.652,-101.501 511.181,-90.5734"/>
<polygon fill="midnightblue" stroke="midnightblue" points="512.827,-93.6758 520.643,-86.523 510.073,-87.2406 512.827,-93.6758"/>
</g>
<!-- Node16 -->
<g id="node16" class="node"><title>Node16</title>
<polygon fill="white" stroke="#bfbfbf" points="392.403,-62 392.403,-81 436.403,-81 436.403,-62 392.403,-62"/>
<text text-anchor="middle" x="414.403" y="-69" font-family="Helvetica,sans-Serif" font-size="10.00">mutex</text>
</g>
<!-- Node15&#45;&gt;Node16 -->
<g id="edge27" class="edge"><title>Node15&#45;&gt;Node16</title>
<path fill="none" stroke="midnightblue" d="M414.403,-123.475C414.403,-115.08 414.403,-101.981 414.403,-91.1631"/>
<polygon fill="midnightblue" stroke="midnightblue" points="417.903,-91.0091 414.403,-81.0091 410.903,-91.0091 417.903,-91.0091"/>
</g>
<!-- Node17&#45;&gt;Node3 -->
<g id="edge30" class="edge"><title>Node17&#45;&gt;Node3</title>
<path fill="none" stroke="midnightblue" d="M580.307,-235.41C578.148,-226.381 574.773,-211.746 572.403,-199 565.824,-163.624 559.962,-122.356 556.544,-96.8237"/>
<polygon fill="midnightblue" stroke="midnightblue" points="559.973,-96.0486 555.194,-86.5929 553.033,-96.965 559.973,-96.0486"/>
</g>
<!-- Node17&#45;&gt;Node8 -->
<g id="edge33" class="edge"><title>Node17&#45;&gt;Node8</title>
<path fill="none" stroke="midnightblue" d="M537.645,-236.328C534.52,-235.858 531.416,-235.41 528.403,-235 452.899,-224.732 248.47,-244.575 187.403,-199 172.888,-188.167 166.13,-168.089 163.012,-153.103"/>
<polygon fill="midnightblue" stroke="midnightblue" points="166.399,-152.143 161.269,-142.873 159.498,-153.319 166.399,-152.143"/>
</g>
<!-- Node17&#45;&gt;Node13 -->
<g id="edge31" class="edge"><title>Node17&#45;&gt;Node13</title>
<path fill="none" stroke="midnightblue" d="M618.324,-235.447C637.881,-228.846 660.631,-217.596 673.403,-199 682.616,-185.584 683.381,-166.765 682.276,-152.827"/>
<polygon fill="midnightblue" stroke="midnightblue" points="685.752,-152.418 681.116,-142.892 678.8,-153.23 685.752,-152.418"/>
</g>
<!-- Node17&#45;&gt;Node14 -->
<g id="edge32" class="edge"><title>Node17&#45;&gt;Node14</title>
<path fill="none" stroke="midnightblue" d="M589.173,-235.083C594.964,-227.455 603.461,-216.264 610.54,-206.941"/>
<polygon fill="midnightblue" stroke="midnightblue" points="613.499,-208.832 616.758,-198.751 607.924,-204.599 613.499,-208.832"/>
</g>
<!-- Node19 -->
<g id="node19" class="node"><title>Node19</title>
<polygon fill="white" stroke="#bfbfbf" points="886.403,-235.5 886.403,-254.5 962.403,-254.5 962.403,-235.5 886.403,-235.5"/>
<text text-anchor="middle" x="924.403" y="-242.5" font-family="Helvetica,sans-Serif" font-size="10.00">JuceHeader.h</text>
</g>
<!-- Node18&#45;&gt;Node19 -->
<g id="edge35" class="edge"><title>Node18&#45;&gt;Node19</title>
<path fill="none" stroke="midnightblue" d="M924.403,-291.083C924.403,-284.006 924.403,-273.861 924.403,-264.986"/>
<polygon fill="midnightblue" stroke="midnightblue" points="927.903,-264.751 924.403,-254.751 920.903,-264.751 927.903,-264.751"/>
</g>
<!-- Node20&#45;&gt;Node3 -->
<g id="edge38" class="edge"><title>Node20&#45;&gt;Node3</title>
<path fill="none" stroke="midnightblue" d="M432.089,-291.3C430.511,-278.552 428.829,-254.229 435.403,-235 455.074,-177.46 502.714,-122.896 531.081,-93.9613"/>
<polygon fill="midnightblue" stroke="midnightblue" points="533.606,-96.3862 538.19,-86.8346 528.65,-91.4424 533.606,-96.3862"/>
</g>
<!-- Node20&#45;&gt;Node8 -->
<g id="edge40" class="edge"><title>Node20&#45;&gt;Node8</title>
<path fill="none" stroke="midnightblue" d="M397.684,-299.852C349.554,-298.219 262.526,-290.119 198.403,-255 168.347,-238.539 158.08,-230.837 145.403,-199 139.257,-183.567 144.708,-165.022 150.689,-151.698"/>
<polygon fill="midnightblue" stroke="midnightblue" points="153.862,-153.176 155.183,-142.664 147.595,-150.058 153.862,-153.176"/>
</g>
<!-- Node20&#45;&gt;Node9 -->
<g id="edge39" class="edge"><title>Node20&#45;&gt;Node9</title>
<path fill="none" stroke="midnightblue" d="M397.668,-297.705C333.477,-292.992 201.848,-280.456 164.403,-255 104.257,-214.111 71.6171,-128.396 59.7075,-90.8161"/>
<polygon fill="midnightblue" stroke="midnightblue" points="63.0368,-89.734 56.7801,-81.1839 56.3392,-91.7696 63.0368,-89.734"/>
</g>
<!-- Node20&#45;&gt;Node15 -->
<g id="edge44" class="edge"><title>Node20&#45;&gt;Node15</title>
<path fill="none" stroke="midnightblue" d="M424.92,-291.234C417.349,-282.75 406.799,-269.131 402.403,-255 391.472,-219.865 400.989,-176.481 408.177,-152.369"/>
<polygon fill="midnightblue" stroke="midnightblue" points="411.542,-153.335 411.234,-142.745 404.871,-151.216 411.542,-153.335"/>
</g>
<!-- Node20&#45;&gt;Node17 -->
<g id="edge41" class="edge"><title>Node20&#45;&gt;Node17</title>
<path fill="none" stroke="midnightblue" d="M457.012,-291.444C481.861,-282.438 521.177,-268.189 549.156,-258.049"/>
<polygon fill="midnightblue" stroke="midnightblue" points="550.695,-261.214 558.904,-254.516 548.31,-254.633 550.695,-261.214"/>
</g>
<!-- Node20&#45;&gt;Node21 -->
<g id="edge42" class="edge"><title>Node20&#45;&gt;Node21</title>
<path fill="none" stroke="midnightblue" d="M441.494,-291.083C448.558,-283.298 458.99,-271.801 467.552,-262.367"/>
<polygon fill="midnightblue" stroke="midnightblue" points="470.334,-264.509 474.462,-254.751 465.15,-259.805 470.334,-264.509"/>
</g>
<!-- Node21&#45;&gt;Node3 -->
<g id="edge43" class="edge"><title>Node21&#45;&gt;Node3</title>
<path fill="none" stroke="midnightblue" d="M486.021,-235.26C496.579,-209.757 527.608,-134.807 543.61,-96.1543"/>
<polygon fill="midnightblue" stroke="midnightblue" points="546.923,-97.3011 547.515,-86.7228 540.456,-94.6235 546.923,-97.3011"/>
</g>
<!-- Node22&#45;&gt;Node3 -->
<g id="edge46" class="edge"><title>Node22&#45;&gt;Node3</title>
<path fill="none" stroke="midnightblue" d="M735.746,-291.114C745.673,-263.065 771.905,-175.189 732.403,-123 717.788,-103.691 658.849,-89.6727 612.544,-81.3736"/>
<polygon fill="midnightblue" stroke="midnightblue" points="613.029,-77.9056 602.577,-79.6394 611.829,-84.802 613.029,-77.9056"/>
</g>
<!-- Node22&#45;&gt;Node14 -->
<g id="edge47" class="edge"><title>Node22&#45;&gt;Node14</title>
<path fill="none" stroke="midnightblue" d="M723.917,-291.096C711.886,-278.506 689.137,-254.826 669.403,-235 659.627,-225.179 648.526,-214.311 639.679,-205.717"/>
<polygon fill="midnightblue" stroke="midnightblue" points="641.907,-203.002 632.29,-198.558 637.036,-208.03 641.907,-203.002"/>
</g>
<!-- Node22&#45;&gt;Node17 -->
<g id="edge48" class="edge"><title>Node22&#45;&gt;Node17</title>
<path fill="none" stroke="midnightblue" d="M708.635,-291.444C683.51,-282.399 643.692,-268.064 615.502,-257.916"/>
<polygon fill="midnightblue" stroke="midnightblue" points="616.654,-254.611 606.059,-254.516 614.283,-261.197 616.654,-254.611"/>
</g>
<!-- Node23&#45;&gt;Node3 -->
<g id="edge52" class="edge"><title>Node23&#45;&gt;Node3</title>
<path fill="none" stroke="midnightblue" d="M886.418,-352.126C918.033,-347.12 956.322,-335.904 981.403,-311 1002.85,-289.703 1001.4,-276.225 1001.4,-246 1001.4,-246 1001.4,-246 1001.4,-188 1001.4,-108.685 734.775,-83.007 612.905,-75.4126"/>
<polygon fill="midnightblue" stroke="midnightblue" points="612.82,-71.9012 602.628,-74.7937 612.4,-78.8886 612.82,-71.9012"/>
</g>
<!-- Node23&#45;&gt;Node18 -->
<g id="edge53" class="edge"><title>Node23&#45;&gt;Node18</title>
<path fill="none" stroke="midnightblue" d="M846.345,-347.324C860.988,-338.822 883.536,-325.729 900.64,-315.797"/>
<polygon fill="midnightblue" stroke="midnightblue" points="902.607,-318.703 909.498,-310.655 899.092,-312.649 902.607,-318.703"/>
</g>
<!-- Node23&#45;&gt;Node22 -->
<g id="edge54" class="edge"><title>Node23&#45;&gt;Node22</title>
<path fill="none" stroke="midnightblue" d="M815.497,-347.324C799.765,-338.743 775.46,-325.486 757.194,-315.522"/>
<polygon fill="midnightblue" stroke="midnightblue" points="758.724,-312.37 748.269,-310.655 755.372,-318.516 758.724,-312.37"/>
</g>
</g>
</svg>
