<?xml version="1.0" encoding="UTF-8" standalone="no"?>
<!DOCTYPE svg PUBLIC "-//W3C//DTD SVG 1.1//EN"
 "http://www.w3.org/Graphics/SVG/1.1/DTD/svg11.dtd">
<!-- Generated by graphviz version 2.38.0 (20140413.2041)
 -->
<!-- Title: Q:/Documents/GitHub/MIDI2LR/Source/Main.cpp Pages: 1 -->
<svg width="1082pt" height="498pt"
 viewBox="0.00 0.00 1081.85 498.00" xmlns="http://www.w3.org/2000/svg" xmlns:xlink="http://www.w3.org/1999/xlink">
<g id="graph0" class="graph" transform="scale(1 1) rotate(0) translate(4 494)">
<title>Q:/Documents/GitHub/MIDI2LR/Source/Main.cpp</title>
<polygon fill="white" stroke="none" points="-4,4 -4,-494 1077.85,-494 1077.85,4 -4,4"/>
<!-- Node1 -->
<g id="node1" class="node"><title>Node1</title>
<polygon fill="#bfbfbf" stroke="black" points="743.348,-459.5 743.348,-489.5 876.348,-489.5 876.348,-459.5 743.348,-459.5"/>
<text text-anchor="start" x="751.348" y="-477.5" font-family="Helvetica,sans-Serif" font-size="10.00">Q:/Documents/GitHub</text>
<text text-anchor="middle" x="809.848" y="-466.5" font-family="Helvetica,sans-Serif" font-size="10.00">/MIDI2LR/Source/Main.cpp</text>
</g>
<!-- Node2 -->
<g id="node2" class="node"><title>Node2</title>
<polygon fill="white" stroke="#bfbfbf" points="542.848,-56.5 542.848,-86.5 640.848,-86.5 640.848,-56.5 542.848,-56.5"/>
<text text-anchor="start" x="550.848" y="-74.5" font-family="Helvetica,sans-Serif" font-size="10.00">../JuceLibraryCode</text>
<text text-anchor="middle" x="591.848" y="-63.5" font-family="Helvetica,sans-Serif" font-size="10.00">/JuceHeader.h</text>
</g>
<!-- Node1&#45;&gt;Node2 -->
<g id="edge1" class="edge"><title>Node1&#45;&gt;Node2</title>
<path fill="none" stroke="midnightblue" d="M876.466,-472.148C954.674,-466.607 1073.85,-444.048 1073.85,-358 1073.85,-358 1073.85,-358 1073.85,-188 1073.85,-143.89 1039.15,-140.937 998.848,-123 937.985,-95.9103 748.634,-81.4412 651.156,-75.6165"/>
<polygon fill="midnightblue" stroke="midnightblue" points="651.35,-72.122 641.162,-75.0304 650.94,-79.11 651.35,-72.122"/>
</g>
<!-- Node3 -->
<g id="node3" class="node"><title>Node3</title>
<g id="a_node3"><a xlink:href="_main_component_8h.html" target="_top" xlink:title="MainComponent.h">
<polygon fill="white" stroke="black" points="610.348,-347.5 610.348,-366.5 705.348,-366.5 705.348,-347.5 610.348,-347.5"/>
<text text-anchor="middle" x="657.848" y="-354.5" font-family="Helvetica,sans-Serif" font-size="10.00">MainComponent.h</text>
</a>
</g>
</g>
<!-- Node1&#45;&gt;Node3 -->
<g id="edge2" class="edge"><title>Node1&#45;&gt;Node3</title>
<path fill="none" stroke="midnightblue" d="M791.21,-459.337C762.329,-437.392 707.027,-395.37 677.526,-372.953"/>
<polygon fill="midnightblue" stroke="midnightblue" points="679.337,-369.933 669.257,-366.669 675.101,-375.506 679.337,-369.933"/>
</g>
<!-- Node8 -->
<g id="node8" class="node"><title>Node8</title>
<g id="a_node8"><a xlink:href="_command_map_8h.html" target="_top" xlink:title="CommandMap.h">
<polygon fill="white" stroke="black" points="165.848,-123.5 165.848,-142.5 253.848,-142.5 253.848,-123.5 165.848,-123.5"/>
<text text-anchor="middle" x="209.848" y="-130.5" font-family="Helvetica,sans-Serif" font-size="10.00">CommandMap.h</text>
</a>
</g>
</g>
<!-- Node1&#45;&gt;Node8 -->
<g id="edge59" class="edge"><title>Node1&#45;&gt;Node8</title>
<path fill="none" stroke="midnightblue" d="M743.094,-470.589C554.423,-461.479 30.8478,-429.736 30.8478,-358 30.8478,-358 30.8478,-358 30.8478,-300 30.8478,-220.964 125.83,-168.99 177.417,-146.591"/>
<polygon fill="midnightblue" stroke="midnightblue" points="178.958,-149.739 186.813,-142.629 176.239,-143.289 178.958,-149.739"/>
</g>
<!-- Node14 -->
<g id="node14" class="node"><title>Node14</title>
<g id="a_node14"><a xlink:href="_l_r___i_p_c___out_8h.html" target="_top" xlink:title="LR_IPC_OUT.h">
<polygon fill="white" stroke="black" points="768.348,-179.5 768.348,-198.5 851.348,-198.5 851.348,-179.5 768.348,-179.5"/>
<text text-anchor="middle" x="809.848" y="-186.5" font-family="Helvetica,sans-Serif" font-size="10.00">LR_IPC_OUT.h</text>
</a>
</g>
</g>
<!-- Node1&#45;&gt;Node14 -->
<g id="edge50" class="edge"><title>Node1&#45;&gt;Node14</title>
<path fill="none" stroke="midnightblue" d="M839.8,-459.37C873.576,-441.114 923.848,-405.896 923.848,-358 923.848,-358 923.848,-358 923.848,-300 923.848,-253.115 873.296,-219.894 839.519,-202.93"/>
<polygon fill="midnightblue" stroke="midnightblue" points="841.02,-199.769 830.492,-198.579 837.98,-206.074 841.02,-199.769"/>
</g>
<!-- Node20 -->
<g id="node20" class="node"><title>Node20</title>
<g id="a_node20"><a xlink:href="_l_r___i_p_c___in_8h.html" target="_top" xlink:title="LR_IPC_In.h">
<polygon fill="white" stroke="black" points="171.348,-291.5 171.348,-310.5 242.348,-310.5 242.348,-291.5 171.348,-291.5"/>
<text text-anchor="middle" x="206.848" y="-298.5" font-family="Helvetica,sans-Serif" font-size="10.00">LR_IPC_In.h</text>
</a>
</g>
</g>
<!-- Node1&#45;&gt;Node20 -->
<g id="edge51" class="edge"><title>Node1&#45;&gt;Node20</title>
<path fill="none" stroke="midnightblue" d="M760.502,-459.465C643.877,-426.296 353.055,-343.583 246.653,-313.321"/>
<polygon fill="midnightblue" stroke="midnightblue" points="247.52,-309.929 236.944,-310.56 245.605,-316.662 247.52,-309.929"/>
</g>
<!-- Node21 -->
<g id="node21" class="node"><title>Node21</title>
<g id="a_node21"><a xlink:href="_m_i_d_i_sender_8h.html" target="_top" xlink:title="MIDISender.h">
<polygon fill="white" stroke="black" points="97.3478,-235.5 97.3478,-254.5 172.348,-254.5 172.348,-235.5 97.3478,-235.5"/>
<text text-anchor="middle" x="134.848" y="-242.5" font-family="Helvetica,sans-Serif" font-size="10.00">MIDISender.h</text>
</a>
</g>
</g>
<!-- Node1&#45;&gt;Node21 -->
<g id="edge61" class="edge"><title>Node1&#45;&gt;Node21</title>
<path fill="none" stroke="midnightblue" d="M743.108,-460.67C694.591,-451.063 627.431,-437.184 568.848,-423 386.503,-378.851 302.547,-435.106 161.848,-311 148.265,-299.019 141.36,-279.122 137.953,-264.492"/>
<polygon fill="midnightblue" stroke="midnightblue" points="141.359,-263.676 135.977,-254.55 134.493,-265.04 141.359,-263.676"/>
</g>
<!-- Node22 -->
<g id="node22" class="node"><title>Node22</title>
<g id="a_node22"><a xlink:href="_settings_manager_8h.html" target="_top" xlink:title="SettingsManager.h">
<polygon fill="white" stroke="black" points="797.848,-291.5 797.848,-310.5 895.848,-310.5 895.848,-291.5 797.848,-291.5"/>
<text text-anchor="middle" x="846.848" y="-298.5" font-family="Helvetica,sans-Serif" font-size="10.00">SettingsManager.h</text>
</a>
</g>
</g>
<!-- Node1&#45;&gt;Node22 -->
<g id="edge60" class="edge"><title>Node1&#45;&gt;Node22</title>
<path fill="none" stroke="midnightblue" d="M829.689,-459.329C840.531,-450.313 852.927,-437.604 858.848,-423 872.741,-388.73 862.002,-344.705 853.836,-320.321"/>
<polygon fill="midnightblue" stroke="midnightblue" points="857.025,-318.843 850.363,-310.605 850.433,-321.2 857.025,-318.843"/>
</g>
<!-- Node23 -->
<g id="node23" class="node"><title>Node23</title>
<g id="a_node23"><a xlink:href="_version_checker_8h.html" target="_top" xlink:title="VersionChecker.h">
<polygon fill="white" stroke="black" points="951.848,-347.5 951.848,-366.5 1045.85,-366.5 1045.85,-347.5 951.848,-347.5"/>
<text text-anchor="middle" x="998.848" y="-354.5" font-family="Helvetica,sans-Serif" font-size="10.00">VersionChecker.h</text>
</a>
</g>
</g>
<!-- Node1&#45;&gt;Node23 -->
<g id="edge52" class="edge"><title>Node1&#45;&gt;Node23</title>
<path fill="none" stroke="midnightblue" d="M860.069,-459.416C884.77,-451.104 914.229,-439.036 937.848,-423 957.357,-409.754 975.253,-389.248 986.545,-374.818"/>
<polygon fill="midnightblue" stroke="midnightblue" points="989.42,-376.819 992.677,-366.737 983.844,-372.587 989.42,-376.819"/>
</g>
<!-- Node24 -->
<g id="node24" class="node"><title>Node24</title>
<g id="a_node24"><a xlink:href="_main_window_8h.html" target="_top" xlink:title="MainWindow.h">
<polygon fill="white" stroke="black" points="769.848,-403.5 769.848,-422.5 849.848,-422.5 849.848,-403.5 769.848,-403.5"/>
<text text-anchor="middle" x="809.848" y="-410.5" font-family="Helvetica,sans-Serif" font-size="10.00">MainWindow.h</text>
</a>
</g>
</g>
<!-- Node1&#45;&gt;Node24 -->
<g id="edge55" class="edge"><title>Node1&#45;&gt;Node24</title>
<path fill="none" stroke="midnightblue" d="M809.848,-459.399C809.848,-451.466 809.848,-441.458 809.848,-432.858"/>
<polygon fill="midnightblue" stroke="midnightblue" points="813.348,-432.658 809.848,-422.658 806.348,-432.658 813.348,-432.658"/>
</g>
<!-- Node3&#45;&gt;Node2 -->
<g id="edge3" class="edge"><title>Node3&#45;&gt;Node2</title>
<path fill="none" stroke="midnightblue" d="M645.697,-347.424C624.819,-331.848 582.841,-296.643 566.848,-255 546.081,-200.928 567.214,-132.016 581.353,-96.3287"/>
<polygon fill="midnightblue" stroke="midnightblue" points="584.714,-97.3572 585.288,-86.7779 578.242,-94.6903 584.714,-97.3572"/>
</g>
<!-- Node4 -->
<g id="node4" class="node"><title>Node4</title>
<g id="a_node4"><a xlink:href="_command_table_8h.html" target="_top" xlink:title="CommandTable.h">
<polygon fill="white" stroke="black" points="619.848,-179.5 619.848,-198.5 711.848,-198.5 711.848,-179.5 619.848,-179.5"/>
<text text-anchor="middle" x="665.848" y="-186.5" font-family="Helvetica,sans-Serif" font-size="10.00">CommandTable.h</text>
</a>
</g>
</g>
<!-- Node3&#45;&gt;Node4 -->
<g id="edge4" class="edge"><title>Node3&#45;&gt;Node4</title>
<path fill="none" stroke="midnightblue" d="M660.344,-347.223C665.711,-327.322 677.571,-277.216 673.848,-235 673.071,-226.197 671.456,-216.536 669.879,-208.43"/>
<polygon fill="midnightblue" stroke="midnightblue" points="673.292,-207.648 667.835,-198.567 666.437,-209.069 673.292,-207.648"/>
</g>
<!-- Node5 -->
<g id="node5" class="node"><title>Node5</title>
<g id="a_node5"><a xlink:href="_command_table_model_8h.html" target="_top" xlink:title="CommandTableModel.h">
<polygon fill="white" stroke="black" points="400.348,-235.5 400.348,-254.5 519.348,-254.5 519.348,-235.5 400.348,-235.5"/>
<text text-anchor="middle" x="459.848" y="-242.5" font-family="Helvetica,sans-Serif" font-size="10.00">CommandTableModel.h</text>
</a>
</g>
</g>
<!-- Node3&#45;&gt;Node5 -->
<g id="edge6" class="edge"><title>Node3&#45;&gt;Node5</title>
<path fill="none" stroke="midnightblue" d="M624.244,-347.496C598.41,-340.104 562.425,-327.914 533.848,-311 511.002,-297.478 488.651,-276.451 474.596,-261.995"/>
<polygon fill="midnightblue" stroke="midnightblue" points="477.116,-259.567 467.69,-254.73 472.042,-264.389 477.116,-259.567"/>
</g>
<!-- Node3&#45;&gt;Node8 -->
<g id="edge37" class="edge"><title>Node3&#45;&gt;Node8</title>
<path fill="none" stroke="midnightblue" d="M610.225,-353.84C528.753,-349.47 366.596,-337.637 316.848,-311 258.537,-279.779 246.313,-259.171 218.848,-199 212.262,-184.572 210.177,-166.613 209.646,-153.231"/>
<polygon fill="midnightblue" stroke="midnightblue" points="213.141,-152.804 209.505,-142.852 206.141,-152.899 213.141,-152.804"/>
</g>
<!-- Node13 -->
<g id="node13" class="node"><title>Node13</title>
<g id="a_node13"><a xlink:href="_m_i_d_i_processor_8h.html" target="_top" xlink:title="MIDIProcessor.h">
<polygon fill="white" stroke="black" points="693.348,-123.5 693.348,-142.5 782.348,-142.5 782.348,-123.5 693.348,-123.5"/>
<text text-anchor="middle" x="737.848" y="-130.5" font-family="Helvetica,sans-Serif" font-size="10.00">MIDIProcessor.h</text>
</a>
</g>
</g>
<!-- Node3&#45;&gt;Node13 -->
<g id="edge21" class="edge"><title>Node3&#45;&gt;Node13</title>
<path fill="none" stroke="midnightblue" d="M679.072,-347.404C722.82,-328.354 822.082,-277.93 859.848,-199 875.222,-166.869 831.76,-150.146 792.518,-141.766"/>
<polygon fill="midnightblue" stroke="midnightblue" points="793.16,-138.325 782.67,-139.811 791.797,-145.191 793.16,-138.325"/>
</g>
<!-- Node3&#45;&gt;Node14 -->
<g id="edge23" class="edge"><title>Node3&#45;&gt;Node14</title>
<path fill="none" stroke="midnightblue" d="M666.02,-347.075C690.464,-320.38 763.273,-240.865 794.902,-206.322"/>
<polygon fill="midnightblue" stroke="midnightblue" points="797.83,-208.307 802.002,-198.568 792.668,-203.58 797.83,-208.307"/>
</g>
<!-- Node17 -->
<g id="node17" class="node"><title>Node17</title>
<g id="a_node17"><a xlink:href="_profile_manager_8h.html" target="_top" xlink:title="ProfileManager.h">
<polygon fill="white" stroke="black" points="576.348,-235.5 576.348,-254.5 665.348,-254.5 665.348,-235.5 576.348,-235.5"/>
<text text-anchor="middle" x="620.848" y="-242.5" font-family="Helvetica,sans-Serif" font-size="10.00">ProfileManager.h</text>
</a>
</g>
</g>
<!-- Node3&#45;&gt;Node17 -->
<g id="edge30" class="edge"><title>Node3&#45;&gt;Node17</title>
<path fill="none" stroke="midnightblue" d="M654.944,-347.368C648.946,-329.537 635.074,-288.295 626.994,-264.272"/>
<polygon fill="midnightblue" stroke="midnightblue" points="630.243,-262.954 623.738,-254.591 623.608,-265.185 630.243,-262.954"/>
</g>
<!-- Node18 -->
<g id="node18" class="node"><title>Node18</title>
<g id="a_node18"><a xlink:href="_resizable_layout_8h.html" target="_top" xlink:title="ResizableLayout.h">
<polygon fill="white" stroke="black" points="326.348,-291.5 326.348,-310.5 423.348,-310.5 423.348,-291.5 326.348,-291.5"/>
<text text-anchor="middle" x="374.848" y="-298.5" font-family="Helvetica,sans-Serif" font-size="10.00">ResizableLayout.h</text>
</a>
</g>
</g>
<!-- Node3&#45;&gt;Node18 -->
<g id="edge35" class="edge"><title>Node3&#45;&gt;Node18</title>
<path fill="none" stroke="midnightblue" d="M613.006,-347.444C563.223,-337.944 482.865,-322.611 429.455,-312.42"/>
<polygon fill="midnightblue" stroke="midnightblue" points="429.959,-308.953 419.48,-310.516 428.647,-315.829 429.959,-308.953"/>
</g>
<!-- Node3&#45;&gt;Node20 -->
<g id="edge38" class="edge"><title>Node3&#45;&gt;Node20</title>
<path fill="none" stroke="midnightblue" d="M610.156,-351.22C535.978,-343.635 388.519,-327.954 263.848,-311 260.156,-310.498 256.334,-309.952 252.498,-309.385"/>
<polygon fill="midnightblue" stroke="midnightblue" points="252.8,-305.891 242.388,-307.853 251.751,-312.812 252.8,-305.891"/>
</g>
<!-- Node3&#45;&gt;Node22 -->
<g id="edge46" class="edge"><title>Node3&#45;&gt;Node22</title>
<path fill="none" stroke="midnightblue" d="M687.795,-347.444C720.006,-338.241 771.382,-323.562 806.99,-313.388"/>
<polygon fill="midnightblue" stroke="midnightblue" points="808.387,-316.629 817.04,-310.516 806.463,-309.898 808.387,-316.629"/>
</g>
<!-- Node4&#45;&gt;Node2 -->
<g id="edge5" class="edge"><title>Node4&#45;&gt;Node2</title>
<path fill="none" stroke="midnightblue" d="M660.286,-179.319C648.97,-161.657 622.946,-121.039 606.449,-95.2891"/>
<polygon fill="midnightblue" stroke="midnightblue" points="609.188,-93.0772 600.846,-86.5453 603.294,-96.8535 609.188,-93.0772"/>
</g>
<!-- Node5&#45;&gt;Node2 -->
<g id="edge9" class="edge"><title>Node5&#45;&gt;Node2</title>
<path fill="none" stroke="midnightblue" d="M466.124,-235.471C472.681,-226.492 483.198,-211.898 491.848,-199 514.099,-165.82 514.675,-154.022 539.848,-123 548.273,-112.617 558.662,-102.154 567.933,-93.4655"/>
<polygon fill="midnightblue" stroke="midnightblue" points="570.387,-95.9642 575.391,-86.6254 565.655,-90.8055 570.387,-95.9642"/>
</g>
<!-- Node6 -->
<g id="node6" class="node"><title>Node6</title>
<polygon fill="white" stroke="#bfbfbf" points="340.848,-0.5 340.848,-19.5 382.848,-19.5 382.848,-0.5 340.848,-0.5"/>
<text text-anchor="middle" x="361.848" y="-7.5" font-family="Helvetica,sans-Serif" font-size="10.00">vector</text>
</g>
<!-- Node5&#45;&gt;Node6 -->
<g id="edge7" class="edge"><title>Node5&#45;&gt;Node6</title>
<path fill="none" stroke="midnightblue" d="M454.964,-235.261C445.406,-217.969 423.857,-178.028 408.848,-143 391.829,-103.284 375.8,-55.1334 367.581,-29.3734"/>
<polygon fill="midnightblue" stroke="midnightblue" points="370.905,-28.2762 364.556,-19.7941 364.23,-30.3839 370.905,-28.2762"/>
</g>
<!-- Node7 -->
<g id="node7" class="node"><title>Node7</title>
<polygon fill="white" stroke="#bfbfbf" points="309.848,-123.5 309.848,-142.5 361.848,-142.5 361.848,-123.5 309.848,-123.5"/>
<text text-anchor="middle" x="335.848" y="-130.5" font-family="Helvetica,sans-Serif" font-size="10.00">memory</text>
</g>
<!-- Node5&#45;&gt;Node7 -->
<g id="edge8" class="edge"><title>Node5&#45;&gt;Node7</title>
<path fill="none" stroke="midnightblue" d="M450.118,-235.368C429.201,-216.814 379.713,-172.913 353.25,-149.438"/>
<polygon fill="midnightblue" stroke="midnightblue" points="355.336,-146.609 345.533,-142.591 350.691,-151.846 355.336,-146.609"/>
</g>
<!-- Node5&#45;&gt;Node8 -->
<g id="edge10" class="edge"><title>Node5&#45;&gt;Node8</title>
<path fill="none" stroke="midnightblue" d="M404.279,-235.482C342.816,-225.634 250.708,-209.443 237.848,-199 223.71,-187.52 216.557,-167.544 213.04,-152.759"/>
<polygon fill="midnightblue" stroke="midnightblue" points="216.417,-151.798 211.004,-142.691 209.556,-153.186 216.417,-151.798"/>
</g>
<!-- Node12 -->
<g id="node12" class="node"><title>Node12</title>
<g id="a_node12"><a xlink:href="_command_menu_8h.html" target="_top" xlink:title="CommandMenu.h">
<polygon fill="white" stroke="black" points="280.348,-179.5 280.348,-198.5 373.348,-198.5 373.348,-179.5 280.348,-179.5"/>
<text text-anchor="middle" x="326.848" y="-186.5" font-family="Helvetica,sans-Serif" font-size="10.00">CommandMenu.h</text>
</a>
</g>
</g>
<!-- Node5&#45;&gt;Node12 -->
<g id="edge17" class="edge"><title>Node5&#45;&gt;Node12</title>
<path fill="none" stroke="midnightblue" d="M438.774,-235.444C416.788,-226.517 382.113,-212.439 357.184,-202.317"/>
<polygon fill="midnightblue" stroke="midnightblue" points="358.406,-199.035 347.823,-198.516 355.772,-205.521 358.406,-199.035"/>
</g>
<!-- Node8&#45;&gt;Node2 -->
<g id="edge11" class="edge"><title>Node8&#45;&gt;Node2</title>
<path fill="none" stroke="midnightblue" d="M254.041,-125.116C322.833,-114.401 455.604,-93.7212 532.618,-81.7257"/>
<polygon fill="midnightblue" stroke="midnightblue" points="533.301,-85.1615 542.643,-80.1641 532.223,-78.2449 533.301,-85.1615"/>
</g>
<!-- Node9 -->
<g id="node9" class="node"><title>Node9</title>
<polygon fill="white" stroke="#bfbfbf" points="30.3478,-62 30.3478,-81 113.348,-81 113.348,-62 30.3478,-62"/>
<text text-anchor="middle" x="71.8478" y="-69" font-family="Helvetica,sans-Serif" font-size="10.00">unordered_map</text>
</g>
<!-- Node8&#45;&gt;Node9 -->
<g id="edge12" class="edge"><title>Node8&#45;&gt;Node9</title>
<path fill="none" stroke="midnightblue" d="M190.076,-123.475C166.711,-113.401 127.633,-96.5525 100.845,-85.0023"/>
<polygon fill="midnightblue" stroke="midnightblue" points="102.152,-81.7544 91.5831,-81.0091 99.3802,-88.1824 102.152,-81.7544"/>
</g>
<!-- Node10 -->
<g id="node10" class="node"><title>Node10</title>
<g id="a_node10"><a xlink:href="_subject_8h.html" target="_top" xlink:title="Pattern/Subject.h">
<polygon fill="white" stroke="black" points="190.848,-62 190.848,-81 282.848,-81 282.848,-62 190.848,-62"/>
<text text-anchor="middle" x="236.848" y="-69" font-family="Helvetica,sans-Serif" font-size="10.00">Pattern/Subject.h</text>
</a>
</g>
</g>
<!-- Node8&#45;&gt;Node10 -->
<g id="edge13" class="edge"><title>Node8&#45;&gt;Node10</title>
<path fill="none" stroke="midnightblue" d="M213.716,-123.475C217.646,-114.815 223.848,-101.149 228.841,-90.1453"/>
<polygon fill="midnightblue" stroke="midnightblue" points="232.041,-91.5617 232.986,-81.0091 225.667,-88.6691 232.041,-91.5617"/>
</g>
<!-- Node10&#45;&gt;Node6 -->
<g id="edge16" class="edge"><title>Node10&#45;&gt;Node6</title>
<path fill="none" stroke="midnightblue" d="M254.757,-61.9751C275.735,-51.9897 310.697,-35.3476 334.941,-23.8075"/>
<polygon fill="midnightblue" stroke="midnightblue" points="336.447,-26.9673 343.972,-19.5091 333.438,-20.6468 336.447,-26.9673"/>
</g>
<!-- Node11 -->
<g id="node11" class="node"><title>Node11</title>
<g id="a_node11"><a xlink:href="_observer_8h.html" target="_top" xlink:title="Observer.h">
<polygon fill="white" stroke="black" points="205.348,-0.5 205.348,-19.5 268.348,-19.5 268.348,-0.5 205.348,-0.5"/>
<text text-anchor="middle" x="236.848" y="-7.5" font-family="Helvetica,sans-Serif" font-size="10.00">Observer.h</text>
</a>
</g>
</g>
<!-- Node10&#45;&gt;Node11 -->
<g id="edge14" class="edge"><title>Node10&#45;&gt;Node11</title>
<path fill="none" stroke="midnightblue" d="M231.947,-61.9751C230.116,-53.5803 229.645,-40.4806 230.533,-29.6631"/>
<polygon fill="midnightblue" stroke="midnightblue" points="234.034,-29.897 231.951,-19.5091 227.101,-28.929 234.034,-29.897"/>
</g>
<!-- Node11&#45;&gt;Node10 -->
<g id="edge15" class="edge"><title>Node11&#45;&gt;Node10</title>
<path fill="none" stroke="midnightblue" d="M241.745,-19.5091C243.578,-27.898 244.051,-40.9962 243.164,-51.8165"/>
<polygon fill="midnightblue" stroke="midnightblue" points="239.662,-51.5876 241.748,-61.9751 246.595,-52.554 239.662,-51.5876"/>
</g>
<!-- Node12&#45;&gt;Node2 -->
<g id="edge19" class="edge"><title>Node12&#45;&gt;Node2</title>
<path fill="none" stroke="midnightblue" d="M318.016,-179.089C305.756,-165.638 286.606,-139.926 300.848,-123 308.295,-114.149 449.865,-92.6796 532.751,-80.7819"/>
<polygon fill="midnightblue" stroke="midnightblue" points="533.398,-84.2251 542.802,-79.3448 532.407,-77.2956 533.398,-84.2251"/>
</g>
<!-- Node12&#45;&gt;Node7 -->
<g id="edge18" class="edge"><title>Node12&#45;&gt;Node7</title>
<path fill="none" stroke="midnightblue" d="M328.334,-179.083C329.527,-171.927 331.242,-161.635 332.733,-152.691"/>
<polygon fill="midnightblue" stroke="midnightblue" points="336.198,-153.19 334.389,-142.751 329.293,-152.04 336.198,-153.19"/>
</g>
<!-- Node12&#45;&gt;Node8 -->
<g id="edge20" class="edge"><title>Node12&#45;&gt;Node8</title>
<path fill="none" stroke="midnightblue" d="M308.309,-179.444C289.225,-170.636 259.273,-156.812 237.412,-146.722"/>
<polygon fill="midnightblue" stroke="midnightblue" points="238.846,-143.529 228.3,-142.516 235.913,-149.885 238.846,-143.529"/>
</g>
<!-- Node13&#45;&gt;Node2 -->
<g id="edge22" class="edge"><title>Node13&#45;&gt;Node2</title>
<path fill="none" stroke="midnightblue" d="M716.93,-123.475C695.862,-114.889 662.72,-101.383 635.842,-90.4291"/>
<polygon fill="midnightblue" stroke="midnightblue" points="636.839,-87.0558 626.257,-86.523 634.197,-93.5382 636.839,-87.0558"/>
</g>
<!-- Node14&#45;&gt;Node2 -->
<g id="edge24" class="edge"><title>Node14&#45;&gt;Node2</title>
<path fill="none" stroke="midnightblue" d="M809.893,-179.484C809.484,-165.616 806.585,-138.183 790.848,-123 770.948,-103.801 702.071,-89.324 650.894,-80.8975"/>
<polygon fill="midnightblue" stroke="midnightblue" points="651.344,-77.4249 640.915,-79.2933 650.233,-84.3362 651.344,-77.4249"/>
</g>
<!-- Node14&#45;&gt;Node8 -->
<g id="edge26" class="edge"><title>Node14&#45;&gt;Node8</title>
<path fill="none" stroke="midnightblue" d="M768.205,-183.656C753.273,-182.134 736.311,-180.444 720.848,-179 534.309,-161.575 487.406,-160.22 300.848,-143 289.11,-141.917 276.526,-140.704 264.574,-139.53"/>
<polygon fill="midnightblue" stroke="midnightblue" points="264.566,-136.012 254.27,-138.511 263.877,-142.978 264.566,-136.012"/>
</g>
<!-- Node14&#45;&gt;Node13 -->
<g id="edge25" class="edge"><title>Node14&#45;&gt;Node13</title>
<path fill="none" stroke="midnightblue" d="M798.28,-179.324C787.428,-171.185 770.967,-158.839 757.964,-149.087"/>
<polygon fill="midnightblue" stroke="midnightblue" points="759.726,-146.034 749.626,-142.834 755.526,-151.634 759.726,-146.034"/>
</g>
<!-- Node15 -->
<g id="node15" class="node"><title>Node15</title>
<g id="a_node15"><a xlink:href="_send_keys_8h.html" target="_top" xlink:title="SendKeys.h">
<polygon fill="white" stroke="black" points="417.848,-123.5 417.848,-142.5 487.848,-142.5 487.848,-123.5 417.848,-123.5"/>
<text text-anchor="middle" x="452.848" y="-130.5" font-family="Helvetica,sans-Serif" font-size="10.00">SendKeys.h</text>
</a>
</g>
</g>
<!-- Node14&#45;&gt;Node15 -->
<g id="edge27" class="edge"><title>Node14&#45;&gt;Node15</title>
<path fill="none" stroke="midnightblue" d="M768.197,-181.7C700.753,-171.498 568.171,-151.444 498.341,-140.881"/>
<polygon fill="midnightblue" stroke="midnightblue" points="498.512,-137.367 488.101,-139.332 497.465,-144.289 498.512,-137.367"/>
</g>
<!-- Node15&#45;&gt;Node2 -->
<g id="edge29" class="edge"><title>Node15&#45;&gt;Node2</title>
<path fill="none" stroke="midnightblue" d="M472.763,-123.475C492.732,-114.927 524.097,-101.501 549.626,-90.5734"/>
<polygon fill="midnightblue" stroke="midnightblue" points="551.272,-93.6758 559.088,-86.523 548.518,-87.2406 551.272,-93.6758"/>
</g>
<!-- Node16 -->
<g id="node16" class="node"><title>Node16</title>
<polygon fill="white" stroke="#bfbfbf" points="430.848,-62 430.848,-81 474.848,-81 474.848,-62 430.848,-62"/>
<text text-anchor="middle" x="452.848" y="-69" font-family="Helvetica,sans-Serif" font-size="10.00">mutex</text>
</g>
<!-- Node15&#45;&gt;Node16 -->
<g id="edge28" class="edge"><title>Node15&#45;&gt;Node16</title>
<path fill="none" stroke="midnightblue" d="M452.848,-123.475C452.848,-115.08 452.848,-101.981 452.848,-91.1631"/>
<polygon fill="midnightblue" stroke="midnightblue" points="456.348,-91.0091 452.848,-81.0091 449.348,-91.0091 456.348,-91.0091"/>
</g>
<!-- Node17&#45;&gt;Node2 -->
<g id="edge31" class="edge"><title>Node17&#45;&gt;Node2</title>
<path fill="none" stroke="midnightblue" d="M618.752,-235.41C616.593,-226.381 613.218,-211.746 610.848,-199 604.269,-163.624 598.407,-122.356 594.989,-96.8237"/>
<polygon fill="midnightblue" stroke="midnightblue" points="598.418,-96.0486 593.639,-86.5929 591.478,-96.965 598.418,-96.0486"/>
</g>
<!-- Node17&#45;&gt;Node8 -->
<g id="edge34" class="edge"><title>Node17&#45;&gt;Node8</title>
<path fill="none" stroke="midnightblue" d="M576.134,-239.064C484.81,-228.871 284.298,-205.875 270.848,-199 249.394,-188.035 231.474,-166.366 220.724,-151.068"/>
<polygon fill="midnightblue" stroke="midnightblue" points="223.467,-148.875 214.989,-142.519 217.653,-152.774 223.467,-148.875"/>
</g>
<!-- Node17&#45;&gt;Node13 -->
<g id="edge32" class="edge"><title>Node17&#45;&gt;Node13</title>
<path fill="none" stroke="midnightblue" d="M659.048,-235.456C680.114,-228.859 705.114,-217.609 720.848,-199 731.782,-186.068 735.782,-166.897 737.196,-152.724"/>
<polygon fill="midnightblue" stroke="midnightblue" points="740.695,-152.851 737.858,-142.643 733.71,-152.392 740.695,-152.851"/>
</g>
<!-- Node17&#45;&gt;Node14 -->
<g id="edge33" class="edge"><title>Node17&#45;&gt;Node14</title>
<path fill="none" stroke="midnightblue" d="M650.795,-235.444C683.006,-226.241 734.382,-211.562 769.99,-201.388"/>
<polygon fill="midnightblue" stroke="midnightblue" points="771.387,-204.629 780.04,-198.516 769.463,-197.898 771.387,-204.629"/>
</g>
<!-- Node19 -->
<g id="node19" class="node"><title>Node19</title>
<polygon fill="white" stroke="#bfbfbf" points="305.848,-235.5 305.848,-254.5 381.848,-254.5 381.848,-235.5 305.848,-235.5"/>
<text text-anchor="middle" x="343.848" y="-242.5" font-family="Helvetica,sans-Serif" font-size="10.00">JuceHeader.h</text>
</g>
<!-- Node18&#45;&gt;Node19 -->
<g id="edge36" class="edge"><title>Node18&#45;&gt;Node19</title>
<path fill="none" stroke="midnightblue" d="M369.729,-291.083C365.44,-283.613 359.19,-272.724 353.905,-263.52"/>
<polygon fill="midnightblue" stroke="midnightblue" points="356.886,-261.681 348.872,-254.751 350.815,-265.166 356.886,-261.681"/>
</g>
<!-- Node20&#45;&gt;Node2 -->
<g id="edge39" class="edge"><title>Node20&#45;&gt;Node2</title>
<path fill="none" stroke="midnightblue" d="M171.102,-297.09C143.3,-292.732 106.43,-281.894 87.8478,-255 58.003,-211.807 28.6589,-202.412 139.848,-123 202.395,-78.3281 407.528,-96.1148 483.848,-87 499.642,-85.1137 516.712,-82.9022 532.516,-80.7828"/>
<polygon fill="midnightblue" stroke="midnightblue" points="533.251,-84.2153 542.692,-79.4076 532.313,-77.2784 533.251,-84.2153"/>
</g>
<!-- Node20&#45;&gt;Node8 -->
<g id="edge41" class="edge"><title>Node20&#45;&gt;Node8</title>
<path fill="none" stroke="midnightblue" d="M203.761,-291.466C199.153,-278.925 190.029,-254.858 180.848,-235 173.256,-218.578 166.198,-216.561 161.848,-199 159.711,-190.372 158.314,-187.156 161.848,-179 167.116,-166.84 177.467,-156.459 187.213,-148.743"/>
<polygon fill="midnightblue" stroke="midnightblue" points="189.492,-151.412 195.478,-142.67 185.347,-145.771 189.492,-151.412"/>
</g>
<!-- Node20&#45;&gt;Node9 -->
<g id="edge40" class="edge"><title>Node20&#45;&gt;Node9</title>
<path fill="none" stroke="midnightblue" d="M171.081,-295.61C138.523,-290.247 90.2734,-278.763 54.8478,-255 28.3319,-237.213 20.4492,-229.118 9.84776,-199 -1.36756,-167.139 -4.65047,-153.508 9.84776,-123 17.2552,-107.413 32.0884,-95.0556 45.3889,-86.4671"/>
<polygon fill="midnightblue" stroke="midnightblue" points="47.4848,-89.2904 54.2419,-81.1299 43.8707,-83.2955 47.4848,-89.2904"/>
</g>
<!-- Node20&#45;&gt;Node15 -->
<g id="edge45" class="edge"><title>Node20&#45;&gt;Node15</title>
<path fill="none" stroke="midnightblue" d="M217.132,-291.381C233.332,-278.089 266.118,-252.313 296.848,-235 332.592,-214.863 347.329,-221.173 381.848,-199 403.475,-185.108 424.745,-164.445 438.279,-150.162"/>
<polygon fill="midnightblue" stroke="midnightblue" points="441.067,-152.302 445.298,-142.589 435.933,-147.544 441.067,-152.302"/>
</g>
<!-- Node20&#45;&gt;Node17 -->
<g id="edge42" class="edge"><title>Node20&#45;&gt;Node17</title>
<path fill="none" stroke="midnightblue" d="M242.503,-295.349C314.972,-285.897 479.877,-264.388 566.067,-253.145"/>
<polygon fill="midnightblue" stroke="midnightblue" points="566.713,-256.591 576.176,-251.827 565.808,-249.65 566.713,-256.591"/>
</g>
<!-- Node20&#45;&gt;Node21 -->
<g id="edge43" class="edge"><title>Node20&#45;&gt;Node21</title>
<path fill="none" stroke="midnightblue" d="M195.28,-291.324C184.428,-283.185 167.967,-270.839 154.964,-261.087"/>
<polygon fill="midnightblue" stroke="midnightblue" points="156.726,-258.034 146.626,-254.834 152.526,-263.634 156.726,-258.034"/>
</g>
<!-- Node21&#45;&gt;Node2 -->
<g id="edge44" class="edge"><title>Node21&#45;&gt;Node2</title>
<path fill="none" stroke="midnightblue" d="M133.356,-235.388C130.034,-213.065 124.674,-152.991 156.848,-123 210.324,-73.1525 411.281,-95.8645 483.848,-87 499.637,-85.0712 516.705,-82.8452 532.509,-80.7253"/>
<polygon fill="midnightblue" stroke="midnightblue" points="533.243,-84.158 542.685,-79.3517 532.307,-77.2209 533.243,-84.158"/>
</g>
<!-- Node22&#45;&gt;Node2 -->
<g id="edge47" class="edge"><title>Node22&#45;&gt;Node2</title>
<path fill="none" stroke="midnightblue" d="M852.581,-291.424C865.399,-271.101 893.879,-218.736 875.848,-179 860.23,-144.582 845.507,-140.193 811.848,-123 761.071,-97.0645 696.949,-84.2973 651.052,-78.1077"/>
<polygon fill="midnightblue" stroke="midnightblue" points="651.329,-74.6146 640.964,-76.8134 650.438,-81.5577 651.329,-74.6146"/>
</g>
<!-- Node22&#45;&gt;Node14 -->
<g id="edge48" class="edge"><title>Node22&#45;&gt;Node14</title>
<path fill="none" stroke="midnightblue" d="M843.944,-291.368C837.946,-273.537 824.074,-232.295 815.994,-208.272"/>
<polygon fill="midnightblue" stroke="midnightblue" points="819.243,-206.954 812.738,-198.591 812.608,-209.185 819.243,-206.954"/>
</g>
<!-- Node22&#45;&gt;Node17 -->
<g id="edge49" class="edge"><title>Node22&#45;&gt;Node17</title>
<path fill="none" stroke="midnightblue" d="M811.037,-291.444C771.86,-282.083 708.971,-267.056 666.332,-256.868"/>
<polygon fill="midnightblue" stroke="midnightblue" points="667.03,-253.436 656.491,-254.516 665.403,-260.245 667.03,-253.436"/>
</g>
<!-- Node23&#45;&gt;Node2 -->
<g id="edge53" class="edge"><title>Node23&#45;&gt;Node2</title>
<path fill="none" stroke="midnightblue" d="M998.978,-347.442C999.25,-328.937 999.848,-283.814 999.848,-246 999.848,-246 999.848,-246 999.848,-188 999.848,-157.205 999.91,-142.218 975.848,-123 926.929,-83.9301 745.998,-74.979 650.99,-73.0022"/>
<polygon fill="midnightblue" stroke="midnightblue" points="651.022,-69.5023 640.957,-72.8127 650.889,-76.501 651.022,-69.5023"/>
</g>
<!-- Node23&#45;&gt;Node22 -->
<g id="edge54" class="edge"><title>Node23&#45;&gt;Node22</title>
<path fill="none" stroke="midnightblue" d="M974.763,-347.444C949.303,-338.399 908.954,-324.064 880.389,-313.916"/>
<polygon fill="midnightblue" stroke="midnightblue" points="881.415,-310.566 870.82,-310.516 879.071,-317.162 881.415,-310.566"/>
</g>
<!-- Node24&#45;&gt;Node2 -->
<g id="edge56" class="edge"><title>Node24&#45;&gt;Node2</title>
<path fill="none" stroke="midnightblue" d="M827.284,-403.494C867.21,-382.655 961.848,-324.934 961.848,-246 961.848,-246 961.848,-246 961.848,-188 961.848,-123.69 755.593,-91.0255 651.073,-78.6015"/>
<polygon fill="midnightblue" stroke="midnightblue" points="651.318,-75.1066 640.981,-77.4273 650.509,-82.0597 651.318,-75.1066"/>
</g>
<!-- Node24&#45;&gt;Node3 -->
<g id="edge57" class="edge"><title>Node24&#45;&gt;Node3</title>
<path fill="none" stroke="midnightblue" d="M785.763,-403.444C760.303,-394.399 719.954,-380.064 691.389,-369.916"/>
<polygon fill="midnightblue" stroke="midnightblue" points="692.415,-366.566 681.82,-366.516 690.071,-373.162 692.415,-366.566"/>
</g>
<!-- Node24&#45;&gt;Node22 -->
<g id="edge58" class="edge"><title>Node24&#45;&gt;Node22</title>
<path fill="none" stroke="midnightblue" d="M812.751,-403.368C818.749,-385.537 832.621,-344.295 840.702,-320.272"/>
<polygon fill="midnightblue" stroke="midnightblue" points="844.087,-321.185 843.958,-310.591 837.452,-318.954 844.087,-321.185"/>
</g>
</g>
</svg>
