<?xml version="1.0" encoding="UTF-8" standalone="no"?>
<!DOCTYPE svg PUBLIC "-//W3C//DTD SVG 1.1//EN"
 "http://www.w3.org/Graphics/SVG/1.1/DTD/svg11.dtd">
<!-- Generated by graphviz version 2.38.0 (20140413.2041)
 -->
<!-- Title: Q:/Documents/GitHub/MIDI2LR/Source/ProfileManager.cpp Pages: 1 -->
<svg width="446pt" height="330pt"
 viewBox="0.00 0.00 446.46 330.00" xmlns="http://www.w3.org/2000/svg" xmlns:xlink="http://www.w3.org/1999/xlink">
<g id="graph0" class="graph" transform="scale(1 1) rotate(0) translate(4 326)">
<title>Q:/Documents/GitHub/MIDI2LR/Source/ProfileManager.cpp</title>
<polygon fill="white" stroke="none" points="-4,4 -4,-326 442.461,-326 442.461,4 -4,4"/>
<!-- Node1 -->
<g id="node1" class="node"><title>Node1</title>
<polygon fill="#bfbfbf" stroke="black" points="192.461,-291.5 192.461,-321.5 368.461,-321.5 368.461,-291.5 192.461,-291.5"/>
<text text-anchor="start" x="200.461" y="-309.5" font-family="Helvetica,sans-Serif" font-size="10.00">Q:/Documents/GitHub</text>
<text text-anchor="middle" x="280.461" y="-298.5" font-family="Helvetica,sans-Serif" font-size="10.00">/MIDI2LR/Source/ProfileManager.cpp</text>
</g>
<!-- Node2 -->
<g id="node2" class="node"><title>Node2</title>
<g id="a_node2"><a xlink:href="_profile_manager_8h.html" target="_top" xlink:title="ProfileManager.h">
<polygon fill="white" stroke="black" points="155.961,-235.5 155.961,-254.5 244.961,-254.5 244.961,-235.5 155.961,-235.5"/>
<text text-anchor="middle" x="200.461" y="-242.5" font-family="Helvetica,sans-Serif" font-size="10.00">ProfileManager.h</text>
</a>
</g>
</g>
<!-- Node1&#45;&gt;Node2 -->
<g id="edge1" class="edge"><title>Node1&#45;&gt;Node2</title>
<path fill="none" stroke="midnightblue" d="M261.502,-291.399C249.038,-282.129 232.764,-270.025 220.154,-260.647"/>
<polygon fill="midnightblue" stroke="midnightblue" points="222.214,-257.817 212.102,-254.658 218.037,-263.434 222.214,-257.817"/>
</g>
<!-- Node13 -->
<g id="node13" class="node"><title>Node13</title>
<g id="a_node13"><a xlink:href="_l_r_commands_8h.html" target="_top" xlink:title="LRCommands.h">
<polygon fill="white" stroke="black" points="352.461,-123.5 352.461,-142.5 438.461,-142.5 438.461,-123.5 352.461,-123.5"/>
<text text-anchor="middle" x="395.461" y="-130.5" font-family="Helvetica,sans-Serif" font-size="10.00">LRCommands.h</text>
</a>
</g>
</g>
<!-- Node1&#45;&gt;Node13 -->
<g id="edge19" class="edge"><title>Node1&#45;&gt;Node13</title>
<path fill="none" stroke="midnightblue" d="M289.872,-291.465C310.858,-260.169 361.421,-184.764 384.109,-150.929"/>
<polygon fill="midnightblue" stroke="midnightblue" points="387.059,-152.815 389.721,-142.56 381.245,-148.916 387.059,-152.815"/>
</g>
<!-- Node3 -->
<g id="node3" class="node"><title>Node3</title>
<polygon fill="white" stroke="#bfbfbf" points="74.461,-56.5 74.461,-86.5 172.461,-86.5 172.461,-56.5 74.461,-56.5"/>
<text text-anchor="start" x="82.461" y="-74.5" font-family="Helvetica,sans-Serif" font-size="10.00">../JuceLibraryCode</text>
<text text-anchor="middle" x="123.461" y="-63.5" font-family="Helvetica,sans-Serif" font-size="10.00">/JuceHeader.h</text>
</g>
<!-- Node2&#45;&gt;Node3 -->
<g id="edge2" class="edge"><title>Node2&#45;&gt;Node3</title>
<path fill="none" stroke="midnightblue" d="M155.644,-236.54C106.974,-225.66 32.3219,-200.116 3.461,-143 -0.547887,-135.066 -1.45655,-130.405 3.461,-123 11.1791,-111.378 39.3567,-99.2222 66.4677,-89.7495"/>
<polygon fill="midnightblue" stroke="midnightblue" points="67.6364,-93.049 75.9774,-86.5161 65.383,-86.4216 67.6364,-93.049"/>
</g>
<!-- Node4 -->
<g id="node4" class="node"><title>Node4</title>
<g id="a_node4"><a xlink:href="_m_i_d_i_processor_8h.html" target="_top" xlink:title="MIDIProcessor.h">
<polygon fill="white" stroke="black" points="138.961,-123.5 138.961,-142.5 227.961,-142.5 227.961,-123.5 138.961,-123.5"/>
<text text-anchor="middle" x="183.461" y="-130.5" font-family="Helvetica,sans-Serif" font-size="10.00">MIDIProcessor.h</text>
</a>
</g>
</g>
<!-- Node2&#45;&gt;Node4 -->
<g id="edge3" class="edge"><title>Node2&#45;&gt;Node4</title>
<path fill="none" stroke="midnightblue" d="M199.127,-235.368C196.384,-217.617 190.055,-176.666 186.335,-152.597"/>
<polygon fill="midnightblue" stroke="midnightblue" points="189.775,-151.94 184.789,-142.591 182.857,-153.009 189.775,-151.94"/>
</g>
<!-- Node5 -->
<g id="node5" class="node"><title>Node5</title>
<g id="a_node5"><a xlink:href="_l_r___i_p_c___out_8h.html" target="_top" xlink:title="LR_IPC_OUT.h">
<polygon fill="white" stroke="black" points="88.961,-179.5 88.961,-198.5 171.961,-198.5 171.961,-179.5 88.961,-179.5"/>
<text text-anchor="middle" x="130.461" y="-186.5" font-family="Helvetica,sans-Serif" font-size="10.00">LR_IPC_OUT.h</text>
</a>
</g>
</g>
<!-- Node2&#45;&gt;Node5 -->
<g id="edge5" class="edge"><title>Node2&#45;&gt;Node5</title>
<path fill="none" stroke="midnightblue" d="M189.214,-235.324C178.664,-227.185 162.66,-214.839 150.019,-205.087"/>
<polygon fill="midnightblue" stroke="midnightblue" points="151.968,-202.171 141.912,-198.834 147.692,-207.713 151.968,-202.171"/>
</g>
<!-- Node6 -->
<g id="node6" class="node"><title>Node6</title>
<g id="a_node6"><a xlink:href="_command_map_8h.html" target="_top" xlink:title="CommandMap.h">
<polygon fill="white" stroke="black" points="246.461,-123.5 246.461,-142.5 334.461,-142.5 334.461,-123.5 246.461,-123.5"/>
<text text-anchor="middle" x="290.461" y="-130.5" font-family="Helvetica,sans-Serif" font-size="10.00">CommandMap.h</text>
</a>
</g>
</g>
<!-- Node2&#45;&gt;Node6 -->
<g id="edge18" class="edge"><title>Node2&#45;&gt;Node6</title>
<path fill="none" stroke="midnightblue" d="M207.523,-235.368C222.507,-217.055 257.694,-174.049 277.074,-150.362"/>
<polygon fill="midnightblue" stroke="midnightblue" points="279.808,-152.547 283.432,-142.591 274.39,-148.115 279.808,-152.547"/>
</g>
<!-- Node4&#45;&gt;Node3 -->
<g id="edge4" class="edge"><title>Node4&#45;&gt;Node3</title>
<path fill="none" stroke="midnightblue" d="M174.864,-123.475C167.042,-115.718 155.169,-103.943 144.803,-93.6645"/>
<polygon fill="midnightblue" stroke="midnightblue" points="147.167,-91.0792 137.602,-86.523 142.238,-96.0496 147.167,-91.0792"/>
</g>
<!-- Node5&#45;&gt;Node3 -->
<g id="edge6" class="edge"><title>Node5&#45;&gt;Node3</title>
<path fill="none" stroke="midnightblue" d="M129.935,-179.319C128.883,-161.967 126.489,-122.457 124.925,-96.6579"/>
<polygon fill="midnightblue" stroke="midnightblue" points="128.411,-96.3152 124.312,-86.5453 121.424,-96.7387 128.411,-96.3152"/>
</g>
<!-- Node5&#45;&gt;Node4 -->
<g id="edge7" class="edge"><title>Node5&#45;&gt;Node4</title>
<path fill="none" stroke="midnightblue" d="M139.213,-179.083C146.931,-171.22 158.366,-159.569 167.678,-150.081"/>
<polygon fill="midnightblue" stroke="midnightblue" points="170.365,-152.34 174.872,-142.751 165.369,-147.436 170.365,-152.34"/>
</g>
<!-- Node5&#45;&gt;Node6 -->
<g id="edge8" class="edge"><title>Node5&#45;&gt;Node6</title>
<path fill="none" stroke="midnightblue" d="M155.813,-179.444C182.73,-170.359 225.457,-155.939 255.548,-145.783"/>
<polygon fill="midnightblue" stroke="midnightblue" points="256.871,-149.031 265.227,-142.516 254.633,-142.398 256.871,-149.031"/>
</g>
<!-- Node11 -->
<g id="node11" class="node"><title>Node11</title>
<g id="a_node11"><a xlink:href="_send_keys_8h.html" target="_top" xlink:title="SendKeys.h">
<polygon fill="white" stroke="black" points="12.461,-123.5 12.461,-142.5 82.461,-142.5 82.461,-123.5 12.461,-123.5"/>
<text text-anchor="middle" x="47.461" y="-130.5" font-family="Helvetica,sans-Serif" font-size="10.00">SendKeys.h</text>
</a>
</g>
</g>
<!-- Node5&#45;&gt;Node11 -->
<g id="edge15" class="edge"><title>Node5&#45;&gt;Node11</title>
<path fill="none" stroke="midnightblue" d="M117.126,-179.324C104.299,-170.979 84.676,-158.212 69.5212,-148.352"/>
<polygon fill="midnightblue" stroke="midnightblue" points="71.0541,-145.174 60.7633,-142.655 67.2367,-151.042 71.0541,-145.174"/>
</g>
<!-- Node6&#45;&gt;Node3 -->
<g id="edge9" class="edge"><title>Node6&#45;&gt;Node3</title>
<path fill="none" stroke="midnightblue" d="M266.534,-123.475C242.119,-114.776 203.527,-101.026 172.573,-89.9981"/>
<polygon fill="midnightblue" stroke="midnightblue" points="173.414,-86.5823 162.82,-86.523 171.065,-93.1762 173.414,-86.5823"/>
</g>
<!-- Node7 -->
<g id="node7" class="node"><title>Node7</title>
<polygon fill="white" stroke="#bfbfbf" points="300.961,-62 300.961,-81 383.961,-81 383.961,-62 300.961,-62"/>
<text text-anchor="middle" x="342.461" y="-69" font-family="Helvetica,sans-Serif" font-size="10.00">unordered_map</text>
</g>
<!-- Node6&#45;&gt;Node7 -->
<g id="edge10" class="edge"><title>Node6&#45;&gt;Node7</title>
<path fill="none" stroke="midnightblue" d="M297.911,-123.475C305.789,-114.462 318.406,-100.025 328.205,-88.8118"/>
<polygon fill="midnightblue" stroke="midnightblue" points="331.079,-90.842 335.024,-81.0091 325.808,-86.2356 331.079,-90.842"/>
</g>
<!-- Node8 -->
<g id="node8" class="node"><title>Node8</title>
<g id="a_node8"><a xlink:href="_subject_8h.html" target="_top" xlink:title="Pattern/Subject.h">
<polygon fill="white" stroke="black" points="190.461,-62 190.461,-81 282.461,-81 282.461,-62 190.461,-62"/>
<text text-anchor="middle" x="236.461" y="-69" font-family="Helvetica,sans-Serif" font-size="10.00">Pattern/Subject.h</text>
</a>
</g>
</g>
<!-- Node6&#45;&gt;Node8 -->
<g id="edge11" class="edge"><title>Node6&#45;&gt;Node8</title>
<path fill="none" stroke="midnightblue" d="M282.724,-123.475C274.464,-114.373 261.184,-99.741 250.967,-88.483"/>
<polygon fill="midnightblue" stroke="midnightblue" points="253.496,-86.0619 244.184,-81.0091 248.312,-90.7663 253.496,-86.0619"/>
</g>
<!-- Node9 -->
<g id="node9" class="node"><title>Node9</title>
<g id="a_node9"><a xlink:href="_observer_8h.html" target="_top" xlink:title="Observer.h">
<polygon fill="white" stroke="black" points="204.961,-0.5 204.961,-19.5 267.961,-19.5 267.961,-0.5 204.961,-0.5"/>
<text text-anchor="middle" x="236.461" y="-7.5" font-family="Helvetica,sans-Serif" font-size="10.00">Observer.h</text>
</a>
</g>
</g>
<!-- Node8&#45;&gt;Node9 -->
<g id="edge12" class="edge"><title>Node8&#45;&gt;Node9</title>
<path fill="none" stroke="midnightblue" d="M231.56,-61.9751C229.729,-53.5803 229.258,-40.4806 230.146,-29.6631"/>
<polygon fill="midnightblue" stroke="midnightblue" points="233.647,-29.897 231.564,-19.5091 226.715,-28.929 233.647,-29.897"/>
</g>
<!-- Node10 -->
<g id="node10" class="node"><title>Node10</title>
<polygon fill="white" stroke="#bfbfbf" points="338.461,-0.5 338.461,-19.5 380.461,-19.5 380.461,-0.5 338.461,-0.5"/>
<text text-anchor="middle" x="359.461" y="-7.5" font-family="Helvetica,sans-Serif" font-size="10.00">vector</text>
</g>
<!-- Node8&#45;&gt;Node10 -->
<g id="edge14" class="edge"><title>Node8&#45;&gt;Node10</title>
<path fill="none" stroke="midnightblue" d="M254.084,-61.9751C274.635,-52.0338 308.825,-35.4947 332.668,-23.961"/>
<polygon fill="midnightblue" stroke="midnightblue" points="334.393,-27.0145 341.871,-19.5091 331.345,-20.7131 334.393,-27.0145"/>
</g>
<!-- Node9&#45;&gt;Node8 -->
<g id="edge13" class="edge"><title>Node9&#45;&gt;Node8</title>
<path fill="none" stroke="midnightblue" d="M241.358,-19.5091C243.191,-27.898 243.664,-40.9962 242.778,-51.8165"/>
<polygon fill="midnightblue" stroke="midnightblue" points="239.276,-51.5876 241.362,-61.9751 246.209,-52.554 239.276,-51.5876"/>
</g>
<!-- Node11&#45;&gt;Node3 -->
<g id="edge17" class="edge"><title>Node11&#45;&gt;Node3</title>
<path fill="none" stroke="midnightblue" d="M58.3499,-123.475C68.5469,-115.492 84.1784,-103.254 97.5695,-92.7703"/>
<polygon fill="midnightblue" stroke="midnightblue" points="99.8329,-95.4434 105.549,-86.523 95.5177,-89.9316 99.8329,-95.4434"/>
</g>
<!-- Node12 -->
<g id="node12" class="node"><title>Node12</title>
<polygon fill="white" stroke="#bfbfbf" points="12.461,-62 12.461,-81 56.461,-81 56.461,-62 12.461,-62"/>
<text text-anchor="middle" x="34.461" y="-69" font-family="Helvetica,sans-Serif" font-size="10.00">mutex</text>
</g>
<!-- Node11&#45;&gt;Node12 -->
<g id="edge16" class="edge"><title>Node11&#45;&gt;Node12</title>
<path fill="none" stroke="midnightblue" d="M45.5984,-123.475C43.7449,-114.992 40.8418,-101.704 38.4642,-90.8222"/>
<polygon fill="midnightblue" stroke="midnightblue" points="41.8741,-90.0315 36.3201,-81.0091 35.0354,-91.5257 41.8741,-90.0315"/>
</g>
<!-- Node13&#45;&gt;Node3 -->
<g id="edge20" class="edge"><title>Node13&#45;&gt;Node3</title>
<path fill="none" stroke="midnightblue" d="M352.318,-123.425C311.137,-115.129 247.108,-101.943 182.439,-87.178"/>
<polygon fill="midnightblue" stroke="midnightblue" points="183.007,-83.7175 172.477,-84.8921 181.441,-90.5402 183.007,-83.7175"/>
</g>
<!-- Node13&#45;&gt;Node10 -->
<g id="edge21" class="edge"><title>Node13&#45;&gt;Node10</title>
<path fill="none" stroke="midnightblue" d="M396.913,-123.258C398.952,-108.792 401.571,-79.1718 393.461,-56 389.716,-45.2995 382.404,-35.0734 375.517,-27.0813"/>
<polygon fill="midnightblue" stroke="midnightblue" points="378.01,-24.6216 368.662,-19.6351 372.86,-29.3627 378.01,-24.6216"/>
</g>
</g>
</svg>
