<?xml version="1.0" encoding="UTF-8" standalone="no"?>
<!DOCTYPE svg PUBLIC "-//W3C//DTD SVG 1.1//EN"
 "http://www.w3.org/Graphics/SVG/1.1/DTD/svg11.dtd">
<!-- Generated by graphviz version 2.38.0 (20140413.2041)
 -->
<!-- Title: Q:/Documents/GitHub/MIDI2LR/Source/ProfileManager.h Pages: 1 -->
<svg width="496pt" height="274pt"
 viewBox="0.00 0.00 496.12 274.00" xmlns="http://www.w3.org/2000/svg" xmlns:xlink="http://www.w3.org/1999/xlink">
<g id="graph0" class="graph" transform="scale(1 1) rotate(0) translate(4 270)">
<title>Q:/Documents/GitHub/MIDI2LR/Source/ProfileManager.h</title>
<polygon fill="white" stroke="none" points="-4,4 -4,-270 492.121,-270 492.121,4 -4,4"/>
<!-- Node1 -->
<g id="node1" class="node"><title>Node1</title>
<polygon fill="#bfbfbf" stroke="black" points="15.1208,-235.5 15.1208,-265.5 181.121,-265.5 181.121,-235.5 15.1208,-235.5"/>
<text text-anchor="start" x="23.1208" y="-253.5" font-family="Helvetica,sans-Serif" font-size="10.00">Q:/Documents/GitHub</text>
<text text-anchor="middle" x="98.1208" y="-242.5" font-family="Helvetica,sans-Serif" font-size="10.00">/MIDI2LR/Source/ProfileManager.h</text>
</g>
<!-- Node2 -->
<g id="node2" class="node"><title>Node2</title>
<polygon fill="white" stroke="#bfbfbf" points="66.1208,-56.5 66.1208,-86.5 164.121,-86.5 164.121,-56.5 66.1208,-56.5"/>
<text text-anchor="start" x="74.1208" y="-74.5" font-family="Helvetica,sans-Serif" font-size="10.00">../JuceLibraryCode</text>
<text text-anchor="middle" x="115.121" y="-63.5" font-family="Helvetica,sans-Serif" font-size="10.00">/JuceHeader.h</text>
</g>
<!-- Node1&#45;&gt;Node2 -->
<g id="edge1" class="edge"><title>Node1&#45;&gt;Node2</title>
<path fill="none" stroke="midnightblue" d="M74.804,-235.45C39.7397,-212.484 -19.7487,-165.226 7.12077,-123 18.2904,-105.447 37.3391,-93.8923 56.3575,-86.3321"/>
<polygon fill="midnightblue" stroke="midnightblue" points="57.76,-89.5462 65.9562,-82.8325 55.3622,-82.9696 57.76,-89.5462"/>
</g>
<!-- Node3 -->
<g id="node3" class="node"><title>Node3</title>
<g id="a_node3"><a xlink:href="_m_i_d_i_processor_8h.html" target="_top" xlink:title="MIDIProcessor.h">
<polygon fill="white" stroke="black" points="16.6208,-123.5 16.6208,-142.5 105.621,-142.5 105.621,-123.5 16.6208,-123.5"/>
<text text-anchor="middle" x="61.1208" y="-130.5" font-family="Helvetica,sans-Serif" font-size="10.00">MIDIProcessor.h</text>
</a>
</g>
</g>
<!-- Node1&#45;&gt;Node3 -->
<g id="edge2" class="edge"><title>Node1&#45;&gt;Node3</title>
<path fill="none" stroke="midnightblue" d="M93.5838,-235.337C86.887,-214.433 74.3541,-175.31 66.9734,-152.27"/>
<polygon fill="midnightblue" stroke="midnightblue" points="70.282,-151.125 63.898,-142.669 63.6157,-153.261 70.282,-151.125"/>
</g>
<!-- Node4 -->
<g id="node4" class="node"><title>Node4</title>
<g id="a_node4"><a xlink:href="_l_r___i_p_c___out_8h.html" target="_top" xlink:title="LR_IPC_OUT.h">
<polygon fill="white" stroke="black" points="92.6208,-179.5 92.6208,-198.5 175.621,-198.5 175.621,-179.5 92.6208,-179.5"/>
<text text-anchor="middle" x="134.121" y="-186.5" font-family="Helvetica,sans-Serif" font-size="10.00">LR_IPC_OUT.h</text>
</a>
</g>
</g>
<!-- Node1&#45;&gt;Node4 -->
<g id="edge4" class="edge"><title>Node1&#45;&gt;Node4</title>
<path fill="none" stroke="midnightblue" d="M106.652,-235.399C111.722,-227.021 118.192,-216.327 123.579,-207.423"/>
<polygon fill="midnightblue" stroke="midnightblue" points="126.7,-209.025 128.882,-198.658 120.711,-205.402 126.7,-209.025"/>
</g>
<!-- Node5 -->
<g id="node5" class="node"><title>Node5</title>
<g id="a_node5"><a xlink:href="_command_map_8h.html" target="_top" xlink:title="CommandMap.h">
<polygon fill="white" stroke="black" points="250.121,-123.5 250.121,-142.5 338.121,-142.5 338.121,-123.5 250.121,-123.5"/>
<text text-anchor="middle" x="294.121" y="-130.5" font-family="Helvetica,sans-Serif" font-size="10.00">CommandMap.h</text>
</a>
</g>
</g>
<!-- Node1&#45;&gt;Node5 -->
<g id="edge17" class="edge"><title>Node1&#45;&gt;Node5</title>
<path fill="none" stroke="midnightblue" d="M122.227,-235.369C139.473,-225.253 163.235,-211.303 184.121,-199 214.056,-181.366 248.537,-160.979 270.795,-147.808"/>
<polygon fill="midnightblue" stroke="midnightblue" points="272.714,-150.74 279.538,-142.634 269.149,-144.715 272.714,-150.74"/>
</g>
<!-- Node3&#45;&gt;Node2 -->
<g id="edge3" class="edge"><title>Node3&#45;&gt;Node2</title>
<path fill="none" stroke="midnightblue" d="M68.8577,-123.475C75.8294,-115.793 86.3767,-104.172 95.6406,-93.9643"/>
<polygon fill="midnightblue" stroke="midnightblue" points="98.2652,-96.2802 102.394,-86.523 93.0817,-91.5758 98.2652,-96.2802"/>
</g>
<!-- Node4&#45;&gt;Node2 -->
<g id="edge5" class="edge"><title>Node4&#45;&gt;Node2</title>
<path fill="none" stroke="midnightblue" d="M132.693,-179.319C129.838,-161.967 123.339,-122.457 119.095,-96.6579"/>
<polygon fill="midnightblue" stroke="midnightblue" points="122.508,-95.8445 117.431,-86.5453 115.601,-96.9808 122.508,-95.8445"/>
</g>
<!-- Node4&#45;&gt;Node3 -->
<g id="edge6" class="edge"><title>Node4&#45;&gt;Node3</title>
<path fill="none" stroke="midnightblue" d="M122.392,-179.324C111.283,-171.107 94.3786,-158.602 81.1374,-148.807"/>
<polygon fill="midnightblue" stroke="midnightblue" points="83.1839,-145.967 73.0629,-142.834 79.0209,-151.595 83.1839,-145.967"/>
</g>
<!-- Node4&#45;&gt;Node5 -->
<g id="edge7" class="edge"><title>Node4&#45;&gt;Node5</title>
<path fill="none" stroke="midnightblue" d="M159.473,-179.444C186.39,-170.359 229.117,-155.939 259.208,-145.783"/>
<polygon fill="midnightblue" stroke="midnightblue" points="260.531,-149.031 268.887,-142.516 258.293,-142.398 260.531,-149.031"/>
</g>
<!-- Node10 -->
<g id="node10" class="node"><title>Node10</title>
<g id="a_node10"><a xlink:href="_send_keys_8h.html" target="_top" xlink:title="SendKeys.h">
<polygon fill="white" stroke="black" points="162.121,-123.5 162.121,-142.5 232.121,-142.5 232.121,-123.5 162.121,-123.5"/>
<text text-anchor="middle" x="197.121" y="-130.5" font-family="Helvetica,sans-Serif" font-size="10.00">SendKeys.h</text>
</a>
</g>
</g>
<!-- Node4&#45;&gt;Node10 -->
<g id="edge14" class="edge"><title>Node4&#45;&gt;Node10</title>
<path fill="none" stroke="midnightblue" d="M144.243,-179.324C153.647,-171.263 167.865,-159.077 179.19,-149.369"/>
<polygon fill="midnightblue" stroke="midnightblue" points="181.5,-151.999 186.815,-142.834 176.944,-146.684 181.5,-151.999"/>
</g>
<!-- Node5&#45;&gt;Node2 -->
<g id="edge8" class="edge"><title>Node5&#45;&gt;Node2</title>
<path fill="none" stroke="midnightblue" d="M268.474,-123.475C242.079,-114.701 200.222,-100.788 166.902,-89.7123"/>
<polygon fill="midnightblue" stroke="midnightblue" points="167.901,-86.356 157.308,-86.523 165.693,-92.9987 167.901,-86.356"/>
</g>
<!-- Node6 -->
<g id="node6" class="node"><title>Node6</title>
<polygon fill="white" stroke="#bfbfbf" points="248.621,-62 248.621,-81 331.621,-81 331.621,-62 248.621,-62"/>
<text text-anchor="middle" x="290.121" y="-69" font-family="Helvetica,sans-Serif" font-size="10.00">unordered_map</text>
</g>
<!-- Node5&#45;&gt;Node6 -->
<g id="edge9" class="edge"><title>Node5&#45;&gt;Node6</title>
<path fill="none" stroke="midnightblue" d="M293.548,-123.475C292.983,-115.08 292.103,-101.981 291.375,-91.1631"/>
<polygon fill="midnightblue" stroke="midnightblue" points="294.856,-90.7518 290.693,-81.0091 287.872,-91.2214 294.856,-90.7518"/>
</g>
<!-- Node7 -->
<g id="node7" class="node"><title>Node7</title>
<g id="a_node7"><a xlink:href="_subject_8h.html" target="_top" xlink:title="Pattern/Subject.h">
<polygon fill="white" stroke="black" points="350.121,-62 350.121,-81 442.121,-81 442.121,-62 350.121,-62"/>
<text text-anchor="middle" x="396.121" y="-69" font-family="Helvetica,sans-Serif" font-size="10.00">Pattern/Subject.h</text>
</a>
</g>
</g>
<!-- Node5&#45;&gt;Node7 -->
<g id="edge10" class="edge"><title>Node5&#45;&gt;Node7</title>
<path fill="none" stroke="midnightblue" d="M308.735,-123.475C325.474,-113.711 353.125,-97.5807 372.839,-86.0808"/>
<polygon fill="midnightblue" stroke="midnightblue" points="374.66,-89.0711 381.534,-81.0091 371.132,-83.0246 374.66,-89.0711"/>
</g>
<!-- Node8 -->
<g id="node8" class="node"><title>Node8</title>
<g id="a_node8"><a xlink:href="_observer_8h.html" target="_top" xlink:title="Observer.h">
<polygon fill="white" stroke="black" points="364.621,-0.5 364.621,-19.5 427.621,-19.5 427.621,-0.5 364.621,-0.5"/>
<text text-anchor="middle" x="396.121" y="-7.5" font-family="Helvetica,sans-Serif" font-size="10.00">Observer.h</text>
</a>
</g>
</g>
<!-- Node7&#45;&gt;Node8 -->
<g id="edge11" class="edge"><title>Node7&#45;&gt;Node8</title>
<path fill="none" stroke="midnightblue" d="M391.22,-61.9751C389.389,-53.5803 388.918,-40.4806 389.806,-29.6631"/>
<polygon fill="midnightblue" stroke="midnightblue" points="393.307,-29.897 391.224,-19.5091 386.374,-28.929 393.307,-29.897"/>
</g>
<!-- Node9 -->
<g id="node9" class="node"><title>Node9</title>
<polygon fill="white" stroke="#bfbfbf" points="446.121,-0.5 446.121,-19.5 488.121,-19.5 488.121,-0.5 446.121,-0.5"/>
<text text-anchor="middle" x="467.121" y="-7.5" font-family="Helvetica,sans-Serif" font-size="10.00">vector</text>
</g>
<!-- Node7&#45;&gt;Node9 -->
<g id="edge13" class="edge"><title>Node7&#45;&gt;Node9</title>
<path fill="none" stroke="midnightblue" d="M406.293,-61.9751C417.471,-52.6082 435.637,-37.3839 449.212,-26.0081"/>
<polygon fill="midnightblue" stroke="midnightblue" points="451.551,-28.6148 456.967,-19.5091 447.054,-23.2496 451.551,-28.6148"/>
</g>
<!-- Node8&#45;&gt;Node7 -->
<g id="edge12" class="edge"><title>Node8&#45;&gt;Node7</title>
<path fill="none" stroke="midnightblue" d="M401.018,-19.5091C402.851,-27.898 403.324,-40.9962 402.437,-51.8165"/>
<polygon fill="midnightblue" stroke="midnightblue" points="398.935,-51.5876 401.021,-61.9751 405.868,-52.554 398.935,-51.5876"/>
</g>
<!-- Node10&#45;&gt;Node2 -->
<g id="edge16" class="edge"><title>Node10&#45;&gt;Node2</title>
<path fill="none" stroke="midnightblue" d="M185.372,-123.475C174.266,-115.417 157.186,-103.023 142.648,-92.4741"/>
<polygon fill="midnightblue" stroke="midnightblue" points="144.596,-89.5631 134.447,-86.523 140.485,-95.2287 144.596,-89.5631"/>
</g>
<!-- Node11 -->
<g id="node11" class="node"><title>Node11</title>
<polygon fill="white" stroke="#bfbfbf" points="182.121,-62 182.121,-81 226.121,-81 226.121,-62 182.121,-62"/>
<text text-anchor="middle" x="204.121" y="-69" font-family="Helvetica,sans-Serif" font-size="10.00">mutex</text>
</g>
<!-- Node10&#45;&gt;Node11 -->
<g id="edge15" class="edge"><title>Node10&#45;&gt;Node11</title>
<path fill="none" stroke="midnightblue" d="M198.124,-123.475C199.111,-115.08 200.652,-101.981 201.925,-91.1631"/>
<polygon fill="midnightblue" stroke="midnightblue" points="205.427,-91.3496 203.12,-81.0091 198.475,-90.5316 205.427,-91.3496"/>
</g>
</g>
</svg>
