<?xml version="1.0" encoding="UTF-8" standalone="no"?>
<!DOCTYPE svg PUBLIC "-//W3C//DTD SVG 1.1//EN"
 "http://www.w3.org/Graphics/SVG/1.1/DTD/svg11.dtd">
<!-- Generated by graphviz version 2.38.0 (20140413.2041)
 -->
<!-- Title: Q:/Documents/GitHub/MIDI2LR/Source/ProfileManager.h Pages: 1 -->
<svg width="1053pt" height="318pt"
 viewBox="0.00 0.00 1052.53 318.00" xmlns="http://www.w3.org/2000/svg" xmlns:xlink="http://www.w3.org/1999/xlink">
<g id="graph0" class="graph" transform="scale(1 1) rotate(0) translate(4 314)">
<title>Q:/Documents/GitHub/MIDI2LR/Source/ProfileManager.h</title>
<polygon fill="white" stroke="none" points="-4,4 -4,-314 1048.53,-314 1048.53,4 -4,4"/>
<!-- Node1 -->
<g id="node1" class="node"><title>Node1</title>
<polygon fill="#bfbfbf" stroke="black" points="522.026,-279.5 522.026,-309.5 688.026,-309.5 688.026,-279.5 522.026,-279.5"/>
<text text-anchor="start" x="530.026" y="-297.5" font-family="Helvetica,sans-Serif" font-size="10.00">Q:/Documents/GitHub</text>
<text text-anchor="middle" x="605.026" y="-286.5" font-family="Helvetica,sans-Serif" font-size="10.00">/MIDI2LR/Source/ProfileManager.h</text>
</g>
<!-- Node2 -->
<g id="node2" class="node"><title>Node2</title>
<g id="a_node2"><a xlink:href="_l_r___i_p_c___in_8h.html" target="_top" xlink:title="Q:/Documents/GitHub\l/MIDI2LR/Source/LR_IPC_In.h">
<polygon fill="white" stroke="black" points="97.5256,-212.5 97.5256,-242.5 244.526,-242.5 244.526,-212.5 97.5256,-212.5"/>
<text text-anchor="start" x="105.526" y="-230.5" font-family="Helvetica,sans-Serif" font-size="10.00">Q:/Documents/GitHub</text>
<text text-anchor="middle" x="171.026" y="-219.5" font-family="Helvetica,sans-Serif" font-size="10.00">/MIDI2LR/Source/LR_IPC_In.h</text>
</a>
</g>
</g>
<!-- Node1&#45;&gt;Node2 -->
<g id="edge1" class="edge"><title>Node1&#45;&gt;Node2</title>
<path fill="none" stroke="midnightblue" d="M511.806,-279.539C431.969,-267.581 318.547,-250.594 244.873,-239.56"/>
<polygon fill="midnightblue" stroke="midnightblue" points="511.451,-283.024 521.86,-281.044 512.488,-276.102 511.451,-283.024"/>
</g>
<!-- Node4 -->
<g id="node4" class="node"><title>Node4</title>
<g id="a_node4"><a xlink:href="_main_component_8h.html" target="_top" xlink:title="Q:/Documents/GitHub\l/MIDI2LR/Source/MainComponent.h">
<polygon fill="white" stroke="black" points="199.026,-140 199.026,-170 371.026,-170 371.026,-140 199.026,-140"/>
<text text-anchor="start" x="207.026" y="-158" font-family="Helvetica,sans-Serif" font-size="10.00">Q:/Documents/GitHub</text>
<text text-anchor="middle" x="285.026" y="-147" font-family="Helvetica,sans-Serif" font-size="10.00">/MIDI2LR/Source/MainComponent.h</text>
</a>
</g>
</g>
<!-- Node1&#45;&gt;Node4 -->
<g id="edge11" class="edge"><title>Node1&#45;&gt;Node4</title>
<path fill="none" stroke="midnightblue" d="M562.815,-275.362C498.28,-247.633 376.433,-195.276 317.96,-170.152"/>
<polygon fill="midnightblue" stroke="midnightblue" points="561.714,-278.699 572.284,-279.431 564.478,-272.268 561.714,-278.699"/>
</g>
<!-- Node9 -->
<g id="node9" class="node"><title>Node9</title>
<g id="a_node9"><a xlink:href="_settings_manager_8h.html" target="_top" xlink:title="Q:/Documents/GitHub\l/MIDI2LR/Source/SettingsManager.h">
<polygon fill="white" stroke="black" points="517.526,-212.5 517.526,-242.5 692.526,-242.5 692.526,-212.5 517.526,-212.5"/>
<text text-anchor="start" x="525.526" y="-230.5" font-family="Helvetica,sans-Serif" font-size="10.00">Q:/Documents/GitHub</text>
<text text-anchor="middle" x="605.026" y="-219.5" font-family="Helvetica,sans-Serif" font-size="10.00">/MIDI2LR/Source/SettingsManager.h</text>
</a>
</g>
</g>
<!-- Node1&#45;&gt;Node9 -->
<g id="edge12" class="edge"><title>Node1&#45;&gt;Node9</title>
<path fill="none" stroke="midnightblue" d="M605.026,-269.108C605.026,-260.154 605.026,-250.323 605.026,-242.577"/>
<polygon fill="midnightblue" stroke="midnightblue" points="601.526,-269.396 605.026,-279.396 608.526,-269.396 601.526,-269.396"/>
</g>
<!-- Node14 -->
<g id="node14" class="node"><title>Node14</title>
<g id="a_node14"><a xlink:href="_settings_manager_8cpp.html" target="_top" xlink:title="Q:/Documents/GitHub\l/MIDI2LR/Source/SettingsManager.cpp">
<polygon fill="white" stroke="black" points="859.526,-140 859.526,-170 1044.53,-170 1044.53,-140 859.526,-140"/>
<text text-anchor="start" x="867.526" y="-158" font-family="Helvetica,sans-Serif" font-size="10.00">Q:/Documents/GitHub</text>
<text text-anchor="middle" x="952.026" y="-147" font-family="Helvetica,sans-Serif" font-size="10.00">/MIDI2LR/Source/SettingsManager.cpp</text>
</a>
</g>
</g>
<!-- Node1&#45;&gt;Node14 -->
<g id="edge24" class="edge"><title>Node1&#45;&gt;Node14</title>
<path fill="none" stroke="midnightblue" d="M644.22,-274.975C662,-266.047 683.027,-254.739 701.026,-243 719.572,-230.904 720.234,-221.928 740.026,-212 765.716,-199.114 834.858,-181.946 887.254,-170.031"/>
<polygon fill="midnightblue" stroke="midnightblue" points="642.66,-271.842 635.252,-279.417 645.767,-278.115 642.66,-271.842"/>
</g>
<!-- Node15 -->
<g id="node15" class="node"><title>Node15</title>
<g id="a_node15"><a xlink:href="_profile_manager_8cpp.html" target="_top" xlink:title="Q:/Documents/GitHub\l/MIDI2LR/Source/ProfileManager.cpp">
<polygon fill="white" stroke="black" points="749.026,-212.5 749.026,-242.5 925.026,-242.5 925.026,-212.5 749.026,-212.5"/>
<text text-anchor="start" x="757.026" y="-230.5" font-family="Helvetica,sans-Serif" font-size="10.00">Q:/Documents/GitHub</text>
<text text-anchor="middle" x="837.026" y="-219.5" font-family="Helvetica,sans-Serif" font-size="10.00">/MIDI2LR/Source/ProfileManager.cpp</text>
</a>
</g>
</g>
<!-- Node1&#45;&gt;Node15 -->
<g id="edge23" class="edge"><title>Node1&#45;&gt;Node15</title>
<path fill="none" stroke="midnightblue" d="M664.935,-276.715C702.689,-266.137 750.883,-252.635 786.661,-242.611"/>
<polygon fill="midnightblue" stroke="midnightblue" points="663.765,-273.408 655.081,-279.476 665.654,-280.148 663.765,-273.408"/>
</g>
<!-- Node3 -->
<g id="node3" class="node"><title>Node3</title>
<g id="a_node3"><a xlink:href="_l_r___i_p_c___in_8cpp.html" target="_top" xlink:title="Q:/Documents/GitHub\l/MIDI2LR/Source/LR_IPC\l_In.cpp">
<polygon fill="white" stroke="black" points="17.0256,-134.5 17.0256,-175.5 143.026,-175.5 143.026,-134.5 17.0256,-134.5"/>
<text text-anchor="start" x="25.0256" y="-163.5" font-family="Helvetica,sans-Serif" font-size="10.00">Q:/Documents/GitHub</text>
<text text-anchor="start" x="25.0256" y="-152.5" font-family="Helvetica,sans-Serif" font-size="10.00">/MIDI2LR/Source/LR_IPC</text>
<text text-anchor="middle" x="80.0256" y="-141.5" font-family="Helvetica,sans-Serif" font-size="10.00">_In.cpp</text>
</a>
</g>
</g>
<!-- Node2&#45;&gt;Node3 -->
<g id="edge2" class="edge"><title>Node2&#45;&gt;Node3</title>
<path fill="none" stroke="midnightblue" d="M144.478,-205.933C132.125,-196.363 117.502,-185.034 105.31,-175.588"/>
<polygon fill="midnightblue" stroke="midnightblue" points="142.562,-208.876 152.61,-212.233 146.849,-203.342 142.562,-208.876"/>
</g>
<!-- Node2&#45;&gt;Node4 -->
<g id="edge3" class="edge"><title>Node2&#45;&gt;Node4</title>
<path fill="none" stroke="midnightblue" d="M202.425,-207.082C221.385,-195.357 245.115,-180.682 262.27,-170.073"/>
<polygon fill="midnightblue" stroke="midnightblue" points="200.485,-204.166 193.821,-212.403 204.167,-210.12 200.485,-204.166"/>
</g>
<!-- Node5 -->
<g id="node5" class="node"><title>Node5</title>
<g id="a_node5"><a xlink:href="_main_8cpp.html" target="_top" xlink:title="Q:/Documents/GitHub\l/MIDI2LR/Source/Main.cpp">
<polygon fill="white" stroke="black" points="507.526,-0.5 507.526,-30.5 640.526,-30.5 640.526,-0.5 507.526,-0.5"/>
<text text-anchor="start" x="515.526" y="-18.5" font-family="Helvetica,sans-Serif" font-size="10.00">Q:/Documents/GitHub</text>
<text text-anchor="middle" x="574.026" y="-7.5" font-family="Helvetica,sans-Serif" font-size="10.00">/MIDI2LR/Source/Main.cpp</text>
</a>
</g>
</g>
<!-- Node2&#45;&gt;Node5 -->
<g id="edge9" class="edge"><title>Node2&#45;&gt;Node5</title>
<path fill="none" stroke="midnightblue" d="M87.159,-220.675C57.2882,-214.064 26.5026,-201.068 8.02563,-176 -3.04971,-160.974 -2.1509,-149.649 8.02563,-134 62.0545,-50.9183 369.595,-26.0944 507.329,-19.0877"/>
<polygon fill="midnightblue" stroke="midnightblue" points="86.744,-224.161 97.2349,-222.681 88.1105,-217.296 86.744,-224.161"/>
</g>
<!-- Node8 -->
<g id="node8" class="node"><title>Node8</title>
<g id="a_node8"><a xlink:href="_main_component_8cpp.html" target="_top" xlink:title="Q:/Documents/GitHub\l/MIDI2LR/Source/MainComponent.cpp">
<polygon fill="white" stroke="black" points="179.026,-67.5 179.026,-97.5 361.026,-97.5 361.026,-67.5 179.026,-67.5"/>
<text text-anchor="start" x="187.026" y="-85.5" font-family="Helvetica,sans-Serif" font-size="10.00">Q:/Documents/GitHub</text>
<text text-anchor="middle" x="270.026" y="-74.5" font-family="Helvetica,sans-Serif" font-size="10.00">/MIDI2LR/Source/MainComponent.cpp</text>
</a>
</g>
</g>
<!-- Node2&#45;&gt;Node8 -->
<g id="edge10" class="edge"><title>Node2&#45;&gt;Node8</title>
<path fill="none" stroke="midnightblue" d="M170.918,-202.196C171.953,-182.258 176.097,-154.136 190.026,-134 201.145,-117.926 219.213,-105.883 235.367,-97.598"/>
<polygon fill="midnightblue" stroke="midnightblue" points="167.416,-202.23 170.621,-212.328 174.413,-202.435 167.416,-202.23"/>
</g>
<!-- Node4&#45;&gt;Node5 -->
<g id="edge4" class="edge"><title>Node4&#45;&gt;Node5</title>
<path fill="none" stroke="midnightblue" d="M230.034,-136.324C189.37,-120.435 145.048,-95.2943 170.026,-67 191.953,-42.1606 398.483,-26.6167 507.438,-20.0768"/>
<polygon fill="midnightblue" stroke="midnightblue" points="228.843,-139.616 239.435,-139.866 231.311,-133.065 228.843,-139.616"/>
</g>
<!-- Node6 -->
<g id="node6" class="node"><title>Node6</title>
<g id="a_node6"><a xlink:href="_main_window_8h.html" target="_top" xlink:title="Q:/Documents/GitHub\l/MIDI2LR/Source/MainWindow.h">
<polygon fill="white" stroke="black" points="633.526,-67.5 633.526,-97.5 790.526,-97.5 790.526,-67.5 633.526,-67.5"/>
<text text-anchor="start" x="641.526" y="-85.5" font-family="Helvetica,sans-Serif" font-size="10.00">Q:/Documents/GitHub</text>
<text text-anchor="middle" x="712.026" y="-74.5" font-family="Helvetica,sans-Serif" font-size="10.00">/MIDI2LR/Source/MainWindow.h</text>
</a>
</g>
</g>
<!-- Node4&#45;&gt;Node6 -->
<g id="edge5" class="edge"><title>Node4&#45;&gt;Node6</title>
<path fill="none" stroke="midnightblue" d="M359.463,-137.911C366.404,-136.537 373.34,-135.211 380.026,-134 466.364,-118.358 565.932,-103.654 633.334,-94.1913"/>
<polygon fill="midnightblue" stroke="midnightblue" points="358.431,-134.548 349.317,-139.951 359.811,-141.411 358.431,-134.548"/>
</g>
<!-- Node4&#45;&gt;Node8 -->
<g id="edge8" class="edge"><title>Node4&#45;&gt;Node8</title>
<path fill="none" stroke="midnightblue" d="M279.862,-129.732C277.593,-119.068 275.007,-106.914 273.057,-97.7455"/>
<polygon fill="midnightblue" stroke="midnightblue" points="276.486,-130.681 281.99,-139.733 283.332,-129.224 276.486,-130.681"/>
</g>
<!-- Node6&#45;&gt;Node5 -->
<g id="edge6" class="edge"><title>Node6&#45;&gt;Node5</title>
<path fill="none" stroke="midnightblue" d="M673.026,-63.1305C651.099,-52.8025 624.152,-40.1103 603.911,-30.5765"/>
<polygon fill="midnightblue" stroke="midnightblue" points="671.544,-66.3011 682.082,-67.396 674.526,-59.9684 671.544,-66.3011"/>
</g>
<!-- Node7 -->
<g id="node7" class="node"><title>Node7</title>
<g id="a_node7"><a xlink:href="_main_window_8cpp.html" target="_top" xlink:title="Q:/Documents/GitHub\l/MIDI2LR/Source/MainWindow.cpp">
<polygon fill="white" stroke="black" points="658.526,-0.5 658.526,-30.5 825.526,-30.5 825.526,-0.5 658.526,-0.5"/>
<text text-anchor="start" x="666.526" y="-18.5" font-family="Helvetica,sans-Serif" font-size="10.00">Q:/Documents/GitHub</text>
<text text-anchor="middle" x="742.026" y="-7.5" font-family="Helvetica,sans-Serif" font-size="10.00">/MIDI2LR/Source/MainWindow.cpp</text>
</a>
</g>
</g>
<!-- Node6&#45;&gt;Node7 -->
<g id="edge7" class="edge"><title>Node6&#45;&gt;Node7</title>
<path fill="none" stroke="midnightblue" d="M722.741,-58.2835C727.015,-49.0223 731.796,-38.6632 735.529,-30.5765"/>
<polygon fill="midnightblue" stroke="midnightblue" points="719.548,-56.8496 718.535,-67.396 725.904,-59.7831 719.548,-56.8496"/>
</g>
<!-- Node9&#45;&gt;Node4 -->
<g id="edge13" class="edge"><title>Node9&#45;&gt;Node4</title>
<path fill="none" stroke="midnightblue" d="M531.354,-210.269C476.166,-198.111 401.418,-181.643 348.783,-170.047"/>
<polygon fill="midnightblue" stroke="midnightblue" points="530.902,-213.754 541.421,-212.487 532.409,-206.918 530.902,-213.754"/>
</g>
<!-- Node9&#45;&gt;Node5 -->
<g id="edge18" class="edge"><title>Node9&#45;&gt;Node5</title>
<path fill="none" stroke="midnightblue" d="M602.682,-202.373C599.483,-171.048 593.2,-114.736 585.026,-67 582.905,-54.6181 579.814,-40.6758 577.448,-30.5828"/>
<polygon fill="midnightblue" stroke="midnightblue" points="599.202,-202.755 603.683,-212.355 606.167,-202.056 599.202,-202.755"/>
</g>
<!-- Node9&#45;&gt;Node6 -->
<g id="edge17" class="edge"><title>Node9&#45;&gt;Node6</title>
<path fill="none" stroke="midnightblue" d="M617.318,-203.383C628.038,-184.068 644.57,-156.199 662.026,-134 672.397,-120.81 685.86,-107.382 696.203,-97.6913"/>
<polygon fill="midnightblue" stroke="midnightblue" points="614.13,-201.919 612.406,-212.372 620.272,-205.275 614.13,-201.919"/>
</g>
<!-- Node10 -->
<g id="node10" class="node"><title>Node10</title>
<g id="a_node10"><a xlink:href="_version_checker_8h.html" target="_top" xlink:title="Q:/Documents/GitHub\l/MIDI2LR/Source/VersionChecker.h">
<polygon fill="white" stroke="black" points="671.026,-140 671.026,-170 841.026,-170 841.026,-140 671.026,-140"/>
<text text-anchor="start" x="679.026" y="-158" font-family="Helvetica,sans-Serif" font-size="10.00">Q:/Documents/GitHub</text>
<text text-anchor="middle" x="756.026" y="-147" font-family="Helvetica,sans-Serif" font-size="10.00">/MIDI2LR/Source/VersionChecker.h</text>
</a>
</g>
</g>
<!-- Node9&#45;&gt;Node10 -->
<g id="edge14" class="edge"><title>Node9&#45;&gt;Node10</title>
<path fill="none" stroke="midnightblue" d="M644.585,-208.03C670.017,-196.156 702.545,-180.97 725.884,-170.073"/>
<polygon fill="midnightblue" stroke="midnightblue" points="642.8,-205.001 635.22,-212.403 645.762,-211.344 642.8,-205.001"/>
</g>
<!-- Node12 -->
<g id="node12" class="node"><title>Node12</title>
<g id="a_node12"><a xlink:href="_settings_component_8h.html" target="_top" xlink:title="Q:/Documents/GitHub\l/MIDI2LR/Source/SettingsComponent.h">
<polygon fill="white" stroke="black" points="389.526,-140 389.526,-170 576.526,-170 576.526,-140 389.526,-140"/>
<text text-anchor="start" x="397.526" y="-158" font-family="Helvetica,sans-Serif" font-size="10.00">Q:/Documents/GitHub</text>
<text text-anchor="middle" x="483.026" y="-147" font-family="Helvetica,sans-Serif" font-size="10.00">/MIDI2LR/Source/SettingsComponent.h</text>
</a>
</g>
</g>
<!-- Node9&#45;&gt;Node12 -->
<g id="edge19" class="edge"><title>Node9&#45;&gt;Node12</title>
<path fill="none" stroke="midnightblue" d="M571.972,-207.399C551.592,-195.622 525.903,-180.778 507.379,-170.073"/>
<polygon fill="midnightblue" stroke="midnightblue" points="570.221,-210.43 580.63,-212.403 573.723,-204.369 570.221,-210.43"/>
</g>
<!-- Node9&#45;&gt;Node14 -->
<g id="edge22" class="edge"><title>Node9&#45;&gt;Node14</title>
<path fill="none" stroke="midnightblue" d="M683.799,-210.496C743.748,-198.316 825.457,-181.715 882.889,-170.047"/>
<polygon fill="midnightblue" stroke="midnightblue" points="683.099,-207.066 673.997,-212.487 684.493,-213.926 683.099,-207.066"/>
</g>
<!-- Node10&#45;&gt;Node5 -->
<g id="edge15" class="edge"><title>Node10&#45;&gt;Node5</title>
<path fill="none" stroke="midnightblue" d="M779.387,-132.582C796.809,-114.004 815.055,-87.0263 799.026,-67 793.96,-60.6709 705.204,-42.1292 640.707,-29.3661"/>
<polygon fill="midnightblue" stroke="midnightblue" points="776.612,-130.411 772.074,-139.984 781.592,-135.331 776.612,-130.411"/>
</g>
<!-- Node11 -->
<g id="node11" class="node"><title>Node11</title>
<g id="a_node11"><a xlink:href="_version_checker_8cpp.html" target="_top" xlink:title="Q:/Documents/GitHub\l/MIDI2LR/Source/VersionChecker.cpp">
<polygon fill="white" stroke="black" points="847.526,-67.5 847.526,-97.5 1028.53,-97.5 1028.53,-67.5 847.526,-67.5"/>
<text text-anchor="start" x="855.526" y="-85.5" font-family="Helvetica,sans-Serif" font-size="10.00">Q:/Documents/GitHub</text>
<text text-anchor="middle" x="938.026" y="-74.5" font-family="Helvetica,sans-Serif" font-size="10.00">/MIDI2LR/Source/VersionChecker.cpp</text>
</a>
</g>
</g>
<!-- Node10&#45;&gt;Node11 -->
<g id="edge16" class="edge"><title>Node10&#45;&gt;Node11</title>
<path fill="none" stroke="midnightblue" d="M802.095,-136.155C832.974,-124.193 873.07,-108.662 901.696,-97.5729"/>
<polygon fill="midnightblue" stroke="midnightblue" points="800.479,-133.027 792.419,-139.903 803.008,-139.554 800.479,-133.027"/>
</g>
<!-- Node12&#45;&gt;Node8 -->
<g id="edge20" class="edge"><title>Node12&#45;&gt;Node8</title>
<path fill="none" stroke="midnightblue" d="M430.771,-136.705C394.455,-124.684 346.658,-108.864 312.646,-97.6069"/>
<polygon fill="midnightblue" stroke="midnightblue" points="430.096,-140.168 440.689,-139.987 432.295,-133.522 430.096,-140.168"/>
</g>
<!-- Node13 -->
<g id="node13" class="node"><title>Node13</title>
<g id="a_node13"><a xlink:href="_settings_component_8cpp.html" target="_top" xlink:title="Q:/Documents/GitHub\l/MIDI2LR/Source/SettingsComponent.cpp">
<polygon fill="white" stroke="black" points="379.526,-67.5 379.526,-97.5 576.526,-97.5 576.526,-67.5 379.526,-67.5"/>
<text text-anchor="start" x="387.526" y="-85.5" font-family="Helvetica,sans-Serif" font-size="10.00">Q:/Documents/GitHub</text>
<text text-anchor="middle" x="478.026" y="-74.5" font-family="Helvetica,sans-Serif" font-size="10.00">/MIDI2LR/Source/SettingsComponent.cpp</text>
</a>
</g>
</g>
<!-- Node12&#45;&gt;Node13 -->
<g id="edge21" class="edge"><title>Node12&#45;&gt;Node13</title>
<path fill="none" stroke="midnightblue" d="M481.304,-129.732C480.548,-119.068 479.686,-106.914 479.036,-97.7455"/>
<polygon fill="midnightblue" stroke="midnightblue" points="477.815,-130.006 482.014,-139.733 484.797,-129.511 477.815,-130.006"/>
</g>
</g>
</svg>
