<?xml version="1.0" encoding="UTF-8" standalone="no"?>
<!DOCTYPE svg PUBLIC "-//W3C//DTD SVG 1.1//EN"
 "http://www.w3.org/Graphics/SVG/1.1/DTD/svg11.dtd">
<!-- Generated by graphviz version 2.38.0 (20140413.2041)
 -->
<!-- Title: Q:/Documents/GitHub/MIDI2LR/Source/ResizableLayout.cpp Pages: 1 -->
<svg width="192pt" height="151pt"
 viewBox="0.00 0.00 192.00 151.00" xmlns="http://www.w3.org/2000/svg" xmlns:xlink="http://www.w3.org/1999/xlink">
<g id="graph0" class="graph" transform="scale(1 1) rotate(0) translate(4 147)">
<title>Q:/Documents/GitHub/MIDI2LR/Source/ResizableLayout.cpp</title>
<polygon fill="white" stroke="none" points="-4,4 -4,-147 188,-147 188,4 -4,4"/>
<!-- Node1 -->
<g id="node1" class="node"><title>Node1</title>
<polygon fill="#bfbfbf" stroke="black" points="0,-112.5 0,-142.5 184,-142.5 184,-112.5 0,-112.5"/>
<text text-anchor="start" x="8" y="-130.5" font-family="Helvetica,sans-Serif" font-size="10.00">Q:/Documents/GitHub</text>
<text text-anchor="middle" x="92" y="-119.5" font-family="Helvetica,sans-Serif" font-size="10.00">/MIDI2LR/Source/ResizableLayout.cpp</text>
</g>
<!-- Node2 -->
<g id="node2" class="node"><title>Node2</title>
<polygon fill="white" stroke="#bfbfbf" points="54,-0.5 54,-19.5 130,-19.5 130,-0.5 54,-0.5"/>
<text text-anchor="middle" x="92" y="-7.5" font-family="Helvetica,sans-Serif" font-size="10.00">JuceHeader.h</text>
</g>
<!-- Node1&#45;&gt;Node2 -->
<g id="edge1" class="edge"><title>Node1&#45;&gt;Node2</title>
<path fill="none" stroke="midnightblue" d="M84.1611,-112.314C77.2986,-98.1661 69.0005,-75.7545 73,-56 74.8931,-46.6493 78.7916,-36.8267 82.5674,-28.7526"/>
<polygon fill="midnightblue" stroke="midnightblue" points="85.7876,-30.1381 87.1241,-19.6279 79.5251,-27.0106 85.7876,-30.1381"/>
</g>
<!-- Node3 -->
<g id="node3" class="node"><title>Node3</title>
<g id="a_node3"><a xlink:href="_resizable_layout_8h.html" target="_top" xlink:title="ResizableLayout.h">
<polygon fill="white" stroke="black" points="82.5,-56.5 82.5,-75.5 179.5,-75.5 179.5,-56.5 82.5,-56.5"/>
<text text-anchor="middle" x="131" y="-63.5" font-family="Helvetica,sans-Serif" font-size="10.00">ResizableLayout.h</text>
</a>
</g>
</g>
<!-- Node1&#45;&gt;Node3 -->
<g id="edge2" class="edge"><title>Node1&#45;&gt;Node3</title>
<path fill="none" stroke="midnightblue" d="M101.242,-112.399C106.793,-103.932 113.893,-93.0991 119.766,-84.1393"/>
<polygon fill="midnightblue" stroke="midnightblue" points="122.77,-85.94 125.325,-75.6578 116.916,-82.1026 122.77,-85.94"/>
</g>
<!-- Node3&#45;&gt;Node2 -->
<g id="edge3" class="edge"><title>Node3&#45;&gt;Node2</title>
<path fill="none" stroke="midnightblue" d="M124.56,-56.083C119.051,-48.4554 110.969,-37.2645 104.235,-27.9408"/>
<polygon fill="midnightblue" stroke="midnightblue" points="107.013,-25.8087 98.3202,-19.7511 101.338,-29.9071 107.013,-25.8087"/>
</g>
</g>
</svg>
