<?xml version="1.0" encoding="UTF-8" standalone="no"?>
<!DOCTYPE svg PUBLIC "-//W3C//DTD SVG 1.1//EN"
 "http://www.w3.org/Graphics/SVG/1.1/DTD/svg11.dtd">
<!-- Generated by graphviz version 2.38.0 (20140413.2041)
 -->
<!-- Title: Q:/Documents/GitHub/MIDI2LR/Source/ResizableLayout.h Pages: 1 -->
<svg width="676pt" height="240pt"
 viewBox="0.00 0.00 676.00 240.00" xmlns="http://www.w3.org/2000/svg" xmlns:xlink="http://www.w3.org/1999/xlink">
<g id="graph0" class="graph" transform="scale(1 1) rotate(0) translate(4 236)">
<title>Q:/Documents/GitHub/MIDI2LR/Source/ResizableLayout.h</title>
<polygon fill="white" stroke="none" points="-4,4 -4,-236 672,-236 672,4 -4,4"/>
<!-- Node1 -->
<g id="node1" class="node"><title>Node1</title>
<polygon fill="#bfbfbf" stroke="black" points="285,-201.5 285,-231.5 458,-231.5 458,-201.5 285,-201.5"/>
<text text-anchor="start" x="293" y="-219.5" font-family="Helvetica,sans-Serif" font-size="10.00">Q:/Documents/GitHub</text>
<text text-anchor="middle" x="371.5" y="-208.5" font-family="Helvetica,sans-Serif" font-size="10.00">/MIDI2LR/Source/ResizableLayout.h</text>
</g>
<!-- Node2 -->
<g id="node2" class="node"><title>Node2</title>
<g id="a_node2"><a xlink:href="_main_component_8h.html" target="_top" xlink:title="Q:/Documents/GitHub\l/MIDI2LR/Source/MainComponent.h">
<polygon fill="white" stroke="black" points="87.5,-134.5 87.5,-164.5 259.5,-164.5 259.5,-134.5 87.5,-134.5"/>
<text text-anchor="start" x="95.5" y="-152.5" font-family="Helvetica,sans-Serif" font-size="10.00">Q:/Documents/GitHub</text>
<text text-anchor="middle" x="173.5" y="-141.5" font-family="Helvetica,sans-Serif" font-size="10.00">/MIDI2LR/Source/MainComponent.h</text>
</a>
</g>
</g>
<!-- Node1&#45;&gt;Node2 -->
<g id="edge1" class="edge"><title>Node1&#45;&gt;Node2</title>
<path fill="none" stroke="midnightblue" d="M318.886,-198.228C286.857,-187.713 246.458,-174.451 216.379,-164.577"/>
<polygon fill="midnightblue" stroke="midnightblue" points="317.944,-201.602 328.537,-201.396 320.128,-194.951 317.944,-201.602"/>
</g>
<!-- Node7 -->
<g id="node7" class="node"><title>Node7</title>
<g id="a_node7"><a xlink:href="_settings_component_8h.html" target="_top" xlink:title="Q:/Documents/GitHub\l/MIDI2LR/Source/SettingsComponent.h">
<polygon fill="white" stroke="black" points="278,-134.5 278,-164.5 465,-164.5 465,-134.5 278,-134.5"/>
<text text-anchor="start" x="286" y="-152.5" font-family="Helvetica,sans-Serif" font-size="10.00">Q:/Documents/GitHub</text>
<text text-anchor="middle" x="371.5" y="-141.5" font-family="Helvetica,sans-Serif" font-size="10.00">/MIDI2LR/Source/SettingsComponent.h</text>
</a>
</g>
</g>
<!-- Node1&#45;&gt;Node7 -->
<g id="edge7" class="edge"><title>Node1&#45;&gt;Node7</title>
<path fill="none" stroke="midnightblue" d="M371.5,-191.108C371.5,-182.154 371.5,-172.323 371.5,-164.577"/>
<polygon fill="midnightblue" stroke="midnightblue" points="368,-191.396 371.5,-201.396 375,-191.396 368,-191.396"/>
</g>
<!-- Node9 -->
<g id="node9" class="node"><title>Node9</title>
<g id="a_node9"><a xlink:href="_resizable_layout_8cpp.html" target="_top" xlink:title="Q:/Documents/GitHub\l/MIDI2LR/Source/ResizableLayout.cpp">
<polygon fill="white" stroke="black" points="483.5,-134.5 483.5,-164.5 667.5,-164.5 667.5,-134.5 483.5,-134.5"/>
<text text-anchor="start" x="491.5" y="-152.5" font-family="Helvetica,sans-Serif" font-size="10.00">Q:/Documents/GitHub</text>
<text text-anchor="middle" x="575.5" y="-141.5" font-family="Helvetica,sans-Serif" font-size="10.00">/MIDI2LR/Source/ResizableLayout.cpp</text>
</a>
</g>
</g>
<!-- Node1&#45;&gt;Node9 -->
<g id="edge10" class="edge"><title>Node1&#45;&gt;Node9</title>
<path fill="none" stroke="midnightblue" d="M425.455,-198.308C458.457,-187.793 500.155,-174.507 531.213,-164.611"/>
<polygon fill="midnightblue" stroke="midnightblue" points="423.979,-195.105 415.514,-201.476 426.104,-201.775 423.979,-195.105"/>
</g>
<!-- Node3 -->
<g id="node3" class="node"><title>Node3</title>
<g id="a_node3"><a xlink:href="_main_8cpp.html" target="_top" xlink:title="Q:/Documents/GitHub\l/MIDI2LR/Source/Main.cpp">
<polygon fill="white" stroke="black" points="0,-0.5 0,-30.5 133,-30.5 133,-0.5 0,-0.5"/>
<text text-anchor="start" x="8" y="-18.5" font-family="Helvetica,sans-Serif" font-size="10.00">Q:/Documents/GitHub</text>
<text text-anchor="middle" x="66.5" y="-7.5" font-family="Helvetica,sans-Serif" font-size="10.00">/MIDI2LR/Source/Main.cpp</text>
</a>
</g>
</g>
<!-- Node2&#45;&gt;Node3 -->
<g id="edge2" class="edge"><title>Node2&#45;&gt;Node3</title>
<path fill="none" stroke="midnightblue" d="M125.198,-129.895C110.508,-122.077 95.5974,-111.578 85.5,-98 70.5879,-77.9476 67.137,-48.0502 66.4779,-30.589"/>
<polygon fill="midnightblue" stroke="midnightblue" points="123.76,-133.089 134.271,-134.421 126.884,-126.825 123.76,-133.089"/>
</g>
<!-- Node4 -->
<g id="node4" class="node"><title>Node4</title>
<g id="a_node4"><a xlink:href="_main_window_8h.html" target="_top" xlink:title="Q:/Documents/GitHub\l/MIDI2LR/Source/MainWindow.h">
<polygon fill="white" stroke="black" points="95,-67.5 95,-97.5 252,-97.5 252,-67.5 95,-67.5"/>
<text text-anchor="start" x="103" y="-85.5" font-family="Helvetica,sans-Serif" font-size="10.00">Q:/Documents/GitHub</text>
<text text-anchor="middle" x="173.5" y="-74.5" font-family="Helvetica,sans-Serif" font-size="10.00">/MIDI2LR/Source/MainWindow.h</text>
</a>
</g>
</g>
<!-- Node2&#45;&gt;Node4 -->
<g id="edge3" class="edge"><title>Node2&#45;&gt;Node4</title>
<path fill="none" stroke="midnightblue" d="M173.5,-124.108C173.5,-115.154 173.5,-105.323 173.5,-97.5765"/>
<polygon fill="midnightblue" stroke="midnightblue" points="170,-124.396 173.5,-134.396 177,-124.396 170,-124.396"/>
</g>
<!-- Node6 -->
<g id="node6" class="node"><title>Node6</title>
<g id="a_node6"><a xlink:href="_main_component_8cpp.html" target="_top" xlink:title="Q:/Documents/GitHub\l/MIDI2LR/Source/MainComponent.cpp">
<polygon fill="white" stroke="black" points="270.5,-67.5 270.5,-97.5 452.5,-97.5 452.5,-67.5 270.5,-67.5"/>
<text text-anchor="start" x="278.5" y="-85.5" font-family="Helvetica,sans-Serif" font-size="10.00">Q:/Documents/GitHub</text>
<text text-anchor="middle" x="361.5" y="-74.5" font-family="Helvetica,sans-Serif" font-size="10.00">/MIDI2LR/Source/MainComponent.cpp</text>
</a>
</g>
</g>
<!-- Node2&#45;&gt;Node6 -->
<g id="edge6" class="edge"><title>Node2&#45;&gt;Node6</title>
<path fill="none" stroke="midnightblue" d="M223.85,-131.092C254.199,-120.599 292.35,-107.408 320.786,-97.5765"/>
<polygon fill="midnightblue" stroke="midnightblue" points="222.601,-127.82 214.293,-134.396 224.888,-134.436 222.601,-127.82"/>
</g>
<!-- Node4&#45;&gt;Node3 -->
<g id="edge4" class="edge"><title>Node4&#45;&gt;Node3</title>
<path fill="none" stroke="midnightblue" d="M141.425,-62.0151C124.774,-51.8999 104.806,-39.7698 89.6721,-30.5765"/>
<polygon fill="midnightblue" stroke="midnightblue" points="139.919,-65.1954 150.283,-67.396 143.553,-59.2127 139.919,-65.1954"/>
</g>
<!-- Node5 -->
<g id="node5" class="node"><title>Node5</title>
<g id="a_node5"><a xlink:href="_main_window_8cpp.html" target="_top" xlink:title="Q:/Documents/GitHub\l/MIDI2LR/Source/MainWindow.cpp">
<polygon fill="white" stroke="black" points="151,-0.5 151,-30.5 318,-30.5 318,-0.5 151,-0.5"/>
<text text-anchor="start" x="159" y="-18.5" font-family="Helvetica,sans-Serif" font-size="10.00">Q:/Documents/GitHub</text>
<text text-anchor="middle" x="234.5" y="-7.5" font-family="Helvetica,sans-Serif" font-size="10.00">/MIDI2LR/Source/MainWindow.cpp</text>
</a>
</g>
</g>
<!-- Node4&#45;&gt;Node5 -->
<g id="edge5" class="edge"><title>Node4&#45;&gt;Node5</title>
<path fill="none" stroke="midnightblue" d="M193.654,-60.0243C202.743,-50.3398 213.221,-39.1739 221.29,-30.5765"/>
<polygon fill="midnightblue" stroke="midnightblue" points="191.027,-57.709 186.736,-67.396 196.131,-62.4992 191.027,-57.709"/>
</g>
<!-- Node7&#45;&gt;Node6 -->
<g id="edge8" class="edge"><title>Node7&#45;&gt;Node6</title>
<path fill="none" stroke="midnightblue" d="M367.793,-124.403C366.403,-115.37 364.87,-105.408 363.666,-97.5765"/>
<polygon fill="midnightblue" stroke="midnightblue" points="364.35,-125.044 369.33,-134.396 371.269,-123.98 364.35,-125.044"/>
</g>
<!-- Node8 -->
<g id="node8" class="node"><title>Node8</title>
<g id="a_node8"><a xlink:href="_settings_component_8cpp.html" target="_top" xlink:title="Q:/Documents/GitHub\l/MIDI2LR/Source/SettingsComponent.cpp">
<polygon fill="white" stroke="black" points="471,-67.5 471,-97.5 668,-97.5 668,-67.5 471,-67.5"/>
<text text-anchor="start" x="479" y="-85.5" font-family="Helvetica,sans-Serif" font-size="10.00">Q:/Documents/GitHub</text>
<text text-anchor="middle" x="569.5" y="-74.5" font-family="Helvetica,sans-Serif" font-size="10.00">/MIDI2LR/Source/SettingsComponent.cpp</text>
</a>
</g>
</g>
<!-- Node7&#45;&gt;Node8 -->
<g id="edge9" class="edge"><title>Node7&#45;&gt;Node8</title>
<path fill="none" stroke="midnightblue" d="M424.114,-131.228C456.143,-120.713 496.542,-107.451 526.621,-97.5765"/>
<polygon fill="midnightblue" stroke="midnightblue" points="422.872,-127.951 414.463,-134.396 425.056,-134.602 422.872,-127.951"/>
</g>
</g>
</svg>
