<?xml version="1.0" encoding="UTF-8" standalone="no"?>
<!DOCTYPE svg PUBLIC "-//W3C//DTD SVG 1.1//EN"
 "http://www.w3.org/Graphics/SVG/1.1/DTD/svg11.dtd">
<!-- Generated by graphviz version 2.38.0 (20140413.2041)
 -->
<!-- Title: Q:/Documents/GitHub/MIDI2LR/Source/SendKeys.h Pages: 1 -->
<svg width="1104pt" height="463pt"
 viewBox="0.00 0.00 1104.00 463.00" xmlns="http://www.w3.org/2000/svg" xmlns:xlink="http://www.w3.org/1999/xlink">
<g id="graph0" class="graph" transform="scale(1 1) rotate(0) translate(4 459)">
<title>Q:/Documents/GitHub/MIDI2LR/Source/SendKeys.h</title>
<polygon fill="white" stroke="none" points="-4,4 -4,-459 1100,-459 1100,4 -4,4"/>
<!-- Node1 -->
<g id="node1" class="node"><title>Node1</title>
<polygon fill="#bfbfbf" stroke="black" points="458,-424.5 458,-454.5 604,-454.5 604,-424.5 458,-424.5"/>
<text text-anchor="start" x="466" y="-442.5" font-family="Helvetica,sans-Serif" font-size="10.00">Q:/Documents/GitHub</text>
<text text-anchor="middle" x="531" y="-431.5" font-family="Helvetica,sans-Serif" font-size="10.00">/MIDI2LR/Source/SendKeys.h</text>
</g>
<!-- Node2 -->
<g id="node2" class="node"><title>Node2</title>
<g id="a_node2"><a xlink:href="_l_r___i_p_c___out_8h.html" target="_top" xlink:title="Q:/Documents/GitHub\l/MIDI2LR/Source/LR_IPC_Out.h">
<polygon fill="white" stroke="black" points="453.5,-357.5 453.5,-387.5 608.5,-387.5 608.5,-357.5 453.5,-357.5"/>
<text text-anchor="start" x="461.5" y="-375.5" font-family="Helvetica,sans-Serif" font-size="10.00">Q:/Documents/GitHub</text>
<text text-anchor="middle" x="531" y="-364.5" font-family="Helvetica,sans-Serif" font-size="10.00">/MIDI2LR/Source/LR_IPC_Out.h</text>
</a>
</g>
</g>
<!-- Node1&#45;&gt;Node2 -->
<g id="edge1" class="edge"><title>Node1&#45;&gt;Node2</title>
<path fill="none" stroke="midnightblue" d="M531,-414.108C531,-405.154 531,-395.323 531,-387.577"/>
<polygon fill="midnightblue" stroke="midnightblue" points="527.5,-414.396 531,-424.396 534.5,-414.396 527.5,-414.396"/>
</g>
<!-- Node4 -->
<g id="node4" class="node"><title>Node4</title>
<g id="a_node4"><a xlink:href="_l_r___i_p_c___in_8h.html" target="_top" xlink:title="Q:/Documents/GitHub\l/MIDI2LR/Source/LR_IPC_In.h">
<polygon fill="white" stroke="black" points="118.5,-212.5 118.5,-242.5 265.5,-242.5 265.5,-212.5 118.5,-212.5"/>
<text text-anchor="start" x="126.5" y="-230.5" font-family="Helvetica,sans-Serif" font-size="10.00">Q:/Documents/GitHub</text>
<text text-anchor="middle" x="192" y="-219.5" font-family="Helvetica,sans-Serif" font-size="10.00">/MIDI2LR/Source/LR_IPC_In.h</text>
</a>
</g>
</g>
<!-- Node1&#45;&gt;Node4 -->
<g id="edge31" class="edge"><title>Node1&#45;&gt;Node4</title>
<path fill="none" stroke="midnightblue" d="M495.647,-419.59C454.16,-397.112 383.588,-357.979 325,-321 283.377,-294.729 236.51,-261.15 211.018,-242.531"/>
<polygon fill="midnightblue" stroke="midnightblue" points="494.082,-422.722 504.544,-424.396 497.409,-416.563 494.082,-422.722"/>
</g>
<!-- Node19 -->
<g id="node19" class="node"><title>Node19</title>
<g id="a_node19"><a xlink:href="_send_keys_8cpp.html" target="_top" xlink:title="Q:/Documents/GitHub\l/MIDI2LR/Source/SendKeys.cpp">
<polygon fill="white" stroke="black" points="626.5,-357.5 626.5,-387.5 783.5,-387.5 783.5,-357.5 626.5,-357.5"/>
<text text-anchor="start" x="634.5" y="-375.5" font-family="Helvetica,sans-Serif" font-size="10.00">Q:/Documents/GitHub</text>
<text text-anchor="middle" x="705" y="-364.5" font-family="Helvetica,sans-Serif" font-size="10.00">/MIDI2LR/Source/SendKeys.cpp</text>
</a>
</g>
</g>
<!-- Node1&#45;&gt;Node19 -->
<g id="edge32" class="edge"><title>Node1&#45;&gt;Node19</title>
<path fill="none" stroke="midnightblue" d="M578.332,-420.819C606.3,-410.371 641.227,-397.323 667.318,-387.577"/>
<polygon fill="midnightblue" stroke="midnightblue" points="576.898,-417.618 568.755,-424.396 579.348,-424.175 576.898,-417.618"/>
</g>
<!-- Node3 -->
<g id="node3" class="node"><title>Node3</title>
<g id="a_node3"><a xlink:href="_profile_manager_8h.html" target="_top" xlink:title="Q:/Documents/GitHub\l/MIDI2LR/Source/ProfileManager.h">
<polygon fill="white" stroke="black" points="366,-285 366,-315 532,-315 532,-285 366,-285"/>
<text text-anchor="start" x="374" y="-303" font-family="Helvetica,sans-Serif" font-size="10.00">Q:/Documents/GitHub</text>
<text text-anchor="middle" x="449" y="-292" font-family="Helvetica,sans-Serif" font-size="10.00">/MIDI2LR/Source/ProfileManager.h</text>
</a>
</g>
</g>
<!-- Node2&#45;&gt;Node3 -->
<g id="edge2" class="edge"><title>Node2&#45;&gt;Node3</title>
<path fill="none" stroke="midnightblue" d="M506.533,-350.464C493.204,-339.004 477.074,-325.137 465.289,-315.005"/>
<polygon fill="midnightblue" stroke="midnightblue" points="504.542,-353.368 514.406,-357.233 509.105,-348.06 504.542,-353.368"/>
</g>
<!-- Node6 -->
<g id="node6" class="node"><title>Node6</title>
<g id="a_node6"><a xlink:href="_main_component_8h.html" target="_top" xlink:title="Q:/Documents/GitHub\l/MIDI2LR/Source/MainComponent.h">
<polygon fill="white" stroke="black" points="220,-140 220,-170 392,-170 392,-140 220,-140"/>
<text text-anchor="start" x="228" y="-158" font-family="Helvetica,sans-Serif" font-size="10.00">Q:/Documents/GitHub</text>
<text text-anchor="middle" x="306" y="-147" font-family="Helvetica,sans-Serif" font-size="10.00">/MIDI2LR/Source/MainComponent.h</text>
</a>
</g>
</g>
<!-- Node2&#45;&gt;Node6 -->
<g id="edge28" class="edge"><title>Node2&#45;&gt;Node6</title>
<path fill="none" stroke="midnightblue" d="M443.606,-362.077C413.172,-354.965 380.739,-342.567 357,-321 312.615,-280.677 306.454,-202.651 305.882,-170.444"/>
<polygon fill="midnightblue" stroke="midnightblue" points="442.889,-365.502 453.404,-364.205 444.375,-358.662 442.889,-365.502"/>
</g>
<!-- Node7 -->
<g id="node7" class="node"><title>Node7</title>
<g id="a_node7"><a xlink:href="_main_8cpp.html" target="_top" xlink:title="Q:/Documents/GitHub\l/MIDI2LR/Source/Main.cpp">
<polygon fill="white" stroke="black" points="884.5,-0.5 884.5,-30.5 1017.5,-30.5 1017.5,-0.5 884.5,-0.5"/>
<text text-anchor="start" x="892.5" y="-18.5" font-family="Helvetica,sans-Serif" font-size="10.00">Q:/Documents/GitHub</text>
<text text-anchor="middle" x="951" y="-7.5" font-family="Helvetica,sans-Serif" font-size="10.00">/MIDI2LR/Source/Main.cpp</text>
</a>
</g>
</g>
<!-- Node2&#45;&gt;Node7 -->
<g id="edge30" class="edge"><title>Node2&#45;&gt;Node7</title>
<path fill="none" stroke="midnightblue" d="M610.852,-355.438C766.635,-323.554 1096,-253.221 1096,-228.5 1096,-228.5 1096,-228.5 1096,-154 1096,-92.9414 1027.46,-50.8482 984.63,-30.5026"/>
<polygon fill="midnightblue" stroke="midnightblue" points="609.944,-352.051 600.847,-357.481 611.345,-358.909 609.944,-352.051"/>
</g>
<!-- Node11 -->
<g id="node11" class="node"><title>Node11</title>
<g id="a_node11"><a xlink:href="_settings_manager_8h.html" target="_top" xlink:title="Q:/Documents/GitHub\l/MIDI2LR/Source/SettingsManager.h">
<polygon fill="white" stroke="black" points="619.5,-212.5 619.5,-242.5 794.5,-242.5 794.5,-212.5 619.5,-212.5"/>
<text text-anchor="start" x="627.5" y="-230.5" font-family="Helvetica,sans-Serif" font-size="10.00">Q:/Documents/GitHub</text>
<text text-anchor="middle" x="707" y="-219.5" font-family="Helvetica,sans-Serif" font-size="10.00">/MIDI2LR/Source/SettingsManager.h</text>
</a>
</g>
</g>
<!-- Node2&#45;&gt;Node11 -->
<g id="edge29" class="edge"><title>Node2&#45;&gt;Node11</title>
<path fill="none" stroke="midnightblue" d="M603.891,-354.85C637.883,-345.685 673.384,-333.628 685,-321 705.004,-299.254 707.79,-262.695 707.656,-242.669"/>
<polygon fill="midnightblue" stroke="midnightblue" points="602.676,-351.55 593.894,-357.477 604.455,-358.32 602.676,-351.55"/>
</g>
<!-- Node18 -->
<g id="node18" class="node"><title>Node18</title>
<g id="a_node18"><a xlink:href="_l_r___i_p_c___out_8cpp.html" target="_top" xlink:title="Q:/Documents/GitHub\l/MIDI2LR/Source/LR_IPC\l_Out.cpp">
<polygon fill="white" stroke="black" points="550,-279.5 550,-320.5 676,-320.5 676,-279.5 550,-279.5"/>
<text text-anchor="start" x="558" y="-308.5" font-family="Helvetica,sans-Serif" font-size="10.00">Q:/Documents/GitHub</text>
<text text-anchor="start" x="558" y="-297.5" font-family="Helvetica,sans-Serif" font-size="10.00">/MIDI2LR/Source/LR_IPC</text>
<text text-anchor="middle" x="613" y="-286.5" font-family="Helvetica,sans-Serif" font-size="10.00">_Out.cpp</text>
</a>
</g>
</g>
<!-- Node2&#45;&gt;Node18 -->
<g id="edge27" class="edge"><title>Node2&#45;&gt;Node18</title>
<path fill="none" stroke="midnightblue" d="M555.243,-350.657C566.306,-341.145 579.336,-329.943 590.216,-320.588"/>
<polygon fill="midnightblue" stroke="midnightblue" points="552.895,-348.06 547.594,-357.233 557.458,-353.368 552.895,-348.06"/>
</g>
<!-- Node3&#45;&gt;Node4 -->
<g id="edge3" class="edge"><title>Node3&#45;&gt;Node4</title>
<path fill="none" stroke="midnightblue" d="M388.186,-282.318C344.109,-270.227 285.164,-254.057 243.425,-242.607"/>
<polygon fill="midnightblue" stroke="midnightblue" points="387.348,-285.717 397.918,-284.987 389.2,-278.966 387.348,-285.717"/>
</g>
<!-- Node3&#45;&gt;Node6 -->
<g id="edge13" class="edge"><title>Node3&#45;&gt;Node6</title>
<path fill="none" stroke="midnightblue" d="M405.163,-280.34C387.093,-271.069 366.936,-258.502 352,-243 331.255,-221.468 317.376,-188.719 310.671,-170.151"/>
<polygon fill="midnightblue" stroke="midnightblue" points="403.866,-283.603 414.383,-284.886 406.962,-277.325 403.866,-283.603"/>
</g>
<!-- Node3&#45;&gt;Node11 -->
<g id="edge14" class="edge"><title>Node3&#45;&gt;Node11</title>
<path fill="none" stroke="midnightblue" d="M510.05,-282.318C554.299,-270.227 613.474,-254.057 655.375,-242.607"/>
<polygon fill="midnightblue" stroke="midnightblue" points="509.005,-278.975 500.281,-284.987 510.85,-285.727 509.005,-278.975"/>
</g>
<!-- Node16 -->
<g id="node16" class="node"><title>Node16</title>
<g id="a_node16"><a xlink:href="_settings_manager_8cpp.html" target="_top" xlink:title="Q:/Documents/GitHub\l/MIDI2LR/Source/SettingsManager.cpp">
<polygon fill="white" stroke="black" points="410.5,-140 410.5,-170 595.5,-170 595.5,-140 410.5,-140"/>
<text text-anchor="start" x="418.5" y="-158" font-family="Helvetica,sans-Serif" font-size="10.00">Q:/Documents/GitHub</text>
<text text-anchor="middle" x="503" y="-147" font-family="Helvetica,sans-Serif" font-size="10.00">/MIDI2LR/Source/SettingsManager.cpp</text>
</a>
</g>
</g>
<!-- Node3&#45;&gt;Node16 -->
<g id="edge26" class="edge"><title>Node3&#45;&gt;Node16</title>
<path fill="none" stroke="midnightblue" d="M502.768,-280.495C519.64,-271.858 536.361,-259.695 546,-243 560.406,-218.049 536.38,-187.613 518.838,-170.153"/>
<polygon fill="midnightblue" stroke="midnightblue" points="500.952,-277.483 493.423,-284.937 503.957,-283.805 500.952,-277.483"/>
</g>
<!-- Node17 -->
<g id="node17" class="node"><title>Node17</title>
<g id="a_node17"><a xlink:href="_profile_manager_8cpp.html" target="_top" xlink:title="Q:/Documents/GitHub\l/MIDI2LR/Source/ProfileManager.cpp">
<polygon fill="white" stroke="black" points="361,-212.5 361,-242.5 537,-242.5 537,-212.5 361,-212.5"/>
<text text-anchor="start" x="369" y="-230.5" font-family="Helvetica,sans-Serif" font-size="10.00">Q:/Documents/GitHub</text>
<text text-anchor="middle" x="449" y="-219.5" font-family="Helvetica,sans-Serif" font-size="10.00">/MIDI2LR/Source/ProfileManager.cpp</text>
</a>
</g>
</g>
<!-- Node3&#45;&gt;Node17 -->
<g id="edge25" class="edge"><title>Node3&#45;&gt;Node17</title>
<path fill="none" stroke="midnightblue" d="M449,-274.732C449,-264.068 449,-251.914 449,-242.746"/>
<polygon fill="midnightblue" stroke="midnightblue" points="445.5,-274.733 449,-284.733 452.5,-274.733 445.5,-274.733"/>
</g>
<!-- Node5 -->
<g id="node5" class="node"><title>Node5</title>
<g id="a_node5"><a xlink:href="_l_r___i_p_c___in_8cpp.html" target="_top" xlink:title="Q:/Documents/GitHub\l/MIDI2LR/Source/LR_IPC\l_In.cpp">
<polygon fill="white" stroke="black" points="0,-134.5 0,-175.5 126,-175.5 126,-134.5 0,-134.5"/>
<text text-anchor="start" x="8" y="-163.5" font-family="Helvetica,sans-Serif" font-size="10.00">Q:/Documents/GitHub</text>
<text text-anchor="start" x="8" y="-152.5" font-family="Helvetica,sans-Serif" font-size="10.00">/MIDI2LR/Source/LR_IPC</text>
<text text-anchor="middle" x="63" y="-141.5" font-family="Helvetica,sans-Serif" font-size="10.00">_In.cpp</text>
</a>
</g>
</g>
<!-- Node4&#45;&gt;Node5 -->
<g id="edge4" class="edge"><title>Node4&#45;&gt;Node5</title>
<path fill="none" stroke="midnightblue" d="M157.184,-207.473C139.167,-197.626 117.197,-185.62 99.0101,-175.68"/>
<polygon fill="midnightblue" stroke="midnightblue" points="155.751,-210.678 166.205,-212.403 159.108,-204.536 155.751,-210.678"/>
</g>
<!-- Node4&#45;&gt;Node6 -->
<g id="edge5" class="edge"><title>Node4&#45;&gt;Node6</title>
<path fill="none" stroke="midnightblue" d="M223.4,-207.082C242.36,-195.357 266.089,-180.682 283.244,-170.073"/>
<polygon fill="midnightblue" stroke="midnightblue" points="221.46,-204.166 214.796,-212.403 225.142,-210.12 221.46,-204.166"/>
</g>
<!-- Node4&#45;&gt;Node7 -->
<g id="edge11" class="edge"><title>Node4&#45;&gt;Node7</title>
<path fill="none" stroke="midnightblue" d="M184.228,-202.39C174.483,-166.921 163.172,-101.192 200,-67 249.432,-21.106 738.761,-36.357 806,-31 831.598,-28.9606 859.691,-26.259 884.277,-23.7409"/>
<polygon fill="midnightblue" stroke="midnightblue" points="180.978,-203.745 187.147,-212.358 187.696,-201.778 180.978,-203.745"/>
</g>
<!-- Node10 -->
<g id="node10" class="node"><title>Node10</title>
<g id="a_node10"><a xlink:href="_main_component_8cpp.html" target="_top" xlink:title="Q:/Documents/GitHub\l/MIDI2LR/Source/MainComponent.cpp">
<polygon fill="white" stroke="black" points="220,-67.5 220,-97.5 402,-97.5 402,-67.5 220,-67.5"/>
<text text-anchor="start" x="228" y="-85.5" font-family="Helvetica,sans-Serif" font-size="10.00">Q:/Documents/GitHub</text>
<text text-anchor="middle" x="311" y="-74.5" font-family="Helvetica,sans-Serif" font-size="10.00">/MIDI2LR/Source/MainComponent.cpp</text>
</a>
</g>
</g>
<!-- Node4&#45;&gt;Node10 -->
<g id="edge12" class="edge"><title>Node4&#45;&gt;Node10</title>
<path fill="none" stroke="midnightblue" d="M191.389,-202.179C192.096,-182.005 196.043,-153.558 211,-134 223.937,-117.083 244.103,-105.399 262.946,-97.5656"/>
<polygon fill="midnightblue" stroke="midnightblue" points="187.886,-202.39 191.28,-212.427 194.886,-202.465 187.886,-202.39"/>
</g>
<!-- Node6&#45;&gt;Node7 -->
<g id="edge6" class="edge"><title>Node6&#45;&gt;Node7</title>
<path fill="none" stroke="midnightblue" d="M261.68,-135.588C226.678,-118.542 187.36,-92.1136 211,-67 256.397,-18.7734 739.98,-36.2962 806,-31 831.596,-28.9466 859.69,-26.2421 884.276,-23.7256"/>
<polygon fill="midnightblue" stroke="midnightblue" points="260.373,-138.841 270.912,-139.925 263.349,-132.505 260.373,-138.841"/>
</g>
<!-- Node8 -->
<g id="node8" class="node"><title>Node8</title>
<g id="a_node8"><a xlink:href="_main_window_8h.html" target="_top" xlink:title="Q:/Documents/GitHub\l/MIDI2LR/Source/MainWindow.h">
<polygon fill="white" stroke="black" points="635.5,-67.5 635.5,-97.5 792.5,-97.5 792.5,-67.5 635.5,-67.5"/>
<text text-anchor="start" x="643.5" y="-85.5" font-family="Helvetica,sans-Serif" font-size="10.00">Q:/Documents/GitHub</text>
<text text-anchor="middle" x="714" y="-74.5" font-family="Helvetica,sans-Serif" font-size="10.00">/MIDI2LR/Source/MainWindow.h</text>
</a>
</g>
</g>
<!-- Node6&#45;&gt;Node8 -->
<g id="edge7" class="edge"><title>Node6&#45;&gt;Node8</title>
<path fill="none" stroke="midnightblue" d="M380.621,-137.931C387.502,-136.558 394.375,-135.227 401,-134 500.579,-115.563 526.037,-114.232 626,-98 629.057,-97.5036 632.173,-96.9963 635.321,-96.4828"/>
<polygon fill="midnightblue" stroke="midnightblue" points="379.668,-134.553 370.56,-139.966 381.056,-141.414 379.668,-134.553"/>
</g>
<!-- Node6&#45;&gt;Node10 -->
<g id="edge10" class="edge"><title>Node6&#45;&gt;Node10</title>
<path fill="none" stroke="midnightblue" d="M307.721,-129.732C308.477,-119.068 309.339,-106.914 309.99,-97.7455"/>
<polygon fill="midnightblue" stroke="midnightblue" points="304.228,-129.511 307.012,-139.733 311.211,-130.006 304.228,-129.511"/>
</g>
<!-- Node8&#45;&gt;Node7 -->
<g id="edge8" class="edge"><title>Node8&#45;&gt;Node7</title>
<path fill="none" stroke="midnightblue" d="M775.201,-64.7149C813.768,-54.1373 863.001,-40.6348 899.549,-30.6109"/>
<polygon fill="midnightblue" stroke="midnightblue" points="773.852,-61.4556 765.134,-67.476 775.703,-68.2063 773.852,-61.4556"/>
</g>
<!-- Node9 -->
<g id="node9" class="node"><title>Node9</title>
<g id="a_node9"><a xlink:href="_main_window_8cpp.html" target="_top" xlink:title="Q:/Documents/GitHub\l/MIDI2LR/Source/MainWindow.cpp">
<polygon fill="white" stroke="black" points="630.5,-0.5 630.5,-30.5 797.5,-30.5 797.5,-0.5 630.5,-0.5"/>
<text text-anchor="start" x="638.5" y="-18.5" font-family="Helvetica,sans-Serif" font-size="10.00">Q:/Documents/GitHub</text>
<text text-anchor="middle" x="714" y="-7.5" font-family="Helvetica,sans-Serif" font-size="10.00">/MIDI2LR/Source/MainWindow.cpp</text>
</a>
</g>
</g>
<!-- Node8&#45;&gt;Node9 -->
<g id="edge9" class="edge"><title>Node8&#45;&gt;Node9</title>
<path fill="none" stroke="midnightblue" d="M714,-57.1081C714,-48.1539 714,-38.3227 714,-30.5765"/>
<polygon fill="midnightblue" stroke="midnightblue" points="710.5,-57.3959 714,-67.396 717.5,-57.396 710.5,-57.3959"/>
</g>
<!-- Node11&#45;&gt;Node6 -->
<g id="edge15" class="edge"><title>Node11&#45;&gt;Node6</title>
<path fill="none" stroke="midnightblue" d="M609.559,-211.538C549.347,-202.015 470.554,-189.054 401,-176 391.226,-174.166 380.912,-172.114 370.825,-170.044"/>
<polygon fill="midnightblue" stroke="midnightblue" points="609.014,-214.995 619.437,-213.096 610.104,-208.081 609.014,-214.995"/>
</g>
<!-- Node11&#45;&gt;Node7 -->
<g id="edge20" class="edge"><title>Node11&#45;&gt;Node7</title>
<path fill="none" stroke="midnightblue" d="M804.83,-225.065C890.792,-221.485 1006.63,-210.22 1036,-176 1055.33,-153.479 1016.17,-67.2505 1016,-67 1005.75,-52.0232 989.673,-39.4777 976.073,-30.6371"/>
<polygon fill="midnightblue" stroke="midnightblue" points="804.624,-221.571 794.767,-225.456 804.895,-228.565 804.624,-221.571"/>
</g>
<!-- Node11&#45;&gt;Node8 -->
<g id="edge19" class="edge"><title>Node11&#45;&gt;Node8</title>
<path fill="none" stroke="midnightblue" d="M770.718,-208.184C785.822,-200.704 800.111,-190.32 809,-176 818.845,-160.14 818.615,-150 809,-134 798.802,-117.029 780.761,-105.454 763.122,-97.7163"/>
<polygon fill="midnightblue" stroke="midnightblue" points="768.912,-205.16 761.249,-212.476 771.802,-211.536 768.912,-205.16"/>
</g>
<!-- Node12 -->
<g id="node12" class="node"><title>Node12</title>
<g id="a_node12"><a xlink:href="_version_checker_8h.html" target="_top" xlink:title="Q:/Documents/GitHub\l/MIDI2LR/Source/VersionChecker.h">
<polygon fill="white" stroke="black" points="857,-140 857,-170 1027,-170 1027,-140 857,-140"/>
<text text-anchor="start" x="865" y="-158" font-family="Helvetica,sans-Serif" font-size="10.00">Q:/Documents/GitHub</text>
<text text-anchor="middle" x="942" y="-147" font-family="Helvetica,sans-Serif" font-size="10.00">/MIDI2LR/Source/VersionChecker.h</text>
</a>
</g>
</g>
<!-- Node11&#45;&gt;Node12 -->
<g id="edge16" class="edge"><title>Node11&#45;&gt;Node12</title>
<path fill="none" stroke="midnightblue" d="M763.372,-209.589C803.59,-197.523 857.052,-181.484 894.977,-170.107"/>
<polygon fill="midnightblue" stroke="midnightblue" points="762.282,-206.261 753.709,-212.487 764.293,-212.966 762.282,-206.261"/>
</g>
<!-- Node14 -->
<g id="node14" class="node"><title>Node14</title>
<g id="a_node14"><a xlink:href="_settings_component_8h.html" target="_top" xlink:title="Q:/Documents/GitHub\l/MIDI2LR/Source/SettingsComponent.h">
<polygon fill="white" stroke="black" points="613.5,-140 613.5,-170 800.5,-170 800.5,-140 613.5,-140"/>
<text text-anchor="start" x="621.5" y="-158" font-family="Helvetica,sans-Serif" font-size="10.00">Q:/Documents/GitHub</text>
<text text-anchor="middle" x="707" y="-147" font-family="Helvetica,sans-Serif" font-size="10.00">/MIDI2LR/Source/SettingsComponent.h</text>
</a>
</g>
</g>
<!-- Node11&#45;&gt;Node14 -->
<g id="edge21" class="edge"><title>Node11&#45;&gt;Node14</title>
<path fill="none" stroke="midnightblue" d="M707,-202.232C707,-191.568 707,-179.414 707,-170.246"/>
<polygon fill="midnightblue" stroke="midnightblue" points="703.5,-202.233 707,-212.233 710.5,-202.233 703.5,-202.233"/>
</g>
<!-- Node11&#45;&gt;Node16 -->
<g id="edge24" class="edge"><title>Node11&#45;&gt;Node16</title>
<path fill="none" stroke="midnightblue" d="M656.706,-209.119C621.919,-197.097 576.225,-181.306 543.721,-170.073"/>
<polygon fill="midnightblue" stroke="midnightblue" points="655.613,-212.444 666.208,-212.403 657.9,-205.828 655.613,-212.444"/>
</g>
<!-- Node12&#45;&gt;Node7 -->
<g id="edge17" class="edge"><title>Node12&#45;&gt;Node7</title>
<path fill="none" stroke="midnightblue" d="M971.625,-133.608C982.715,-124.198 994.058,-111.996 1000,-98 1005.38,-85.3177 1005.18,-79.7684 1000,-67 994.079,-52.3957 981.683,-39.6867 970.841,-30.6713"/>
<polygon fill="midnightblue" stroke="midnightblue" points="969.308,-130.979 963.675,-139.952 973.674,-136.45 969.308,-130.979"/>
</g>
<!-- Node13 -->
<g id="node13" class="node"><title>Node13</title>
<g id="a_node13"><a xlink:href="_version_checker_8cpp.html" target="_top" xlink:title="Q:/Documents/GitHub\l/MIDI2LR/Source/VersionChecker.cpp">
<polygon fill="white" stroke="black" points="810.5,-67.5 810.5,-97.5 991.5,-97.5 991.5,-67.5 810.5,-67.5"/>
<text text-anchor="start" x="818.5" y="-85.5" font-family="Helvetica,sans-Serif" font-size="10.00">Q:/Documents/GitHub</text>
<text text-anchor="middle" x="901" y="-74.5" font-family="Helvetica,sans-Serif" font-size="10.00">/MIDI2LR/Source/VersionChecker.cpp</text>
</a>
</g>
</g>
<!-- Node12&#45;&gt;Node13 -->
<g id="edge18" class="edge"><title>Node12&#45;&gt;Node13</title>
<path fill="none" stroke="midnightblue" d="M928.657,-131.057C922.277,-120.086 914.839,-107.297 909.285,-97.7455"/>
<polygon fill="midnightblue" stroke="midnightblue" points="925.65,-132.848 933.703,-139.733 931.701,-129.329 925.65,-132.848"/>
</g>
<!-- Node14&#45;&gt;Node10 -->
<g id="edge22" class="edge"><title>Node14&#45;&gt;Node10</title>
<path fill="none" stroke="midnightblue" d="M625.803,-138.068C618.435,-136.672 611.083,-135.298 604,-134 533.68,-121.114 453.688,-107.39 395.072,-97.5063"/>
<polygon fill="midnightblue" stroke="midnightblue" points="625.359,-141.546 635.837,-139.979 626.669,-134.669 625.359,-141.546"/>
</g>
<!-- Node15 -->
<g id="node15" class="node"><title>Node15</title>
<g id="a_node15"><a xlink:href="_settings_component_8cpp.html" target="_top" xlink:title="Q:/Documents/GitHub\l/MIDI2LR/Source/SettingsComponent.cpp">
<polygon fill="white" stroke="black" points="420.5,-67.5 420.5,-97.5 617.5,-97.5 617.5,-67.5 420.5,-67.5"/>
<text text-anchor="start" x="428.5" y="-85.5" font-family="Helvetica,sans-Serif" font-size="10.00">Q:/Documents/GitHub</text>
<text text-anchor="middle" x="519" y="-74.5" font-family="Helvetica,sans-Serif" font-size="10.00">/MIDI2LR/Source/SettingsComponent.cpp</text>
</a>
</g>
</g>
<!-- Node14&#45;&gt;Node15 -->
<g id="edge23" class="edge"><title>Node14&#45;&gt;Node15</title>
<path fill="none" stroke="midnightblue" d="M659.826,-136.31C627.873,-124.327 586.225,-108.71 556.528,-97.5729"/>
<polygon fill="midnightblue" stroke="midnightblue" points="658.815,-139.669 669.407,-139.903 661.273,-133.114 658.815,-139.669"/>
</g>
</g>
</svg>
