<?xml version="1.0" encoding="UTF-8" standalone="no"?>
<!DOCTYPE svg PUBLIC "-//W3C//DTD SVG 1.1//EN"
 "http://www.w3.org/Graphics/SVG/1.1/DTD/svg11.dtd">
<!-- Generated by graphviz version 2.38.0 (20140413.2041)
 -->
<!-- Title: Q:/Documents/GitHub/MIDI2LR/Source/SendKeys.cpp Pages: 1 -->
<svg width="455pt" height="162pt"
 viewBox="0.00 0.00 455.00 162.00" xmlns="http://www.w3.org/2000/svg" xmlns:xlink="http://www.w3.org/1999/xlink">
<g id="graph0" class="graph" transform="scale(1 1) rotate(0) translate(4 158)">
<title>Q:/Documents/GitHub/MIDI2LR/Source/SendKeys.cpp</title>
<polygon fill="white" stroke="none" points="-4,4 -4,-158 451,-158 451,4 -4,4"/>
<!-- Node1 -->
<g id="node1" class="node"><title>Node1</title>
<polygon fill="#bfbfbf" stroke="black" points="122.5,-123.5 122.5,-153.5 279.5,-153.5 279.5,-123.5 122.5,-123.5"/>
<text text-anchor="start" x="130.5" y="-141.5" font-family="Helvetica,sans-Serif" font-size="10.00">Q:/Documents/GitHub</text>
<text text-anchor="middle" x="201" y="-130.5" font-family="Helvetica,sans-Serif" font-size="10.00">/MIDI2LR/Source/SendKeys.cpp</text>
</g>
<!-- Node2 -->
<g id="node2" class="node"><title>Node2</title>
<g id="a_node2"><a xlink:href="_send_keys_8h.html" target="_top" xlink:title="SendKeys.h">
<polygon fill="white" stroke="black" points="31,-67.5 31,-86.5 101,-86.5 101,-67.5 31,-67.5"/>
<text text-anchor="middle" x="66" y="-74.5" font-family="Helvetica,sans-Serif" font-size="10.00">SendKeys.h</text>
</a>
</g>
</g>
<!-- Node1&#45;&gt;Node2 -->
<g id="edge1" class="edge"><title>Node1&#45;&gt;Node2</title>
<path fill="none" stroke="midnightblue" d="M169.007,-123.399C146.558,-113.505 116.785,-100.383 95.0236,-90.7919"/>
<polygon fill="midnightblue" stroke="midnightblue" points="96.2059,-87.4882 85.6437,-86.6578 93.3828,-93.8936 96.2059,-87.4882"/>
</g>
<!-- Node5 -->
<g id="node5" class="node"><title>Node5</title>
<polygon fill="white" stroke="#bfbfbf" points="119,-67.5 119,-86.5 283,-86.5 283,-67.5 119,-67.5"/>
<text text-anchor="middle" x="201" y="-74.5" font-family="Helvetica,sans-Serif" font-size="10.00">CoreFoundation/CoreFoundation.h</text>
</g>
<!-- Node1&#45;&gt;Node5 -->
<g id="edge4" class="edge"><title>Node1&#45;&gt;Node5</title>
<path fill="none" stroke="midnightblue" d="M201,-123.399C201,-115.466 201,-105.458 201,-96.8583"/>
<polygon fill="midnightblue" stroke="midnightblue" points="204.5,-96.6577 201,-86.6578 197.5,-96.6578 204.5,-96.6577"/>
</g>
<!-- Node6 -->
<g id="node6" class="node"><title>Node6</title>
<polygon fill="white" stroke="#bfbfbf" points="301,-67.5 301,-86.5 447,-86.5 447,-67.5 301,-67.5"/>
<text text-anchor="middle" x="374" y="-74.5" font-family="Helvetica,sans-Serif" font-size="10.00">CoreGraphics/CoreGraphics.h</text>
</g>
<!-- Node1&#45;&gt;Node6 -->
<g id="edge5" class="edge"><title>Node1&#45;&gt;Node6</title>
<path fill="none" stroke="midnightblue" d="M241.999,-123.399C271.632,-113.207 311.226,-99.5898 339.298,-89.935"/>
<polygon fill="midnightblue" stroke="midnightblue" points="340.761,-93.133 349.08,-86.5709 338.485,-86.5136 340.761,-93.133"/>
</g>
<!-- Node3 -->
<g id="node3" class="node"><title>Node3</title>
<polygon fill="white" stroke="#bfbfbf" points="0,-6 0,-25 44,-25 44,-6 0,-6"/>
<text text-anchor="middle" x="22" y="-13" font-family="Helvetica,sans-Serif" font-size="10.00">mutex</text>
</g>
<!-- Node2&#45;&gt;Node3 -->
<g id="edge2" class="edge"><title>Node2&#45;&gt;Node3</title>
<path fill="none" stroke="midnightblue" d="M59.6959,-67.4751C53.0958,-58.5501 42.5633,-44.3071 34.3071,-33.1425"/>
<polygon fill="midnightblue" stroke="midnightblue" points="37.0524,-30.9684 28.2924,-25.0091 31.4242,-35.1305 37.0524,-30.9684"/>
</g>
<!-- Node4 -->
<g id="node4" class="node"><title>Node4</title>
<polygon fill="white" stroke="#bfbfbf" points="62,-0.5 62,-30.5 160,-30.5 160,-0.5 62,-0.5"/>
<text text-anchor="start" x="70" y="-18.5" font-family="Helvetica,sans-Serif" font-size="10.00">../JuceLibraryCode</text>
<text text-anchor="middle" x="111" y="-7.5" font-family="Helvetica,sans-Serif" font-size="10.00">/JuceHeader.h</text>
</g>
<!-- Node2&#45;&gt;Node4 -->
<g id="edge3" class="edge"><title>Node2&#45;&gt;Node4</title>
<path fill="none" stroke="midnightblue" d="M72.4474,-67.4751C78.1433,-59.9438 86.7031,-48.6259 94.3112,-38.5663"/>
<polygon fill="midnightblue" stroke="midnightblue" points="97.1538,-40.6101 100.394,-30.523 91.5707,-36.3875 97.1538,-40.6101"/>
</g>
</g>
</svg>
