<?xml version="1.0" encoding="UTF-8" standalone="no"?>
<!DOCTYPE svg PUBLIC "-//W3C//DTD SVG 1.1//EN"
 "http://www.w3.org/Graphics/SVG/1.1/DTD/svg11.dtd">
<!-- Generated by graphviz version 2.38.0 (20140413.2041)
 -->
<!-- Title: Q:/Documents/GitHub/MIDI2LR/Source/SettingsManager.h Pages: 1 -->
<!--zoomable 240 -->
<svg id="main" version="1.1" xmlns="http://www.w3.org/2000/svg" xmlns:xlink="http://www.w3.org/1999/xlink" xml:space="preserve" onload="init(evt)">
<style type="text/css"><![CDATA[
.edge:hover path { stroke: red; }
.edge:hover polygon { stroke: red; fill: red; }
]]></style>
<script type="text/javascript"><![CDATA[
var edges = document.getElementsByTagName('g');
if (edges && edges.length) {
  for (var i=0;i<edges.length;i++) {
    if (edges[i].id.substr(0,4)=='edge') {
      edges[i].setAttribute('class','edge');
    }
  }
}
]]></script>
        <defs>
                <circle id="rim" cx="0" cy="0" r="7"/>
                <circle id="rim2" cx="0" cy="0" r="3.5"/>
                <g id="zoomPlus">
                        <use xlink:href="#rim" fill="#404040">
                                <set attributeName="fill" to="#808080" begin="zoomplus.mouseover" end="zoomplus.mouseout"/>
                        </use>
                        <path d="M-4,0h8M0,-4v8" fill="none" stroke="white" stroke-width="1.5" pointer-events="none"/>
                </g>
                <g id="zoomMin">
                        <use xlink:href="#rim" fill="#404040">
                                <set attributeName="fill" to="#808080" begin="zoomminus.mouseover" end="zoomminus.mouseout"/>
                        </use>
                        <path d="M-4,0h8" fill="none" stroke="white" stroke-width="1.5" pointer-events="none"/>
                </g>
                <g id="dirArrow">
                        <path fill="none" stroke="white" stroke-width="1.5" d="M0,-3.0v7 M-2.5,-0.5L0,-3.0L2.5,-0.5"/>
                </g>
               <g id="resetDef">
                       <use xlink:href="#rim2" fill="#404040">
                               <set attributeName="fill" to="#808080" begin="reset.mouseover" end="reset.mouseout"/>
                       </use>
               </g>
        </defs>

<script type="text/javascript">
var viewWidth = 871;
var viewHeight = 240;
var sectionId = 'dynsection-1';
</script>
<script xlink:href="svgpan.js"/>
<svg id="graph" class="graph">
<g id="viewport">
<title>Q:/Documents/GitHub/MIDI2LR/Source/SettingsManager.h</title>
<polygon fill="white" stroke="none" points="-4,4 -4,-236 867.23,-236 867.23,4 -4,4"/>
<!-- Node1 -->
<g id="node1" class="node"><title>Node1</title>
<polygon fill="#bfbfbf" stroke="black" points="290.23,-201.5 290.23,-231.5 465.23,-231.5 465.23,-201.5 290.23,-201.5"/>
<text text-anchor="start" x="298.23" y="-219.5" font-family="Helvetica,sans-Serif" font-size="10.00">Q:/Documents/GitHub</text>
<text text-anchor="middle" x="377.73" y="-208.5" font-family="Helvetica,sans-Serif" font-size="10.00">/MIDI2LR/Source/SettingsManager.h</text>
</g>
<!-- Node2 -->
<g id="node2" class="node"><title>Node2</title>
<g id="a_node2"><a xlink:href="_main_component_8h.html" target="_top" xlink:title="Q:/Documents/GitHub\l/MIDI2LR/Source/MainComponent.h">
<polygon fill="white" stroke="black" points="234.73,-134.5 234.73,-164.5 406.73,-164.5 406.73,-134.5 234.73,-134.5"/>
<text text-anchor="start" x="242.73" y="-152.5" font-family="Helvetica,sans-Serif" font-size="10.00">Q:/Documents/GitHub</text>
<text text-anchor="middle" x="320.73" y="-141.5" font-family="Helvetica,sans-Serif" font-size="10.00">/MIDI2LR/Source/MainComponent.h</text>
</a>
</g>
</g>
<!-- Node1&#45;&gt;Node2 -->
<g id="edge1" class="edge"><title>Node1&#45;&gt;Node2</title>
<path fill="none" stroke="midnightblue" d="M358.644,-193.736C350.211,-184.119 340.538,-173.089 333.074,-164.577"/>
<polygon fill="midnightblue" stroke="midnightblue" points="356.137,-196.185 365.362,-201.396 361.4,-191.57 356.137,-196.185"/>
</g>
<!-- Node3 -->
<g id="node3" class="node"><title>Node3</title>
<g id="a_node3"><a xlink:href="_main_8cpp.html" target="_top" xlink:title="Q:/Documents/GitHub\l/MIDI2LR/Source/Main.cpp">
<polygon fill="white" stroke="black" points="157.23,-0.5 157.23,-30.5 290.23,-30.5 290.23,-0.5 157.23,-0.5"/>
<text text-anchor="start" x="165.23" y="-18.5" font-family="Helvetica,sans-Serif" font-size="10.00">Q:/Documents/GitHub</text>
<text text-anchor="middle" x="223.73" y="-7.5" font-family="Helvetica,sans-Serif" font-size="10.00">/MIDI2LR/Source/Main.cpp</text>
</a>
</g>
</g>
<!-- Node1&#45;&gt;Node3 -->
<g id="edge11" class="edge"><title>Node1&#45;&gt;Node3</title>
<path fill="none" stroke="midnightblue" d="M279.952,-210.969C193.469,-205.197 75.3497,-192.446 37.7297,-165 10.9139,-145.436 12.2593,-130.329 4.72966,-98 1.60433,-84.5814 -3.84862,-77.7815 4.72966,-67 23.5572,-43.3368 99.8695,-29.8154 157.154,-22.8294"/>
<polygon fill="midnightblue" stroke="midnightblue" points="279.864,-214.471 290.069,-211.622 280.315,-207.485 279.864,-214.471"/>
</g>
<!-- Node4 -->
<g id="node4" class="node"><title>Node4</title>
<g id="a_node4"><a xlink:href="_main_window_8h.html" target="_top" xlink:title="Q:/Documents/GitHub\l/MIDI2LR/Source/MainWindow.h">
<polygon fill="white" stroke="black" points="290.23,-67.5 290.23,-97.5 447.23,-97.5 447.23,-67.5 290.23,-67.5"/>
<text text-anchor="start" x="298.23" y="-85.5" font-family="Helvetica,sans-Serif" font-size="10.00">Q:/Documents/GitHub</text>
<text text-anchor="middle" x="368.73" y="-74.5" font-family="Helvetica,sans-Serif" font-size="10.00">/MIDI2LR/Source/MainWindow.h</text>
</a>
</g>
</g>
<!-- Node1&#45;&gt;Node4 -->
<g id="edge10" class="edge"><title>Node1&#45;&gt;Node4</title>
<path fill="none" stroke="midnightblue" d="M399.191,-193.44C405.823,-185.189 412.286,-175.302 415.73,-165 420.097,-151.933 420.773,-146.822 415.73,-134 410.03,-119.511 397.999,-106.714 387.537,-97.6281"/>
<polygon fill="midnightblue" stroke="midnightblue" points="396.471,-191.236 392.608,-201.102 401.78,-195.798 396.471,-191.236"/>
</g>
<!-- Node7 -->
<g id="node7" class="node"><title>Node7</title>
<g id="a_node7"><a xlink:href="_version_checker_8h.html" target="_top" xlink:title="Q:/Documents/GitHub\l/MIDI2LR/Source/VersionChecker.h">
<polygon fill="white" stroke="black" points="46.7297,-134.5 46.7297,-164.5 216.73,-164.5 216.73,-134.5 46.7297,-134.5"/>
<text text-anchor="start" x="54.7297" y="-152.5" font-family="Helvetica,sans-Serif" font-size="10.00">Q:/Documents/GitHub</text>
<text text-anchor="middle" x="131.73" y="-141.5" font-family="Helvetica,sans-Serif" font-size="10.00">/MIDI2LR/Source/VersionChecker.h</text>
</a>
</g>
</g>
<!-- Node1&#45;&gt;Node7 -->
<g id="edge7" class="edge"><title>Node1&#45;&gt;Node7</title>
<path fill="none" stroke="midnightblue" d="M314.97,-198.917C274.825,-188.31 223.313,-174.699 185.134,-164.611"/>
<polygon fill="midnightblue" stroke="midnightblue" points="314.092,-202.305 324.654,-201.476 315.88,-195.537 314.092,-202.305"/>
</g>
<!-- Node9 -->
<g id="node9" class="node"><title>Node9</title>
<g id="a_node9"><a xlink:href="_settings_component_8h.html" target="_top" xlink:title="Q:/Documents/GitHub\l/MIDI2LR/Source/SettingsComponent.h">
<polygon fill="white" stroke="black" points="463.23,-134.5 463.23,-164.5 650.23,-164.5 650.23,-134.5 463.23,-134.5"/>
<text text-anchor="start" x="471.23" y="-152.5" font-family="Helvetica,sans-Serif" font-size="10.00">Q:/Documents/GitHub</text>
<text text-anchor="middle" x="556.73" y="-141.5" font-family="Helvetica,sans-Serif" font-size="10.00">/MIDI2LR/Source/SettingsComponent.h</text>
</a>
</g>
</g>
<!-- Node1&#45;&gt;Node9 -->
<g id="edge12" class="edge"><title>Node1&#45;&gt;Node9</title>
<path fill="none" stroke="midnightblue" d="M426.045,-197.955C454.88,-187.485 491.007,-174.366 517.965,-164.577"/>
<polygon fill="midnightblue" stroke="midnightblue" points="424.775,-194.693 416.57,-201.396 427.164,-201.273 424.775,-194.693"/>
</g>
<!-- Node11 -->
<g id="node11" class="node"><title>Node11</title>
<g id="a_node11"><a xlink:href="_settings_manager_8cpp.html" target="_top" xlink:title="Q:/Documents/GitHub\l/MIDI2LR/Source/SettingsManager.cpp">
<polygon fill="white" stroke="black" points="668.23,-134.5 668.23,-164.5 853.23,-164.5 853.23,-134.5 668.23,-134.5"/>
<text text-anchor="start" x="676.23" y="-152.5" font-family="Helvetica,sans-Serif" font-size="10.00">Q:/Documents/GitHub</text>
<text text-anchor="middle" x="760.73" y="-141.5" font-family="Helvetica,sans-Serif" font-size="10.00">/MIDI2LR/Source/SettingsManager.cpp</text>
</a>
</g>
</g>
<!-- Node1&#45;&gt;Node11 -->
<g id="edge15" class="edge"><title>Node1&#45;&gt;Node11</title>
<path fill="none" stroke="midnightblue" d="M470.346,-199.782C533.647,-189.039 616.814,-174.924 677.914,-164.555"/>
<polygon fill="midnightblue" stroke="midnightblue" points="469.637,-196.352 460.363,-201.476 470.808,-203.253 469.637,-196.352"/>
</g>
<!-- Node2&#45;&gt;Node3 -->
<g id="edge2" class="edge"><title>Node2&#45;&gt;Node3</title>
<path fill="none" stroke="midnightblue" d="M302.634,-126.243C295.669,-117.525 287.716,-107.381 280.73,-98 263.404,-74.7349 244.27,-46.9061 233.163,-30.5229"/>
<polygon fill="midnightblue" stroke="midnightblue" points="299.951,-128.492 308.945,-134.093 305.407,-124.106 299.951,-128.492"/>
</g>
<!-- Node2&#45;&gt;Node4 -->
<g id="edge3" class="edge"><title>Node2&#45;&gt;Node4</title>
<path fill="none" stroke="midnightblue" d="M337.229,-126.157C344.228,-116.679 352.174,-105.919 358.335,-97.5765"/>
<polygon fill="midnightblue" stroke="midnightblue" points="334.27,-124.272 331.145,-134.396 339.901,-128.431 334.27,-124.272"/>
</g>
<!-- Node6 -->
<g id="node6" class="node"><title>Node6</title>
<g id="a_node6"><a xlink:href="_main_component_8cpp.html" target="_top" xlink:title="Q:/Documents/GitHub\l/MIDI2LR/Source/MainComponent.cpp">
<polygon fill="white" stroke="black" points="465.73,-67.5 465.73,-97.5 647.73,-97.5 647.73,-67.5 465.73,-67.5"/>
<text text-anchor="start" x="473.73" y="-85.5" font-family="Helvetica,sans-Serif" font-size="10.00">Q:/Documents/GitHub</text>
<text text-anchor="middle" x="556.73" y="-74.5" font-family="Helvetica,sans-Serif" font-size="10.00">/MIDI2LR/Source/MainComponent.cpp</text>
</a>
</g>
</g>
<!-- Node2&#45;&gt;Node6 -->
<g id="edge6" class="edge"><title>Node2&#45;&gt;Node6</title>
<path fill="none" stroke="midnightblue" d="M381.672,-131.715C420.077,-121.137 469.102,-107.635 505.496,-97.6109"/>
<polygon fill="midnightblue" stroke="midnightblue" points="380.359,-128.446 371.648,-134.476 382.218,-135.195 380.359,-128.446"/>
</g>
<!-- Node4&#45;&gt;Node3 -->
<g id="edge4" class="edge"><title>Node4&#45;&gt;Node3</title>
<path fill="none" stroke="midnightblue" d="M328.06,-63.2687C304.965,-52.9159 276.494,-40.1528 255.131,-30.5765"/>
<polygon fill="midnightblue" stroke="midnightblue" points="326.71,-66.4991 337.267,-67.396 329.573,-60.1116 326.71,-66.4991"/>
</g>
<!-- Node5 -->
<g id="node5" class="node"><title>Node5</title>
<g id="a_node5"><a xlink:href="_main_window_8cpp.html" target="_top" xlink:title="Q:/Documents/GitHub\l/MIDI2LR/Source/MainWindow.cpp">
<polygon fill="white" stroke="black" points="308.23,-0.5 308.23,-30.5 475.23,-30.5 475.23,-0.5 308.23,-0.5"/>
<text text-anchor="start" x="316.23" y="-18.5" font-family="Helvetica,sans-Serif" font-size="10.00">Q:/Documents/GitHub</text>
<text text-anchor="middle" x="391.73" y="-7.5" font-family="Helvetica,sans-Serif" font-size="10.00">/MIDI2LR/Source/MainWindow.cpp</text>
</a>
</g>
</g>
<!-- Node4&#45;&gt;Node5 -->
<g id="edge5" class="edge"><title>Node4&#45;&gt;Node5</title>
<path fill="none" stroke="midnightblue" d="M377.152,-57.6971C380.376,-48.5871 383.948,-38.4929 386.749,-30.5765"/>
<polygon fill="midnightblue" stroke="midnightblue" points="373.757,-56.8012 373.72,-67.396 380.356,-59.1363 373.757,-56.8012"/>
</g>
<!-- Node7&#45;&gt;Node3 -->
<g id="edge8" class="edge"><title>Node7&#45;&gt;Node3</title>
<path fill="none" stroke="midnightblue" d="M170.135,-128.888C182.501,-120.85 195.198,-110.473 203.73,-98 217.794,-77.4367 221.993,-47.9808 223.231,-30.6873"/>
<polygon fill="midnightblue" stroke="midnightblue" points="167.956,-126.118 161.253,-134.323 171.61,-132.088 167.956,-126.118"/>
</g>
<!-- Node8 -->
<g id="node8" class="node"><title>Node8</title>
<g id="a_node8"><a xlink:href="_version_checker_8cpp.html" target="_top" xlink:title="Q:/Documents/GitHub\l/MIDI2LR/Source/VersionChecker.cpp">
<polygon fill="white" stroke="black" points="14.2297,-67.5 14.2297,-97.5 195.23,-97.5 195.23,-67.5 14.2297,-67.5"/>
<text text-anchor="start" x="22.2297" y="-85.5" font-family="Helvetica,sans-Serif" font-size="10.00">Q:/Documents/GitHub</text>
<text text-anchor="middle" x="104.73" y="-74.5" font-family="Helvetica,sans-Serif" font-size="10.00">/MIDI2LR/Source/VersionChecker.cpp</text>
</a>
</g>
</g>
<!-- Node7&#45;&gt;Node8 -->
<g id="edge9" class="edge"><title>Node7&#45;&gt;Node8</title>
<path fill="none" stroke="midnightblue" d="M121.964,-124.991C118.148,-115.804 113.901,-105.578 110.577,-97.5765"/>
<polygon fill="midnightblue" stroke="midnightblue" points="118.803,-126.504 125.871,-134.396 125.267,-123.818 118.803,-126.504"/>
</g>
<!-- Node9&#45;&gt;Node6 -->
<g id="edge13" class="edge"><title>Node9&#45;&gt;Node6</title>
<path fill="none" stroke="midnightblue" d="M556.73,-124.108C556.73,-115.154 556.73,-105.323 556.73,-97.5765"/>
<polygon fill="midnightblue" stroke="midnightblue" points="553.23,-124.396 556.73,-134.396 560.23,-124.396 553.23,-124.396"/>
</g>
<!-- Node10 -->
<g id="node10" class="node"><title>Node10</title>
<g id="a_node10"><a xlink:href="_settings_component_8cpp.html" target="_top" xlink:title="Q:/Documents/GitHub\l/MIDI2LR/Source/SettingsComponent.cpp">
<polygon fill="white" stroke="black" points="666.23,-67.5 666.23,-97.5 863.23,-97.5 863.23,-67.5 666.23,-67.5"/>
<text text-anchor="start" x="674.23" y="-85.5" font-family="Helvetica,sans-Serif" font-size="10.00">Q:/Documents/GitHub</text>
<text text-anchor="middle" x="764.73" y="-74.5" font-family="Helvetica,sans-Serif" font-size="10.00">/MIDI2LR/Source/SettingsComponent.cpp</text>
</a>
</g>
</g>
<!-- Node9&#45;&gt;Node10 -->
<g id="edge14" class="edge"><title>Node9&#45;&gt;Node10</title>
<path fill="none" stroke="midnightblue" d="M611.308,-131.444C645.025,-120.908 687.771,-107.549 719.575,-97.6109"/>
<polygon fill="midnightblue" stroke="midnightblue" points="610.107,-128.152 601.606,-134.476 612.195,-134.834 610.107,-128.152"/>
</g>
</g>
</svg>
        <g id="navigator" transform="translate(0 0)" fill="#404254">
                <rect fill="#f2f5e9" fill-opacity="0.5" stroke="#606060" stroke-width=".5" x="0" y="0" width="60" height="60"/>
                <use id="zoomplus" xlink:href="#zoomPlus" x="17" y="9" onmousedown="handleZoom(evt,'in')"/>
                <use id="zoomminus" xlink:href="#zoomMin" x="42" y="9" onmousedown="handleZoom(evt,'out')"/>
                <use id="reset" xlink:href="#resetDef" x="30" y="36" onmousedown="handleReset()"/>
                <g id="arrowUp" xlink:href="#dirArrow" transform="translate(30 24)" onmousedown="handlePan(0,-1)">
                  <use xlink:href="#rim" fill="#404040">
                        <set attributeName="fill" to="#808080" begin="arrowUp.mouseover" end="arrowUp.mouseout"/>
                  </use>
                  <path fill="none" stroke="white" stroke-width="1.5" d="M0,-3.0v7 M-2.5,-0.5L0,-3.0L2.5,-0.5"/>
                </g>
                <g id="arrowRight" xlink:href="#dirArrow" transform="rotate(90) translate(36 -43)" onmousedown="handlePan(1,0)">
                  <use xlink:href="#rim" fill="#404040">
                        <set attributeName="fill" to="#808080" begin="arrowRight.mouseover" end="arrowRight.mouseout"/>
                  </use>
                  <path fill="none" stroke="white" stroke-width="1.5" d="M0,-3.0v7 M-2.5,-0.5L0,-3.0L2.5,-0.5"/>
                </g>
                <g id="arrowDown" xlink:href="#dirArrow" transform="rotate(180) translate(-30 -48)" onmousedown="handlePan(0,1)">
                  <use xlink:href="#rim" fill="#404040">
                        <set attributeName="fill" to="#808080" begin="arrowDown.mouseover" end="arrowDown.mouseout"/>
                  </use>
                  <path fill="none" stroke="white" stroke-width="1.5" d="M0,-3.0v7 M-2.5,-0.5L0,-3.0L2.5,-0.5"/>
                </g>
                <g id="arrowLeft" xlink:href="#dirArrow" transform="rotate(270) translate(-36 17)" onmousedown="handlePan(-1,0)">
                  <use xlink:href="#rim" fill="#404040">
                        <set attributeName="fill" to="#808080" begin="arrowLeft.mouseover" end="arrowLeft.mouseout"/>
                  </use>
                  <path fill="none" stroke="white" stroke-width="1.5" d="M0,-3.0v7 M-2.5,-0.5L0,-3.0L2.5,-0.5"/>
                </g>
        </g>
        <svg viewBox="0 0 15 15" width="100%" height="30px" preserveAspectRatio="xMaxYMin meet">
         <g id="arrow_out" transform="scale(0.3 0.3)">
          <a xlink:href="_settings_manager_8h__dep__incl_org.svg" target="_base">
           <rect id="button" ry="5" rx="5" y="6" x="6" height="38" width="38"
                fill="#f2f5e9" fill-opacity="0.5" stroke="#606060" stroke-width="1.0"/>
           <path id="arrow"
             d="M 11.500037,31.436501 C 11.940474,20.09759 22.043105,11.32322 32.158766,21.979434 L 37.068811,17.246167 C 37.068811,17.246167 37.088388,32 37.088388,32 L 22.160133,31.978069 C 22.160133,31.978069 26.997745,27.140456 26.997745,27.140456 C 18.528582,18.264221 13.291696,25.230495 11.500037,31.436501 z"
             style="fill:#404040;"/>
          </a>
         </g>
        </svg>
</svg>
