<?xml version="1.0" encoding="UTF-8" standalone="no"?>
<!DOCTYPE svg PUBLIC "-//W3C//DTD SVG 1.1//EN"
 "http://www.w3.org/Graphics/SVG/1.1/DTD/svg11.dtd">
<!-- Generated by graphviz version 2.38.0 (20140413.2041)
 -->
<!-- Title: Q:/Documents/GitHub/MIDI2LR/Source/SettingsManager.cpp Pages: 1 -->
<!--zoomable 386 -->
<svg id="main" version="1.1" xmlns="http://www.w3.org/2000/svg" xmlns:xlink="http://www.w3.org/1999/xlink" xml:space="preserve" onload="init(evt)">
<style type="text/css"><![CDATA[
.edge:hover path { stroke: red; }
.edge:hover polygon { stroke: red; fill: red; }
]]></style>
<script type="text/javascript"><![CDATA[
var edges = document.getElementsByTagName('g');
if (edges && edges.length) {
  for (var i=0;i<edges.length;i++) {
    if (edges[i].id.substr(0,4)=='edge') {
      edges[i].setAttribute('class','edge');
    }
  }
}
]]></script>
        <defs>
                <circle id="rim" cx="0" cy="0" r="7"/>
                <circle id="rim2" cx="0" cy="0" r="3.5"/>
                <g id="zoomPlus">
                        <use xlink:href="#rim" fill="#404040">
                                <set attributeName="fill" to="#808080" begin="zoomplus.mouseover" end="zoomplus.mouseout"/>
                        </use>
                        <path d="M-4,0h8M0,-4v8" fill="none" stroke="white" stroke-width="1.5" pointer-events="none"/>
                </g>
                <g id="zoomMin">
                        <use xlink:href="#rim" fill="#404040">
                                <set attributeName="fill" to="#808080" begin="zoomminus.mouseover" end="zoomminus.mouseout"/>
                        </use>
                        <path d="M-4,0h8" fill="none" stroke="white" stroke-width="1.5" pointer-events="none"/>
                </g>
                <g id="dirArrow">
                        <path fill="none" stroke="white" stroke-width="1.5" d="M0,-3.0v7 M-2.5,-0.5L0,-3.0L2.5,-0.5"/>
                </g>
               <g id="resetDef">
                       <use xlink:href="#rim2" fill="#404040">
                               <set attributeName="fill" to="#808080" begin="reset.mouseover" end="reset.mouseout"/>
                       </use>
               </g>
        </defs>

<script type="text/javascript">
var viewWidth = 513;
var viewHeight = 386;
var sectionId = 'dynsection-0';
</script>
<script xlink:href="svgpan.js"/>
<svg id="graph" class="graph">
<g id="viewport">
<title>Q:/Documents/GitHub/MIDI2LR/Source/SettingsManager.cpp</title>
<polygon fill="white" stroke="none" points="-4,4 -4,-382 508.706,-382 508.706,4 -4,4"/>
<!-- Node1 -->
<g id="node1" class="node"><title>Node1</title>
<polygon fill="#bfbfbf" stroke="black" points="62.2062,-347.5 62.2062,-377.5 247.206,-377.5 247.206,-347.5 62.2062,-347.5"/>
<text text-anchor="start" x="70.2062" y="-365.5" font-family="Helvetica,sans-Serif" font-size="10.00">Q:/Documents/GitHub</text>
<text text-anchor="middle" x="154.706" y="-354.5" font-family="Helvetica,sans-Serif" font-size="10.00">/MIDI2LR/Source/SettingsManager.cpp</text>
</g>
<!-- Node2 -->
<g id="node2" class="node"><title>Node2</title>
<g id="a_node2"><a xlink:href="_settings_manager_8h.html" target="_top" xlink:title="SettingsManager.h">
<polygon fill="white" stroke="black" points="67.7062,-291.5 67.7062,-310.5 165.706,-310.5 165.706,-291.5 67.7062,-291.5"/>
<text text-anchor="middle" x="116.706" y="-298.5" font-family="Helvetica,sans-Serif" font-size="10.00">SettingsManager.h</text>
</a>
</g>
</g>
<!-- Node1&#45;&gt;Node2 -->
<g id="edge1" class="edge"><title>Node1&#45;&gt;Node2</title>
<path fill="none" stroke="midnightblue" d="M145.701,-347.399C140.293,-338.932 133.375,-328.099 127.652,-319.139"/>
<polygon fill="midnightblue" stroke="midnightblue" points="130.568,-317.202 122.236,-310.658 124.668,-320.97 130.568,-317.202"/>
</g>
<!-- Node13 -->
<g id="node13" class="node"><title>Node13</title>
<g id="a_node13"><a xlink:href="_profile_manager_8h.html" target="_top" xlink:title="ProfileManager.h">
<polygon fill="white" stroke="black" points="149.206,-235.5 149.206,-254.5 238.206,-254.5 238.206,-235.5 149.206,-235.5"/>
<text text-anchor="middle" x="193.706" y="-242.5" font-family="Helvetica,sans-Serif" font-size="10.00">ProfileManager.h</text>
</a>
</g>
</g>
<!-- Node1&#45;&gt;Node13 -->
<g id="edge22" class="edge"><title>Node1&#45;&gt;Node13</title>
<path fill="none" stroke="midnightblue" d="M160.663,-347.482C164.84,-337.419 170.419,-323.486 174.706,-311 180.016,-295.537 185.163,-277.693 188.758,-264.618"/>
<polygon fill="midnightblue" stroke="midnightblue" points="192.151,-265.48 191.382,-254.913 185.393,-263.653 192.151,-265.48"/>
</g>
<!-- Node3 -->
<g id="node3" class="node"><title>Node3</title>
<polygon fill="white" stroke="#bfbfbf" points="118.706,-56.5 118.706,-86.5 216.706,-86.5 216.706,-56.5 118.706,-56.5"/>
<text text-anchor="start" x="126.706" y="-74.5" font-family="Helvetica,sans-Serif" font-size="10.00">../JuceLibraryCode</text>
<text text-anchor="middle" x="167.706" y="-63.5" font-family="Helvetica,sans-Serif" font-size="10.00">/JuceHeader.h</text>
</g>
<!-- Node2&#45;&gt;Node3 -->
<g id="edge2" class="edge"><title>Node2&#45;&gt;Node3</title>
<path fill="none" stroke="midnightblue" d="M104.262,-291.354C67.9215,-265.059 -32.7445,-184.111 11.7062,-123 23.4654,-106.833 69.2769,-93.2056 108.237,-84.1968"/>
<polygon fill="midnightblue" stroke="midnightblue" points="109.499,-87.5007 118.488,-81.8939 107.964,-80.6709 109.499,-87.5007"/>
</g>
<!-- Node4 -->
<g id="node4" class="node"><title>Node4</title>
<g id="a_node4"><a xlink:href="_l_r___i_p_c___out_8h.html" target="_top" xlink:title="LR_IPC_OUT.h">
<polygon fill="white" stroke="black" points="78.2062,-179.5 78.2062,-198.5 161.206,-198.5 161.206,-179.5 78.2062,-179.5"/>
<text text-anchor="middle" x="119.706" y="-186.5" font-family="Helvetica,sans-Serif" font-size="10.00">LR_IPC_OUT.h</text>
</a>
</g>
</g>
<!-- Node2&#45;&gt;Node4 -->
<g id="edge3" class="edge"><title>Node2&#45;&gt;Node4</title>
<path fill="none" stroke="midnightblue" d="M116.942,-291.368C117.426,-273.617 118.543,-232.666 119.199,-208.597"/>
<polygon fill="midnightblue" stroke="midnightblue" points="122.698,-208.683 119.472,-198.591 115.701,-208.492 122.698,-208.683"/>
</g>
<!-- Node2&#45;&gt;Node13 -->
<g id="edge17" class="edge"><title>Node2&#45;&gt;Node13</title>
<path fill="none" stroke="midnightblue" d="M129.078,-291.324C140.865,-283.058 158.839,-270.453 172.842,-260.632"/>
<polygon fill="midnightblue" stroke="midnightblue" points="175.188,-263.262 181.366,-254.655 171.169,-257.531 175.188,-263.262"/>
</g>
<!-- Node4&#45;&gt;Node3 -->
<g id="edge4" class="edge"><title>Node4&#45;&gt;Node3</title>
<path fill="none" stroke="midnightblue" d="M121.338,-179.341C123.898,-166.646 129.438,-142.388 137.706,-123 141.76,-113.494 147.306,-103.6 152.527,-95.1149"/>
<polygon fill="midnightblue" stroke="midnightblue" points="155.564,-96.862 157.979,-86.5461 149.658,-93.1042 155.564,-96.862"/>
</g>
<!-- Node5 -->
<g id="node5" class="node"><title>Node5</title>
<g id="a_node5"><a xlink:href="_m_i_d_i_processor_8h.html" target="_top" xlink:title="MIDIProcessor.h">
<polygon fill="white" stroke="black" points="147.206,-123.5 147.206,-142.5 236.206,-142.5 236.206,-123.5 147.206,-123.5"/>
<text text-anchor="middle" x="191.706" y="-130.5" font-family="Helvetica,sans-Serif" font-size="10.00">MIDIProcessor.h</text>
</a>
</g>
</g>
<!-- Node4&#45;&gt;Node5 -->
<g id="edge5" class="edge"><title>Node4&#45;&gt;Node5</title>
<path fill="none" stroke="midnightblue" d="M131.274,-179.324C142.126,-171.185 158.587,-158.839 171.59,-149.087"/>
<polygon fill="midnightblue" stroke="midnightblue" points="174.028,-151.634 179.928,-142.834 169.828,-146.034 174.028,-151.634"/>
</g>
<!-- Node6 -->
<g id="node6" class="node"><title>Node6</title>
<g id="a_node6"><a xlink:href="_command_map_8h.html" target="_top" xlink:title="CommandMap.h">
<polygon fill="white" stroke="black" points="292.706,-123.5 292.706,-142.5 380.706,-142.5 380.706,-123.5 292.706,-123.5"/>
<text text-anchor="middle" x="336.706" y="-130.5" font-family="Helvetica,sans-Serif" font-size="10.00">CommandMap.h</text>
</a>
</g>
</g>
<!-- Node4&#45;&gt;Node6 -->
<g id="edge7" class="edge"><title>Node4&#45;&gt;Node6</title>
<path fill="none" stroke="midnightblue" d="M154.091,-179.444C191.628,-170.102 251.837,-155.119 292.774,-144.933"/>
<polygon fill="midnightblue" stroke="midnightblue" points="293.624,-148.328 302.483,-142.516 291.934,-141.535 293.624,-148.328"/>
</g>
<!-- Node11 -->
<g id="node11" class="node"><title>Node11</title>
<g id="a_node11"><a xlink:href="_send_keys_8h.html" target="_top" xlink:title="SendKeys.h">
<polygon fill="white" stroke="black" points="20.7062,-123.5 20.7062,-142.5 90.7062,-142.5 90.7062,-123.5 20.7062,-123.5"/>
<text text-anchor="middle" x="55.7062" y="-130.5" font-family="Helvetica,sans-Serif" font-size="10.00">SendKeys.h</text>
</a>
</g>
</g>
<!-- Node4&#45;&gt;Node11 -->
<g id="edge14" class="edge"><title>Node4&#45;&gt;Node11</title>
<path fill="none" stroke="midnightblue" d="M109.424,-179.324C99.8699,-171.263 85.4266,-159.077 73.9219,-149.369"/>
<polygon fill="midnightblue" stroke="midnightblue" points="76.076,-146.608 66.1761,-142.834 71.5619,-151.958 76.076,-146.608"/>
</g>
<!-- Node5&#45;&gt;Node3 -->
<g id="edge6" class="edge"><title>Node5&#45;&gt;Node3</title>
<path fill="none" stroke="midnightblue" d="M188.268,-123.475C185.382,-116.32 181.117,-105.748 177.219,-96.0841"/>
<polygon fill="midnightblue" stroke="midnightblue" points="180.349,-94.4877 173.363,-86.523 173.858,-97.1062 180.349,-94.4877"/>
</g>
<!-- Node6&#45;&gt;Node3 -->
<g id="edge8" class="edge"><title>Node6&#45;&gt;Node3</title>
<path fill="none" stroke="midnightblue" d="M312.493,-123.475C287.679,-114.739 248.392,-100.907 217,-89.855"/>
<polygon fill="midnightblue" stroke="midnightblue" points="218.131,-86.5426 207.536,-86.523 215.806,-93.1453 218.131,-86.5426"/>
</g>
<!-- Node7 -->
<g id="node7" class="node"><title>Node7</title>
<polygon fill="white" stroke="#bfbfbf" points="265.206,-62 265.206,-81 348.206,-81 348.206,-62 265.206,-62"/>
<text text-anchor="middle" x="306.706" y="-69" font-family="Helvetica,sans-Serif" font-size="10.00">unordered_map</text>
</g>
<!-- Node6&#45;&gt;Node7 -->
<g id="edge9" class="edge"><title>Node6&#45;&gt;Node7</title>
<path fill="none" stroke="midnightblue" d="M332.408,-123.475C328.042,-114.815 321.151,-101.149 315.603,-90.1453"/>
<polygon fill="midnightblue" stroke="midnightblue" points="318.624,-88.3625 310.997,-81.0091 312.373,-91.5141 318.624,-88.3625"/>
</g>
<!-- Node8 -->
<g id="node8" class="node"><title>Node8</title>
<g id="a_node8"><a xlink:href="_subject_8h.html" target="_top" xlink:title="Pattern/Subject.h">
<polygon fill="white" stroke="black" points="366.706,-62 366.706,-81 458.706,-81 458.706,-62 366.706,-62"/>
<text text-anchor="middle" x="412.706" y="-69" font-family="Helvetica,sans-Serif" font-size="10.00">Pattern/Subject.h</text>
</a>
</g>
</g>
<!-- Node6&#45;&gt;Node8 -->
<g id="edge10" class="edge"><title>Node6&#45;&gt;Node8</title>
<path fill="none" stroke="midnightblue" d="M347.595,-123.475C359.672,-114.02 379.373,-98.5961 393.946,-87.1871"/>
<polygon fill="midnightblue" stroke="midnightblue" points="396.121,-89.9295 401.837,-81.0091 391.806,-84.4177 396.121,-89.9295"/>
</g>
<!-- Node9 -->
<g id="node9" class="node"><title>Node9</title>
<g id="a_node9"><a xlink:href="_observer_8h.html" target="_top" xlink:title="Observer.h">
<polygon fill="white" stroke="black" points="381.206,-0.5 381.206,-19.5 444.206,-19.5 444.206,-0.5 381.206,-0.5"/>
<text text-anchor="middle" x="412.706" y="-7.5" font-family="Helvetica,sans-Serif" font-size="10.00">Observer.h</text>
</a>
</g>
</g>
<!-- Node8&#45;&gt;Node9 -->
<g id="edge11" class="edge"><title>Node8&#45;&gt;Node9</title>
<path fill="none" stroke="midnightblue" d="M407.806,-61.9751C405.975,-53.5803 405.503,-40.4806 406.391,-29.6631"/>
<polygon fill="midnightblue" stroke="midnightblue" points="409.893,-29.897 407.809,-19.5091 402.96,-28.929 409.893,-29.897"/>
</g>
<!-- Node10 -->
<g id="node10" class="node"><title>Node10</title>
<polygon fill="white" stroke="#bfbfbf" points="462.706,-0.5 462.706,-19.5 504.706,-19.5 504.706,-0.5 462.706,-0.5"/>
<text text-anchor="middle" x="483.706" y="-7.5" font-family="Helvetica,sans-Serif" font-size="10.00">vector</text>
</g>
<!-- Node8&#45;&gt;Node10 -->
<g id="edge13" class="edge"><title>Node8&#45;&gt;Node10</title>
<path fill="none" stroke="midnightblue" d="M422.879,-61.9751C434.056,-52.6082 452.223,-37.3839 465.797,-26.0081"/>
<polygon fill="midnightblue" stroke="midnightblue" points="468.136,-28.6148 473.553,-19.5091 463.64,-23.2496 468.136,-28.6148"/>
</g>
<!-- Node9&#45;&gt;Node8 -->
<g id="edge12" class="edge"><title>Node9&#45;&gt;Node8</title>
<path fill="none" stroke="midnightblue" d="M417.603,-19.5091C419.436,-27.898 419.909,-40.9962 419.023,-51.8165"/>
<polygon fill="midnightblue" stroke="midnightblue" points="415.521,-51.5876 417.607,-61.9751 422.454,-52.554 415.521,-51.5876"/>
</g>
<!-- Node11&#45;&gt;Node3 -->
<g id="edge16" class="edge"><title>Node11&#45;&gt;Node3</title>
<path fill="none" stroke="midnightblue" d="M71.7531,-123.475C87.489,-115.115 112.007,-102.09 132.32,-91.2991"/>
<polygon fill="midnightblue" stroke="midnightblue" points="134.121,-94.3055 141.31,-86.523 130.837,-88.1237 134.121,-94.3055"/>
</g>
<!-- Node12 -->
<g id="node12" class="node"><title>Node12</title>
<polygon fill="white" stroke="#bfbfbf" points="33.7062,-62 33.7062,-81 77.7062,-81 77.7062,-62 33.7062,-62"/>
<text text-anchor="middle" x="55.7062" y="-69" font-family="Helvetica,sans-Serif" font-size="10.00">mutex</text>
</g>
<!-- Node11&#45;&gt;Node12 -->
<g id="edge15" class="edge"><title>Node11&#45;&gt;Node12</title>
<path fill="none" stroke="midnightblue" d="M55.7062,-123.475C55.7062,-115.08 55.7062,-101.981 55.7062,-91.1631"/>
<polygon fill="midnightblue" stroke="midnightblue" points="59.2063,-91.0091 55.7062,-81.0091 52.2063,-91.0091 59.2063,-91.0091"/>
</g>
<!-- Node13&#45;&gt;Node3 -->
<g id="edge18" class="edge"><title>Node13&#45;&gt;Node3</title>
<path fill="none" stroke="midnightblue" d="M202.772,-235.227C222.622,-214.917 266.479,-163.318 244.706,-123 237.547,-109.742 225.222,-99.4017 212.506,-91.6271"/>
<polygon fill="midnightblue" stroke="midnightblue" points="214.126,-88.5228 203.698,-86.6504 210.683,-94.6172 214.126,-88.5228"/>
</g>
<!-- Node13&#45;&gt;Node4 -->
<g id="edge20" class="edge"><title>Node13&#45;&gt;Node4</title>
<path fill="none" stroke="midnightblue" d="M181.817,-235.324C170.556,-227.107 153.42,-214.602 139.997,-204.807"/>
<polygon fill="midnightblue" stroke="midnightblue" points="141.953,-201.901 131.812,-198.834 137.827,-207.556 141.953,-201.901"/>
</g>
<!-- Node13&#45;&gt;Node5 -->
<g id="edge19" class="edge"><title>Node13&#45;&gt;Node5</title>
<path fill="none" stroke="midnightblue" d="M193.549,-235.368C193.227,-217.617 192.482,-176.666 192.044,-152.597"/>
<polygon fill="midnightblue" stroke="midnightblue" points="195.544,-152.526 191.862,-142.591 188.545,-152.653 195.544,-152.526"/>
</g>
<!-- Node13&#45;&gt;Node6 -->
<g id="edge21" class="edge"><title>Node13&#45;&gt;Node6</title>
<path fill="none" stroke="midnightblue" d="M214.858,-235.347C232.853,-227.412 258.859,-214.549 278.706,-199 296.481,-185.074 313.25,-165.284 324.141,-151.206"/>
<polygon fill="midnightblue" stroke="midnightblue" points="327.178,-152.991 330.401,-142.898 321.587,-148.779 327.178,-152.991"/>
</g>
</g>
</svg>
        <g id="navigator" transform="translate(0 0)" fill="#404254">
                <rect fill="#f2f5e9" fill-opacity="0.5" stroke="#606060" stroke-width=".5" x="0" y="0" width="60" height="60"/>
                <use id="zoomplus" xlink:href="#zoomPlus" x="17" y="9" onmousedown="handleZoom(evt,'in')"/>
                <use id="zoomminus" xlink:href="#zoomMin" x="42" y="9" onmousedown="handleZoom(evt,'out')"/>
                <use id="reset" xlink:href="#resetDef" x="30" y="36" onmousedown="handleReset()"/>
                <g id="arrowUp" xlink:href="#dirArrow" transform="translate(30 24)" onmousedown="handlePan(0,-1)">
                  <use xlink:href="#rim" fill="#404040">
                        <set attributeName="fill" to="#808080" begin="arrowUp.mouseover" end="arrowUp.mouseout"/>
                  </use>
                  <path fill="none" stroke="white" stroke-width="1.5" d="M0,-3.0v7 M-2.5,-0.5L0,-3.0L2.5,-0.5"/>
                </g>
                <g id="arrowRight" xlink:href="#dirArrow" transform="rotate(90) translate(36 -43)" onmousedown="handlePan(1,0)">
                  <use xlink:href="#rim" fill="#404040">
                        <set attributeName="fill" to="#808080" begin="arrowRight.mouseover" end="arrowRight.mouseout"/>
                  </use>
                  <path fill="none" stroke="white" stroke-width="1.5" d="M0,-3.0v7 M-2.5,-0.5L0,-3.0L2.5,-0.5"/>
                </g>
                <g id="arrowDown" xlink:href="#dirArrow" transform="rotate(180) translate(-30 -48)" onmousedown="handlePan(0,1)">
                  <use xlink:href="#rim" fill="#404040">
                        <set attributeName="fill" to="#808080" begin="arrowDown.mouseover" end="arrowDown.mouseout"/>
                  </use>
                  <path fill="none" stroke="white" stroke-width="1.5" d="M0,-3.0v7 M-2.5,-0.5L0,-3.0L2.5,-0.5"/>
                </g>
                <g id="arrowLeft" xlink:href="#dirArrow" transform="rotate(270) translate(-36 17)" onmousedown="handlePan(-1,0)">
                  <use xlink:href="#rim" fill="#404040">
                        <set attributeName="fill" to="#808080" begin="arrowLeft.mouseover" end="arrowLeft.mouseout"/>
                  </use>
                  <path fill="none" stroke="white" stroke-width="1.5" d="M0,-3.0v7 M-2.5,-0.5L0,-3.0L2.5,-0.5"/>
                </g>
        </g>
        <svg viewBox="0 0 15 15" width="100%" height="30px" preserveAspectRatio="xMaxYMin meet">
         <g id="arrow_out" transform="scale(0.3 0.3)">
          <a xlink:href="_settings_manager_8cpp__incl_org.svg" target="_base">
           <rect id="button" ry="5" rx="5" y="6" x="6" height="38" width="38"
                fill="#f2f5e9" fill-opacity="0.5" stroke="#606060" stroke-width="1.0"/>
           <path id="arrow"
             d="M 11.500037,31.436501 C 11.940474,20.09759 22.043105,11.32322 32.158766,21.979434 L 37.068811,17.246167 C 37.068811,17.246167 37.088388,32 37.088388,32 L 22.160133,31.978069 C 22.160133,31.978069 26.997745,27.140456 26.997745,27.140456 C 18.528582,18.264221 13.291696,25.230495 11.500037,31.436501 z"
             style="fill:#404040;"/>
          </a>
         </g>
        </svg>
</svg>
