<?xml version="1.0" encoding="UTF-8" standalone="no"?>
<!DOCTYPE svg PUBLIC "-//W3C//DTD SVG 1.1//EN"
 "http://www.w3.org/Graphics/SVG/1.1/DTD/svg11.dtd">
<!-- Generated by graphviz version 2.38.0 (20140413.2041)
 -->
<!-- Title: Q:/Documents/GitHub/MIDI2LR/Source/SettingsComponent.cpp Pages: 1 -->
<svg width="657pt" height="442pt"
 viewBox="0.00 0.00 657.00 442.00" xmlns="http://www.w3.org/2000/svg" xmlns:xlink="http://www.w3.org/1999/xlink">
<g id="graph0" class="graph" transform="scale(1 1) rotate(0) translate(4 438)">
<title>Q:/Documents/GitHub/MIDI2LR/Source/SettingsComponent.cpp</title>
<polygon fill="white" stroke="none" points="-4,4 -4,-438 653,-438 653,4 -4,4"/>
<!-- Node1 -->
<g id="node1" class="node"><title>Node1</title>
<polygon fill="#bfbfbf" stroke="black" points="310,-403.5 310,-433.5 507,-433.5 507,-403.5 310,-403.5"/>
<text text-anchor="start" x="318" y="-421.5" font-family="Helvetica,sans-Serif" font-size="10.00">Q:/Documents/GitHub</text>
<text text-anchor="middle" x="408.5" y="-410.5" font-family="Helvetica,sans-Serif" font-size="10.00">/MIDI2LR/Source/SettingsComponent.cpp</text>
</g>
<!-- Node2 -->
<g id="node2" class="node"><title>Node2</title>
<polygon fill="white" stroke="#bfbfbf" points="248.5,-56.5 248.5,-86.5 346.5,-86.5 346.5,-56.5 248.5,-56.5"/>
<text text-anchor="start" x="256.5" y="-74.5" font-family="Helvetica,sans-Serif" font-size="10.00">../JuceLibraryCode</text>
<text text-anchor="middle" x="297.5" y="-63.5" font-family="Helvetica,sans-Serif" font-size="10.00">/JuceHeader.h</text>
</g>
<!-- Node1&#45;&gt;Node2 -->
<g id="edge1" class="edge"><title>Node1&#45;&gt;Node2</title>
<path fill="none" stroke="midnightblue" d="M468.308,-403.379C517.619,-387.761 579.5,-357.171 579.5,-302 579.5,-302 579.5,-302 579.5,-188 579.5,-157.902 582.766,-143.251 560.5,-123 556.704,-119.548 433.026,-96.8331 356.646,-83.0704"/>
<polygon fill="midnightblue" stroke="midnightblue" points="357.121,-79.5997 346.659,-81.2733 355.881,-86.4891 357.121,-79.5997"/>
</g>
<!-- Node3 -->
<g id="node3" class="node"><title>Node3</title>
<g id="a_node3"><a xlink:href="_settings_component_8h.html" target="_top" xlink:title="SettingsComponent.h">
<polygon fill="white" stroke="black" points="126.5,-347.5 126.5,-366.5 236.5,-366.5 236.5,-347.5 126.5,-347.5"/>
<text text-anchor="middle" x="181.5" y="-354.5" font-family="Helvetica,sans-Serif" font-size="10.00">SettingsComponent.h</text>
</a>
</g>
</g>
<!-- Node1&#45;&gt;Node3 -->
<g id="edge2" class="edge"><title>Node1&#45;&gt;Node3</title>
<path fill="none" stroke="midnightblue" d="M354.992,-403.475C314.974,-392.986 260.995,-378.837 223.932,-369.122"/>
<polygon fill="midnightblue" stroke="midnightblue" points="224.514,-365.656 213.953,-366.506 222.739,-372.428 224.514,-365.656"/>
</g>
<!-- Node3&#45;&gt;Node2 -->
<g id="edge3" class="edge"><title>Node3&#45;&gt;Node2</title>
<path fill="none" stroke="midnightblue" d="M173.477,-347.358C157.992,-329.738 125.5,-287.788 125.5,-246 125.5,-246 125.5,-246 125.5,-188 125.5,-132.192 188.681,-101.605 238.458,-86.1676"/>
<polygon fill="midnightblue" stroke="midnightblue" points="239.617,-89.4746 248.212,-83.2791 237.629,-82.7628 239.617,-89.4746"/>
</g>
<!-- Node4 -->
<g id="node4" class="node"><title>Node4</title>
<g id="a_node4"><a xlink:href="_resizable_layout_8h.html" target="_top" xlink:title="ResizableLayout.h">
<polygon fill="white" stroke="black" points="0,-291.5 0,-310.5 97,-310.5 97,-291.5 0,-291.5"/>
<text text-anchor="middle" x="48.5" y="-298.5" font-family="Helvetica,sans-Serif" font-size="10.00">ResizableLayout.h</text>
</a>
</g>
</g>
<!-- Node3&#45;&gt;Node4 -->
<g id="edge4" class="edge"><title>Node3&#45;&gt;Node4</title>
<path fill="none" stroke="midnightblue" d="M160.426,-347.444C138.44,-338.517 103.766,-324.439 78.8359,-314.317"/>
<polygon fill="midnightblue" stroke="midnightblue" points="80.0578,-311.035 69.4756,-310.516 77.4244,-317.521 80.0578,-311.035"/>
</g>
<!-- Node6 -->
<g id="node6" class="node"><title>Node6</title>
<g id="a_node6"><a xlink:href="_settings_manager_8h.html" target="_top" xlink:title="SettingsManager.h">
<polygon fill="white" stroke="black" points="189.5,-291.5 189.5,-310.5 287.5,-310.5 287.5,-291.5 189.5,-291.5"/>
<text text-anchor="middle" x="238.5" y="-298.5" font-family="Helvetica,sans-Serif" font-size="10.00">SettingsManager.h</text>
</a>
</g>
</g>
<!-- Node3&#45;&gt;Node6 -->
<g id="edge6" class="edge"><title>Node3&#45;&gt;Node6</title>
<path fill="none" stroke="midnightblue" d="M190.658,-347.324C199.001,-339.42 211.532,-327.548 221.677,-317.938"/>
<polygon fill="midnightblue" stroke="midnightblue" points="224.323,-320.252 229.175,-310.834 219.509,-315.171 224.323,-320.252"/>
</g>
<!-- Node5 -->
<g id="node5" class="node"><title>Node5</title>
<polygon fill="white" stroke="#bfbfbf" points="10.5,-235.5 10.5,-254.5 86.5,-254.5 86.5,-235.5 10.5,-235.5"/>
<text text-anchor="middle" x="48.5" y="-242.5" font-family="Helvetica,sans-Serif" font-size="10.00">JuceHeader.h</text>
</g>
<!-- Node4&#45;&gt;Node5 -->
<g id="edge5" class="edge"><title>Node4&#45;&gt;Node5</title>
<path fill="none" stroke="midnightblue" d="M48.5,-291.083C48.5,-284.006 48.5,-273.861 48.5,-264.986"/>
<polygon fill="midnightblue" stroke="midnightblue" points="52.0001,-264.751 48.5,-254.751 45.0001,-264.751 52.0001,-264.751"/>
</g>
<!-- Node6&#45;&gt;Node2 -->
<g id="edge7" class="edge"><title>Node6&#45;&gt;Node2</title>
<path fill="none" stroke="midnightblue" d="M233.48,-291.18C218.762,-264.045 178.761,-180.191 211.5,-123 219.332,-109.318 232.473,-98.9797 246.155,-91.338"/>
<polygon fill="midnightblue" stroke="midnightblue" points="247.883,-94.3851 255.174,-86.6977 244.68,-88.1607 247.883,-94.3851"/>
</g>
<!-- Node7 -->
<g id="node7" class="node"><title>Node7</title>
<g id="a_node7"><a xlink:href="_l_r___i_p_c___out_8h.html" target="_top" xlink:title="LR_IPC_OUT.h">
<polygon fill="white" stroke="black" points="306,-179.5 306,-198.5 389,-198.5 389,-179.5 306,-179.5"/>
<text text-anchor="middle" x="347.5" y="-186.5" font-family="Helvetica,sans-Serif" font-size="10.00">LR_IPC_OUT.h</text>
</a>
</g>
</g>
<!-- Node6&#45;&gt;Node7 -->
<g id="edge8" class="edge"><title>Node6&#45;&gt;Node7</title>
<path fill="none" stroke="midnightblue" d="M268.827,-291.473C288.151,-284.576 312.32,-273.001 327.5,-255 338.551,-241.895 343.5,-222.748 345.714,-208.627"/>
<polygon fill="midnightblue" stroke="midnightblue" points="349.201,-208.948 346.967,-198.592 342.255,-208.081 349.201,-208.948"/>
</g>
<!-- Node16 -->
<g id="node16" class="node"><title>Node16</title>
<g id="a_node16"><a xlink:href="_profile_manager_8h.html" target="_top" xlink:title="ProfileManager.h">
<polygon fill="white" stroke="black" points="230,-235.5 230,-254.5 319,-254.5 319,-235.5 230,-235.5"/>
<text text-anchor="middle" x="274.5" y="-242.5" font-family="Helvetica,sans-Serif" font-size="10.00">ProfileManager.h</text>
</a>
</g>
</g>
<!-- Node6&#45;&gt;Node16 -->
<g id="edge22" class="edge"><title>Node6&#45;&gt;Node16</title>
<path fill="none" stroke="midnightblue" d="M244.445,-291.083C249.477,-283.534 256.837,-272.495 263.013,-263.23"/>
<polygon fill="midnightblue" stroke="midnightblue" points="266.031,-265.013 268.666,-254.751 260.207,-261.13 266.031,-265.013"/>
</g>
<!-- Node7&#45;&gt;Node2 -->
<g id="edge9" class="edge"><title>Node7&#45;&gt;Node2</title>
<path fill="none" stroke="midnightblue" d="M345.536,-179.352C342.502,-166.671 336.113,-142.429 327.5,-123 323.312,-113.552 317.738,-103.67 312.532,-95.1788"/>
<polygon fill="midnightblue" stroke="midnightblue" points="315.41,-93.1818 307.111,-86.5968 309.492,-96.9204 315.41,-93.1818"/>
</g>
<!-- Node8 -->
<g id="node8" class="node"><title>Node8</title>
<g id="a_node8"><a xlink:href="_m_i_d_i_processor_8h.html" target="_top" xlink:title="MIDIProcessor.h">
<polygon fill="white" stroke="black" points="230,-123.5 230,-142.5 319,-142.5 319,-123.5 230,-123.5"/>
<text text-anchor="middle" x="274.5" y="-130.5" font-family="Helvetica,sans-Serif" font-size="10.00">MIDIProcessor.h</text>
</a>
</g>
</g>
<!-- Node7&#45;&gt;Node8 -->
<g id="edge10" class="edge"><title>Node7&#45;&gt;Node8</title>
<path fill="none" stroke="midnightblue" d="M335.771,-179.324C324.663,-171.107 307.758,-158.602 294.517,-148.807"/>
<polygon fill="midnightblue" stroke="midnightblue" points="296.563,-145.967 286.442,-142.834 292.4,-151.595 296.563,-145.967"/>
</g>
<!-- Node9 -->
<g id="node9" class="node"><title>Node9</title>
<g id="a_node9"><a xlink:href="_command_map_8h.html" target="_top" xlink:title="CommandMap.h">
<polygon fill="white" stroke="black" points="463.5,-123.5 463.5,-142.5 551.5,-142.5 551.5,-123.5 463.5,-123.5"/>
<text text-anchor="middle" x="507.5" y="-130.5" font-family="Helvetica,sans-Serif" font-size="10.00">CommandMap.h</text>
</a>
</g>
</g>
<!-- Node7&#45;&gt;Node9 -->
<g id="edge12" class="edge"><title>Node7&#45;&gt;Node9</title>
<path fill="none" stroke="midnightblue" d="M372.852,-179.444C399.769,-170.359 442.496,-155.939 472.587,-145.783"/>
<polygon fill="midnightblue" stroke="midnightblue" points="473.91,-149.031 482.266,-142.516 471.672,-142.398 473.91,-149.031"/>
</g>
<!-- Node14 -->
<g id="node14" class="node"><title>Node14</title>
<g id="a_node14"><a xlink:href="_send_keys_8h.html" target="_top" xlink:title="SendKeys.h">
<polygon fill="white" stroke="black" points="375.5,-123.5 375.5,-142.5 445.5,-142.5 445.5,-123.5 375.5,-123.5"/>
<text text-anchor="middle" x="410.5" y="-130.5" font-family="Helvetica,sans-Serif" font-size="10.00">SendKeys.h</text>
</a>
</g>
</g>
<!-- Node7&#45;&gt;Node14 -->
<g id="edge19" class="edge"><title>Node7&#45;&gt;Node14</title>
<path fill="none" stroke="midnightblue" d="M357.622,-179.324C367.026,-171.263 381.244,-159.077 392.569,-149.369"/>
<polygon fill="midnightblue" stroke="midnightblue" points="394.879,-151.999 400.194,-142.834 390.323,-146.684 394.879,-151.999"/>
</g>
<!-- Node8&#45;&gt;Node2 -->
<g id="edge11" class="edge"><title>Node8&#45;&gt;Node2</title>
<path fill="none" stroke="midnightblue" d="M277.795,-123.475C280.561,-116.32 284.648,-105.748 288.383,-96.0841"/>
<polygon fill="midnightblue" stroke="midnightblue" points="291.738,-97.1123 292.079,-86.523 285.209,-94.5884 291.738,-97.1123"/>
</g>
<!-- Node9&#45;&gt;Node2 -->
<g id="edge13" class="edge"><title>Node9&#45;&gt;Node2</title>
<path fill="none" stroke="midnightblue" d="M477.412,-123.475C445.942,-114.559 395.739,-100.334 356.351,-89.1746"/>
<polygon fill="midnightblue" stroke="midnightblue" points="357.164,-85.7671 346.589,-86.4084 355.256,-92.502 357.164,-85.7671"/>
</g>
<!-- Node10 -->
<g id="node10" class="node"><title>Node10</title>
<polygon fill="white" stroke="#bfbfbf" points="566,-62 566,-81 649,-81 649,-62 566,-62"/>
<text text-anchor="middle" x="607.5" y="-69" font-family="Helvetica,sans-Serif" font-size="10.00">unordered_map</text>
</g>
<!-- Node9&#45;&gt;Node10 -->
<g id="edge14" class="edge"><title>Node9&#45;&gt;Node10</title>
<path fill="none" stroke="midnightblue" d="M521.828,-123.475C538.164,-113.755 565.102,-97.7266 584.412,-86.2372"/>
<polygon fill="midnightblue" stroke="midnightblue" points="586.395,-89.1303 593.199,-81.0091 582.815,-83.1146 586.395,-89.1303"/>
</g>
<!-- Node11 -->
<g id="node11" class="node"><title>Node11</title>
<g id="a_node11"><a xlink:href="_subject_8h.html" target="_top" xlink:title="Pattern/Subject.h">
<polygon fill="white" stroke="black" points="455.5,-62 455.5,-81 547.5,-81 547.5,-62 455.5,-62"/>
<text text-anchor="middle" x="501.5" y="-69" font-family="Helvetica,sans-Serif" font-size="10.00">Pattern/Subject.h</text>
</a>
</g>
</g>
<!-- Node9&#45;&gt;Node11 -->
<g id="edge15" class="edge"><title>Node9&#45;&gt;Node11</title>
<path fill="none" stroke="midnightblue" d="M506.64,-123.475C505.794,-115.08 504.473,-101.981 503.382,-91.1631"/>
<polygon fill="midnightblue" stroke="midnightblue" points="506.844,-90.6074 502.358,-81.0091 499.879,-91.3098 506.844,-90.6074"/>
</g>
<!-- Node12 -->
<g id="node12" class="node"><title>Node12</title>
<g id="a_node12"><a xlink:href="_observer_8h.html" target="_top" xlink:title="Observer.h">
<polygon fill="white" stroke="black" points="470,-0.5 470,-19.5 533,-19.5 533,-0.5 470,-0.5"/>
<text text-anchor="middle" x="501.5" y="-7.5" font-family="Helvetica,sans-Serif" font-size="10.00">Observer.h</text>
</a>
</g>
</g>
<!-- Node11&#45;&gt;Node12 -->
<g id="edge16" class="edge"><title>Node11&#45;&gt;Node12</title>
<path fill="none" stroke="midnightblue" d="M496.599,-61.9751C494.768,-53.5803 494.297,-40.4806 495.185,-29.6631"/>
<polygon fill="midnightblue" stroke="midnightblue" points="498.686,-29.897 496.603,-19.5091 491.754,-28.929 498.686,-29.897"/>
</g>
<!-- Node13 -->
<g id="node13" class="node"><title>Node13</title>
<polygon fill="white" stroke="#bfbfbf" points="551.5,-0.5 551.5,-19.5 593.5,-19.5 593.5,-0.5 551.5,-0.5"/>
<text text-anchor="middle" x="572.5" y="-7.5" font-family="Helvetica,sans-Serif" font-size="10.00">vector</text>
</g>
<!-- Node11&#45;&gt;Node13 -->
<g id="edge18" class="edge"><title>Node11&#45;&gt;Node13</title>
<path fill="none" stroke="midnightblue" d="M511.673,-61.9751C522.85,-52.6082 541.017,-37.3839 554.591,-26.0081"/>
<polygon fill="midnightblue" stroke="midnightblue" points="556.93,-28.6148 562.346,-19.5091 552.434,-23.2496 556.93,-28.6148"/>
</g>
<!-- Node12&#45;&gt;Node11 -->
<g id="edge17" class="edge"><title>Node12&#45;&gt;Node11</title>
<path fill="none" stroke="midnightblue" d="M506.397,-19.5091C508.23,-27.898 508.703,-40.9962 507.817,-51.8165"/>
<polygon fill="midnightblue" stroke="midnightblue" points="504.315,-51.5876 506.401,-61.9751 511.248,-52.554 504.315,-51.5876"/>
</g>
<!-- Node14&#45;&gt;Node2 -->
<g id="edge21" class="edge"><title>Node14&#45;&gt;Node2</title>
<path fill="none" stroke="midnightblue" d="M394.31,-123.475C378.433,-115.115 353.697,-102.09 333.202,-91.2991"/>
<polygon fill="midnightblue" stroke="midnightblue" points="334.611,-88.0852 324.132,-86.523 331.35,-94.279 334.611,-88.0852"/>
</g>
<!-- Node15 -->
<g id="node15" class="node"><title>Node15</title>
<polygon fill="white" stroke="#bfbfbf" points="388.5,-62 388.5,-81 432.5,-81 432.5,-62 388.5,-62"/>
<text text-anchor="middle" x="410.5" y="-69" font-family="Helvetica,sans-Serif" font-size="10.00">mutex</text>
</g>
<!-- Node14&#45;&gt;Node15 -->
<g id="edge20" class="edge"><title>Node14&#45;&gt;Node15</title>
<path fill="none" stroke="midnightblue" d="M410.5,-123.475C410.5,-115.08 410.5,-101.981 410.5,-91.1631"/>
<polygon fill="midnightblue" stroke="midnightblue" points="414,-91.0091 410.5,-81.0091 407,-91.0091 414,-91.0091"/>
</g>
<!-- Node16&#45;&gt;Node2 -->
<g id="edge23" class="edge"><title>Node16&#45;&gt;Node2</title>
<path fill="none" stroke="midnightblue" d="M265.051,-235.278C244.349,-215.074 198.529,-163.684 220.5,-123 227.66,-109.742 239.984,-99.4017 252.701,-91.6271"/>
<polygon fill="midnightblue" stroke="midnightblue" points="254.524,-94.6172 261.508,-86.6504 251.08,-88.5228 254.524,-94.6172"/>
</g>
<!-- Node16&#45;&gt;Node7 -->
<g id="edge25" class="edge"><title>Node16&#45;&gt;Node7</title>
<path fill="none" stroke="midnightblue" d="M286.229,-235.324C297.337,-227.107 314.242,-214.602 327.483,-204.807"/>
<polygon fill="midnightblue" stroke="midnightblue" points="329.6,-207.595 335.558,-198.834 325.437,-201.967 329.6,-207.595"/>
</g>
<!-- Node16&#45;&gt;Node8 -->
<g id="edge24" class="edge"><title>Node16&#45;&gt;Node8</title>
<path fill="none" stroke="midnightblue" d="M274.5,-235.368C274.5,-217.617 274.5,-176.666 274.5,-152.597"/>
<polygon fill="midnightblue" stroke="midnightblue" points="278,-152.591 274.5,-142.591 271,-152.591 278,-152.591"/>
</g>
<!-- Node16&#45;&gt;Node9 -->
<g id="edge26" class="edge"><title>Node16&#45;&gt;Node9</title>
<path fill="none" stroke="midnightblue" d="M302.447,-235.398C327.769,-227.226 365.851,-213.985 397.5,-199 429.602,-183.8 464.581,-162.184 486.279,-148.126"/>
<polygon fill="midnightblue" stroke="midnightblue" points="488.266,-151.008 494.717,-142.604 484.433,-145.151 488.266,-151.008"/>
</g>
</g>
</svg>
