<?xml version="1.0" encoding="UTF-8" standalone="no"?>
<!DOCTYPE svg PUBLIC "-//W3C//DTD SVG 1.1//EN"
 "http://www.w3.org/Graphics/SVG/1.1/DTD/svg11.dtd">
<!-- Generated by graphviz version 2.38.0 (20140413.2041)
 -->
<!-- Title: Q:/Documents/GitHub/MIDI2LR/Source/SettingsManager.h Pages: 1 -->
<svg width="470pt" height="330pt"
 viewBox="0.00 0.00 470.00 330.00" xmlns="http://www.w3.org/2000/svg" xmlns:xlink="http://www.w3.org/1999/xlink">
<g id="graph0" class="graph" transform="scale(1 1) rotate(0) translate(4 326)">
<title>Q:/Documents/GitHub/MIDI2LR/Source/SettingsManager.h</title>
<polygon fill="white" stroke="none" points="-4,4 -4,-326 466,-326 466,4 -4,4"/>
<!-- Node1 -->
<g id="node1" class="node"><title>Node1</title>
<polygon fill="#bfbfbf" stroke="black" points="287,-291.5 287,-321.5 462,-321.5 462,-291.5 287,-291.5"/>
<text text-anchor="start" x="295" y="-309.5" font-family="Helvetica,sans-Serif" font-size="10.00">Q:/Documents/GitHub</text>
<text text-anchor="middle" x="374.5" y="-298.5" font-family="Helvetica,sans-Serif" font-size="10.00">/MIDI2LR/Source/SettingsManager.h</text>
</g>
<!-- Node2 -->
<g id="node2" class="node"><title>Node2</title>
<polygon fill="white" stroke="#bfbfbf" points="301.5,-56.5 301.5,-86.5 399.5,-86.5 399.5,-56.5 301.5,-56.5"/>
<text text-anchor="start" x="309.5" y="-74.5" font-family="Helvetica,sans-Serif" font-size="10.00">../JuceLibraryCode</text>
<text text-anchor="middle" x="350.5" y="-63.5" font-family="Helvetica,sans-Serif" font-size="10.00">/JuceHeader.h</text>
</g>
<!-- Node1&#45;&gt;Node2 -->
<g id="edge1" class="edge"><title>Node1&#45;&gt;Node2</title>
<path fill="none" stroke="midnightblue" d="M394.833,-291.492C406.321,-282.448 419.869,-269.655 427.5,-255 454.82,-202.536 474.856,-173.768 444.5,-123 436.076,-108.911 422.222,-98.5254 407.706,-90.9669"/>
<polygon fill="midnightblue" stroke="midnightblue" points="409.155,-87.7806 398.624,-86.6183 406.132,-94.0941 409.155,-87.7806"/>
</g>
<!-- Node3 -->
<g id="node3" class="node"><title>Node3</title>
<g id="a_node3"><a xlink:href="_l_r___i_p_c___out_8h.html" target="_top" xlink:title="LR_IPC_OUT.h">
<polygon fill="white" stroke="black" points="260,-179.5 260,-198.5 343,-198.5 343,-179.5 260,-179.5"/>
<text text-anchor="middle" x="301.5" y="-186.5" font-family="Helvetica,sans-Serif" font-size="10.00">LR_IPC_OUT.h</text>
</a>
</g>
</g>
<!-- Node1&#45;&gt;Node3 -->
<g id="edge2" class="edge"><title>Node1&#45;&gt;Node3</title>
<path fill="none" stroke="midnightblue" d="M354.752,-291.381C343.246,-282.209 329.312,-269.321 320.5,-255 311.739,-240.763 306.849,-222.289 304.232,-208.677"/>
<polygon fill="midnightblue" stroke="midnightblue" points="307.645,-207.866 302.534,-198.586 300.742,-209.028 307.645,-207.866"/>
</g>
<!-- Node12 -->
<g id="node12" class="node"><title>Node12</title>
<g id="a_node12"><a xlink:href="_profile_manager_8h.html" target="_top" xlink:title="ProfileManager.h">
<polygon fill="white" stroke="black" points="330,-235.5 330,-254.5 419,-254.5 419,-235.5 330,-235.5"/>
<text text-anchor="middle" x="374.5" y="-242.5" font-family="Helvetica,sans-Serif" font-size="10.00">ProfileManager.h</text>
</a>
</g>
</g>
<!-- Node1&#45;&gt;Node12 -->
<g id="edge16" class="edge"><title>Node1&#45;&gt;Node12</title>
<path fill="none" stroke="midnightblue" d="M374.5,-291.399C374.5,-283.466 374.5,-273.458 374.5,-264.858"/>
<polygon fill="midnightblue" stroke="midnightblue" points="378,-264.658 374.5,-254.658 371,-264.658 378,-264.658"/>
</g>
<!-- Node3&#45;&gt;Node2 -->
<g id="edge3" class="edge"><title>Node3&#45;&gt;Node2</title>
<path fill="none" stroke="midnightblue" d="M303.298,-179.346C306.096,-166.658 312.06,-142.407 320.5,-123 324.622,-113.523 330.181,-103.635 335.395,-95.1467"/>
<polygon fill="midnightblue" stroke="midnightblue" points="338.433,-96.8911 340.831,-86.5713 332.521,-93.143 338.433,-96.8911"/>
</g>
<!-- Node4 -->
<g id="node4" class="node"><title>Node4</title>
<g id="a_node4"><a xlink:href="_m_i_d_i_processor_8h.html" target="_top" xlink:title="MIDIProcessor.h">
<polygon fill="white" stroke="black" points="330,-123.5 330,-142.5 419,-142.5 419,-123.5 330,-123.5"/>
<text text-anchor="middle" x="374.5" y="-130.5" font-family="Helvetica,sans-Serif" font-size="10.00">MIDIProcessor.h</text>
</a>
</g>
</g>
<!-- Node3&#45;&gt;Node4 -->
<g id="edge4" class="edge"><title>Node3&#45;&gt;Node4</title>
<path fill="none" stroke="midnightblue" d="M313.229,-179.324C324.337,-171.107 341.242,-158.602 354.483,-148.807"/>
<polygon fill="midnightblue" stroke="midnightblue" points="356.6,-151.595 362.558,-142.834 352.437,-145.967 356.6,-151.595"/>
</g>
<!-- Node5 -->
<g id="node5" class="node"><title>Node5</title>
<g id="a_node5"><a xlink:href="_command_map_8h.html" target="_top" xlink:title="CommandMap.h">
<polygon fill="white" stroke="black" points="97.5,-123.5 97.5,-142.5 185.5,-142.5 185.5,-123.5 97.5,-123.5"/>
<text text-anchor="middle" x="141.5" y="-130.5" font-family="Helvetica,sans-Serif" font-size="10.00">CommandMap.h</text>
</a>
</g>
</g>
<!-- Node3&#45;&gt;Node5 -->
<g id="edge6" class="edge"><title>Node3&#45;&gt;Node5</title>
<path fill="none" stroke="midnightblue" d="M276.148,-179.444C249.231,-170.359 206.504,-155.939 176.413,-145.783"/>
<polygon fill="midnightblue" stroke="midnightblue" points="177.328,-142.398 166.734,-142.516 175.09,-149.031 177.328,-142.398"/>
</g>
<!-- Node10 -->
<g id="node10" class="node"><title>Node10</title>
<g id="a_node10"><a xlink:href="_send_keys_8h.html" target="_top" xlink:title="SendKeys.h">
<polygon fill="white" stroke="black" points="203.5,-123.5 203.5,-142.5 273.5,-142.5 273.5,-123.5 203.5,-123.5"/>
<text text-anchor="middle" x="238.5" y="-130.5" font-family="Helvetica,sans-Serif" font-size="10.00">SendKeys.h</text>
</a>
</g>
</g>
<!-- Node3&#45;&gt;Node10 -->
<g id="edge13" class="edge"><title>Node3&#45;&gt;Node10</title>
<path fill="none" stroke="midnightblue" d="M291.378,-179.324C281.974,-171.263 267.756,-159.077 256.431,-149.369"/>
<polygon fill="midnightblue" stroke="midnightblue" points="258.677,-146.684 248.806,-142.834 254.121,-151.999 258.677,-146.684"/>
</g>
<!-- Node4&#45;&gt;Node2 -->
<g id="edge5" class="edge"><title>Node4&#45;&gt;Node2</title>
<path fill="none" stroke="midnightblue" d="M371.061,-123.475C368.175,-116.32 363.911,-105.748 360.013,-96.0841"/>
<polygon fill="midnightblue" stroke="midnightblue" points="363.143,-94.4877 356.156,-86.523 356.651,-97.1062 363.143,-94.4877"/>
</g>
<!-- Node5&#45;&gt;Node2 -->
<g id="edge7" class="edge"><title>Node5&#45;&gt;Node2</title>
<path fill="none" stroke="midnightblue" d="M171.445,-123.475C202.661,-114.588 252.397,-100.429 291.538,-89.2859"/>
<polygon fill="midnightblue" stroke="midnightblue" points="292.583,-92.6274 301.243,-86.523 290.667,-85.8949 292.583,-92.6274"/>
</g>
<!-- Node6 -->
<g id="node6" class="node"><title>Node6</title>
<polygon fill="white" stroke="#bfbfbf" points="0,-62 0,-81 83,-81 83,-62 0,-62"/>
<text text-anchor="middle" x="41.5" y="-69" font-family="Helvetica,sans-Serif" font-size="10.00">unordered_map</text>
</g>
<!-- Node5&#45;&gt;Node6 -->
<g id="edge8" class="edge"><title>Node5&#45;&gt;Node6</title>
<path fill="none" stroke="midnightblue" d="M127.172,-123.475C110.836,-113.755 83.8976,-97.7266 64.5877,-86.2372"/>
<polygon fill="midnightblue" stroke="midnightblue" points="66.1845,-83.1146 55.801,-81.0091 62.6051,-89.1303 66.1845,-83.1146"/>
</g>
<!-- Node7 -->
<g id="node7" class="node"><title>Node7</title>
<g id="a_node7"><a xlink:href="_subject_8h.html" target="_top" xlink:title="Pattern/Subject.h">
<polygon fill="white" stroke="black" points="101.5,-62 101.5,-81 193.5,-81 193.5,-62 101.5,-62"/>
<text text-anchor="middle" x="147.5" y="-69" font-family="Helvetica,sans-Serif" font-size="10.00">Pattern/Subject.h</text>
</a>
</g>
</g>
<!-- Node5&#45;&gt;Node7 -->
<g id="edge9" class="edge"><title>Node5&#45;&gt;Node7</title>
<path fill="none" stroke="midnightblue" d="M142.36,-123.475C143.206,-115.08 144.527,-101.981 145.618,-91.1631"/>
<polygon fill="midnightblue" stroke="midnightblue" points="149.121,-91.3098 146.642,-81.0091 142.156,-90.6074 149.121,-91.3098"/>
</g>
<!-- Node8 -->
<g id="node8" class="node"><title>Node8</title>
<g id="a_node8"><a xlink:href="_observer_8h.html" target="_top" xlink:title="Observer.h">
<polygon fill="white" stroke="black" points="116,-0.5 116,-19.5 179,-19.5 179,-0.5 116,-0.5"/>
<text text-anchor="middle" x="147.5" y="-7.5" font-family="Helvetica,sans-Serif" font-size="10.00">Observer.h</text>
</a>
</g>
</g>
<!-- Node7&#45;&gt;Node8 -->
<g id="edge10" class="edge"><title>Node7&#45;&gt;Node8</title>
<path fill="none" stroke="midnightblue" d="M142.599,-61.9751C140.768,-53.5803 140.297,-40.4806 141.185,-29.6631"/>
<polygon fill="midnightblue" stroke="midnightblue" points="144.686,-29.897 142.603,-19.5091 137.754,-28.929 144.686,-29.897"/>
</g>
<!-- Node9 -->
<g id="node9" class="node"><title>Node9</title>
<polygon fill="white" stroke="#bfbfbf" points="197.5,-0.5 197.5,-19.5 239.5,-19.5 239.5,-0.5 197.5,-0.5"/>
<text text-anchor="middle" x="218.5" y="-7.5" font-family="Helvetica,sans-Serif" font-size="10.00">vector</text>
</g>
<!-- Node7&#45;&gt;Node9 -->
<g id="edge12" class="edge"><title>Node7&#45;&gt;Node9</title>
<path fill="none" stroke="midnightblue" d="M157.673,-61.9751C168.85,-52.6082 187.017,-37.3839 200.591,-26.0081"/>
<polygon fill="midnightblue" stroke="midnightblue" points="202.93,-28.6148 208.346,-19.5091 198.434,-23.2496 202.93,-28.6148"/>
</g>
<!-- Node8&#45;&gt;Node7 -->
<g id="edge11" class="edge"><title>Node8&#45;&gt;Node7</title>
<path fill="none" stroke="midnightblue" d="M152.397,-19.5091C154.23,-27.898 154.703,-40.9962 153.817,-51.8165"/>
<polygon fill="midnightblue" stroke="midnightblue" points="150.315,-51.5876 152.401,-61.9751 157.248,-52.554 150.315,-51.5876"/>
</g>
<!-- Node10&#45;&gt;Node2 -->
<g id="edge15" class="edge"><title>Node10&#45;&gt;Node2</title>
<path fill="none" stroke="midnightblue" d="M254.547,-123.475C270.283,-115.115 294.801,-102.09 315.114,-91.2991"/>
<polygon fill="midnightblue" stroke="midnightblue" points="316.915,-94.3055 324.104,-86.523 313.631,-88.1237 316.915,-94.3055"/>
</g>
<!-- Node11 -->
<g id="node11" class="node"><title>Node11</title>
<polygon fill="white" stroke="#bfbfbf" points="216.5,-62 216.5,-81 260.5,-81 260.5,-62 216.5,-62"/>
<text text-anchor="middle" x="238.5" y="-69" font-family="Helvetica,sans-Serif" font-size="10.00">mutex</text>
</g>
<!-- Node10&#45;&gt;Node11 -->
<g id="edge14" class="edge"><title>Node10&#45;&gt;Node11</title>
<path fill="none" stroke="midnightblue" d="M238.5,-123.475C238.5,-115.08 238.5,-101.981 238.5,-91.1631"/>
<polygon fill="midnightblue" stroke="midnightblue" points="242,-91.0091 238.5,-81.0091 235,-91.0091 242,-91.0091"/>
</g>
<!-- Node12&#45;&gt;Node2 -->
<g id="edge17" class="edge"><title>Node12&#45;&gt;Node2</title>
<path fill="none" stroke="midnightblue" d="M383.821,-235.261C404.239,-215.021 449.404,-163.56 427.5,-123 420.34,-109.742 408.016,-99.4017 395.299,-91.6271"/>
<polygon fill="midnightblue" stroke="midnightblue" points="396.92,-88.5228 386.492,-86.6504 393.476,-94.6172 396.92,-88.5228"/>
</g>
<!-- Node12&#45;&gt;Node3 -->
<g id="edge19" class="edge"><title>Node12&#45;&gt;Node3</title>
<path fill="none" stroke="midnightblue" d="M362.771,-235.324C351.663,-227.107 334.758,-214.602 321.517,-204.807"/>
<polygon fill="midnightblue" stroke="midnightblue" points="323.563,-201.967 313.442,-198.834 319.4,-207.595 323.563,-201.967"/>
</g>
<!-- Node12&#45;&gt;Node4 -->
<g id="edge18" class="edge"><title>Node12&#45;&gt;Node4</title>
<path fill="none" stroke="midnightblue" d="M374.5,-235.368C374.5,-217.617 374.5,-176.666 374.5,-152.597"/>
<polygon fill="midnightblue" stroke="midnightblue" points="378,-152.591 374.5,-142.591 371,-152.591 378,-152.591"/>
</g>
<!-- Node12&#45;&gt;Node5 -->
<g id="edge20" class="edge"><title>Node12&#45;&gt;Node5</title>
<path fill="none" stroke="midnightblue" d="M346.307,-235.46C320.765,-227.329 282.365,-214.115 250.5,-199 218.624,-183.88 183.98,-162.244 162.501,-148.159"/>
<polygon fill="midnightblue" stroke="midnightblue" points="164.418,-145.231 154.148,-142.626 160.552,-151.067 164.418,-145.231"/>
</g>
</g>
</svg>
