<?xml version="1.0" encoding="UTF-8" standalone="no"?>
<!DOCTYPE svg PUBLIC "-//W3C//DTD SVG 1.1//EN"
 "http://www.w3.org/Graphics/SVG/1.1/DTD/svg11.dtd">
<!-- Generated by graphviz version 2.38.0 (20140413.2041)
 -->
<!-- Title: Q:/Documents/GitHub/MIDI2LR/Source/Pattern/Subject.cpp Pages: 1 -->
<svg width="163pt" height="162pt"
 viewBox="0.00 0.00 162.50 162.00" xmlns="http://www.w3.org/2000/svg" xmlns:xlink="http://www.w3.org/1999/xlink">
<g id="graph0" class="graph" transform="scale(1 1) rotate(0) translate(4 158)">
<title>Q:/Documents/GitHub/MIDI2LR/Source/Pattern/Subject.cpp</title>
<polygon fill="white" stroke="none" points="-4,4 -4,-158 158.5,-158 158.5,4 -4,4"/>
<!-- Node1 -->
<g id="node1" class="node"><title>Node1</title>
<polygon fill="#bfbfbf" stroke="black" points="0,-112.5 0,-153.5 125,-153.5 125,-112.5 0,-112.5"/>
<text text-anchor="start" x="8" y="-141.5" font-family="Helvetica,sans-Serif" font-size="10.00">Q:/Documents/GitHub</text>
<text text-anchor="start" x="8" y="-130.5" font-family="Helvetica,sans-Serif" font-size="10.00">/MIDI2LR/Source/Pattern</text>
<text text-anchor="middle" x="62.5" y="-119.5" font-family="Helvetica,sans-Serif" font-size="10.00">/Subject.cpp</text>
</g>
<!-- Node2 -->
<g id="node2" class="node"><title>Node2</title>
<g id="a_node2"><a xlink:href="_subject_8h.html" target="_top" xlink:title="Subject.h">
<polygon fill="white" stroke="black" points="33.5,-56.5 33.5,-75.5 91.5,-75.5 91.5,-56.5 33.5,-56.5"/>
<text text-anchor="middle" x="62.5" y="-63.5" font-family="Helvetica,sans-Serif" font-size="10.00">Subject.h</text>
</a>
</g>
</g>
<!-- Node1&#45;&gt;Node2 -->
<g id="edge1" class="edge"><title>Node1&#45;&gt;Node2</title>
<path fill="none" stroke="midnightblue" d="M62.5,-112.498C62.5,-104.065 62.5,-94.2351 62.5,-85.874"/>
<polygon fill="midnightblue" stroke="midnightblue" points="66.0001,-85.6525 62.5,-75.6525 59.0001,-85.6525 66.0001,-85.6525"/>
</g>
<!-- Node3 -->
<g id="node3" class="node"><title>Node3</title>
<g id="a_node3"><a xlink:href="_observer_8h.html" target="_top" xlink:title="Observer.h">
<polygon fill="white" stroke="black" points="31,-0.5 31,-19.5 94,-19.5 94,-0.5 31,-0.5"/>
<text text-anchor="middle" x="62.5" y="-7.5" font-family="Helvetica,sans-Serif" font-size="10.00">Observer.h</text>
</a>
</g>
</g>
<!-- Node2&#45;&gt;Node3 -->
<g id="edge2" class="edge"><title>Node2&#45;&gt;Node3</title>
<path fill="none" stroke="midnightblue" d="M57.3337,-56.083C55.8242,-48.9272 55.3938,-38.6353 56.0425,-29.6911"/>
<polygon fill="midnightblue" stroke="midnightblue" points="59.5154,-30.1262 57.369,-19.7511 52.5769,-29.2002 59.5154,-30.1262"/>
</g>
<!-- Node4 -->
<g id="node4" class="node"><title>Node4</title>
<polygon fill="white" stroke="#bfbfbf" points="112.5,-0.5 112.5,-19.5 154.5,-19.5 154.5,-0.5 112.5,-0.5"/>
<text text-anchor="middle" x="133.5" y="-7.5" font-family="Helvetica,sans-Serif" font-size="10.00">vector</text>
</g>
<!-- Node2&#45;&gt;Node4 -->
<g id="edge4" class="edge"><title>Node2&#45;&gt;Node4</title>
<path fill="none" stroke="midnightblue" d="M73.9074,-56.324C84.6088,-48.1849 100.841,-35.8395 113.663,-26.0874"/>
<polygon fill="midnightblue" stroke="midnightblue" points="116.044,-28.6734 121.885,-19.8339 111.807,-23.1018 116.044,-28.6734"/>
</g>
<!-- Node3&#45;&gt;Node2 -->
<g id="edge3" class="edge"><title>Node3&#45;&gt;Node2</title>
<path fill="none" stroke="midnightblue" d="M67.631,-19.7511C69.1573,-26.8579 69.6044,-37.1357 68.9724,-46.1005"/>
<polygon fill="midnightblue" stroke="midnightblue" points="65.4933,-45.7134 67.6663,-56.083 72.4342,-46.6216 65.4933,-45.7134"/>
</g>
</g>
</svg>
