<?xml version="1.0" encoding="UTF-8" standalone="no"?>
<!DOCTYPE svg PUBLIC "-//W3C//DTD SVG 1.1//EN"
 "http://www.w3.org/Graphics/SVG/1.1/DTD/svg11.dtd">
<!-- Generated by graphviz version 2.38.0 (20140413.2041)
 -->
<!-- Title: Q:/Documents/GitHub/MIDI2LR/Source/Pattern/Subject.h Pages: 1 -->
<!--zoomable 574 -->
<svg id="main" version="1.1" xmlns="http://www.w3.org/2000/svg" xmlns:xlink="http://www.w3.org/1999/xlink" xml:space="preserve" onload="init(evt)">
<style type="text/css"><![CDATA[
.edge:hover path { stroke: red; }
.edge:hover polygon { stroke: red; fill: red; }
]]></style>
<script type="text/javascript"><![CDATA[
var edges = document.getElementsByTagName('g');
if (edges && edges.length) {
  for (var i=0;i<edges.length;i++) {
    if (edges[i].id.substr(0,4)=='edge') {
      edges[i].setAttribute('class','edge');
    }
  }
}
]]></script>
        <defs>
                <circle id="rim" cx="0" cy="0" r="7"/>
                <circle id="rim2" cx="0" cy="0" r="3.5"/>
                <g id="zoomPlus">
                        <use xlink:href="#rim" fill="#404040">
                                <set attributeName="fill" to="#808080" begin="zoomplus.mouseover" end="zoomplus.mouseout"/>
                        </use>
                        <path d="M-4,0h8M0,-4v8" fill="none" stroke="white" stroke-width="1.5" pointer-events="none"/>
                </g>
                <g id="zoomMin">
                        <use xlink:href="#rim" fill="#404040">
                                <set attributeName="fill" to="#808080" begin="zoomminus.mouseover" end="zoomminus.mouseout"/>
                        </use>
                        <path d="M-4,0h8" fill="none" stroke="white" stroke-width="1.5" pointer-events="none"/>
                </g>
                <g id="dirArrow">
                        <path fill="none" stroke="white" stroke-width="1.5" d="M0,-3.0v7 M-2.5,-0.5L0,-3.0L2.5,-0.5"/>
                </g>
               <g id="resetDef">
                       <use xlink:href="#rim2" fill="#404040">
                               <set attributeName="fill" to="#808080" begin="reset.mouseover" end="reset.mouseout"/>
                       </use>
               </g>
        </defs>

<script type="text/javascript">
var viewWidth = 1773;
var viewHeight = 574;
var sectionId = 'dynsection-1';
</script>
<script xlink:href="svgpan.js"/>
<svg id="graph" class="graph">
<g id="viewport">
<title>Q:/Documents/GitHub/MIDI2LR/Source/Pattern/Subject.h</title>
<polygon fill="white" stroke="none" points="-4,4 -4,-570 1768.5,-570 1768.5,4 -4,4"/>
<!-- Node1 -->
<g id="node1" class="node"><title>Node1</title>
<polygon fill="#bfbfbf" stroke="black" points="1369.5,-524.5 1369.5,-565.5 1494.5,-565.5 1494.5,-524.5 1369.5,-524.5"/>
<text text-anchor="start" x="1377.5" y="-553.5" font-family="Helvetica,sans-Serif" font-size="10.00">Q:/Documents/GitHub</text>
<text text-anchor="start" x="1377.5" y="-542.5" font-family="Helvetica,sans-Serif" font-size="10.00">/MIDI2LR/Source/Pattern</text>
<text text-anchor="middle" x="1432" y="-531.5" font-family="Helvetica,sans-Serif" font-size="10.00">/Subject.h</text>
</g>
<!-- Node2 -->
<g id="node2" class="node"><title>Node2</title>
<g id="a_node2"><a xlink:href="_command_map_8h.html" target="_top" xlink:title="Q:/Documents/GitHub\l/MIDI2LR/Source/CommandMap.h">
<polygon fill="white" stroke="black" points="918,-452 918,-482 1082,-482 1082,-452 918,-452"/>
<text text-anchor="start" x="926" y="-470" font-family="Helvetica,sans-Serif" font-size="10.00">Q:/Documents/GitHub</text>
<text text-anchor="middle" x="1000" y="-459" font-family="Helvetica,sans-Serif" font-size="10.00">/MIDI2LR/Source/CommandMap.h</text>
</a>
</g>
</g>
<!-- Node1&#45;&gt;Node2 -->
<g id="edge1" class="edge"><title>Node1&#45;&gt;Node2</title>
<path fill="none" stroke="midnightblue" d="M1359.03,-531.163C1281.63,-517.546 1159.71,-496.096 1079.8,-482.038"/>
<polygon fill="midnightblue" stroke="midnightblue" points="1358.73,-534.663 1369.18,-532.949 1359.94,-527.769 1358.73,-534.663"/>
</g>
<!-- Node26 -->
<g id="node26" class="node"><title>Node26</title>
<g id="a_node26"><a xlink:href="_observer_8h.html" target="_top" xlink:title="Q:/Documents/GitHub\l/MIDI2LR/Source/Pattern\l/Observer.h">
<polygon fill="white" stroke="black" points="1369.5,-446.5 1369.5,-487.5 1494.5,-487.5 1494.5,-446.5 1369.5,-446.5"/>
<text text-anchor="start" x="1377.5" y="-475.5" font-family="Helvetica,sans-Serif" font-size="10.00">Q:/Documents/GitHub</text>
<text text-anchor="start" x="1377.5" y="-464.5" font-family="Helvetica,sans-Serif" font-size="10.00">/MIDI2LR/Source/Pattern</text>
<text text-anchor="middle" x="1432" y="-453.5" font-family="Helvetica,sans-Serif" font-size="10.00">/Observer.h</text>
</a>
</g>
</g>
<!-- Node1&#45;&gt;Node26 -->
<g id="edge45" class="edge"><title>Node1&#45;&gt;Node26</title>
<path fill="none" stroke="midnightblue" d="M1425.4,-514.297C1425.08,-505.301 1425.28,-495.653 1426.02,-487.506"/>
<polygon fill="midnightblue" stroke="midnightblue" points="1421.91,-514.659 1426.01,-524.428 1428.9,-514.234 1421.91,-514.659"/>
</g>
<!-- Node28 -->
<g id="node28" class="node"><title>Node28</title>
<g id="a_node28"><a xlink:href="_subject_8cpp.html" target="_top" xlink:title="Q:/Documents/GitHub\l/MIDI2LR/Source/Pattern\l/Subject.cpp">
<polygon fill="white" stroke="black" points="1512.5,-446.5 1512.5,-487.5 1637.5,-487.5 1637.5,-446.5 1512.5,-446.5"/>
<text text-anchor="start" x="1520.5" y="-475.5" font-family="Helvetica,sans-Serif" font-size="10.00">Q:/Documents/GitHub</text>
<text text-anchor="start" x="1520.5" y="-464.5" font-family="Helvetica,sans-Serif" font-size="10.00">/MIDI2LR/Source/Pattern</text>
<text text-anchor="middle" x="1575" y="-453.5" font-family="Helvetica,sans-Serif" font-size="10.00">/Subject.cpp</text>
</a>
</g>
</g>
<!-- Node1&#45;&gt;Node28 -->
<g id="edge48" class="edge"><title>Node1&#45;&gt;Node28</title>
<path fill="none" stroke="midnightblue" d="M1477.86,-519.627C1497.4,-509.242 1519.89,-497.292 1538.3,-487.506"/>
<polygon fill="midnightblue" stroke="midnightblue" points="1476.01,-516.644 1468.83,-524.428 1479.3,-522.826 1476.01,-516.644"/>
</g>
<!-- Node3 -->
<g id="node3" class="node"><title>Node3</title>
<g id="a_node3"><a xlink:href="_command_map_8cpp.html" target="_top" xlink:title="Q:/Documents/GitHub\l/MIDI2LR/Source/CommandMap.cpp">
<polygon fill="white" stroke="black" points="1219.5,-374 1219.5,-404 1394.5,-404 1394.5,-374 1219.5,-374"/>
<text text-anchor="start" x="1227.5" y="-392" font-family="Helvetica,sans-Serif" font-size="10.00">Q:/Documents/GitHub</text>
<text text-anchor="middle" x="1307" y="-381" font-family="Helvetica,sans-Serif" font-size="10.00">/MIDI2LR/Source/CommandMap.cpp</text>
</a>
</g>
</g>
<!-- Node2&#45;&gt;Node3 -->
<g id="edge2" class="edge"><title>Node2&#45;&gt;Node3</title>
<path fill="none" stroke="midnightblue" d="M1066.65,-449.501C1121.52,-435.916 1198.48,-416.865 1250.4,-404.011"/>
<polygon fill="midnightblue" stroke="midnightblue" points="1065.53,-446.171 1056.67,-451.972 1067.21,-452.966 1065.53,-446.171"/>
</g>
<!-- Node4 -->
<g id="node4" class="node"><title>Node4</title>
<g id="a_node4"><a xlink:href="_command_menu_8h.html" target="_top" xlink:title="Q:/Documents/GitHub\l/MIDI2LR/Source/CommandMenu.h">
<polygon fill="white" stroke="black" points="1451,-374 1451,-404 1621,-404 1621,-374 1451,-374"/>
<text text-anchor="start" x="1459" y="-392" font-family="Helvetica,sans-Serif" font-size="10.00">Q:/Documents/GitHub</text>
<text text-anchor="middle" x="1536" y="-381" font-family="Helvetica,sans-Serif" font-size="10.00">/MIDI2LR/Source/CommandMenu.h</text>
</a>
</g>
</g>
<!-- Node2&#45;&gt;Node4 -->
<g id="edge3" class="edge"><title>Node2&#45;&gt;Node4</title>
<path fill="none" stroke="midnightblue" d="M1092.03,-456.153C1180.66,-446.212 1318.37,-429.558 1437,-410 1447.73,-408.232 1459.06,-406.147 1470.09,-404.002"/>
<polygon fill="midnightblue" stroke="midnightblue" points="1091.56,-452.685 1082.01,-457.273 1092.33,-459.641 1091.56,-452.685"/>
</g>
<!-- Node6 -->
<g id="node6" class="node"><title>Node6</title>
<g id="a_node6"><a xlink:href="_command_table_model_8h.html" target="_top" xlink:title="Q:/Documents/GitHub\l/MIDI2LR/Source/CommandTable\lModel.h">
<polygon fill="white" stroke="black" points="1304.5,-290.5 1304.5,-331.5 1465.5,-331.5 1465.5,-290.5 1304.5,-290.5"/>
<text text-anchor="start" x="1312.5" y="-319.5" font-family="Helvetica,sans-Serif" font-size="10.00">Q:/Documents/GitHub</text>
<text text-anchor="start" x="1312.5" y="-308.5" font-family="Helvetica,sans-Serif" font-size="10.00">/MIDI2LR/Source/CommandTable</text>
<text text-anchor="middle" x="1385" y="-297.5" font-family="Helvetica,sans-Serif" font-size="10.00">Model.h</text>
</a>
</g>
</g>
<!-- Node2&#45;&gt;Node6 -->
<g id="edge13" class="edge"><title>Node2&#45;&gt;Node6</title>
<path fill="none" stroke="midnightblue" d="M1092.51,-466.618C1198.77,-465.122 1363.57,-455.288 1403,-410 1421.86,-388.343 1408.69,-353.566 1397.1,-331.79"/>
<polygon fill="midnightblue" stroke="midnightblue" points="1092.37,-463.12 1082.41,-466.738 1092.45,-470.119 1092.37,-463.12"/>
</g>
<!-- Node8 -->
<g id="node8" class="node"><title>Node8</title>
<g id="a_node8"><a xlink:href="_main_component_8h.html" target="_top" xlink:title="Q:/Documents/GitHub\l/MIDI2LR/Source/MainComponent.h">
<polygon fill="white" stroke="black" points="702,-140 702,-170 874,-170 874,-140 702,-140"/>
<text text-anchor="start" x="710" y="-158" font-family="Helvetica,sans-Serif" font-size="10.00">Q:/Documents/GitHub</text>
<text text-anchor="middle" x="788" y="-147" font-family="Helvetica,sans-Serif" font-size="10.00">/MIDI2LR/Source/MainComponent.h</text>
</a>
</g>
</g>
<!-- Node2&#45;&gt;Node8 -->
<g id="edge43" class="edge"><title>Node2&#45;&gt;Node8</title>
<path fill="none" stroke="midnightblue" d="M997.933,-441.671C993.643,-404.89 980.76,-334.688 943,-290 920.676,-263.579 901.204,-275.363 874,-254 841.955,-228.835 812.456,-190.609 797.766,-170.13"/>
<polygon fill="midnightblue" stroke="midnightblue" points="994.487,-442.366 999.007,-451.948 1001.45,-441.638 994.487,-442.366"/>
</g>
<!-- Node9 -->
<g id="node9" class="node"><title>Node9</title>
<g id="a_node9"><a xlink:href="_main_8cpp.html" target="_top" xlink:title="Q:/Documents/GitHub\l/MIDI2LR/Source/Main.cpp">
<polygon fill="white" stroke="black" points="431.5,-0.5 431.5,-30.5 564.5,-30.5 564.5,-0.5 431.5,-0.5"/>
<text text-anchor="start" x="439.5" y="-18.5" font-family="Helvetica,sans-Serif" font-size="10.00">Q:/Documents/GitHub</text>
<text text-anchor="middle" x="498" y="-7.5" font-family="Helvetica,sans-Serif" font-size="10.00">/MIDI2LR/Source/Main.cpp</text>
</a>
</g>
</g>
<!-- Node2&#45;&gt;Node9 -->
<g id="edge44" class="edge"><title>Node2&#45;&gt;Node9</title>
<path fill="none" stroke="midnightblue" d="M907.686,-461.42C660.105,-447.914 0,-403.338 0,-312 0,-312 0,-312 0,-154 0,-112.322 1.58323,-91.9079 35,-67 104.251,-15.3825 336.481,-43.1073 422,-31 425.059,-30.5669 428.182,-30.0946 431.332,-29.5937"/>
<polygon fill="midnightblue" stroke="midnightblue" points="907.566,-464.919 917.741,-461.964 907.945,-457.929 907.566,-464.919"/>
</g>
<!-- Node13 -->
<g id="node13" class="node"><title>Node13</title>
<g id="a_node13"><a xlink:href="_l_r___i_p_c___in_8h.html" target="_top" xlink:title="Q:/Documents/GitHub\l/MIDI2LR/Source/LR_IPC_In.h">
<polygon fill="white" stroke="black" points="926.5,-218 926.5,-248 1073.5,-248 1073.5,-218 926.5,-218"/>
<text text-anchor="start" x="934.5" y="-236" font-family="Helvetica,sans-Serif" font-size="10.00">Q:/Documents/GitHub</text>
<text text-anchor="middle" x="1000" y="-225" font-family="Helvetica,sans-Serif" font-size="10.00">/MIDI2LR/Source/LR_IPC_In.h</text>
</a>
</g>
</g>
<!-- Node2&#45;&gt;Node13 -->
<g id="edge14" class="edge"><title>Node2&#45;&gt;Node13</title>
<path fill="none" stroke="midnightblue" d="M1000,-441.677C1000,-393.402 1000,-286.827 1000,-248.273"/>
<polygon fill="midnightblue" stroke="midnightblue" points="996.5,-441.837 1000,-451.837 1003.5,-441.837 996.5,-441.837"/>
</g>
<!-- Node15 -->
<g id="node15" class="node"><title>Node15</title>
<g id="a_node15"><a xlink:href="_l_r___i_p_c___out_8h.html" target="_top" xlink:title="Q:/Documents/GitHub\l/MIDI2LR/Source/LR_IPC_Out.h">
<polygon fill="white" stroke="black" points="683.5,-374 683.5,-404 838.5,-404 838.5,-374 683.5,-374"/>
<text text-anchor="start" x="691.5" y="-392" font-family="Helvetica,sans-Serif" font-size="10.00">Q:/Documents/GitHub</text>
<text text-anchor="middle" x="761" y="-381" font-family="Helvetica,sans-Serif" font-size="10.00">/MIDI2LR/Source/LR_IPC_Out.h</text>
</a>
</g>
</g>
<!-- Node2&#45;&gt;Node15 -->
<g id="edge19" class="edge"><title>Node2&#45;&gt;Node15</title>
<path fill="none" stroke="midnightblue" d="M946.26,-448.911C903.744,-435.391 845.1,-416.743 805.262,-404.075"/>
<polygon fill="midnightblue" stroke="midnightblue" points="945.295,-452.277 955.885,-451.972 947.416,-445.606 945.295,-452.277"/>
</g>
<!-- Node16 -->
<g id="node16" class="node"><title>Node16</title>
<g id="a_node16"><a xlink:href="_profile_manager_8h.html" target="_top" xlink:title="Q:/Documents/GitHub\l/MIDI2LR/Source/ProfileManager.h">
<polygon fill="white" stroke="black" points="548,-296 548,-326 714,-326 714,-296 548,-296"/>
<text text-anchor="start" x="556" y="-314" font-family="Helvetica,sans-Serif" font-size="10.00">Q:/Documents/GitHub</text>
<text text-anchor="middle" x="631" y="-303" font-family="Helvetica,sans-Serif" font-size="10.00">/MIDI2LR/Source/ProfileManager.h</text>
</a>
</g>
</g>
<!-- Node2&#45;&gt;Node16 -->
<g id="edge40" class="edge"><title>Node2&#45;&gt;Node16</title>
<path fill="none" stroke="midnightblue" d="M907.94,-459.861C824.594,-452.608 709.589,-437.834 674,-410 647.217,-389.054 636.752,-347.976 632.962,-326.252"/>
<polygon fill="midnightblue" stroke="midnightblue" points="907.68,-463.352 917.94,-460.709 908.272,-456.377 907.68,-463.352"/>
</g>
<!-- Node24 -->
<g id="node24" class="node"><title>Node24</title>
<g id="a_node24"><a xlink:href="_l_r___i_p_c___out_8cpp.html" target="_top" xlink:title="Q:/Documents/GitHub\l/MIDI2LR/Source/LR_IPC\l_Out.cpp">
<polygon fill="white" stroke="black" points="808,-290.5 808,-331.5 934,-331.5 934,-290.5 808,-290.5"/>
<text text-anchor="start" x="816" y="-319.5" font-family="Helvetica,sans-Serif" font-size="10.00">Q:/Documents/GitHub</text>
<text text-anchor="start" x="816" y="-308.5" font-family="Helvetica,sans-Serif" font-size="10.00">/MIDI2LR/Source/LR_IPC</text>
<text text-anchor="middle" x="871" y="-297.5" font-family="Helvetica,sans-Serif" font-size="10.00">_Out.cpp</text>
</a>
</g>
</g>
<!-- Node2&#45;&gt;Node24 -->
<g id="edge41" class="edge"><title>Node2&#45;&gt;Node24</title>
<path fill="none" stroke="midnightblue" d="M979.011,-444.238C969.363,-434.023 957.891,-421.574 948,-410 925.367,-383.517 900.747,-351.584 885.591,-331.53"/>
<polygon fill="midnightblue" stroke="midnightblue" points="976.549,-446.728 985.977,-451.562 981.621,-441.904 976.549,-446.728"/>
</g>
<!-- Node25 -->
<g id="node25" class="node"><title>Node25</title>
<g id="a_node25"><a xlink:href="_l_r_commands_8cpp.html" target="_top" xlink:title="Q:/Documents/GitHub\l/MIDI2LR/Source/LRCommands.cpp">
<polygon fill="white" stroke="black" points="1028.5,-374 1028.5,-404 1201.5,-404 1201.5,-374 1028.5,-374"/>
<text text-anchor="start" x="1036.5" y="-392" font-family="Helvetica,sans-Serif" font-size="10.00">Q:/Documents/GitHub</text>
<text text-anchor="middle" x="1115" y="-381" font-family="Helvetica,sans-Serif" font-size="10.00">/MIDI2LR/Source/LRCommands.cpp</text>
</a>
</g>
</g>
<!-- Node2&#45;&gt;Node25 -->
<g id="edge42" class="edge"><title>Node2&#45;&gt;Node25</title>
<path fill="none" stroke="midnightblue" d="M1029.83,-446.289C1049.87,-433.046 1075.79,-415.91 1093.75,-404.041"/>
<polygon fill="midnightblue" stroke="midnightblue" points="1027.77,-443.45 1021.36,-451.883 1031.63,-449.29 1027.77,-443.45"/>
</g>
<!-- Node5 -->
<g id="node5" class="node"><title>Node5</title>
<g id="a_node5"><a xlink:href="_command_menu_8cpp.html" target="_top" xlink:title="Q:/Documents/GitHub\l/MIDI2LR/Source/CommandMenu.cpp">
<polygon fill="white" stroke="black" points="1484,-296 1484,-326 1664,-326 1664,-296 1484,-296"/>
<text text-anchor="start" x="1492" y="-314" font-family="Helvetica,sans-Serif" font-size="10.00">Q:/Documents/GitHub</text>
<text text-anchor="middle" x="1574" y="-303" font-family="Helvetica,sans-Serif" font-size="10.00">/MIDI2LR/Source/CommandMenu.cpp</text>
</a>
</g>
</g>
<!-- Node4&#45;&gt;Node5 -->
<g id="edge4" class="edge"><title>Node4&#45;&gt;Node5</title>
<path fill="none" stroke="midnightblue" d="M1547.65,-364.705C1553.93,-352.141 1561.48,-337.042 1566.88,-326.231"/>
<polygon fill="midnightblue" stroke="midnightblue" points="1544.49,-363.195 1543.15,-373.705 1550.75,-366.326 1544.49,-363.195"/>
</g>
<!-- Node4&#45;&gt;Node6 -->
<g id="edge5" class="edge"><title>Node4&#45;&gt;Node6</title>
<path fill="none" stroke="midnightblue" d="M1498.94,-369.349C1476.19,-357.899 1447.09,-343.253 1424,-331.628"/>
<polygon fill="midnightblue" stroke="midnightblue" points="1497.45,-372.514 1507.95,-373.883 1500.59,-366.261 1497.45,-372.514"/>
</g>
<!-- Node7 -->
<g id="node7" class="node"><title>Node7</title>
<g id="a_node7"><a xlink:href="_command_table_model_8cpp.html" target="_top" xlink:title="Q:/Documents/GitHub\l/MIDI2LR/Source/CommandTable\lModel.cpp">
<polygon fill="white" stroke="black" points="1304.5,-212.5 1304.5,-253.5 1465.5,-253.5 1465.5,-212.5 1304.5,-212.5"/>
<text text-anchor="start" x="1312.5" y="-241.5" font-family="Helvetica,sans-Serif" font-size="10.00">Q:/Documents/GitHub</text>
<text text-anchor="start" x="1312.5" y="-230.5" font-family="Helvetica,sans-Serif" font-size="10.00">/MIDI2LR/Source/CommandTable</text>
<text text-anchor="middle" x="1385" y="-219.5" font-family="Helvetica,sans-Serif" font-size="10.00">Model.cpp</text>
</a>
</g>
</g>
<!-- Node6&#45;&gt;Node7 -->
<g id="edge6" class="edge"><title>Node6&#45;&gt;Node7</title>
<path fill="none" stroke="midnightblue" d="M1385,-280.297C1385,-271.301 1385,-261.653 1385,-253.506"/>
<polygon fill="midnightblue" stroke="midnightblue" points="1381.5,-280.428 1385,-290.428 1388.5,-280.428 1381.5,-280.428"/>
</g>
<!-- Node6&#45;&gt;Node8 -->
<g id="edge7" class="edge"><title>Node6&#45;&gt;Node8</title>
<path fill="none" stroke="midnightblue" d="M1294.27,-306.054C1177.43,-299.794 981.729,-284.978 917,-254 892.903,-242.468 894.85,-228.703 874,-212 854.255,-196.182 829.954,-180.682 812.227,-170.014"/>
<polygon fill="midnightblue" stroke="midnightblue" points="1294.1,-309.55 1304.27,-306.579 1294.47,-302.56 1294.1,-309.55"/>
</g>
<!-- Node8&#45;&gt;Node9 -->
<g id="edge8" class="edge"><title>Node8&#45;&gt;Node9</title>
<path fill="none" stroke="midnightblue" d="M842.994,-136.322C883.659,-120.432 927.982,-95.2905 903,-67 881.015,-42.1034 673.976,-26.5861 564.751,-20.0645"/>
<polygon fill="midnightblue" stroke="midnightblue" points="841.716,-133.064 833.592,-139.864 844.184,-139.614 841.716,-133.064"/>
</g>
<!-- Node10 -->
<g id="node10" class="node"><title>Node10</title>
<g id="a_node10"><a xlink:href="_main_window_8h.html" target="_top" xlink:title="Q:/Documents/GitHub\l/MIDI2LR/Source/MainWindow.h">
<polygon fill="white" stroke="black" points="282.5,-67.5 282.5,-97.5 439.5,-97.5 439.5,-67.5 282.5,-67.5"/>
<text text-anchor="start" x="290.5" y="-85.5" font-family="Helvetica,sans-Serif" font-size="10.00">Q:/Documents/GitHub</text>
<text text-anchor="middle" x="361" y="-74.5" font-family="Helvetica,sans-Serif" font-size="10.00">/MIDI2LR/Source/MainWindow.h</text>
</a>
</g>
</g>
<!-- Node8&#45;&gt;Node10 -->
<g id="edge9" class="edge"><title>Node8&#45;&gt;Node10</title>
<path fill="none" stroke="midnightblue" d="M712.775,-137.925C705.762,-136.548 698.754,-135.218 692,-134 606.045,-118.501 506.968,-103.8 439.78,-94.2984"/>
<polygon fill="midnightblue" stroke="midnightblue" points="712.535,-141.446 723.026,-139.969 713.903,-134.581 712.535,-141.446"/>
</g>
<!-- Node12 -->
<g id="node12" class="node"><title>Node12</title>
<g id="a_node12"><a xlink:href="_main_component_8cpp.html" target="_top" xlink:title="Q:/Documents/GitHub\l/MIDI2LR/Source/MainComponent.cpp">
<polygon fill="white" stroke="black" points="712,-67.5 712,-97.5 894,-97.5 894,-67.5 712,-67.5"/>
<text text-anchor="start" x="720" y="-85.5" font-family="Helvetica,sans-Serif" font-size="10.00">Q:/Documents/GitHub</text>
<text text-anchor="middle" x="803" y="-74.5" font-family="Helvetica,sans-Serif" font-size="10.00">/MIDI2LR/Source/MainComponent.cpp</text>
</a>
</g>
</g>
<!-- Node8&#45;&gt;Node12 -->
<g id="edge12" class="edge"><title>Node8&#45;&gt;Node12</title>
<path fill="none" stroke="midnightblue" d="M793.163,-129.732C795.432,-119.068 798.018,-106.914 799.969,-97.7455"/>
<polygon fill="midnightblue" stroke="midnightblue" points="789.693,-129.224 791.035,-139.733 796.54,-130.681 789.693,-129.224"/>
</g>
<!-- Node10&#45;&gt;Node9 -->
<g id="edge10" class="edge"><title>Node10&#45;&gt;Node9</title>
<path fill="none" stroke="midnightblue" d="M400.009,-62.9921C421.724,-52.6892 448.327,-40.0677 468.331,-30.5765"/>
<polygon fill="midnightblue" stroke="midnightblue" points="398.261,-59.9472 390.727,-67.396 401.262,-66.2715 398.261,-59.9472"/>
</g>
<!-- Node11 -->
<g id="node11" class="node"><title>Node11</title>
<g id="a_node11"><a xlink:href="_main_window_8cpp.html" target="_top" xlink:title="Q:/Documents/GitHub\l/MIDI2LR/Source/MainWindow.cpp">
<polygon fill="white" stroke="black" points="246.5,-0.5 246.5,-30.5 413.5,-30.5 413.5,-0.5 246.5,-0.5"/>
<text text-anchor="start" x="254.5" y="-18.5" font-family="Helvetica,sans-Serif" font-size="10.00">Q:/Documents/GitHub</text>
<text text-anchor="middle" x="330" y="-7.5" font-family="Helvetica,sans-Serif" font-size="10.00">/MIDI2LR/Source/MainWindow.cpp</text>
</a>
</g>
</g>
<!-- Node10&#45;&gt;Node11 -->
<g id="edge11" class="edge"><title>Node10&#45;&gt;Node11</title>
<path fill="none" stroke="midnightblue" d="M349.928,-58.2835C345.511,-49.0223 340.57,-38.6632 336.713,-30.5765"/>
<polygon fill="midnightblue" stroke="midnightblue" points="346.81,-59.8766 354.273,-67.396 353.128,-56.8632 346.81,-59.8766"/>
</g>
<!-- Node13&#45;&gt;Node8 -->
<g id="edge16" class="edge"><title>Node13&#45;&gt;Node8</title>
<path fill="none" stroke="midnightblue" d="M950.882,-214.392C913.261,-200.905 862.057,-182.549 827.168,-170.041"/>
<polygon fill="midnightblue" stroke="midnightblue" points="950.027,-217.803 960.621,-217.883 952.389,-211.214 950.027,-217.803"/>
</g>
<!-- Node13&#45;&gt;Node9 -->
<g id="edge17" class="edge"><title>Node13&#45;&gt;Node9</title>
<path fill="none" stroke="midnightblue" d="M1033.59,-211.96C1045.86,-202.705 1058.34,-190.522 1065,-176 1072.78,-159.031 1075.04,-149.739 1065,-134 1011.59,-50.2441 702.744,-25.7796 564.669,-18.9774"/>
<polygon fill="midnightblue" stroke="midnightblue" points="1031.35,-209.258 1025.21,-217.892 1035.39,-214.971 1031.35,-209.258"/>
</g>
<!-- Node13&#45;&gt;Node12 -->
<g id="edge18" class="edge"><title>Node13&#45;&gt;Node12</title>
<path fill="none" stroke="midnightblue" d="M968.763,-212.172C953.739,-202.068 935.819,-189.155 921,-176 902.175,-159.288 902.266,-150.202 883,-134 866.281,-119.94 845.341,-106.859 829.079,-97.5342"/>
<polygon fill="midnightblue" stroke="midnightblue" points="966.958,-215.175 977.229,-217.778 970.823,-209.339 966.958,-215.175"/>
</g>
<!-- Node14 -->
<g id="node14" class="node"><title>Node14</title>
<g id="a_node14"><a xlink:href="_l_r___i_p_c___in_8cpp.html" target="_top" xlink:title="Q:/Documents/GitHub\l/MIDI2LR/Source/LR_IPC\l_In.cpp">
<polygon fill="white" stroke="black" points="930,-134.5 930,-175.5 1056,-175.5 1056,-134.5 930,-134.5"/>
<text text-anchor="start" x="938" y="-163.5" font-family="Helvetica,sans-Serif" font-size="10.00">Q:/Documents/GitHub</text>
<text text-anchor="start" x="938" y="-152.5" font-family="Helvetica,sans-Serif" font-size="10.00">/MIDI2LR/Source/LR_IPC</text>
<text text-anchor="middle" x="993" y="-141.5" font-family="Helvetica,sans-Serif" font-size="10.00">_In.cpp</text>
</a>
</g>
</g>
<!-- Node13&#45;&gt;Node14 -->
<g id="edge15" class="edge"><title>Node13&#45;&gt;Node14</title>
<path fill="none" stroke="midnightblue" d="M997.758,-207.656C996.806,-197.326 995.712,-185.443 994.813,-175.68"/>
<polygon fill="midnightblue" stroke="midnightblue" points="994.281,-208.068 998.683,-217.705 1001.25,-207.426 994.281,-208.068"/>
</g>
<!-- Node15&#45;&gt;Node8 -->
<g id="edge37" class="edge"><title>Node15&#45;&gt;Node8</title>
<path fill="none" stroke="midnightblue" d="M761.487,-363.638C762.066,-343.773 763.317,-315.011 766,-290 770.727,-245.931 780.376,-194.321 785.168,-170.013"/>
<polygon fill="midnightblue" stroke="midnightblue" points="757.987,-363.592 761.23,-373.678 764.985,-363.771 757.987,-363.592"/>
</g>
<!-- Node15&#45;&gt;Node9 -->
<g id="edge39" class="edge"><title>Node15&#45;&gt;Node9</title>
<path fill="none" stroke="midnightblue" d="M763.459,-363.711C767.139,-340.921 776.291,-307.76 799,-290 898.875,-211.891 997.584,-348.605 1082,-254 1117.51,-214.204 1106.68,-181.79 1083,-134 1061.18,-89.9536 1040.72,-85.0504 995,-67 918.363,-36.7454 681.716,-23.5824 564.788,-18.8062"/>
<polygon fill="midnightblue" stroke="midnightblue" points="759.987,-363.273 762.091,-373.657 766.921,-364.227 759.987,-363.273"/>
</g>
<!-- Node15&#45;&gt;Node16 -->
<g id="edge20" class="edge"><title>Node15&#45;&gt;Node16</title>
<path fill="none" stroke="midnightblue" d="M728.194,-368.821C705.421,-355.508 675.593,-338.07 655.018,-326.041"/>
<polygon fill="midnightblue" stroke="midnightblue" points="726.453,-371.858 736.853,-373.883 729.986,-365.815 726.453,-371.858"/>
</g>
<!-- Node17 -->
<g id="node17" class="node"><title>Node17</title>
<g id="a_node17"><a xlink:href="_settings_manager_8h.html" target="_top" xlink:title="Q:/Documents/GitHub\l/MIDI2LR/Source/SettingsManager.h">
<polygon fill="white" stroke="black" points="345.5,-218 345.5,-248 520.5,-248 520.5,-218 345.5,-218"/>
<text text-anchor="start" x="353.5" y="-236" font-family="Helvetica,sans-Serif" font-size="10.00">Q:/Documents/GitHub</text>
<text text-anchor="middle" x="433" y="-225" font-family="Helvetica,sans-Serif" font-size="10.00">/MIDI2LR/Source/SettingsManager.h</text>
</a>
</g>
</g>
<!-- Node15&#45;&gt;Node17 -->
<g id="edge38" class="edge"><title>Node15&#45;&gt;Node17</title>
<path fill="none" stroke="midnightblue" d="M673.257,-376.264C630.855,-368.055 580.331,-354.4 539,-332 498.677,-310.146 461.837,-269.458 444.106,-248.031"/>
<polygon fill="midnightblue" stroke="midnightblue" points="672.817,-379.743 683.289,-378.136 674.1,-372.861 672.817,-379.743"/>
</g>
<!-- Node15&#45;&gt;Node24 -->
<g id="edge36" class="edge"><title>Node15&#45;&gt;Node24</title>
<path fill="none" stroke="midnightblue" d="M789.973,-367.982C806.159,-356.799 826.255,-342.915 842.384,-331.771"/>
<polygon fill="midnightblue" stroke="midnightblue" points="787.67,-365.319 781.432,-373.883 791.649,-371.078 787.67,-365.319"/>
</g>
<!-- Node16&#45;&gt;Node8 -->
<g id="edge22" class="edge"><title>Node16&#45;&gt;Node8</title>
<path fill="none" stroke="midnightblue" d="M670.771,-291.217C688.36,-281.673 708.518,-268.927 724,-254 750.332,-228.613 771.275,-190.477 781.39,-170.071"/>
<polygon fill="midnightblue" stroke="midnightblue" points="669.067,-288.158 661.845,-295.91 672.325,-294.354 669.067,-288.158"/>
</g>
<!-- Node16&#45;&gt;Node13 -->
<g id="edge21" class="edge"><title>Node16&#45;&gt;Node13</title>
<path fill="none" stroke="midnightblue" d="M709.061,-293.922C775.144,-280.312 868.916,-260.998 931.975,-248.011"/>
<polygon fill="midnightblue" stroke="midnightblue" points="708.199,-290.526 699.11,-295.972 709.611,-297.383 708.199,-290.526"/>
</g>
<!-- Node16&#45;&gt;Node17 -->
<g id="edge23" class="edge"><title>Node16&#45;&gt;Node17</title>
<path fill="none" stroke="midnightblue" d="M584.677,-292.219C549.582,-278.749 502.028,-260.496 469.581,-248.041"/>
<polygon fill="midnightblue" stroke="midnightblue" points="583.632,-295.567 594.222,-295.883 586.14,-289.032 583.632,-295.567"/>
</g>
<!-- Node22 -->
<g id="node22" class="node"><title>Node22</title>
<g id="a_node22"><a xlink:href="_settings_manager_8cpp.html" target="_top" xlink:title="Q:/Documents/GitHub\l/MIDI2LR/Source/SettingsManager.cpp">
<polygon fill="white" stroke="black" points="28.5,-140 28.5,-170 213.5,-170 213.5,-140 28.5,-140"/>
<text text-anchor="start" x="36.5" y="-158" font-family="Helvetica,sans-Serif" font-size="10.00">Q:/Documents/GitHub</text>
<text text-anchor="middle" x="121" y="-147" font-family="Helvetica,sans-Serif" font-size="10.00">/MIDI2LR/Source/SettingsManager.cpp</text>
</a>
</g>
</g>
<!-- Node16&#45;&gt;Node22 -->
<g id="edge35" class="edge"><title>Node16&#45;&gt;Node22</title>
<path fill="none" stroke="midnightblue" d="M537.97,-298.19C479.182,-289.301 402.104,-275.003 336,-254 264.847,-231.393 186.197,-191.398 146.672,-170.165"/>
<polygon fill="midnightblue" stroke="midnightblue" points="537.578,-301.67 547.984,-299.679 538.607,-294.746 537.578,-301.67"/>
</g>
<!-- Node23 -->
<g id="node23" class="node"><title>Node23</title>
<g id="a_node23"><a xlink:href="_profile_manager_8cpp.html" target="_top" xlink:title="Q:/Documents/GitHub\l/MIDI2LR/Source/ProfileManager.cpp">
<polygon fill="white" stroke="black" points="539,-218 539,-248 715,-248 715,-218 539,-218"/>
<text text-anchor="start" x="547" y="-236" font-family="Helvetica,sans-Serif" font-size="10.00">Q:/Documents/GitHub</text>
<text text-anchor="middle" x="627" y="-225" font-family="Helvetica,sans-Serif" font-size="10.00">/MIDI2LR/Source/ProfileManager.cpp</text>
</a>
</g>
</g>
<!-- Node16&#45;&gt;Node23 -->
<g id="edge34" class="edge"><title>Node16&#45;&gt;Node23</title>
<path fill="none" stroke="midnightblue" d="M629.715,-285.59C629.066,-273.257 628.301,-258.724 627.749,-248.231"/>
<polygon fill="midnightblue" stroke="midnightblue" points="626.227,-285.903 630.248,-295.705 633.217,-285.535 626.227,-285.903"/>
</g>
<!-- Node17&#45;&gt;Node8 -->
<g id="edge24" class="edge"><title>Node17&#45;&gt;Node8</title>
<path fill="none" stroke="midnightblue" d="M508.491,-215.839C572.046,-202.232 662.014,-182.972 722.556,-170.011"/>
<polygon fill="midnightblue" stroke="midnightblue" points="507.572,-212.456 498.526,-217.972 509.037,-219.301 507.572,-212.456"/>
</g>
<!-- Node17&#45;&gt;Node9 -->
<g id="edge29" class="edge"><title>Node17&#45;&gt;Node9</title>
<path fill="none" stroke="midnightblue" d="M440.219,-208.067C453.807,-163.017 482.799,-66.8984 493.719,-30.6916"/>
<polygon fill="midnightblue" stroke="midnightblue" points="436.802,-207.276 437.265,-217.86 443.504,-209.297 436.802,-207.276"/>
</g>
<!-- Node17&#45;&gt;Node10 -->
<g id="edge28" class="edge"><title>Node17&#45;&gt;Node10</title>
<path fill="none" stroke="midnightblue" d="M431.306,-207.675C429.013,-186.998 423.628,-157.081 411,-134 403.183,-119.713 390.134,-106.733 379.327,-97.5106"/>
<polygon fill="midnightblue" stroke="midnightblue" points="427.841,-208.208 432.267,-217.834 434.809,-207.549 427.841,-208.208"/>
</g>
<!-- Node18 -->
<g id="node18" class="node"><title>Node18</title>
<g id="a_node18"><a xlink:href="_version_checker_8h.html" target="_top" xlink:title="Q:/Documents/GitHub\l/MIDI2LR/Source/VersionChecker.h">
<polygon fill="white" stroke="black" points="232,-140 232,-170 402,-170 402,-140 232,-140"/>
<text text-anchor="start" x="240" y="-158" font-family="Helvetica,sans-Serif" font-size="10.00">Q:/Documents/GitHub</text>
<text text-anchor="middle" x="317" y="-147" font-family="Helvetica,sans-Serif" font-size="10.00">/MIDI2LR/Source/VersionChecker.h</text>
</a>
</g>
</g>
<!-- Node17&#45;&gt;Node18 -->
<g id="edge25" class="edge"><title>Node17&#45;&gt;Node18</title>
<path fill="none" stroke="midnightblue" d="M402.915,-212.289C382.701,-199.046 356.547,-181.91 338.431,-170.041"/>
<polygon fill="midnightblue" stroke="midnightblue" points="401.17,-215.33 411.453,-217.883 405.007,-209.475 401.17,-215.33"/>
</g>
<!-- Node20 -->
<g id="node20" class="node"><title>Node20</title>
<g id="a_node20"><a xlink:href="_settings_component_8h.html" target="_top" xlink:title="Q:/Documents/GitHub\l/MIDI2LR/Source/SettingsComponent.h">
<polygon fill="white" stroke="black" points="496.5,-140 496.5,-170 683.5,-170 683.5,-140 496.5,-140"/>
<text text-anchor="start" x="504.5" y="-158" font-family="Helvetica,sans-Serif" font-size="10.00">Q:/Documents/GitHub</text>
<text text-anchor="middle" x="590" y="-147" font-family="Helvetica,sans-Serif" font-size="10.00">/MIDI2LR/Source/SettingsComponent.h</text>
</a>
</g>
</g>
<!-- Node17&#45;&gt;Node20 -->
<g id="edge30" class="edge"><title>Node17&#45;&gt;Node20</title>
<path fill="none" stroke="midnightblue" d="M471.167,-213.524C498.844,-200.126 535.706,-182.283 560.994,-170.041"/>
<polygon fill="midnightblue" stroke="midnightblue" points="469.638,-210.376 462.163,-217.883 472.688,-216.676 469.638,-210.376"/>
</g>
<!-- Node17&#45;&gt;Node22 -->
<g id="edge33" class="edge"><title>Node17&#45;&gt;Node22</title>
<path fill="none" stroke="midnightblue" d="M365.616,-215.586C309.821,-201.995 231.397,-182.892 178.517,-170.011"/>
<polygon fill="midnightblue" stroke="midnightblue" points="364.867,-219.006 375.411,-217.972 366.523,-212.205 364.867,-219.006"/>
</g>
<!-- Node18&#45;&gt;Node9 -->
<g id="edge26" class="edge"><title>Node18&#45;&gt;Node9</title>
<path fill="none" stroke="midnightblue" d="M292.936,-132.307C275.297,-113.769 256.989,-87.0029 273,-67 278.066,-60.6709 366.822,-42.1292 431.319,-29.3661"/>
<polygon fill="midnightblue" stroke="midnightblue" points="290.801,-135.12 300.353,-139.704 295.744,-130.164 290.801,-135.12"/>
</g>
<!-- Node19 -->
<g id="node19" class="node"><title>Node19</title>
<g id="a_node19"><a xlink:href="_version_checker_8cpp.html" target="_top" xlink:title="Q:/Documents/GitHub\l/MIDI2LR/Source/VersionChecker.cpp">
<polygon fill="white" stroke="black" points="44.5,-67.5 44.5,-97.5 225.5,-97.5 225.5,-67.5 44.5,-67.5"/>
<text text-anchor="start" x="52.5" y="-85.5" font-family="Helvetica,sans-Serif" font-size="10.00">Q:/Documents/GitHub</text>
<text text-anchor="middle" x="135" y="-74.5" font-family="Helvetica,sans-Serif" font-size="10.00">/MIDI2LR/Source/VersionChecker.cpp</text>
</a>
</g>
</g>
<!-- Node18&#45;&gt;Node19 -->
<g id="edge27" class="edge"><title>Node18&#45;&gt;Node19</title>
<path fill="none" stroke="midnightblue" d="M270.931,-136.155C240.051,-124.193 199.956,-108.662 171.33,-97.5729"/>
<polygon fill="midnightblue" stroke="midnightblue" points="270.018,-139.554 280.607,-139.903 272.546,-133.027 270.018,-139.554"/>
</g>
<!-- Node20&#45;&gt;Node12 -->
<g id="edge31" class="edge"><title>Node20&#45;&gt;Node12</title>
<path fill="none" stroke="midnightblue" d="M642.254,-136.705C678.571,-124.684 726.368,-108.864 760.379,-97.6069"/>
<polygon fill="midnightblue" stroke="midnightblue" points="640.73,-133.522 632.337,-139.987 642.93,-140.168 640.73,-133.522"/>
</g>
<!-- Node21 -->
<g id="node21" class="node"><title>Node21</title>
<g id="a_node21"><a xlink:href="_settings_component_8cpp.html" target="_top" xlink:title="Q:/Documents/GitHub\l/MIDI2LR/Source/SettingsComponent.cpp">
<polygon fill="white" stroke="black" points="496.5,-67.5 496.5,-97.5 693.5,-97.5 693.5,-67.5 496.5,-67.5"/>
<text text-anchor="start" x="504.5" y="-85.5" font-family="Helvetica,sans-Serif" font-size="10.00">Q:/Documents/GitHub</text>
<text text-anchor="middle" x="595" y="-74.5" font-family="Helvetica,sans-Serif" font-size="10.00">/MIDI2LR/Source/SettingsComponent.cpp</text>
</a>
</g>
</g>
<!-- Node20&#45;&gt;Node21 -->
<g id="edge32" class="edge"><title>Node20&#45;&gt;Node21</title>
<path fill="none" stroke="midnightblue" d="M591.721,-129.732C592.477,-119.068 593.339,-106.914 593.99,-97.7455"/>
<polygon fill="midnightblue" stroke="midnightblue" points="588.228,-129.511 591.012,-139.733 595.211,-130.006 588.228,-129.511"/>
</g>
<!-- Node26&#45;&gt;Node1 -->
<g id="edge46" class="edge"><title>Node26&#45;&gt;Node1</title>
<path fill="none" stroke="midnightblue" d="M1438.6,-497.63C1438.92,-506.622 1438.72,-516.272 1437.99,-524.428"/>
<polygon fill="midnightblue" stroke="midnightblue" points="1442.09,-497.273 1437.98,-487.506 1435.1,-497.701 1442.09,-497.273"/>
</g>
<!-- Node27 -->
<g id="node27" class="node"><title>Node27</title>
<g id="a_node27"><a xlink:href="_observer_8cpp.html" target="_top" xlink:title="Q:/Documents/GitHub\l/MIDI2LR/Source/Pattern\l/Observer.cpp">
<polygon fill="white" stroke="black" points="1639.5,-368.5 1639.5,-409.5 1764.5,-409.5 1764.5,-368.5 1639.5,-368.5"/>
<text text-anchor="start" x="1647.5" y="-397.5" font-family="Helvetica,sans-Serif" font-size="10.00">Q:/Documents/GitHub</text>
<text text-anchor="start" x="1647.5" y="-386.5" font-family="Helvetica,sans-Serif" font-size="10.00">/MIDI2LR/Source/Pattern</text>
<text text-anchor="middle" x="1702" y="-375.5" font-family="Helvetica,sans-Serif" font-size="10.00">/Observer.cpp</text>
</a>
</g>
</g>
<!-- Node26&#45;&gt;Node27 -->
<g id="edge47" class="edge"><title>Node26&#45;&gt;Node27</title>
<path fill="none" stroke="midnightblue" d="M1504.48,-445.584C1554.79,-431.419 1602.46,-418.006 1639.26,-407.651"/>
<polygon fill="midnightblue" stroke="midnightblue" points="1503.4,-442.252 1494.72,-448.332 1505.29,-448.99 1503.4,-442.252"/>
</g>
</g>
</svg>
        <g id="navigator" transform="translate(0 0)" fill="#404254">
                <rect fill="#f2f5e9" fill-opacity="0.5" stroke="#606060" stroke-width=".5" x="0" y="0" width="60" height="60"/>
                <use id="zoomplus" xlink:href="#zoomPlus" x="17" y="9" onmousedown="handleZoom(evt,'in')"/>
                <use id="zoomminus" xlink:href="#zoomMin" x="42" y="9" onmousedown="handleZoom(evt,'out')"/>
                <use id="reset" xlink:href="#resetDef" x="30" y="36" onmousedown="handleReset()"/>
                <g id="arrowUp" xlink:href="#dirArrow" transform="translate(30 24)" onmousedown="handlePan(0,-1)">
                  <use xlink:href="#rim" fill="#404040">
                        <set attributeName="fill" to="#808080" begin="arrowUp.mouseover" end="arrowUp.mouseout"/>
                  </use>
                  <path fill="none" stroke="white" stroke-width="1.5" d="M0,-3.0v7 M-2.5,-0.5L0,-3.0L2.5,-0.5"/>
                </g>
                <g id="arrowRight" xlink:href="#dirArrow" transform="rotate(90) translate(36 -43)" onmousedown="handlePan(1,0)">
                  <use xlink:href="#rim" fill="#404040">
                        <set attributeName="fill" to="#808080" begin="arrowRight.mouseover" end="arrowRight.mouseout"/>
                  </use>
                  <path fill="none" stroke="white" stroke-width="1.5" d="M0,-3.0v7 M-2.5,-0.5L0,-3.0L2.5,-0.5"/>
                </g>
                <g id="arrowDown" xlink:href="#dirArrow" transform="rotate(180) translate(-30 -48)" onmousedown="handlePan(0,1)">
                  <use xlink:href="#rim" fill="#404040">
                        <set attributeName="fill" to="#808080" begin="arrowDown.mouseover" end="arrowDown.mouseout"/>
                  </use>
                  <path fill="none" stroke="white" stroke-width="1.5" d="M0,-3.0v7 M-2.5,-0.5L0,-3.0L2.5,-0.5"/>
                </g>
                <g id="arrowLeft" xlink:href="#dirArrow" transform="rotate(270) translate(-36 17)" onmousedown="handlePan(-1,0)">
                  <use xlink:href="#rim" fill="#404040">
                        <set attributeName="fill" to="#808080" begin="arrowLeft.mouseover" end="arrowLeft.mouseout"/>
                  </use>
                  <path fill="none" stroke="white" stroke-width="1.5" d="M0,-3.0v7 M-2.5,-0.5L0,-3.0L2.5,-0.5"/>
                </g>
        </g>
        <svg viewBox="0 0 15 15" width="100%" height="30px" preserveAspectRatio="xMaxYMin meet">
         <g id="arrow_out" transform="scale(0.3 0.3)">
          <a xlink:href="_subject_8h__dep__incl_org.svg" target="_base">
           <rect id="button" ry="5" rx="5" y="6" x="6" height="38" width="38"
                fill="#f2f5e9" fill-opacity="0.5" stroke="#606060" stroke-width="1.0"/>
           <path id="arrow"
             d="M 11.500037,31.436501 C 11.940474,20.09759 22.043105,11.32322 32.158766,21.979434 L 37.068811,17.246167 C 37.068811,17.246167 37.088388,32 37.088388,32 L 22.160133,31.978069 C 22.160133,31.978069 26.997745,27.140456 26.997745,27.140456 C 18.528582,18.264221 13.291696,25.230495 11.500037,31.436501 z"
             style="fill:#404040;"/>
          </a>
         </g>
        </svg>
</svg>
