<?xml version="1.0" encoding="UTF-8" standalone="no"?>
<!DOCTYPE svg PUBLIC "-//W3C//DTD SVG 1.1//EN"
 "http://www.w3.org/Graphics/SVG/1.1/DTD/svg11.dtd">
<!-- Generated by graphviz version 2.38.0 (20140413.2041)
 -->
<!-- Title: Q:/Documents/GitHub/MIDI2LR/Source/Pattern/Subject.h Pages: 1 -->
<svg width="163pt" height="106pt"
 viewBox="0.00 0.00 162.50 106.00" xmlns="http://www.w3.org/2000/svg" xmlns:xlink="http://www.w3.org/1999/xlink">
<g id="graph0" class="graph" transform="scale(1 1) rotate(0) translate(4 102)">
<title>Q:/Documents/GitHub/MIDI2LR/Source/Pattern/Subject.h</title>
<polygon fill="white" stroke="none" points="-4,4 -4,-102 158.5,-102 158.5,4 -4,4"/>
<!-- Node1 -->
<g id="node1" class="node"><title>Node1</title>
<polygon fill="#bfbfbf" stroke="black" points="0,-56.5 0,-97.5 125,-97.5 125,-56.5 0,-56.5"/>
<text text-anchor="start" x="8" y="-85.5" font-family="Helvetica,sans-Serif" font-size="10.00">Q:/Documents/GitHub</text>
<text text-anchor="start" x="8" y="-74.5" font-family="Helvetica,sans-Serif" font-size="10.00">/MIDI2LR/Source/Pattern</text>
<text text-anchor="middle" x="62.5" y="-63.5" font-family="Helvetica,sans-Serif" font-size="10.00">/Subject.h</text>
</g>
<!-- Node2 -->
<g id="node2" class="node"><title>Node2</title>
<g id="a_node2"><a xlink:href="_observer_8h.html" target="_top" xlink:title="Observer.h">
<polygon fill="white" stroke="black" points="31,-0.5 31,-19.5 94,-19.5 94,-0.5 31,-0.5"/>
<text text-anchor="middle" x="62.5" y="-7.5" font-family="Helvetica,sans-Serif" font-size="10.00">Observer.h</text>
</a>
</g>
</g>
<!-- Node1&#45;&gt;Node2 -->
<g id="edge1" class="edge"><title>Node1&#45;&gt;Node2</title>
<path fill="none" stroke="midnightblue" d="M56.2547,-56.4979C55.5567,-47.9695 55.5827,-38.0115 56.3326,-29.5896"/>
<polygon fill="midnightblue" stroke="midnightblue" points="59.8032,-30.0436 57.7355,-19.6525 52.8719,-29.065 59.8032,-30.0436"/>
</g>
<!-- Node3 -->
<g id="node3" class="node"><title>Node3</title>
<polygon fill="white" stroke="#bfbfbf" points="112.5,-0.5 112.5,-19.5 154.5,-19.5 154.5,-0.5 112.5,-0.5"/>
<text text-anchor="middle" x="133.5" y="-7.5" font-family="Helvetica,sans-Serif" font-size="10.00">vector</text>
</g>
<!-- Node1&#45;&gt;Node3 -->
<g id="edge3" class="edge"><title>Node1&#45;&gt;Node3</title>
<path fill="none" stroke="midnightblue" d="M83.8023,-56.4979C94.2693,-46.9154 106.708,-35.5281 116.522,-26.5428"/>
<polygon fill="midnightblue" stroke="midnightblue" points="119.036,-28.9866 124.049,-19.6525 114.31,-23.8235 119.036,-28.9866"/>
</g>
<!-- Node2&#45;&gt;Node1 -->
<g id="edge2" class="edge"><title>Node2&#45;&gt;Node1</title>
<path fill="none" stroke="midnightblue" d="M67.2645,-19.6525C68.7266,-26.5242 69.3812,-36.5592 69.2283,-46.2632"/>
<polygon fill="midnightblue" stroke="midnightblue" points="65.7207,-46.344 68.7453,-56.4979 72.7129,-46.674 65.7207,-46.344"/>
</g>
</g>
</svg>
