<?xml version="1.0" encoding="UTF-8" standalone="no"?>
<!DOCTYPE svg PUBLIC "-//W3C//DTD SVG 1.1//EN"
 "http://www.w3.org/Graphics/SVG/1.1/DTD/svg11.dtd">
<!-- Generated by graphviz version 2.38.0 (20140413.2041)
 -->
<!-- Title: Q:/Documents/GitHub/MIDI2LR/Source/VersionChecker.cpp Pages: 1 -->
<svg width="586pt" height="442pt"
 viewBox="0.00 0.00 585.50 442.00" xmlns="http://www.w3.org/2000/svg" xmlns:xlink="http://www.w3.org/1999/xlink">
<g id="graph0" class="graph" transform="scale(1 1) rotate(0) translate(4 438)">
<title>Q:/Documents/GitHub/MIDI2LR/Source/VersionChecker.cpp</title>
<polygon fill="white" stroke="none" points="-4,4 -4,-438 581.5,-438 581.5,4 -4,4"/>
<!-- Node1 -->
<g id="node1" class="node"><title>Node1</title>
<polygon fill="#bfbfbf" stroke="black" points="396.5,-403.5 396.5,-433.5 577.5,-433.5 577.5,-403.5 396.5,-403.5"/>
<text text-anchor="start" x="404.5" y="-421.5" font-family="Helvetica,sans-Serif" font-size="10.00">Q:/Documents/GitHub</text>
<text text-anchor="middle" x="487" y="-410.5" font-family="Helvetica,sans-Serif" font-size="10.00">/MIDI2LR/Source/VersionChecker.cpp</text>
</g>
<!-- Node2 -->
<g id="node2" class="node"><title>Node2</title>
<g id="a_node2"><a xlink:href="_version_checker_8h.html" target="_top" xlink:title="VersionChecker.h">
<polygon fill="white" stroke="black" points="440,-347.5 440,-366.5 534,-366.5 534,-347.5 440,-347.5"/>
<text text-anchor="middle" x="487" y="-354.5" font-family="Helvetica,sans-Serif" font-size="10.00">VersionChecker.h</text>
</a>
</g>
</g>
<!-- Node1&#45;&gt;Node2 -->
<g id="edge1" class="edge"><title>Node1&#45;&gt;Node2</title>
<path fill="none" stroke="midnightblue" d="M487,-403.399C487,-395.466 487,-385.458 487,-376.858"/>
<polygon fill="midnightblue" stroke="midnightblue" points="490.5,-376.658 487,-366.658 483.5,-376.658 490.5,-376.658"/>
</g>
<!-- Node3 -->
<g id="node3" class="node"><title>Node3</title>
<polygon fill="white" stroke="#bfbfbf" points="328,-56.5 328,-86.5 426,-86.5 426,-56.5 328,-56.5"/>
<text text-anchor="start" x="336" y="-74.5" font-family="Helvetica,sans-Serif" font-size="10.00">../JuceLibraryCode</text>
<text text-anchor="middle" x="377" y="-63.5" font-family="Helvetica,sans-Serif" font-size="10.00">/JuceHeader.h</text>
</g>
<!-- Node2&#45;&gt;Node3 -->
<g id="edge2" class="edge"><title>Node2&#45;&gt;Node3</title>
<path fill="none" stroke="midnightblue" d="M492.423,-347.25C503.139,-329.096 526,-285.713 526,-246 526,-246 526,-246 526,-188 526,-139.01 475.063,-107.823 432.754,-90.3682"/>
<polygon fill="midnightblue" stroke="midnightblue" points="433.914,-87.0635 423.328,-86.6418 431.341,-93.5733 433.914,-87.0635"/>
</g>
<!-- Node4 -->
<g id="node4" class="node"><title>Node4</title>
<g id="a_node4"><a xlink:href="_settings_manager_8h.html" target="_top" xlink:title="SettingsManager.h">
<polygon fill="white" stroke="black" points="364,-291.5 364,-310.5 462,-310.5 462,-291.5 364,-291.5"/>
<text text-anchor="middle" x="413" y="-298.5" font-family="Helvetica,sans-Serif" font-size="10.00">SettingsManager.h</text>
</a>
</g>
</g>
<!-- Node2&#45;&gt;Node4 -->
<g id="edge3" class="edge"><title>Node2&#45;&gt;Node4</title>
<path fill="none" stroke="midnightblue" d="M475.111,-347.324C463.85,-339.107 446.713,-326.602 433.291,-316.807"/>
<polygon fill="midnightblue" stroke="midnightblue" points="435.247,-313.901 425.106,-310.834 431.12,-319.556 435.247,-313.901"/>
</g>
<!-- Node4&#45;&gt;Node3 -->
<g id="edge4" class="edge"><title>Node4&#45;&gt;Node3</title>
<path fill="none" stroke="midnightblue" d="M418.247,-291.349C433.675,-264.7 475.982,-182.098 446,-123 439.515,-110.217 428.105,-99.8919 416.408,-91.9898"/>
<polygon fill="midnightblue" stroke="midnightblue" points="418.239,-89.0068 407.906,-86.6636 414.522,-94.9388 418.239,-89.0068"/>
</g>
<!-- Node5 -->
<g id="node5" class="node"><title>Node5</title>
<g id="a_node5"><a xlink:href="_l_r___i_p_c___out_8h.html" target="_top" xlink:title="LR_IPC_OUT.h">
<polygon fill="white" stroke="black" points="262.5,-179.5 262.5,-198.5 345.5,-198.5 345.5,-179.5 262.5,-179.5"/>
<text text-anchor="middle" x="304" y="-186.5" font-family="Helvetica,sans-Serif" font-size="10.00">LR_IPC_OUT.h</text>
</a>
</g>
</g>
<!-- Node4&#45;&gt;Node5 -->
<g id="edge5" class="edge"><title>Node4&#45;&gt;Node5</title>
<path fill="none" stroke="midnightblue" d="M381.819,-291.476C362.318,-284.626 338.116,-273.102 323,-255 312.059,-241.898 307.417,-222.75 305.448,-208.629"/>
<polygon fill="midnightblue" stroke="midnightblue" points="308.918,-208.163 304.373,-198.592 301.958,-208.908 308.918,-208.163"/>
</g>
<!-- Node14 -->
<g id="node14" class="node"><title>Node14</title>
<g id="a_node14"><a xlink:href="_profile_manager_8h.html" target="_top" xlink:title="ProfileManager.h">
<polygon fill="white" stroke="black" points="332.5,-235.5 332.5,-254.5 421.5,-254.5 421.5,-235.5 332.5,-235.5"/>
<text text-anchor="middle" x="377" y="-242.5" font-family="Helvetica,sans-Serif" font-size="10.00">ProfileManager.h</text>
</a>
</g>
</g>
<!-- Node4&#45;&gt;Node14 -->
<g id="edge19" class="edge"><title>Node4&#45;&gt;Node14</title>
<path fill="none" stroke="midnightblue" d="M407.055,-291.083C402.023,-283.534 394.663,-272.495 388.487,-263.23"/>
<polygon fill="midnightblue" stroke="midnightblue" points="391.293,-261.13 382.834,-254.751 385.469,-265.013 391.293,-261.13"/>
</g>
<!-- Node5&#45;&gt;Node3 -->
<g id="edge6" class="edge"><title>Node5&#45;&gt;Node3</title>
<path fill="none" stroke="midnightblue" d="M305.034,-179.414C306.914,-166.389 311.786,-141.224 323,-123 329.885,-111.812 339.895,-101.498 349.432,-93.148"/>
<polygon fill="midnightblue" stroke="midnightblue" points="351.818,-95.7149 357.252,-86.6195 347.332,-90.3412 351.818,-95.7149"/>
</g>
<!-- Node6 -->
<g id="node6" class="node"><title>Node6</title>
<g id="a_node6"><a xlink:href="_m_i_d_i_processor_8h.html" target="_top" xlink:title="MIDIProcessor.h">
<polygon fill="white" stroke="black" points="332.5,-123.5 332.5,-142.5 421.5,-142.5 421.5,-123.5 332.5,-123.5"/>
<text text-anchor="middle" x="377" y="-130.5" font-family="Helvetica,sans-Serif" font-size="10.00">MIDIProcessor.h</text>
</a>
</g>
</g>
<!-- Node5&#45;&gt;Node6 -->
<g id="edge7" class="edge"><title>Node5&#45;&gt;Node6</title>
<path fill="none" stroke="midnightblue" d="M315.729,-179.324C326.837,-171.107 343.742,-158.602 356.983,-148.807"/>
<polygon fill="midnightblue" stroke="midnightblue" points="359.1,-151.595 365.058,-142.834 354.937,-145.967 359.1,-151.595"/>
</g>
<!-- Node7 -->
<g id="node7" class="node"><title>Node7</title>
<g id="a_node7"><a xlink:href="_command_map_8h.html" target="_top" xlink:title="CommandMap.h">
<polygon fill="white" stroke="black" points="100,-123.5 100,-142.5 188,-142.5 188,-123.5 100,-123.5"/>
<text text-anchor="middle" x="144" y="-130.5" font-family="Helvetica,sans-Serif" font-size="10.00">CommandMap.h</text>
</a>
</g>
</g>
<!-- Node5&#45;&gt;Node7 -->
<g id="edge9" class="edge"><title>Node5&#45;&gt;Node7</title>
<path fill="none" stroke="midnightblue" d="M278.648,-179.444C251.731,-170.359 209.004,-155.939 178.913,-145.783"/>
<polygon fill="midnightblue" stroke="midnightblue" points="179.828,-142.398 169.234,-142.516 177.59,-149.031 179.828,-142.398"/>
</g>
<!-- Node12 -->
<g id="node12" class="node"><title>Node12</title>
<g id="a_node12"><a xlink:href="_send_keys_8h.html" target="_top" xlink:title="SendKeys.h">
<polygon fill="white" stroke="black" points="206,-123.5 206,-142.5 276,-142.5 276,-123.5 206,-123.5"/>
<text text-anchor="middle" x="241" y="-130.5" font-family="Helvetica,sans-Serif" font-size="10.00">SendKeys.h</text>
</a>
</g>
</g>
<!-- Node5&#45;&gt;Node12 -->
<g id="edge16" class="edge"><title>Node5&#45;&gt;Node12</title>
<path fill="none" stroke="midnightblue" d="M293.878,-179.324C284.474,-171.263 270.256,-159.077 258.931,-149.369"/>
<polygon fill="midnightblue" stroke="midnightblue" points="261.177,-146.684 251.306,-142.834 256.621,-151.999 261.177,-146.684"/>
</g>
<!-- Node6&#45;&gt;Node3 -->
<g id="edge8" class="edge"><title>Node6&#45;&gt;Node3</title>
<path fill="none" stroke="midnightblue" d="M377,-123.475C377,-116.471 377,-106.192 377,-96.6956"/>
<polygon fill="midnightblue" stroke="midnightblue" points="380.5,-96.5229 377,-86.523 373.5,-96.523 380.5,-96.5229"/>
</g>
<!-- Node7&#45;&gt;Node3 -->
<g id="edge10" class="edge"><title>Node7&#45;&gt;Node3</title>
<path fill="none" stroke="midnightblue" d="M177.383,-123.475C214,-114.125 273.474,-98.9369 317.996,-87.5675"/>
<polygon fill="midnightblue" stroke="midnightblue" points="319.002,-90.9231 327.825,-85.0576 317.27,-84.1408 319.002,-90.9231"/>
</g>
<!-- Node8 -->
<g id="node8" class="node"><title>Node8</title>
<polygon fill="white" stroke="#bfbfbf" points="110.5,-62 110.5,-81 193.5,-81 193.5,-62 110.5,-62"/>
<text text-anchor="middle" x="152" y="-69" font-family="Helvetica,sans-Serif" font-size="10.00">unordered_map</text>
</g>
<!-- Node7&#45;&gt;Node8 -->
<g id="edge11" class="edge"><title>Node7&#45;&gt;Node8</title>
<path fill="none" stroke="midnightblue" d="M145.146,-123.475C146.275,-115.08 148.036,-101.981 149.491,-91.1631"/>
<polygon fill="midnightblue" stroke="midnightblue" points="152.992,-91.3863 150.856,-81.0091 146.055,-90.4535 152.992,-91.3863"/>
</g>
<!-- Node9 -->
<g id="node9" class="node"><title>Node9</title>
<g id="a_node9"><a xlink:href="_subject_8h.html" target="_top" xlink:title="Pattern/Subject.h">
<polygon fill="white" stroke="black" points="0,-62 0,-81 92,-81 92,-62 0,-62"/>
<text text-anchor="middle" x="46" y="-69" font-family="Helvetica,sans-Serif" font-size="10.00">Pattern/Subject.h</text>
</a>
</g>
</g>
<!-- Node7&#45;&gt;Node9 -->
<g id="edge12" class="edge"><title>Node7&#45;&gt;Node9</title>
<path fill="none" stroke="midnightblue" d="M129.959,-123.475C113.949,-113.755 87.5496,-97.7266 68.626,-86.2372"/>
<polygon fill="midnightblue" stroke="midnightblue" points="70.3793,-83.2072 60.015,-81.0091 66.7464,-89.1907 70.3793,-83.2072"/>
</g>
<!-- Node10 -->
<g id="node10" class="node"><title>Node10</title>
<g id="a_node10"><a xlink:href="_observer_8h.html" target="_top" xlink:title="Observer.h">
<polygon fill="white" stroke="black" points="14.5,-0.5 14.5,-19.5 77.5,-19.5 77.5,-0.5 14.5,-0.5"/>
<text text-anchor="middle" x="46" y="-7.5" font-family="Helvetica,sans-Serif" font-size="10.00">Observer.h</text>
</a>
</g>
</g>
<!-- Node9&#45;&gt;Node10 -->
<g id="edge13" class="edge"><title>Node9&#45;&gt;Node10</title>
<path fill="none" stroke="midnightblue" d="M41.0994,-61.9751C39.2684,-53.5803 38.797,-40.4806 39.6851,-29.6631"/>
<polygon fill="midnightblue" stroke="midnightblue" points="43.1864,-29.897 41.1029,-19.5091 36.2536,-28.929 43.1864,-29.897"/>
</g>
<!-- Node11 -->
<g id="node11" class="node"><title>Node11</title>
<polygon fill="white" stroke="#bfbfbf" points="96,-0.5 96,-19.5 138,-19.5 138,-0.5 96,-0.5"/>
<text text-anchor="middle" x="117" y="-7.5" font-family="Helvetica,sans-Serif" font-size="10.00">vector</text>
</g>
<!-- Node9&#45;&gt;Node11 -->
<g id="edge15" class="edge"><title>Node9&#45;&gt;Node11</title>
<path fill="none" stroke="midnightblue" d="M56.1726,-61.9751C67.3498,-52.6082 85.5167,-37.3839 99.0912,-26.0081"/>
<polygon fill="midnightblue" stroke="midnightblue" points="101.43,-28.6148 106.846,-19.5091 96.9337,-23.2496 101.43,-28.6148"/>
</g>
<!-- Node10&#45;&gt;Node9 -->
<g id="edge14" class="edge"><title>Node10&#45;&gt;Node9</title>
<path fill="none" stroke="midnightblue" d="M50.8971,-19.5091C52.7298,-27.898 53.203,-40.9962 52.3165,-51.8165"/>
<polygon fill="midnightblue" stroke="midnightblue" points="48.8147,-51.5876 50.9006,-61.9751 55.7476,-52.554 48.8147,-51.5876"/>
</g>
<!-- Node12&#45;&gt;Node3 -->
<g id="edge18" class="edge"><title>Node12&#45;&gt;Node3</title>
<path fill="none" stroke="midnightblue" d="M260.485,-123.475C280.024,-114.927 310.712,-101.501 335.689,-90.5734"/>
<polygon fill="midnightblue" stroke="midnightblue" points="337.189,-93.7378 344.947,-86.523 334.383,-87.3247 337.189,-93.7378"/>
</g>
<!-- Node13 -->
<g id="node13" class="node"><title>Node13</title>
<polygon fill="white" stroke="#bfbfbf" points="219,-62 219,-81 263,-81 263,-62 219,-62"/>
<text text-anchor="middle" x="241" y="-69" font-family="Helvetica,sans-Serif" font-size="10.00">mutex</text>
</g>
<!-- Node12&#45;&gt;Node13 -->
<g id="edge17" class="edge"><title>Node12&#45;&gt;Node13</title>
<path fill="none" stroke="midnightblue" d="M241,-123.475C241,-115.08 241,-101.981 241,-91.1631"/>
<polygon fill="midnightblue" stroke="midnightblue" points="244.5,-91.0091 241,-81.0091 237.5,-91.0091 244.5,-91.0091"/>
</g>
<!-- Node14&#45;&gt;Node3 -->
<g id="edge20" class="edge"><title>Node14&#45;&gt;Node3</title>
<path fill="none" stroke="midnightblue" d="M383.507,-235.424C395.717,-218.727 421.673,-180.225 431,-143 433.16,-134.378 434.539,-131.154 431,-123 425.93,-111.317 416.679,-101.104 407.248,-92.9773"/>
<polygon fill="midnightblue" stroke="midnightblue" points="409.362,-90.1857 399.373,-86.6544 404.98,-95.6442 409.362,-90.1857"/>
</g>
<!-- Node14&#45;&gt;Node5 -->
<g id="edge22" class="edge"><title>Node14&#45;&gt;Node5</title>
<path fill="none" stroke="midnightblue" d="M365.271,-235.324C354.163,-227.107 337.258,-214.602 324.017,-204.807"/>
<polygon fill="midnightblue" stroke="midnightblue" points="326.063,-201.967 315.942,-198.834 321.9,-207.595 326.063,-201.967"/>
</g>
<!-- Node14&#45;&gt;Node6 -->
<g id="edge21" class="edge"><title>Node14&#45;&gt;Node6</title>
<path fill="none" stroke="midnightblue" d="M377,-235.368C377,-217.617 377,-176.666 377,-152.597"/>
<polygon fill="midnightblue" stroke="midnightblue" points="380.5,-152.591 377,-142.591 373.5,-152.591 380.5,-152.591"/>
</g>
<!-- Node14&#45;&gt;Node7 -->
<g id="edge23" class="edge"><title>Node14&#45;&gt;Node7</title>
<path fill="none" stroke="midnightblue" d="M348.807,-235.46C323.265,-227.329 284.865,-214.115 253,-199 221.124,-183.88 186.48,-162.244 165.001,-148.159"/>
<polygon fill="midnightblue" stroke="midnightblue" points="166.918,-145.231 156.648,-142.626 163.052,-151.067 166.918,-145.231"/>
</g>
</g>
</svg>
