<?xml version="1.0" encoding="UTF-8" standalone="no"?>
<!DOCTYPE svg PUBLIC "-//W3C//DTD SVG 1.1//EN"
 "http://www.w3.org/Graphics/SVG/1.1/DTD/svg11.dtd">
<!-- Generated by graphviz version 2.38.0 (20140413.2041)
 -->
<!-- Title: LRConnectionListener Pages: 1 -->
<svg width="337pt" height="84pt"
 viewBox="0.00 0.00 336.50 84.00" xmlns="http://www.w3.org/2000/svg" xmlns:xlink="http://www.w3.org/1999/xlink">
<g id="graph0" class="graph" transform="scale(1 1) rotate(0) translate(4 80)">
<title>LRConnectionListener</title>
<polygon fill="white" stroke="none" points="-4,4 -4,-80 332.5,-80 332.5,4 -4,4"/>
<!-- Node1 -->
<g id="node1" class="node"><title>Node1</title>
<polygon fill="#bfbfbf" stroke="black" points="123.5,-56.5 123.5,-75.5 235.5,-75.5 235.5,-56.5 123.5,-56.5"/>
<text text-anchor="middle" x="179.5" y="-63.5" font-family="Helvetica,sans-Serif" font-size="10.00">LRConnectionListener</text>
</g>
<!-- Node2 -->
<g id="node2" class="node"><title>Node2</title>
<g id="a_node2"><a xlink:href="class_main_content_component.html" target="_top" xlink:title="This component lives inside our window, and this is where you should put all your controls and conten...">
<polygon fill="white" stroke="black" points="0,-0.5 0,-19.5 121,-19.5 121,-0.5 0,-0.5"/>
<text text-anchor="middle" x="60.5" y="-7.5" font-family="Helvetica,sans-Serif" font-size="10.00">MainContentComponent</text>
</a>
</g>
</g>
<!-- Node1&#45;&gt;Node2 -->
<g id="edge1" class="edge"><title>Node1&#45;&gt;Node2</title>
<path fill="none" stroke="midnightblue" d="M151.363,-52.2321C129.104,-42.1312 98.6442,-28.3091 79.2677,-19.5164"/>
<polygon fill="midnightblue" stroke="midnightblue" points="150.091,-55.4984 160.644,-56.4435 152.984,-49.124 150.091,-55.4984"/>
</g>
<!-- Node3 -->
<g id="node3" class="node"><title>Node3</title>
<g id="a_node3"><a xlink:href="class_profile_manager.html" target="_top" xlink:title="ProfileManager">
<polygon fill="white" stroke="black" points="139,-0.5 139,-19.5 220,-19.5 220,-0.5 139,-0.5"/>
<text text-anchor="middle" x="179.5" y="-7.5" font-family="Helvetica,sans-Serif" font-size="10.00">ProfileManager</text>
</a>
</g>
</g>
<!-- Node1&#45;&gt;Node3 -->
<g id="edge2" class="edge"><title>Node1&#45;&gt;Node3</title>
<path fill="none" stroke="midnightblue" d="M179.5,-45.8045C179.5,-36.9102 179.5,-26.7798 179.5,-19.7511"/>
<polygon fill="midnightblue" stroke="midnightblue" points="176,-46.083 179.5,-56.083 183,-46.083 176,-46.083"/>
</g>
<!-- Node4 -->
<g id="node4" class="node"><title>Node4</title>
<g id="a_node4"><a xlink:href="class_settings_manager.html" target="_top" xlink:title="Settings Manager. ">
<polygon fill="white" stroke="black" points="238.5,-0.5 238.5,-19.5 328.5,-19.5 328.5,-0.5 238.5,-0.5"/>
<text text-anchor="middle" x="283.5" y="-7.5" font-family="Helvetica,sans-Serif" font-size="10.00">SettingsManager</text>
</a>
</g>
</g>
<!-- Node1&#45;&gt;Node4 -->
<g id="edge3" class="edge"><title>Node1&#45;&gt;Node4</title>
<path fill="none" stroke="midnightblue" d="M205.328,-51.5895C224.557,-41.6052 250.245,-28.2672 266.832,-19.6545"/>
<polygon fill="midnightblue" stroke="midnightblue" points="203.471,-48.6095 196.209,-56.324 206.697,-54.822 203.471,-48.6095"/>
</g>
</g>
</svg>
