<?xml version="1.0" encoding="UTF-8" standalone="no"?>
<!DOCTYPE svg PUBLIC "-//W3C//DTD SVG 1.1//EN"
 "http://www.w3.org/Graphics/SVG/1.1/DTD/svg11.dtd">
<!-- Generated by graphviz version 2.38.0 (20140413.2041)
 -->
<!-- Title: ResizableChild Pages: 1 -->
<svg width="394pt" height="140pt"
 viewBox="0.00 0.00 393.50 140.00" xmlns="http://www.w3.org/2000/svg" xmlns:xlink="http://www.w3.org/1999/xlink">
<g id="graph0" class="graph" transform="scale(1 1) rotate(0) translate(4 136)">
<title>ResizableChild</title>
<polygon fill="white" stroke="none" points="-4,4 -4,-136 389.5,-136 389.5,4 -4,4"/>
<!-- Node1 -->
<g id="node1" class="node"><title>Node1</title>
<polygon fill="#bfbfbf" stroke="black" points="150,-112.5 150,-131.5 231,-131.5 231,-112.5 150,-112.5"/>
<text text-anchor="middle" x="190.5" y="-119.5" font-family="Helvetica,sans-Serif" font-size="10.00">ResizableChild</text>
</g>
<!-- Node2 -->
<g id="node2" class="node"><title>Node2</title>
<g id="a_node2"><a xlink:href="class_resizable_layout.html" target="_top" xlink:title="Derive your Component from this class if you want to be able to put anchors on children. ">
<polygon fill="white" stroke="black" points="146,-56.5 146,-75.5 235,-75.5 235,-56.5 146,-56.5"/>
<text text-anchor="middle" x="190.5" y="-63.5" font-family="Helvetica,sans-Serif" font-size="10.00">ResizableLayout</text>
</a>
</g>
</g>
<!-- Node1&#45;&gt;Node2 -->
<g id="edge1" class="edge"><title>Node1&#45;&gt;Node2</title>
<path fill="none" stroke="midnightblue" d="M190.5,-101.805C190.5,-92.9102 190.5,-82.7798 190.5,-75.7511"/>
<polygon fill="midnightblue" stroke="midnightblue" points="187,-102.083 190.5,-112.083 194,-102.083 187,-102.083"/>
</g>
<!-- Node3 -->
<g id="node3" class="node"><title>Node3</title>
<g id="a_node3"><a xlink:href="class_main_content_component.html" target="_top" xlink:title="This component lives inside our window, and this is where you should put all your controls and conten...">
<polygon fill="white" stroke="black" points="0,-0.5 0,-19.5 121,-19.5 121,-0.5 0,-0.5"/>
<text text-anchor="middle" x="60.5" y="-7.5" font-family="Helvetica,sans-Serif" font-size="10.00">MainContentComponent</text>
</a>
</g>
</g>
<!-- Node2&#45;&gt;Node3 -->
<g id="edge2" class="edge"><title>Node2&#45;&gt;Node3</title>
<path fill="none" stroke="midnightblue" d="M160.415,-52.503C136.043,-42.3795 102.36,-28.388 81.0025,-19.5164"/>
<polygon fill="midnightblue" stroke="midnightblue" points="159.323,-55.8397 169.901,-56.4435 162.009,-49.3752 159.323,-55.8397"/>
</g>
<!-- Node4 -->
<g id="node4" class="node"><title>Node4</title>
<g id="a_node4"><a xlink:href="class_settings_component.html" target="_top" xlink:title="Settings Component. ">
<polygon fill="white" stroke="black" points="139.5,-0.5 139.5,-19.5 241.5,-19.5 241.5,-0.5 139.5,-0.5"/>
<text text-anchor="middle" x="190.5" y="-7.5" font-family="Helvetica,sans-Serif" font-size="10.00">SettingsComponent</text>
</a>
</g>
</g>
<!-- Node2&#45;&gt;Node4 -->
<g id="edge3" class="edge"><title>Node2&#45;&gt;Node4</title>
<path fill="none" stroke="#8b1a1a" d="M190.5,-45.8045C190.5,-36.9102 190.5,-26.7798 190.5,-19.7511"/>
<polygon fill="#8b1a1a" stroke="#8b1a1a" points="187,-46.083 190.5,-56.083 194,-46.083 187,-46.083"/>
</g>
<!-- Node5 -->
<g id="node5" class="node"><title>Node5</title>
<g id="a_node5"><a xlink:href="class_top_level_resizable_layout.html" target="_top" xlink:title="Derive your content component from this class (i.e. the component that you stick in a ResizableWindow...">
<polygon fill="white" stroke="black" points="259.5,-0.5 259.5,-19.5 385.5,-19.5 385.5,-0.5 259.5,-0.5"/>
<text text-anchor="middle" x="322.5" y="-7.5" font-family="Helvetica,sans-Serif" font-size="10.00">TopLevelResizableLayout</text>
</a>
</g>
</g>
<!-- Node2&#45;&gt;Node5 -->
<g id="edge4" class="edge"><title>Node2&#45;&gt;Node5</title>
<path fill="none" stroke="midnightblue" d="M220.719,-52.6377C245.49,-42.504 279.9,-28.4274 301.682,-19.5164"/>
<polygon fill="midnightblue" stroke="midnightblue" points="219.346,-49.4177 211.416,-56.4435 221.997,-55.8966 219.346,-49.4177"/>
</g>
</g>
</svg>
