<?xml version="1.0" encoding="UTF-8" standalone="no"?>
<!DOCTYPE svg PUBLIC "-//W3C//DTD SVG 1.1//EN"
 "http://www.w3.org/Graphics/SVG/1.1/DTD/svg11.dtd">
<!-- Generated by graphviz version 2.38.0 (20140413.2041)
 -->
<!-- Title: ResizableChild::setMaximumSize Pages: 1 -->
<svg width="350pt" height="88pt"
 viewBox="0.00 0.00 350.00 88.00" xmlns="http://www.w3.org/2000/svg" xmlns:xlink="http://www.w3.org/1999/xlink">
<g id="graph0" class="graph" transform="scale(1 1) rotate(0) translate(4 84)">
<title>ResizableChild::setMaximumSize</title>
<polygon fill="white" stroke="none" points="-4,4 -4,-84 346,-84 346,4 -4,4"/>
<!-- Node1 -->
<g id="node1" class="node"><title>Node1</title>
<polygon fill="#bfbfbf" stroke="black" points="0,-30 0,-49 163,-49 163,-30 0,-30"/>
<text text-anchor="middle" x="81.5" y="-37" font-family="Helvetica,sans-Serif" font-size="10.00">ResizableChild::setMaximumSize</text>
</g>
<!-- Node2 -->
<g id="node2" class="node"><title>Node2</title>
<g id="a_node2"><a xlink:href="class_resizable_child.html#a2b7b79d443e5d8f9220f9fa2e5a48e3d" target="_top" xlink:title="ResizableChild::setMaximum\lHeight">
<polygon fill="white" stroke="black" points="199,-49.5 199,-79.5 342,-79.5 342,-49.5 199,-49.5"/>
<text text-anchor="start" x="207" y="-67.5" font-family="Helvetica,sans-Serif" font-size="10.00">ResizableChild::setMaximum</text>
<text text-anchor="middle" x="270.5" y="-56.5" font-family="Helvetica,sans-Serif" font-size="10.00">Height</text>
</a>
</g>
</g>
<!-- Node1&#45;&gt;Node2 -->
<g id="edge1" class="edge"><title>Node1&#45;&gt;Node2</title>
<path fill="none" stroke="midnightblue" d="M153.73,-49.0227C165.146,-50.5489 177.032,-52.138 188.652,-53.6915"/>
<polygon fill="midnightblue" stroke="midnightblue" points="188.402,-57.189 198.777,-55.0451 189.329,-50.2508 188.402,-57.189"/>
</g>
<!-- Node3 -->
<g id="node3" class="node"><title>Node3</title>
<g id="a_node3"><a xlink:href="class_resizable_child.html#af320c3d8d97e1a29871b83a161970530" target="_top" xlink:title="ResizableChild::setMaximum\lWidth">
<polygon fill="white" stroke="black" points="199,-0.5 199,-30.5 342,-30.5 342,-0.5 199,-0.5"/>
<text text-anchor="start" x="207" y="-18.5" font-family="Helvetica,sans-Serif" font-size="10.00">ResizableChild::setMaximum</text>
<text text-anchor="middle" x="270.5" y="-7.5" font-family="Helvetica,sans-Serif" font-size="10.00">Width</text>
</a>
</g>
</g>
<!-- Node1&#45;&gt;Node3 -->
<g id="edge2" class="edge"><title>Node1&#45;&gt;Node3</title>
<path fill="none" stroke="midnightblue" d="M156.676,-29.9801C167.185,-28.6313 178.035,-27.2388 188.663,-25.8748"/>
<polygon fill="midnightblue" stroke="midnightblue" points="189.293,-29.3228 198.766,-24.5782 188.402,-22.3797 189.293,-29.3228"/>
</g>
</g>
</svg>
