<?xml version="1.0" encoding="UTF-8" standalone="no"?>
<!DOCTYPE svg PUBLIC "-//W3C//DTD SVG 1.1//EN"
 "http://www.w3.org/Graphics/SVG/1.1/DTD/svg11.dtd">
<!-- Generated by graphviz version 2.38.0 (20140413.2041)
 -->
<!-- Title: MainContentComponent Pages: 1 -->
<svg width="417pt" height="313pt"
 viewBox="0.00 0.00 417.00 313.00" xmlns="http://www.w3.org/2000/svg" xmlns:xlink="http://www.w3.org/1999/xlink">
<g id="graph0" class="graph" transform="scale(1 1) rotate(0) translate(4 309)">
<title>MainContentComponent</title>
<polygon fill="white" stroke="none" points="-4,4 -4,-309 413,-309 413,4 -4,4"/>
<!-- Node1 -->
<g id="node1" class="node"><title>Node1</title>
<polygon fill="#bfbfbf" stroke="black" points="288,-152.5 288,-171.5 409,-171.5 409,-152.5 288,-152.5"/>
<text text-anchor="middle" x="348.5" y="-159.5" font-family="Helvetica,sans-Serif" font-size="10.00">MainContentComponent</text>
</g>
<!-- Node2 -->
<g id="node2" class="node"><title>Node2</title>
<polygon fill="white" stroke="#bfbfbf" points="161.5,-285.5 161.5,-304.5 227.5,-304.5 227.5,-285.5 161.5,-285.5"/>
<text text-anchor="middle" x="194.5" y="-292.5" font-family="Helvetica,sans-Serif" font-size="10.00">Component</text>
</g>
<!-- Node2&#45;&gt;Node1 -->
<g id="edge1" class="edge"><title>Node2&#45;&gt;Node1</title>
<path fill="none" stroke="midnightblue" d="M237.155,-283.955C242.37,-281.731 247.459,-279.099 252,-276 294.649,-246.889 328.948,-193.684 341.912,-171.8"/>
<polygon fill="midnightblue" stroke="midnightblue" points="235.834,-280.712 227.725,-287.531 238.316,-287.258 235.834,-280.712"/>
</g>
<!-- Node3 -->
<g id="node3" class="node"><title>Node3</title>
<g id="a_node3"><a xlink:href="class_m_i_d_i_command_listener.html" target="_top" xlink:title="MIDI Command Listener. ">
<polygon fill="white" stroke="black" points="137,-247.5 137,-266.5 252,-266.5 252,-247.5 137,-247.5"/>
<text text-anchor="middle" x="194.5" y="-254.5" font-family="Helvetica,sans-Serif" font-size="10.00">MIDICommandListener</text>
</a>
</g>
</g>
<!-- Node3&#45;&gt;Node1 -->
<g id="edge2" class="edge"><title>Node3&#45;&gt;Node1</title>
<path fill="none" stroke="midnightblue" d="M239.528,-243.889C243.831,-242.108 248.058,-240.145 252,-238 286.62,-219.164 321.346,-187.579 337.749,-171.715"/>
<polygon fill="midnightblue" stroke="midnightblue" points="238.163,-240.664 230.069,-247.5 240.659,-247.204 238.163,-240.664"/>
</g>
<!-- Node4 -->
<g id="node4" class="node"><title>Node4</title>
<g id="a_node4"><a xlink:href="class_l_r_connection_listener.html" target="_top" xlink:title="A lr connection listener. ">
<polygon fill="white" stroke="black" points="138.5,-209.5 138.5,-228.5 250.5,-228.5 250.5,-209.5 138.5,-209.5"/>
<text text-anchor="middle" x="194.5" y="-216.5" font-family="Helvetica,sans-Serif" font-size="10.00">LRConnectionListener</text>
</a>
</g>
</g>
<!-- Node4&#45;&gt;Node1 -->
<g id="edge3" class="edge"><title>Node4&#45;&gt;Node1</title>
<path fill="none" stroke="midnightblue" d="M234.605,-206.157C240.454,-204.148 246.398,-202.055 252,-200 276.962,-190.844 305.218,-179.474 324.478,-171.568"/>
<polygon fill="midnightblue" stroke="midnightblue" points="233.276,-202.912 224.93,-209.44 235.525,-209.541 233.276,-202.912"/>
</g>
<!-- Node5 -->
<g id="node5" class="node"><title>Node5</title>
<polygon fill="white" stroke="#bfbfbf" points="155.5,-171.5 155.5,-190.5 233.5,-190.5 233.5,-171.5 155.5,-171.5"/>
<text text-anchor="middle" x="194.5" y="-178.5" font-family="Helvetica,sans-Serif" font-size="10.00">AsyncUpdater</text>
</g>
<!-- Node5&#45;&gt;Node1 -->
<g id="edge4" class="edge"><title>Node5&#45;&gt;Node1</title>
<path fill="none" stroke="midnightblue" d="M244.172,-174.916C258.07,-173.179 273.374,-171.266 287.848,-169.456"/>
<polygon fill="midnightblue" stroke="midnightblue" points="243.345,-171.492 233.856,-176.205 244.213,-178.438 243.345,-171.492"/>
</g>
<!-- Node6 -->
<g id="node6" class="node"><title>Node6</title>
<polygon fill="white" stroke="#bfbfbf" points="174,-133.5 174,-152.5 215,-152.5 215,-133.5 174,-133.5"/>
<text text-anchor="middle" x="194.5" y="-140.5" font-family="Helvetica,sans-Serif" font-size="10.00">Timer</text>
</g>
<!-- Node6&#45;&gt;Node1 -->
<g id="edge5" class="edge"><title>Node6&#45;&gt;Node1</title>
<path fill="none" stroke="midnightblue" d="M225.105,-146.701C242.899,-148.925 266.189,-151.836 287.672,-154.521"/>
<polygon fill="midnightblue" stroke="midnightblue" points="225.417,-143.212 215.06,-145.445 224.549,-150.158 225.417,-143.212"/>
</g>
<!-- Node7 -->
<g id="node7" class="node"><title>Node7</title>
<polygon fill="white" stroke="#bfbfbf" points="154.5,-95.5 154.5,-114.5 234.5,-114.5 234.5,-95.5 154.5,-95.5"/>
<text text-anchor="middle" x="194.5" y="-102.5" font-family="Helvetica,sans-Serif" font-size="10.00">ButtonListener</text>
</g>
<!-- Node7&#45;&gt;Node1 -->
<g id="edge6" class="edge"><title>Node7&#45;&gt;Node1</title>
<path fill="none" stroke="midnightblue" d="M234.605,-117.843C240.454,-119.852 246.398,-121.945 252,-124 276.962,-133.156 305.218,-144.526 324.478,-152.432"/>
<polygon fill="midnightblue" stroke="midnightblue" points="235.525,-114.459 224.93,-114.56 233.276,-121.088 235.525,-114.459"/>
</g>
<!-- Node8 -->
<g id="node8" class="node"><title>Node8</title>
<g id="a_node8"><a xlink:href="class_profile_change_listener.html" target="_top" xlink:title="Profile change listener. ">
<polygon fill="white" stroke="black" points="139,-57.5 139,-76.5 250,-76.5 250,-57.5 139,-57.5"/>
<text text-anchor="middle" x="194.5" y="-64.5" font-family="Helvetica,sans-Serif" font-size="10.00">ProfileChangeListener</text>
</a>
</g>
</g>
<!-- Node8&#45;&gt;Node1 -->
<g id="edge7" class="edge"><title>Node8&#45;&gt;Node1</title>
<path fill="none" stroke="midnightblue" d="M239.528,-80.1106C243.831,-81.8923 248.058,-83.8555 252,-86 286.62,-104.836 321.346,-136.421 337.749,-152.285"/>
<polygon fill="midnightblue" stroke="midnightblue" points="240.659,-76.7961 230.069,-76.5002 238.163,-83.336 240.659,-76.7961"/>
</g>
<!-- Node9 -->
<g id="node9" class="node"><title>Node9</title>
<g id="a_node9"><a xlink:href="class_resizable_layout.html" target="_top" xlink:title="Derive your Component from this class if you want to be able to put anchors on children. ">
<polygon fill="white" stroke="black" points="150,-19.5 150,-38.5 239,-38.5 239,-19.5 150,-19.5"/>
<text text-anchor="middle" x="194.5" y="-26.5" font-family="Helvetica,sans-Serif" font-size="10.00">ResizableLayout</text>
</a>
</g>
</g>
<!-- Node9&#45;&gt;Node1 -->
<g id="edge8" class="edge"><title>Node9&#45;&gt;Node1</title>
<path fill="none" stroke="midnightblue" d="M242.857,-42.6775C246.052,-44.2755 249.135,-46.0446 252,-48 294.649,-77.1114 328.948,-130.316 341.912,-152.2"/>
<polygon fill="midnightblue" stroke="midnightblue" points="244.206,-39.4473 233.644,-38.6143 241.382,-45.8521 244.206,-39.4473"/>
</g>
<!-- Node10 -->
<g id="node10" class="node"><title>Node10</title>
<g id="a_node10"><a xlink:href="class_resizable_child.html" target="_top" xlink:title="Derive your child Component from this class if you want to be able to set size limits per&#45;item...">
<polygon fill="white" stroke="black" points="10,-38.5 10,-57.5 91,-57.5 91,-38.5 10,-38.5"/>
<text text-anchor="middle" x="50.5" y="-45.5" font-family="Helvetica,sans-Serif" font-size="10.00">ResizableChild</text>
</a>
</g>
</g>
<!-- Node10&#45;&gt;Node9 -->
<g id="edge9" class="edge"><title>Node10&#45;&gt;Node9</title>
<path fill="none" stroke="midnightblue" d="M101.22,-41.3473C117.089,-39.2239 134.521,-36.8915 149.92,-34.8312"/>
<polygon fill="midnightblue" stroke="midnightblue" points="100.502,-37.9121 91.0549,-42.7074 101.431,-44.8502 100.502,-37.9121"/>
</g>
<!-- Node11 -->
<g id="node11" class="node"><title>Node11</title>
<polygon fill="white" stroke="#bfbfbf" points="0,-0.5 0,-19.5 101,-19.5 101,-0.5 0,-0.5"/>
<text text-anchor="middle" x="50.5" y="-7.5" font-family="Helvetica,sans-Serif" font-size="10.00">ComponentListener</text>
</g>
<!-- Node11&#45;&gt;Node9 -->
<g id="edge10" class="edge"><title>Node11&#45;&gt;Node9</title>
<path fill="none" stroke="#8b1a1a" d="M111.361,-18.0095C124.25,-19.7341 137.642,-21.526 149.779,-23.15"/>
<polygon fill="#8b1a1a" stroke="#8b1a1a" points="111.541,-14.5025 101.165,-16.6453 110.612,-21.4407 111.541,-14.5025"/>
</g>
</g>
</svg>
