<?xml version="1.0" encoding="UTF-8" standalone="no"?>
<!DOCTYPE svg PUBLIC "-//W3C//DTD SVG 1.1//EN"
 "http://www.w3.org/Graphics/SVG/1.1/DTD/svg11.dtd">
<!-- Generated by graphviz version 2.38.0 (20140413.2041)
 -->
<!-- Title: ProfileManager Pages: 1 -->
<svg width="350pt" height="84pt"
 viewBox="0.00 0.00 349.50 84.00" xmlns="http://www.w3.org/2000/svg" xmlns:xlink="http://www.w3.org/1999/xlink">
<g id="graph0" class="graph" transform="scale(1 1) rotate(0) translate(4 80)">
<title>ProfileManager</title>
<polygon fill="white" stroke="none" points="-4,4 -4,-80 345.5,-80 345.5,4 -4,4"/>
<!-- Node1 -->
<g id="node1" class="node"><title>Node1</title>
<polygon fill="#bfbfbf" stroke="black" points="132,-0.5 132,-19.5 213,-19.5 213,-0.5 132,-0.5"/>
<text text-anchor="middle" x="172.5" y="-7.5" font-family="Helvetica,sans-Serif" font-size="10.00">ProfileManager</text>
</g>
<!-- Node2 -->
<g id="node2" class="node"><title>Node2</title>
<g id="a_node2"><a xlink:href="class_m_i_d_i_command_listener.html" target="_top" xlink:title="MIDI Command Listener. ">
<polygon fill="white" stroke="black" points="0,-56.5 0,-75.5 115,-75.5 115,-56.5 0,-56.5"/>
<text text-anchor="middle" x="57.5" y="-63.5" font-family="Helvetica,sans-Serif" font-size="10.00">MIDICommandListener</text>
</a>
</g>
</g>
<!-- Node2&#45;&gt;Node1 -->
<g id="edge1" class="edge"><title>Node2&#45;&gt;Node1</title>
<path fill="none" stroke="midnightblue" d="M84.9808,-52.096C106.466,-42.0073 135.722,-28.2697 154.363,-19.5164"/>
<polygon fill="midnightblue" stroke="midnightblue" points="83.2862,-49.025 75.7221,-56.4435 86.2615,-55.3612 83.2862,-49.025"/>
</g>
<!-- Node3 -->
<g id="node3" class="node"><title>Node3</title>
<polygon fill="white" stroke="#bfbfbf" points="133.5,-56.5 133.5,-75.5 211.5,-75.5 211.5,-56.5 133.5,-56.5"/>
<text text-anchor="middle" x="172.5" y="-63.5" font-family="Helvetica,sans-Serif" font-size="10.00">AsyncUpdater</text>
</g>
<!-- Node3&#45;&gt;Node1 -->
<g id="edge2" class="edge"><title>Node3&#45;&gt;Node1</title>
<path fill="none" stroke="midnightblue" d="M172.5,-45.8045C172.5,-36.9102 172.5,-26.7798 172.5,-19.7511"/>
<polygon fill="midnightblue" stroke="midnightblue" points="169,-46.083 172.5,-56.083 176,-46.083 169,-46.083"/>
</g>
<!-- Node4 -->
<g id="node4" class="node"><title>Node4</title>
<g id="a_node4"><a xlink:href="class_l_r_connection_listener.html" target="_top" xlink:title="A lr connection listener. ">
<polygon fill="white" stroke="black" points="229.5,-56.5 229.5,-75.5 341.5,-75.5 341.5,-56.5 229.5,-56.5"/>
<text text-anchor="middle" x="285.5" y="-63.5" font-family="Helvetica,sans-Serif" font-size="10.00">LRConnectionListener</text>
</a>
</g>
</g>
<!-- Node4&#45;&gt;Node1 -->
<g id="edge3" class="edge"><title>Node4&#45;&gt;Node1</title>
<path fill="none" stroke="midnightblue" d="M258.497,-52.096C237.386,-42.0073 208.638,-28.2697 190.321,-19.5164"/>
<polygon fill="midnightblue" stroke="midnightblue" points="257.063,-55.2897 267.595,-56.4435 260.081,-48.9738 257.063,-55.2897"/>
</g>
</g>
</svg>
