<?xml version="1.0" encoding="UTF-8" standalone="no"?>
<!DOCTYPE svg PUBLIC "-//W3C//DTD SVG 1.1//EN"
 "http://www.w3.org/Graphics/SVG/1.1/DTD/svg11.dtd">
<!-- Generated by graphviz version 2.38.0 (20140413.2041)
 -->
<!-- Title: SettingsComponent Pages: 1 -->
<svg width="380pt" height="140pt"
 viewBox="0.00 0.00 380.00 140.00" xmlns="http://www.w3.org/2000/svg" xmlns:xlink="http://www.w3.org/1999/xlink">
<g id="graph0" class="graph" transform="scale(1 1) rotate(0) translate(4 136)">
<title>SettingsComponent</title>
<polygon fill="white" stroke="none" points="-4,4 -4,-136 376,-136 376,4 -4,4"/>
<!-- Node1 -->
<g id="node1" class="node"><title>Node1</title>
<polygon fill="#bfbfbf" stroke="black" points="124,-0.5 124,-19.5 226,-19.5 226,-0.5 124,-0.5"/>
<text text-anchor="middle" x="175" y="-7.5" font-family="Helvetica,sans-Serif" font-size="10.00">SettingsComponent</text>
</g>
<!-- Node2 -->
<g id="node2" class="node"><title>Node2</title>
<polygon fill="white" stroke="#bfbfbf" points="0,-56.5 0,-75.5 66,-75.5 66,-56.5 0,-56.5"/>
<text text-anchor="middle" x="33" y="-63.5" font-family="Helvetica,sans-Serif" font-size="10.00">Component</text>
</g>
<!-- Node2&#45;&gt;Node1 -->
<g id="edge1" class="edge"><title>Node2&#45;&gt;Node1</title>
<path fill="none" stroke="midnightblue" d="M65.1551,-52.772C91.8283,-42.6287 129.069,-28.4669 152.605,-19.5164"/>
<polygon fill="midnightblue" stroke="midnightblue" points="63.6032,-49.6176 55.5003,-56.4435 66.0914,-56.1604 63.6032,-49.6176"/>
</g>
<!-- Node3 -->
<g id="node3" class="node"><title>Node3</title>
<polygon fill="white" stroke="#bfbfbf" points="84,-56.5 84,-75.5 164,-75.5 164,-56.5 84,-56.5"/>
<text text-anchor="middle" x="124" y="-63.5" font-family="Helvetica,sans-Serif" font-size="10.00">ButtonListener</text>
</g>
<!-- Node3&#45;&gt;Node1 -->
<g id="edge2" class="edge"><title>Node3&#45;&gt;Node1</title>
<path fill="none" stroke="midnightblue" d="M139.378,-48.7175C148.367,-39.1997 159.359,-27.5608 166.735,-19.7511"/>
<polygon fill="midnightblue" stroke="midnightblue" points="136.743,-46.4096 132.422,-56.083 141.832,-51.216 136.743,-46.4096"/>
</g>
<!-- Node4 -->
<g id="node4" class="node"><title>Node4</title>
<g id="a_node4"><a xlink:href="class_resizable_layout.html" target="_top" xlink:title="Derive your Component from this class if you want to be able to put anchors on children. ">
<polygon fill="white" stroke="black" points="182.5,-56.5 182.5,-75.5 271.5,-75.5 271.5,-56.5 182.5,-56.5"/>
<text text-anchor="middle" x="227" y="-63.5" font-family="Helvetica,sans-Serif" font-size="10.00">ResizableLayout</text>
</a>
</g>
</g>
<!-- Node4&#45;&gt;Node1 -->
<g id="edge3" class="edge"><title>Node4&#45;&gt;Node1</title>
<path fill="none" stroke="#8b1a1a" d="M211.321,-48.7175C202.155,-39.1997 190.947,-27.5608 183.427,-19.7511"/>
<polygon fill="#8b1a1a" stroke="#8b1a1a" points="208.956,-51.3075 218.413,-56.083 213.998,-46.452 208.956,-51.3075"/>
</g>
<!-- Node5 -->
<g id="node5" class="node"><title>Node5</title>
<g id="a_node5"><a xlink:href="class_resizable_child.html" target="_top" xlink:title="Derive your child Component from this class if you want to be able to set size limits per&#45;item...">
<polygon fill="white" stroke="black" points="132.5,-112.5 132.5,-131.5 213.5,-131.5 213.5,-112.5 132.5,-112.5"/>
<text text-anchor="middle" x="173" y="-119.5" font-family="Helvetica,sans-Serif" font-size="10.00">ResizableChild</text>
</a>
</g>
</g>
<!-- Node5&#45;&gt;Node4 -->
<g id="edge4" class="edge"><title>Node5&#45;&gt;Node4</title>
<path fill="none" stroke="midnightblue" d="M188.998,-105.002C198.567,-95.4329 210.361,-83.6389 218.249,-75.7511"/>
<polygon fill="midnightblue" stroke="midnightblue" points="186.513,-102.537 181.917,-112.083 191.463,-107.487 186.513,-102.537"/>
</g>
<!-- Node6 -->
<g id="node6" class="node"><title>Node6</title>
<polygon fill="white" stroke="#bfbfbf" points="231.5,-112.5 231.5,-131.5 332.5,-131.5 332.5,-112.5 231.5,-112.5"/>
<text text-anchor="middle" x="282" y="-119.5" font-family="Helvetica,sans-Serif" font-size="10.00">ComponentListener</text>
</g>
<!-- Node6&#45;&gt;Node4 -->
<g id="edge5" class="edge"><title>Node6&#45;&gt;Node4</title>
<path fill="none" stroke="#8b1a1a" d="M265.706,-105.002C255.959,-95.4329 243.947,-83.6389 235.913,-75.7511"/>
<polygon fill="#8b1a1a" stroke="#8b1a1a" points="263.33,-107.575 272.918,-112.083 268.234,-102.58 263.33,-107.575"/>
</g>
<!-- Node7 -->
<g id="node7" class="node"><title>Node7</title>
<polygon fill="white" stroke="#bfbfbf" points="290,-56.5 290,-75.5 372,-75.5 372,-56.5 290,-56.5"/>
<text text-anchor="middle" x="331" y="-63.5" font-family="Helvetica,sans-Serif" font-size="10.00">Slider::Listener</text>
</g>
<!-- Node7&#45;&gt;Node1 -->
<g id="edge6" class="edge"><title>Node7&#45;&gt;Node1</title>
<path fill="none" stroke="midnightblue" d="M296.83,-53.172C267.456,-43.0039 225.802,-28.5852 199.603,-19.5164"/>
<polygon fill="midnightblue" stroke="midnightblue" points="295.687,-56.4798 306.281,-56.4435 297.976,-49.8649 295.687,-56.4798"/>
</g>
</g>
</svg>
