<?xml version="1.0" encoding="UTF-8" standalone="no"?>
<!DOCTYPE svg PUBLIC "-//W3C//DTD SVG 1.1//EN"
 "http://www.w3.org/Graphics/SVG/1.1/DTD/svg11.dtd">
<!-- Generated by graphviz version 2.38.0 (20140413.2041)
 -->
<!-- Title: ResizableChild::setMinimumSize Pages: 1 -->
<svg width="344pt" height="88pt"
 viewBox="0.00 0.00 344.00 88.00" xmlns="http://www.w3.org/2000/svg" xmlns:xlink="http://www.w3.org/1999/xlink">
<g id="graph0" class="graph" transform="scale(1 1) rotate(0) translate(4 84)">
<title>ResizableChild::setMinimumSize</title>
<polygon fill="white" stroke="none" points="-4,4 -4,-84 340,-84 340,4 -4,4"/>
<!-- Node1 -->
<g id="node1" class="node"><title>Node1</title>
<polygon fill="#bfbfbf" stroke="black" points="0,-30 0,-49 160,-49 160,-30 0,-30"/>
<text text-anchor="middle" x="80" y="-37" font-family="Helvetica,sans-Serif" font-size="10.00">ResizableChild::setMinimumSize</text>
</g>
<!-- Node2 -->
<g id="node2" class="node"><title>Node2</title>
<g id="a_node2"><a xlink:href="class_resizable_child.html#a9a25c9c476e606c79a091ea171fde10d" target="_top" xlink:title="ResizableChild::setMinimum\lHeight">
<polygon fill="white" stroke="black" points="196,-49.5 196,-79.5 336,-79.5 336,-49.5 196,-49.5"/>
<text text-anchor="start" x="204" y="-67.5" font-family="Helvetica,sans-Serif" font-size="10.00">ResizableChild::setMinimum</text>
<text text-anchor="middle" x="266" y="-56.5" font-family="Helvetica,sans-Serif" font-size="10.00">Height</text>
</a>
</g>
</g>
<!-- Node1&#45;&gt;Node2 -->
<g id="edge1" class="edge"><title>Node1&#45;&gt;Node2</title>
<path fill="none" stroke="midnightblue" d="M151.087,-49.0227C162.399,-50.5596 174.179,-52.1602 185.689,-53.7241"/>
<polygon fill="midnightblue" stroke="midnightblue" points="185.336,-57.2081 195.716,-55.0864 186.278,-50.2719 185.336,-57.2081"/>
</g>
<!-- Node3 -->
<g id="node3" class="node"><title>Node3</title>
<g id="a_node3"><a xlink:href="class_resizable_child.html#a43531c929c933e13b16f15d8d5b966e7" target="_top" xlink:title="ResizableChild::setMinimum\lWidth">
<polygon fill="white" stroke="black" points="196,-0.5 196,-30.5 336,-30.5 336,-0.5 196,-0.5"/>
<text text-anchor="start" x="204" y="-18.5" font-family="Helvetica,sans-Serif" font-size="10.00">ResizableChild::setMinimum</text>
<text text-anchor="middle" x="266" y="-7.5" font-family="Helvetica,sans-Serif" font-size="10.00">Width</text>
</a>
</g>
</g>
<!-- Node1&#45;&gt;Node3 -->
<g id="edge2" class="edge"><title>Node1&#45;&gt;Node3</title>
<path fill="none" stroke="midnightblue" d="M153.986,-29.9801C164.479,-28.6115 175.317,-27.1978 185.921,-25.8147"/>
<polygon fill="midnightblue" stroke="midnightblue" points="186.534,-29.2644 195.998,-24.5003 185.629,-22.3232 186.534,-29.2644"/>
</g>
</g>
</svg>
