<?xml version="1.0" encoding="UTF-8" standalone="no"?>
<!DOCTYPE svg PUBLIC "-//W3C//DTD SVG 1.1//EN"
 "http://www.w3.org/Graphics/SVG/1.1/DTD/svg11.dtd">
<!-- Generated by graphviz version 2.38.0 (20140413.2041)
 -->
<!-- Title: ProfileManager::handleAsyncUpdate Pages: 1 -->
<svg width="473pt" height="88pt"
 viewBox="0.00 0.00 473.00 88.00" xmlns="http://www.w3.org/2000/svg" xmlns:xlink="http://www.w3.org/1999/xlink">
<g id="graph0" class="graph" transform="scale(1 1) rotate(0) translate(4 84)">
<title>ProfileManager::handleAsyncUpdate</title>
<polygon fill="white" stroke="none" points="-4,4 -4,-84 469,-84 469,4 -4,4"/>
<!-- Node1 -->
<g id="node1" class="node"><title>Node1</title>
<polygon fill="#bfbfbf" stroke="black" points="0,-24.5 0,-54.5 143,-54.5 143,-24.5 0,-24.5"/>
<text text-anchor="start" x="8" y="-42.5" font-family="Helvetica,sans-Serif" font-size="10.00">ProfileManager::handleAsync</text>
<text text-anchor="middle" x="71.5" y="-31.5" font-family="Helvetica,sans-Serif" font-size="10.00">Update</text>
</g>
<!-- Node2 -->
<g id="node2" class="node"><title>Node2</title>
<g id="a_node2"><a xlink:href="class_profile_manager.html#a7644e0703d1bdb3172271cec13e86662" target="_top" xlink:title="Switch to next profile. ">
<polygon fill="white" stroke="black" points="179,-49.5 179,-79.5 304,-79.5 304,-49.5 179,-49.5"/>
<text text-anchor="start" x="187" y="-67.5" font-family="Helvetica,sans-Serif" font-size="10.00">ProfileManager::switchTo</text>
<text text-anchor="middle" x="241.5" y="-56.5" font-family="Helvetica,sans-Serif" font-size="10.00">NextProfile</text>
</a>
</g>
</g>
<!-- Node1&#45;&gt;Node2 -->
<g id="edge1" class="edge"><title>Node1&#45;&gt;Node2</title>
<path fill="none" stroke="midnightblue" d="M143.26,-50.0298C151.768,-51.2958 160.462,-52.5896 168.98,-53.8572"/>
<polygon fill="midnightblue" stroke="midnightblue" points="168.472,-57.32 178.878,-55.3301 169.502,-50.3963 168.472,-57.32"/>
</g>
<!-- Node4 -->
<g id="node4" class="node"><title>Node4</title>
<g id="a_node4"><a xlink:href="class_profile_manager.html#a778eb208053cbcb18a7056b4066632ec" target="_top" xlink:title="Switch to previous profile. ">
<polygon fill="white" stroke="black" points="179,-0.5 179,-30.5 304,-30.5 304,-0.5 179,-0.5"/>
<text text-anchor="start" x="187" y="-18.5" font-family="Helvetica,sans-Serif" font-size="10.00">ProfileManager::switchTo</text>
<text text-anchor="middle" x="241.5" y="-7.5" font-family="Helvetica,sans-Serif" font-size="10.00">PreviousProfile</text>
</a>
</g>
</g>
<!-- Node1&#45;&gt;Node4 -->
<g id="edge3" class="edge"><title>Node1&#45;&gt;Node4</title>
<path fill="none" stroke="midnightblue" d="M143.26,-29.3914C151.676,-28.1892 160.273,-26.961 168.703,-25.7568"/>
<polygon fill="midnightblue" stroke="midnightblue" points="169.474,-29.1822 178.878,-24.3031 168.484,-22.2526 169.474,-29.1822"/>
</g>
<!-- Node3 -->
<g id="node3" class="node"><title>Node3</title>
<g id="a_node3"><a xlink:href="class_profile_manager.html#a2744c8c215043462fa1805eb489d0232" target="_top" xlink:title="Switch to profile. ">
<polygon fill="white" stroke="black" points="340,-24.5 340,-54.5 465,-54.5 465,-24.5 340,-24.5"/>
<text text-anchor="start" x="348" y="-42.5" font-family="Helvetica,sans-Serif" font-size="10.00">ProfileManager::switchTo</text>
<text text-anchor="middle" x="402.5" y="-31.5" font-family="Helvetica,sans-Serif" font-size="10.00">Profile</text>
</a>
</g>
</g>
<!-- Node2&#45;&gt;Node3 -->
<g id="edge2" class="edge"><title>Node2&#45;&gt;Node3</title>
<path fill="none" stroke="midnightblue" d="M304.429,-54.7628C312.764,-53.4522 321.371,-52.0989 329.857,-50.7646"/>
<polygon fill="midnightblue" stroke="midnightblue" points="330.405,-54.2215 339.74,-49.2107 329.318,-47.3065 330.405,-54.2215"/>
</g>
<!-- Node4&#45;&gt;Node3 -->
<g id="edge4" class="edge"><title>Node4&#45;&gt;Node3</title>
<path fill="none" stroke="midnightblue" d="M304.429,-24.8477C312.674,-26.0923 321.184,-27.3768 329.58,-28.6442"/>
<polygon fill="midnightblue" stroke="midnightblue" points="329.33,-32.146 339.74,-30.1778 330.375,-25.2244 329.33,-32.146"/>
</g>
</g>
</svg>
