<?xml version="1.0" encoding="UTF-8" standalone="no"?>
<!DOCTYPE svg PUBLIC "-//W3C//DTD SVG 1.1//EN"
 "http://www.w3.org/Graphics/SVG/1.1/DTD/svg11.dtd">
<!-- Generated by graphviz version 2.38.0 (20140413.2041)
 -->
<!-- Title: LRCommandList Pages: 1 -->
<svg width="141pt" height="205pt"
 viewBox="0.00 0.00 140.50 205.00" xmlns="http://www.w3.org/2000/svg" xmlns:xlink="http://www.w3.org/1999/xlink">
<g id="graph0" class="graph" transform="scale(1 1) rotate(0) translate(4 201)">
<title>LRCommandList</title>
<polygon fill="white" stroke="none" points="-4,4 -4,-201 136.5,-201 136.5,4 -4,4"/>
<!-- Node1 -->
<g id="node1" class="node"><title>Node1</title>
<polygon fill="#bfbfbf" stroke="black" points="8,-0.5 8,-19.5 97,-19.5 97,-0.5 8,-0.5"/>
<text text-anchor="middle" x="52.5" y="-7.5" font-family="Helvetica,sans-Serif" font-size="10.00">LRCommandList</text>
</g>
<!-- Node2 -->
<g id="node2" class="node"><title>Node2</title>
<polygon fill="white" stroke="#bfbfbf" points="0,-177.5 0,-196.5 105,-196.5 105,-177.5 0,-177.5"/>
<text text-anchor="middle" x="52.5" y="-184.5" font-family="Helvetica,sans-Serif" font-size="10.00">std::vector&lt; String &gt;</text>
</g>
<!-- Node2&#45;&gt;Node1 -->
<g id="edge1" class="edge"><title>Node2&#45;&gt;Node1</title>
<path fill="none" stroke="#9a32cd" stroke-dasharray="5,2" d="M52.5,-166.951C52.5,-129.297 52.5,-46.6537 52.5,-19.6932"/>
<polygon fill="#9a32cd" stroke="#9a32cd" points="49.0001,-167.081 52.5,-177.081 56.0001,-167.081 49.0001,-167.081"/>
<text text-anchor="middle" x="92.5" y="-151" font-family="Helvetica,sans-Serif" font-size="10.00"> Detail</text>
<text text-anchor="middle" x="92.5" y="-140" font-family="Helvetica,sans-Serif" font-size="10.00">BasicAdjustments</text>
<text text-anchor="middle" x="92.5" y="-129" font-family="Helvetica,sans-Serif" font-size="10.00">ResetMixer</text>
<text text-anchor="middle" x="92.5" y="-118" font-family="Helvetica,sans-Serif" font-size="10.00">ProgramProfiles</text>
<text text-anchor="middle" x="92.5" y="-107" font-family="Helvetica,sans-Serif" font-size="10.00">Mixer</text>
<text text-anchor="middle" x="92.5" y="-96" font-family="Helvetica,sans-Serif" font-size="10.00">LensCorrections</text>
<text text-anchor="middle" x="92.5" y="-85" font-family="Helvetica,sans-Serif" font-size="10.00">SplitToning</text>
<text text-anchor="middle" x="92.5" y="-74" font-family="Helvetica,sans-Serif" font-size="10.00">LRStringList</text>
<text text-anchor="middle" x="92.5" y="-63" font-family="Helvetica,sans-Serif" font-size="10.00">ViewModes</text>
<text text-anchor="middle" x="92.5" y="-52" font-family="Helvetica,sans-Serif" font-size="10.00">DevelopPresets</text>
<text text-anchor="middle" x="92.5" y="-41" font-family="Helvetica,sans-Serif" font-size="10.00">...</text>
</g>
</g>
</svg>
