<?xml version="1.0" encoding="UTF-8" standalone="no"?>
<!DOCTYPE svg PUBLIC "-//W3C//DTD SVG 1.1//EN"
 "http://www.w3.org/Graphics/SVG/1.1/DTD/svg11.dtd">
<!-- Generated by graphviz version 2.38.0 (20140413.2041)
 -->
<!-- Title: TopLevelResizableLayout Pages: 1 -->
<svg width="208pt" height="140pt"
 viewBox="0.00 0.00 208.00 140.00" xmlns="http://www.w3.org/2000/svg" xmlns:xlink="http://www.w3.org/1999/xlink">
<g id="graph0" class="graph" transform="scale(1 1) rotate(0) translate(4 136)">
<title>TopLevelResizableLayout</title>
<polygon fill="white" stroke="none" points="-4,4 -4,-136 204,-136 204,4 -4,4"/>
<!-- Node1 -->
<g id="node1" class="node"><title>Node1</title>
<polygon fill="#bfbfbf" stroke="black" points="31.5,-0.5 31.5,-19.5 157.5,-19.5 157.5,-0.5 31.5,-0.5"/>
<text text-anchor="middle" x="94.5" y="-7.5" font-family="Helvetica,sans-Serif" font-size="10.00">TopLevelResizableLayout</text>
</g>
<!-- Node2 -->
<g id="node2" class="node"><title>Node2</title>
<g id="a_node2"><a xlink:href="class_resizable_layout.html" target="_top" xlink:title="Derive your Component from this class if you want to be able to put anchors on children. ">
<polygon fill="white" stroke="black" points="50,-56.5 50,-75.5 139,-75.5 139,-56.5 50,-56.5"/>
<text text-anchor="middle" x="94.5" y="-63.5" font-family="Helvetica,sans-Serif" font-size="10.00">ResizableLayout</text>
</a>
</g>
</g>
<!-- Node2&#45;&gt;Node1 -->
<g id="edge1" class="edge"><title>Node2&#45;&gt;Node1</title>
<path fill="none" stroke="midnightblue" d="M94.5,-45.8045C94.5,-36.9102 94.5,-26.7798 94.5,-19.7511"/>
<polygon fill="midnightblue" stroke="midnightblue" points="91.0001,-46.083 94.5,-56.083 98.0001,-46.083 91.0001,-46.083"/>
</g>
<!-- Node3 -->
<g id="node3" class="node"><title>Node3</title>
<g id="a_node3"><a xlink:href="class_resizable_child.html" target="_top" xlink:title="Derive your child Component from this class if you want to be able to set size limits per&#45;item...">
<polygon fill="white" stroke="black" points="0,-112.5 0,-131.5 81,-131.5 81,-112.5 0,-112.5"/>
<text text-anchor="middle" x="40.5" y="-119.5" font-family="Helvetica,sans-Serif" font-size="10.00">ResizableChild</text>
</a>
</g>
</g>
<!-- Node3&#45;&gt;Node2 -->
<g id="edge2" class="edge"><title>Node3&#45;&gt;Node2</title>
<path fill="none" stroke="midnightblue" d="M56.4976,-105.002C66.0671,-95.4329 77.8611,-83.6389 85.7489,-75.7511"/>
<polygon fill="midnightblue" stroke="midnightblue" points="54.0132,-102.537 49.417,-112.083 58.963,-107.487 54.0132,-102.537"/>
</g>
<!-- Node4 -->
<g id="node4" class="node"><title>Node4</title>
<polygon fill="white" stroke="#bfbfbf" points="99,-112.5 99,-131.5 200,-131.5 200,-112.5 99,-112.5"/>
<text text-anchor="middle" x="149.5" y="-119.5" font-family="Helvetica,sans-Serif" font-size="10.00">ComponentListener</text>
</g>
<!-- Node4&#45;&gt;Node2 -->
<g id="edge3" class="edge"><title>Node4&#45;&gt;Node2</title>
<path fill="none" stroke="#8b1a1a" d="M133.206,-105.002C123.459,-95.4329 111.447,-83.6389 103.413,-75.7511"/>
<polygon fill="#8b1a1a" stroke="#8b1a1a" points="130.83,-107.575 140.418,-112.083 135.734,-102.58 130.83,-107.575"/>
</g>
</g>
</svg>
