<?xml version="1.0" encoding="UTF-8" standalone="no"?>
<!DOCTYPE svg PUBLIC "-//W3C//DTD SVG 1.1//EN"
 "http://www.w3.org/Graphics/SVG/1.1/DTD/svg11.dtd">
<!-- Generated by graphviz version 2.38.0 (20140413.2041)
 -->
<!-- Title: ResizableChild::setMaximumWidth Pages: 1 -->
<svg width="350pt" height="66pt"
 viewBox="0.00 0.00 350.00 66.00" xmlns="http://www.w3.org/2000/svg" xmlns:xlink="http://www.w3.org/1999/xlink">
<g id="graph0" class="graph" transform="scale(1 1) rotate(0) translate(4 62)">
<title>ResizableChild::setMaximumWidth</title>
<polygon fill="white" stroke="none" points="-4,4 -4,-62 346,-62 346,4 -4,4"/>
<!-- Node1 -->
<g id="node1" class="node"><title>Node1</title>
<polygon fill="#bfbfbf" stroke="black" points="0,-14 0,-44 143,-44 143,-14 0,-14"/>
<text text-anchor="start" x="8" y="-32" font-family="Helvetica,sans-Serif" font-size="10.00">ResizableChild::setMaximum</text>
<text text-anchor="middle" x="71.5" y="-21" font-family="Helvetica,sans-Serif" font-size="10.00">Width</text>
</g>
<!-- Node2 -->
<g id="node2" class="node"><title>Node2</title>
<g id="a_node2"><a xlink:href="class_resizable_child.html#ab2e6df2570a948fba95123abe5864a27" target="_top" xlink:title="ResizableChild::setMaximumSize">
<polygon fill="white" stroke="black" points="179,-38.5 179,-57.5 342,-57.5 342,-38.5 179,-38.5"/>
<text text-anchor="middle" x="260.5" y="-45.5" font-family="Helvetica,sans-Serif" font-size="10.00">ResizableChild::setMaximumSize</text>
</a>
</g>
</g>
<!-- Node1&#45;&gt;Node2 -->
<g id="edge1" class="edge"><title>Node1&#45;&gt;Node2</title>
<path fill="none" stroke="midnightblue" d="M153.16,-37.1954C161.72,-38.0652 170.427,-38.9498 178.985,-39.8193"/>
<polygon fill="midnightblue" stroke="midnightblue" points="153.499,-33.7119 143.197,-36.1831 152.792,-40.6761 153.499,-33.7119"/>
</g>
<!-- Node3 -->
<g id="node3" class="node"><title>Node3</title>
<g id="a_node3"><a xlink:href="class_resizable_child.html#a398c4578e8a3a95aab126e565ddaba83" target="_top" xlink:title="ResizableChild::setSizeLimits">
<polygon fill="white" stroke="black" points="187.5,-0.5 187.5,-19.5 333.5,-19.5 333.5,-0.5 187.5,-0.5"/>
<text text-anchor="middle" x="260.5" y="-7.5" font-family="Helvetica,sans-Serif" font-size="10.00">ResizableChild::setSizeLimits</text>
</a>
</g>
</g>
<!-- Node1&#45;&gt;Node3 -->
<g id="edge2" class="edge"><title>Node1&#45;&gt;Node3</title>
<path fill="none" stroke="midnightblue" d="M153.487,-20.7714C164.788,-19.6231 176.338,-18.4496 187.46,-17.3196"/>
<polygon fill="midnightblue" stroke="midnightblue" points="152.792,-17.3239 143.197,-21.8169 153.499,-24.2881 152.792,-17.3239"/>
</g>
</g>
</svg>
