<?xml version="1.0" encoding="UTF-8" standalone="no"?>
<!DOCTYPE svg PUBLIC "-//W3C//DTD SVG 1.1//EN"
 "http://www.w3.org/Graphics/SVG/1.1/DTD/svg11.dtd">
<!-- Generated by graphviz version 2.38.0 (20140413.2041)
 -->
<!-- Title: MIDI2LRApplication::shutdown Pages: 1 -->
<svg width="264pt" height="39pt"
 viewBox="0.00 0.00 264.00 39.00" xmlns="http://www.w3.org/2000/svg" xmlns:xlink="http://www.w3.org/1999/xlink">
<g id="graph0" class="graph" transform="scale(1 1) rotate(0) translate(4 35)">
<title>MIDI2LRApplication::shutdown</title>
<polygon fill="white" stroke="none" points="-4,4 -4,-35 260,-35 260,4 -4,4"/>
<!-- Node1 -->
<g id="node1" class="node"><title>Node1</title>
<polygon fill="#bfbfbf" stroke="black" points="0,-0.5 0,-30.5 101,-30.5 101,-0.5 0,-0.5"/>
<text text-anchor="start" x="8" y="-18.5" font-family="Helvetica,sans-Serif" font-size="10.00">MIDI2LRApplication</text>
<text text-anchor="middle" x="50.5" y="-7.5" font-family="Helvetica,sans-Serif" font-size="10.00">::shutdown</text>
</g>
<!-- Node2 -->
<g id="node2" class="node"><title>Node2</title>
<g id="a_node2"><a xlink:href="class_m_i_d_i2_l_r_application.html#a09e3d213ac5693825d76199c20260f3f" target="_top" xlink:title="MIDI2LRApplication\l::systemRequestedQuit">
<polygon fill="white" stroke="black" points="137,-0.5 137,-30.5 256,-30.5 256,-0.5 137,-0.5"/>
<text text-anchor="start" x="145" y="-18.5" font-family="Helvetica,sans-Serif" font-size="10.00">MIDI2LRApplication</text>
<text text-anchor="middle" x="196.5" y="-7.5" font-family="Helvetica,sans-Serif" font-size="10.00">::systemRequestedQuit</text>
</a>
</g>
</g>
<!-- Node1&#45;&gt;Node2 -->
<g id="edge1" class="edge"><title>Node1&#45;&gt;Node2</title>
<path fill="none" stroke="midnightblue" d="M111.257,-15.5C119.741,-15.5 128.459,-15.5 136.92,-15.5"/>
<polygon fill="midnightblue" stroke="midnightblue" points="111.057,-12.0001 101.057,-15.5 111.057,-19.0001 111.057,-12.0001"/>
</g>
</g>
</svg>
