<?xml version="1.0" encoding="UTF-8" standalone="no"?>
<!DOCTYPE svg PUBLIC "-//W3C//DTD SVG 1.1//EN"
 "http://www.w3.org/Graphics/SVG/1.1/DTD/svg11.dtd">
<!-- Generated by graphviz version 2.38.0 (20140413.2041)
 -->
<!-- Title: LR_IPC_OUT Pages: 1 -->
<svg width="416pt" height="84pt"
 viewBox="0.00 0.00 416.00 84.00" xmlns="http://www.w3.org/2000/svg" xmlns:xlink="http://www.w3.org/1999/xlink">
<g id="graph0" class="graph" transform="scale(1 1) rotate(0) translate(4 80)">
<title>LR_IPC_OUT</title>
<polygon fill="white" stroke="none" points="-4,4 -4,-80 412,-80 412,4 -4,4"/>
<!-- Node1 -->
<g id="node1" class="node"><title>Node1</title>
<polygon fill="#bfbfbf" stroke="black" points="214.5,-0.5 214.5,-19.5 288.5,-19.5 288.5,-0.5 214.5,-0.5"/>
<text text-anchor="middle" x="251.5" y="-7.5" font-family="Helvetica,sans-Serif" font-size="10.00">LR_IPC_OUT</text>
</g>
<!-- Node2 -->
<g id="node2" class="node"><title>Node2</title>
<polygon fill="white" stroke="#bfbfbf" points="0,-56.5 0,-75.5 119,-75.5 119,-56.5 0,-56.5"/>
<text text-anchor="middle" x="59.5" y="-63.5" font-family="Helvetica,sans-Serif" font-size="10.00">InterprocessConnection</text>
</g>
<!-- Node2&#45;&gt;Node1 -->
<g id="edge1" class="edge"><title>Node2&#45;&gt;Node1</title>
<path fill="none" stroke="midnightblue" d="M99.6826,-53.6986C135.919,-43.507 188.414,-28.7429 221.219,-19.5164"/>
<polygon fill="midnightblue" stroke="midnightblue" points="98.6018,-50.3667 89.923,-56.4435 100.497,-57.1053 98.6018,-50.3667"/>
</g>
<!-- Node3 -->
<g id="node3" class="node"><title>Node3</title>
<g id="a_node3"><a xlink:href="class_m_i_d_i_command_listener.html" target="_top" xlink:title="MIDI Command Listener. ">
<polygon fill="white" stroke="black" points="137,-56.5 137,-75.5 252,-75.5 252,-56.5 137,-56.5"/>
<text text-anchor="middle" x="194.5" y="-63.5" font-family="Helvetica,sans-Serif" font-size="10.00">MIDICommandListener</text>
</a>
</g>
</g>
<!-- Node3&#45;&gt;Node1 -->
<g id="edge2" class="edge"><title>Node3&#45;&gt;Node1</title>
<path fill="none" stroke="midnightblue" d="M211.121,-49.2533C221.234,-39.6731 233.777,-27.7906 242.175,-19.8339"/>
<polygon fill="midnightblue" stroke="midnightblue" points="208.51,-46.9056 203.658,-56.324 213.325,-51.9873 208.51,-46.9056"/>
</g>
<!-- Node4 -->
<g id="node4" class="node"><title>Node4</title>
<polygon fill="white" stroke="#bfbfbf" points="270.5,-56.5 270.5,-75.5 348.5,-75.5 348.5,-56.5 270.5,-56.5"/>
<text text-anchor="middle" x="309.5" y="-63.5" font-family="Helvetica,sans-Serif" font-size="10.00">AsyncUpdater</text>
</g>
<!-- Node4&#45;&gt;Node1 -->
<g id="edge3" class="edge"><title>Node4&#45;&gt;Node1</title>
<path fill="none" stroke="midnightblue" d="M292.587,-49.2533C282.297,-39.6731 269.534,-27.7906 260.988,-19.8339"/>
<polygon fill="midnightblue" stroke="midnightblue" points="290.477,-52.0714 300.181,-56.324 295.247,-46.9481 290.477,-52.0714"/>
</g>
<!-- Node5 -->
<g id="node5" class="node"><title>Node5</title>
<polygon fill="white" stroke="#bfbfbf" points="367,-56.5 367,-75.5 408,-75.5 408,-56.5 367,-56.5"/>
<text text-anchor="middle" x="387.5" y="-63.5" font-family="Helvetica,sans-Serif" font-size="10.00">Timer</text>
</g>
<!-- Node5&#45;&gt;Node1 -->
<g id="edge4" class="edge"><title>Node5&#45;&gt;Node1</title>
<path fill="none" stroke="midnightblue" d="M357.304,-53.0105C331.832,-42.8967 295.987,-28.6641 273.252,-19.6367"/>
<polygon fill="midnightblue" stroke="midnightblue" points="356.259,-56.3611 366.845,-56.7986 358.842,-49.8552 356.259,-56.3611"/>
</g>
</g>
</svg>
