<?xml version="1.0" encoding="UTF-8" standalone="no"?>
<!DOCTYPE svg PUBLIC "-//W3C//DTD SVG 1.1//EN"
 "http://www.w3.org/Graphics/SVG/1.1/DTD/svg11.dtd">
<!-- Generated by graphviz version 2.38.0 (20140413.2041)
 -->
<!-- Title: MIDICommandListener Pages: 1 -->
<svg width="321pt" height="84pt"
 viewBox="0.00 0.00 320.50 84.00" xmlns="http://www.w3.org/2000/svg" xmlns:xlink="http://www.w3.org/1999/xlink">
<g id="graph0" class="graph" transform="scale(1 1) rotate(0) translate(4 80)">
<title>MIDICommandListener</title>
<polygon fill="white" stroke="none" points="-4,4 -4,-80 316.5,-80 316.5,4 -4,4"/>
<!-- Node1 -->
<g id="node1" class="node"><title>Node1</title>
<polygon fill="#bfbfbf" stroke="black" points="95.5,-56.5 95.5,-75.5 210.5,-75.5 210.5,-56.5 95.5,-56.5"/>
<text text-anchor="middle" x="153" y="-63.5" font-family="Helvetica,sans-Serif" font-size="10.00">MIDICommandListener</text>
</g>
<!-- Node2 -->
<g id="node2" class="node"><title>Node2</title>
<g id="a_node2"><a xlink:href="class_l_r___i_p_c___o_u_t.html" target="_top" xlink:title="A lr ipc out. ">
<polygon fill="white" stroke="black" points="0,-0.5 0,-19.5 74,-19.5 74,-0.5 0,-0.5"/>
<text text-anchor="middle" x="37" y="-7.5" font-family="Helvetica,sans-Serif" font-size="10.00">LR_IPC_OUT</text>
</a>
</g>
</g>
<!-- Node1&#45;&gt;Node2 -->
<g id="edge1" class="edge"><title>Node1&#45;&gt;Node2</title>
<path fill="none" stroke="midnightblue" d="M125.28,-52.096C103.608,-42.0073 74.0979,-28.2697 55.2946,-19.5164"/>
<polygon fill="midnightblue" stroke="midnightblue" points="124.077,-55.3962 134.619,-56.4435 127.031,-49.0501 124.077,-55.3962"/>
</g>
<!-- Node3 -->
<g id="node3" class="node"><title>Node3</title>
<g id="a_node3"><a xlink:href="class_main_content_component.html" target="_top" xlink:title="This component lives inside our window, and this is where you should put all your controls and conten...">
<polygon fill="white" stroke="black" points="92.5,-0.5 92.5,-19.5 213.5,-19.5 213.5,-0.5 92.5,-0.5"/>
<text text-anchor="middle" x="153" y="-7.5" font-family="Helvetica,sans-Serif" font-size="10.00">MainContentComponent</text>
</a>
</g>
</g>
<!-- Node1&#45;&gt;Node3 -->
<g id="edge2" class="edge"><title>Node1&#45;&gt;Node3</title>
<path fill="none" stroke="midnightblue" d="M153,-45.8045C153,-36.9102 153,-26.7798 153,-19.7511"/>
<polygon fill="midnightblue" stroke="midnightblue" points="149.5,-46.083 153,-56.083 156.5,-46.083 149.5,-46.083"/>
</g>
<!-- Node4 -->
<g id="node4" class="node"><title>Node4</title>
<g id="a_node4"><a xlink:href="class_profile_manager.html" target="_top" xlink:title="ProfileManager">
<polygon fill="white" stroke="black" points="231.5,-0.5 231.5,-19.5 312.5,-19.5 312.5,-0.5 231.5,-0.5"/>
<text text-anchor="middle" x="272" y="-7.5" font-family="Helvetica,sans-Serif" font-size="10.00">ProfileManager</text>
</a>
</g>
</g>
<!-- Node1&#45;&gt;Node4 -->
<g id="edge3" class="edge"><title>Node1&#45;&gt;Node4</title>
<path fill="none" stroke="midnightblue" d="M181.137,-52.2321C203.396,-42.1312 233.856,-28.3091 253.232,-19.5164"/>
<polygon fill="midnightblue" stroke="midnightblue" points="179.516,-49.124 171.856,-56.4435 182.409,-55.4984 179.516,-49.124"/>
</g>
</g>
</svg>
