<?xml version="1.0" encoding="UTF-8" standalone="no"?>
<!DOCTYPE svg PUBLIC "-//W3C//DTD SVG 1.1//EN"
 "http://www.w3.org/Graphics/SVG/1.1/DTD/svg11.dtd">
<!-- Generated by graphviz version 2.38.0 (20140413.2041)
 -->
<!-- Title: ResizableChild::setMinimumHeight Pages: 1 -->
<svg width="344pt" height="66pt"
 viewBox="0.00 0.00 344.00 66.00" xmlns="http://www.w3.org/2000/svg" xmlns:xlink="http://www.w3.org/1999/xlink">
<g id="graph0" class="graph" transform="scale(1 1) rotate(0) translate(4 62)">
<title>ResizableChild::setMinimumHeight</title>
<polygon fill="white" stroke="none" points="-4,4 -4,-62 340,-62 340,4 -4,4"/>
<!-- Node1 -->
<g id="node1" class="node"><title>Node1</title>
<polygon fill="#bfbfbf" stroke="black" points="0,-14 0,-44 140,-44 140,-14 0,-14"/>
<text text-anchor="start" x="8" y="-32" font-family="Helvetica,sans-Serif" font-size="10.00">ResizableChild::setMinimum</text>
<text text-anchor="middle" x="70" y="-21" font-family="Helvetica,sans-Serif" font-size="10.00">Height</text>
</g>
<!-- Node2 -->
<g id="node2" class="node"><title>Node2</title>
<g id="a_node2"><a xlink:href="class_resizable_child.html#a9859e8527b8f19602eedbd57834460f8" target="_top" xlink:title="ResizableChild::setMinimumSize">
<polygon fill="white" stroke="black" points="176,-38.5 176,-57.5 336,-57.5 336,-38.5 176,-38.5"/>
<text text-anchor="middle" x="256" y="-45.5" font-family="Helvetica,sans-Serif" font-size="10.00">ResizableChild::setMinimumSize</text>
</a>
</g>
</g>
<!-- Node1&#45;&gt;Node2 -->
<g id="edge1" class="edge"><title>Node1&#45;&gt;Node2</title>
<path fill="none" stroke="midnightblue" d="M150.041,-37.1618C158.637,-38.0495 167.388,-38.9531 175.984,-39.8408"/>
<polygon fill="midnightblue" stroke="midnightblue" points="150.345,-33.6747 140.038,-36.129 149.626,-40.6377 150.345,-33.6747"/>
</g>
<!-- Node3 -->
<g id="node3" class="node"><title>Node3</title>
<g id="a_node3"><a xlink:href="class_resizable_child.html#a398c4578e8a3a95aab126e565ddaba83" target="_top" xlink:title="ResizableChild::setSizeLimits">
<polygon fill="white" stroke="black" points="183,-0.5 183,-19.5 329,-19.5 329,-0.5 183,-0.5"/>
<text text-anchor="middle" x="256" y="-7.5" font-family="Helvetica,sans-Serif" font-size="10.00">ResizableChild::setSizeLimits</text>
</a>
</g>
</g>
<!-- Node1&#45;&gt;Node3 -->
<g id="edge2" class="edge"><title>Node1&#45;&gt;Node3</title>
<path fill="none" stroke="midnightblue" d="M150.302,-20.8113C161.103,-19.6959 172.143,-18.5559 182.81,-17.4545"/>
<polygon fill="midnightblue" stroke="midnightblue" points="149.626,-17.3623 140.038,-21.871 150.345,-24.3253 149.626,-17.3623"/>
</g>
</g>
</svg>
