<?xml version="1.0" encoding="UTF-8" standalone="no"?>
<!DOCTYPE svg PUBLIC "-//W3C//DTD SVG 1.1//EN"
 "http://www.w3.org/Graphics/SVG/1.1/DTD/svg11.dtd">
<!-- Generated by graphviz version 2.38.0 (20140413.2041)
 -->
<!-- Title: ResizableChild::setSizeLimits Pages: 1 -->
<svg width="333pt" height="186pt"
 viewBox="0.00 0.00 333.00 186.00" xmlns="http://www.w3.org/2000/svg" xmlns:xlink="http://www.w3.org/1999/xlink">
<g id="graph0" class="graph" transform="scale(1 1) rotate(0) translate(4 182)">
<title>ResizableChild::setSizeLimits</title>
<polygon fill="white" stroke="none" points="-4,4 -4,-182 329,-182 329,4 -4,4"/>
<!-- Node1 -->
<g id="node1" class="node"><title>Node1</title>
<polygon fill="#bfbfbf" stroke="black" points="0,-79 0,-98 146,-98 146,-79 0,-79"/>
<text text-anchor="middle" x="73" y="-86" font-family="Helvetica,sans-Serif" font-size="10.00">ResizableChild::setSizeLimits</text>
</g>
<!-- Node2 -->
<g id="node2" class="node"><title>Node2</title>
<g id="a_node2"><a xlink:href="class_resizable_child.html#a2b7b79d443e5d8f9220f9fa2e5a48e3d" target="_top" xlink:title="ResizableChild::setMaximum\lHeight">
<polygon fill="white" stroke="black" points="182,-147.5 182,-177.5 325,-177.5 325,-147.5 182,-147.5"/>
<text text-anchor="start" x="190" y="-165.5" font-family="Helvetica,sans-Serif" font-size="10.00">ResizableChild::setMaximum</text>
<text text-anchor="middle" x="253.5" y="-154.5" font-family="Helvetica,sans-Serif" font-size="10.00">Height</text>
</a>
</g>
</g>
<!-- Node1&#45;&gt;Node2 -->
<g id="edge1" class="edge"><title>Node1&#45;&gt;Node2</title>
<path fill="none" stroke="midnightblue" d="M93.2406,-98.1583C114.634,-108.72 150.351,-125.828 182,-138.5 186.681,-140.374 191.572,-142.235 196.501,-144.042"/>
<polygon fill="midnightblue" stroke="midnightblue" points="195.384,-147.359 205.979,-147.44 197.747,-140.77 195.384,-147.359"/>
</g>
<!-- Node3 -->
<g id="node3" class="node"><title>Node3</title>
<g id="a_node3"><a xlink:href="class_resizable_child.html#af320c3d8d97e1a29871b83a161970530" target="_top" xlink:title="ResizableChild::setMaximum\lWidth">
<polygon fill="white" stroke="black" points="182,-98.5 182,-128.5 325,-128.5 325,-98.5 182,-98.5"/>
<text text-anchor="start" x="190" y="-116.5" font-family="Helvetica,sans-Serif" font-size="10.00">ResizableChild::setMaximum</text>
<text text-anchor="middle" x="253.5" y="-105.5" font-family="Helvetica,sans-Serif" font-size="10.00">Width</text>
</a>
</g>
</g>
<!-- Node1&#45;&gt;Node3 -->
<g id="edge2" class="edge"><title>Node1&#45;&gt;Node3</title>
<path fill="none" stroke="midnightblue" d="M141.992,-98.0227C151.645,-99.3746 161.649,-100.776 171.517,-102.158"/>
<polygon fill="midnightblue" stroke="midnightblue" points="171.343,-105.668 181.732,-103.588 172.314,-98.7352 171.343,-105.668"/>
</g>
<!-- Node4 -->
<g id="node4" class="node"><title>Node4</title>
<g id="a_node4"><a xlink:href="class_resizable_child.html#a9a25c9c476e606c79a091ea171fde10d" target="_top" xlink:title="ResizableChild::setMinimum\lHeight">
<polygon fill="white" stroke="black" points="183.5,-49.5 183.5,-79.5 323.5,-79.5 323.5,-49.5 183.5,-49.5"/>
<text text-anchor="start" x="191.5" y="-67.5" font-family="Helvetica,sans-Serif" font-size="10.00">ResizableChild::setMinimum</text>
<text text-anchor="middle" x="253.5" y="-56.5" font-family="Helvetica,sans-Serif" font-size="10.00">Height</text>
</a>
</g>
</g>
<!-- Node1&#45;&gt;Node4 -->
<g id="edge3" class="edge"><title>Node1&#45;&gt;Node4</title>
<path fill="none" stroke="midnightblue" d="M144.804,-78.9801C154.097,-77.7307 163.668,-76.4437 173.092,-75.1767"/>
<polygon fill="midnightblue" stroke="midnightblue" points="173.794,-78.6139 183.239,-73.8124 172.862,-71.6763 173.794,-78.6139"/>
</g>
<!-- Node5 -->
<g id="node5" class="node"><title>Node5</title>
<g id="a_node5"><a xlink:href="class_resizable_child.html#a43531c929c933e13b16f15d8d5b966e7" target="_top" xlink:title="ResizableChild::setMinimum\lWidth">
<polygon fill="white" stroke="black" points="183.5,-0.5 183.5,-30.5 323.5,-30.5 323.5,-0.5 183.5,-0.5"/>
<text text-anchor="start" x="191.5" y="-18.5" font-family="Helvetica,sans-Serif" font-size="10.00">ResizableChild::setMinimum</text>
<text text-anchor="middle" x="253.5" y="-7.5" font-family="Helvetica,sans-Serif" font-size="10.00">Width</text>
</a>
</g>
</g>
<!-- Node1&#45;&gt;Node5 -->
<g id="edge4" class="edge"><title>Node1&#45;&gt;Node5</title>
<path fill="none" stroke="midnightblue" d="M94.5021,-78.8183C116.077,-68.7647 151.125,-52.8139 182,-40.5 187.409,-38.3426 193.087,-36.1739 198.772,-34.0641"/>
<polygon fill="midnightblue" stroke="midnightblue" points="200.112,-37.3011 208.303,-30.5814 197.709,-30.7264 200.112,-37.3011"/>
</g>
</g>
</svg>
