<?xml version="1.0" encoding="UTF-8" standalone="no"?>
<!DOCTYPE svg PUBLIC "-//W3C//DTD SVG 1.1//EN"
 "http://www.w3.org/Graphics/SVG/1.1/DTD/svg11.dtd">
<!-- Generated by graphviz version 2.38.0 (20140413.2041)
 -->
<!-- Title: ProfileManager::switchToProfile Pages: 1 -->
<svg width="473pt" height="88pt"
 viewBox="0.00 0.00 473.00 88.00" xmlns="http://www.w3.org/2000/svg" xmlns:xlink="http://www.w3.org/1999/xlink">
<g id="graph0" class="graph" transform="scale(1 1) rotate(0) translate(4 84)">
<title>ProfileManager::switchToProfile</title>
<polygon fill="white" stroke="none" points="-4,4 -4,-84 469,-84 469,4 -4,4"/>
<!-- Node1 -->
<g id="node1" class="node"><title>Node1</title>
<polygon fill="#bfbfbf" stroke="black" points="0,-24.5 0,-54.5 125,-54.5 125,-24.5 0,-24.5"/>
<text text-anchor="start" x="8" y="-42.5" font-family="Helvetica,sans-Serif" font-size="10.00">ProfileManager::switchTo</text>
<text text-anchor="middle" x="62.5" y="-31.5" font-family="Helvetica,sans-Serif" font-size="10.00">Profile</text>
</g>
<!-- Node2 -->
<g id="node2" class="node"><title>Node2</title>
<g id="a_node2"><a xlink:href="class_profile_manager.html#a7644e0703d1bdb3172271cec13e86662" target="_top" xlink:title="Switch to next profile. ">
<polygon fill="white" stroke="black" points="161,-49.5 161,-79.5 286,-79.5 286,-49.5 161,-49.5"/>
<text text-anchor="start" x="169" y="-67.5" font-family="Helvetica,sans-Serif" font-size="10.00">ProfileManager::switchTo</text>
<text text-anchor="middle" x="223.5" y="-56.5" font-family="Helvetica,sans-Serif" font-size="10.00">NextProfile</text>
</a>
</g>
</g>
<!-- Node1&#45;&gt;Node2 -->
<g id="edge1" class="edge"><title>Node1&#45;&gt;Node2</title>
<path fill="none" stroke="midnightblue" d="M135.315,-50.7917C143.803,-52.1262 152.408,-53.4793 160.74,-54.7893"/>
<polygon fill="midnightblue" stroke="midnightblue" points="135.851,-47.333 125.429,-49.2372 134.764,-54.2481 135.851,-47.333"/>
</g>
<!-- Node4 -->
<g id="node4" class="node"><title>Node4</title>
<g id="a_node4"><a xlink:href="class_profile_manager.html#a778eb208053cbcb18a7056b4066632ec" target="_top" xlink:title="Switch to previous profile. ">
<polygon fill="white" stroke="black" points="161,-0.5 161,-30.5 286,-30.5 286,-0.5 161,-0.5"/>
<text text-anchor="start" x="169" y="-18.5" font-family="Helvetica,sans-Serif" font-size="10.00">ProfileManager::switchTo</text>
<text text-anchor="middle" x="223.5" y="-7.5" font-family="Helvetica,sans-Serif" font-size="10.00">PreviousProfile</text>
</a>
</g>
</g>
<!-- Node1&#45;&gt;Node4 -->
<g id="edge3" class="edge"><title>Node1&#45;&gt;Node4</title>
<path fill="none" stroke="midnightblue" d="M135.592,-28.6182C143.99,-27.3506 152.499,-26.0662 160.74,-24.8222"/>
<polygon fill="midnightblue" stroke="midnightblue" points="134.794,-25.1988 125.429,-30.1523 135.839,-32.1204 134.794,-25.1988"/>
</g>
<!-- Node3 -->
<g id="node3" class="node"><title>Node3</title>
<g id="a_node3"><a xlink:href="class_profile_manager.html#a06dda29b41856d4c2e9e85132a79da5a" target="_top" xlink:title="Handles the asynchronous update. ">
<polygon fill="white" stroke="black" points="322,-24.5 322,-54.5 465,-54.5 465,-24.5 322,-24.5"/>
<text text-anchor="start" x="330" y="-42.5" font-family="Helvetica,sans-Serif" font-size="10.00">ProfileManager::handleAsync</text>
<text text-anchor="middle" x="393.5" y="-31.5" font-family="Helvetica,sans-Serif" font-size="10.00">Update</text>
</a>
</g>
</g>
<!-- Node2&#45;&gt;Node3 -->
<g id="edge2" class="edge"><title>Node2&#45;&gt;Node3</title>
<path fill="none" stroke="midnightblue" d="M296.025,-53.8564C304.565,-52.5856 313.28,-51.2886 321.808,-50.0196"/>
<polygon fill="midnightblue" stroke="midnightblue" points="295.479,-50.399 286.103,-55.3329 296.509,-57.3228 295.479,-50.399"/>
</g>
<!-- Node4&#45;&gt;Node3 -->
<g id="edge4" class="edge"><title>Node4&#45;&gt;Node3</title>
<path fill="none" stroke="midnightblue" d="M296.025,-25.7179C304.565,-26.9378 313.28,-28.1829 321.808,-29.4012"/>
<polygon fill="midnightblue" stroke="midnightblue" points="296.498,-22.2499 286.103,-24.3004 295.508,-29.1796 296.498,-22.2499"/>
</g>
</g>
</svg>
