<?xml version="1.0" encoding="UTF-8" standalone="no"?>
<!DOCTYPE svg PUBLIC "-//W3C//DTD SVG 1.1//EN"
 "http://www.w3.org/Graphics/SVG/1.1/DTD/svg11.dtd">
<!-- Generated by graphviz version 2.38.0 (20140413.2041)
 -->
<!-- Title: Graphical Class Hierarchy Pages: 1 -->
<svg width="426pt" height="522pt"
 viewBox="0.00 0.00 426.00 522.00" xmlns="http://www.w3.org/2000/svg" xmlns:xlink="http://www.w3.org/1999/xlink">
<g id="graph0" class="graph" transform="scale(1 1) rotate(0) translate(4 518)">
<title>Graphical Class Hierarchy</title>
<polygon fill="white" stroke="none" points="-4,4 -4,-518 422,-518 422,4 -4,4"/>
<!-- Node1 -->
<g id="node1" class="node"><title>Node1</title>
<polygon fill="white" stroke="#bfbfbf" points="157.5,-380.5 157.5,-399.5 235.5,-399.5 235.5,-380.5 157.5,-380.5"/>
<text text-anchor="middle" x="196.5" y="-387.5" font-family="Helvetica,sans-Serif" font-size="10.00">AsyncUpdater</text>
</g>
<!-- Node2 -->
<g id="node2" class="node"><title>Node2</title>
<g id="a_node2"><a xlink:href="class_l_r___i_p_c___o_u_t.html" target="_top" xlink:title="A lr ipc out. ">
<polygon fill="white" stroke="black" points="318,-389.5 318,-408.5 392,-408.5 392,-389.5 318,-389.5"/>
<text text-anchor="middle" x="355" y="-396.5" font-family="Helvetica,sans-Serif" font-size="10.00">LR_IPC_OUT</text>
</a>
</g>
</g>
<!-- Node1&#45;&gt;Node2 -->
<g id="edge1" class="edge"><title>Node1&#45;&gt;Node2</title>
<path fill="none" stroke="midnightblue" d="M245.818,-392.779C269.109,-394.118 296.566,-395.697 317.991,-396.929"/>
<polygon fill="midnightblue" stroke="midnightblue" points="245.969,-389.282 235.784,-392.202 245.567,-396.27 245.969,-389.282"/>
</g>
<!-- Node3 -->
<g id="node3" class="node"><title>Node3</title>
<g id="a_node3"><a xlink:href="class_main_content_component.html" target="_top" xlink:title="This component lives inside our window, and this is where you should put all your controls and conten...">
<polygon fill="white" stroke="black" points="294.5,-332.5 294.5,-351.5 415.5,-351.5 415.5,-332.5 294.5,-332.5"/>
<text text-anchor="middle" x="355" y="-339.5" font-family="Helvetica,sans-Serif" font-size="10.00">MainContentComponent</text>
</a>
</g>
</g>
<!-- Node1&#45;&gt;Node3 -->
<g id="edge2" class="edge"><title>Node1&#45;&gt;Node3</title>
<path fill="none" stroke="midnightblue" d="M238.501,-377.425C264.859,-369.341 298.571,-359.001 322.76,-351.582"/>
<polygon fill="midnightblue" stroke="midnightblue" points="237.328,-374.123 228.794,-380.402 239.381,-380.816 237.328,-374.123"/>
</g>
<!-- Node4 -->
<g id="node4" class="node"><title>Node4</title>
<g id="a_node4"><a xlink:href="class_profile_manager.html" target="_top" xlink:title="ProfileManager">
<polygon fill="white" stroke="black" points="314.5,-456.5 314.5,-475.5 395.5,-475.5 395.5,-456.5 314.5,-456.5"/>
<text text-anchor="middle" x="355" y="-463.5" font-family="Helvetica,sans-Serif" font-size="10.00">ProfileManager</text>
</a>
</g>
</g>
<!-- Node1&#45;&gt;Node4 -->
<g id="edge3" class="edge"><title>Node1&#45;&gt;Node4</title>
<path fill="none" stroke="midnightblue" d="M240.909,-402.948C246.057,-404.821 251.188,-406.849 256,-409 287.085,-422.898 320.912,-444.043 339.578,-456.293"/>
<polygon fill="midnightblue" stroke="midnightblue" points="241.661,-399.505 231.066,-399.548 239.375,-406.122 241.661,-399.505"/>
</g>
<!-- Node5 -->
<g id="node5" class="node"><title>Node5</title>
<g id="a_node5"><a xlink:href="class_version_checker.html" target="_top" xlink:title="Checks to see if we are running the latest version or not. ">
<polygon fill="white" stroke="black" points="312,-76.5 312,-95.5 398,-95.5 398,-76.5 312,-76.5"/>
<text text-anchor="middle" x="355" y="-83.5" font-family="Helvetica,sans-Serif" font-size="10.00">VersionChecker</text>
</a>
</g>
</g>
<!-- Node1&#45;&gt;Node5 -->
<g id="edge4" class="edge"><title>Node1&#45;&gt;Node5</title>
<path fill="none" stroke="midnightblue" d="M244.736,-380.187C248.994,-377.763 252.871,-374.748 256,-371 332.457,-279.42 214.783,-195.939 292,-105 297.174,-98.907 304.246,-94.7323 311.767,-91.8804"/>
<polygon fill="midnightblue" stroke="midnightblue" points="243.213,-377.035 235.577,-384.381 246.127,-383.4 243.213,-377.035"/>
</g>
<!-- Node6 -->
<g id="node6" class="node"><title>Node6</title>
<polygon fill="white" stroke="#bfbfbf" points="156.5,-304.5 156.5,-323.5 236.5,-323.5 236.5,-304.5 156.5,-304.5"/>
<text text-anchor="middle" x="196.5" y="-311.5" font-family="Helvetica,sans-Serif" font-size="10.00">ButtonListener</text>
</g>
<!-- Node6&#45;&gt;Node3 -->
<g id="edge6" class="edge"><title>Node6&#45;&gt;Node3</title>
<path fill="none" stroke="midnightblue" d="M246.441,-322.756C263.664,-325.838 283.1,-329.315 300.666,-332.458"/>
<polygon fill="midnightblue" stroke="midnightblue" points="247.048,-319.309 236.588,-320.993 245.815,-326.2 247.048,-319.309"/>
</g>
<!-- Node7 -->
<g id="node7" class="node"><title>Node7</title>
<g id="a_node7"><a xlink:href="class_command_menu.html" target="_top" xlink:title="Command menu. ">
<polygon fill="white" stroke="black" points="312.5,-280.5 312.5,-299.5 397.5,-299.5 397.5,-280.5 312.5,-280.5"/>
<text text-anchor="middle" x="355" y="-287.5" font-family="Helvetica,sans-Serif" font-size="10.00">CommandMenu</text>
</a>
</g>
</g>
<!-- Node6&#45;&gt;Node7 -->
<g id="edge5" class="edge"><title>Node6&#45;&gt;Node7</title>
<path fill="none" stroke="darkgreen" d="M246.658,-306.461C267.778,-303.223 292.195,-299.478 312.4,-296.379"/>
<polygon fill="darkgreen" stroke="darkgreen" points="245.942,-303.03 236.588,-308.006 247.003,-309.949 245.942,-303.03"/>
</g>
<!-- Node8 -->
<g id="node8" class="node"><title>Node8</title>
<g id="a_node8"><a xlink:href="class_settings_component.html" target="_top" xlink:title="Settings Component. ">
<polygon fill="white" stroke="black" points="304,-228.5 304,-247.5 406,-247.5 406,-228.5 304,-228.5"/>
<text text-anchor="middle" x="355" y="-235.5" font-family="Helvetica,sans-Serif" font-size="10.00">SettingsComponent</text>
</a>
</g>
</g>
<!-- Node6&#45;&gt;Node8 -->
<g id="edge7" class="edge"><title>Node6&#45;&gt;Node8</title>
<path fill="none" stroke="midnightblue" d="M241.611,-301.123C246.543,-299.258 251.432,-297.212 256,-295 273.307,-286.618 275.492,-280.863 292,-271 306.027,-262.619 322.356,-253.971 334.735,-247.631"/>
<polygon fill="midnightblue" stroke="midnightblue" points="240.398,-297.84 232.144,-304.482 242.739,-304.437 240.398,-297.84"/>
</g>
<!-- Node9 -->
<g id="node9" class="node"><title>Node9</title>
<polygon fill="white" stroke="#bfbfbf" points="163.5,-228.5 163.5,-247.5 229.5,-247.5 229.5,-228.5 163.5,-228.5"/>
<text text-anchor="middle" x="196.5" y="-235.5" font-family="Helvetica,sans-Serif" font-size="10.00">Component</text>
</g>
<!-- Node9&#45;&gt;Node3 -->
<g id="edge8" class="edge"><title>Node9&#45;&gt;Node3</title>
<path fill="none" stroke="midnightblue" d="M239.111,-247.749C245.101,-250.196 250.94,-253.235 256,-257 278.552,-273.779 271.001,-290.314 292,-309 303.113,-318.889 317.715,-326.848 329.957,-332.469"/>
<polygon fill="midnightblue" stroke="midnightblue" points="240.261,-244.443 229.666,-244.37 237.903,-251.034 240.261,-244.443"/>
</g>
<!-- Node9&#45;&gt;Node8 -->
<g id="edge9" class="edge"><title>Node9&#45;&gt;Node8</title>
<path fill="none" stroke="midnightblue" d="M239.775,-238C259.519,-238 283.168,-238 303.814,-238"/>
<polygon fill="midnightblue" stroke="midnightblue" points="239.548,-234.5 229.548,-238 239.548,-241.5 239.548,-234.5"/>
</g>
<!-- Node10 -->
<g id="node10" class="node"><title>Node10</title>
<polygon fill="white" stroke="#bfbfbf" points="0,-209.5 0,-228.5 101,-228.5 101,-209.5 0,-209.5"/>
<text text-anchor="middle" x="50.5" y="-216.5" font-family="Helvetica,sans-Serif" font-size="10.00">ComponentListener</text>
</g>
<!-- Node11 -->
<g id="node11" class="node"><title>Node11</title>
<g id="a_node11"><a xlink:href="class_resizable_layout.html" target="_top" xlink:title="Derive your Component from this class if you want to be able to put anchors on children. ">
<polygon fill="white" stroke="black" points="152,-190.5 152,-209.5 241,-209.5 241,-190.5 152,-190.5"/>
<text text-anchor="middle" x="196.5" y="-197.5" font-family="Helvetica,sans-Serif" font-size="10.00">ResizableLayout</text>
</a>
</g>
</g>
<!-- Node10&#45;&gt;Node11 -->
<g id="edge10" class="edge"><title>Node10&#45;&gt;Node11</title>
<path fill="none" stroke="#8b1a1a" d="M111.253,-211.116C124.78,-209.331 138.902,-207.468 151.632,-205.788"/>
<polygon fill="#8b1a1a" stroke="#8b1a1a" points="110.513,-207.683 101.057,-212.461 111.429,-214.623 110.513,-207.683"/>
</g>
<!-- Node11&#45;&gt;Node3 -->
<g id="edge11" class="edge"><title>Node11&#45;&gt;Node3</title>
<path fill="none" stroke="midnightblue" d="M249.926,-214.205C252.083,-215.651 254.124,-217.244 256,-219 287.458,-248.434 263.235,-276.928 292,-309 301.363,-319.439 314.825,-327.159 326.814,-332.495"/>
<polygon fill="midnightblue" stroke="midnightblue" points="251.571,-211.115 241.128,-209.325 248.175,-217.236 251.571,-211.115"/>
</g>
<!-- Node11&#45;&gt;Node8 -->
<g id="edge12" class="edge"><title>Node11&#45;&gt;Node8</title>
<path fill="none" stroke="#8b1a1a" d="M246.789,-211.968C268.72,-217.293 294.185,-223.476 314.792,-228.48"/>
<polygon fill="#8b1a1a" stroke="#8b1a1a" points="247.535,-208.547 236.992,-209.589 245.883,-215.35 247.535,-208.547"/>
</g>
<!-- Node12 -->
<g id="node12" class="node"><title>Node12</title>
<g id="a_node12"><a xlink:href="class_top_level_resizable_layout.html" target="_top" xlink:title="Derive your content component from this class (i.e. the component that you stick in a ResizableWindow...">
<polygon fill="white" stroke="black" points="292,-190.5 292,-209.5 418,-209.5 418,-190.5 292,-190.5"/>
<text text-anchor="middle" x="355" y="-197.5" font-family="Helvetica,sans-Serif" font-size="10.00">TopLevelResizableLayout</text>
</a>
</g>
</g>
<!-- Node11&#45;&gt;Node12 -->
<g id="edge13" class="edge"><title>Node11&#45;&gt;Node12</title>
<path fill="none" stroke="midnightblue" d="M251.333,-200C264.411,-200 278.501,-200 291.926,-200"/>
<polygon fill="midnightblue" stroke="midnightblue" points="251.094,-196.5 241.094,-200 251.094,-203.5 251.094,-196.5"/>
</g>
<!-- Node13 -->
<g id="node13" class="node"><title>Node13</title>
<polygon fill="white" stroke="#bfbfbf" points="149,-76.5 149,-95.5 244,-95.5 244,-76.5 149,-76.5"/>
<text text-anchor="middle" x="196.5" y="-83.5" font-family="Helvetica,sans-Serif" font-size="10.00">DocumentWindow</text>
</g>
<!-- Node14 -->
<g id="node14" class="node"><title>Node14</title>
<g id="a_node14"><a xlink:href="class_main_window.html" target="_top" xlink:title="This class implements the desktop window that contains an instance of our MainContentComponent class...">
<polygon fill="white" stroke="black" points="319,-114.5 319,-133.5 391,-133.5 391,-114.5 319,-114.5"/>
<text text-anchor="middle" x="355" y="-121.5" font-family="Helvetica,sans-Serif" font-size="10.00">MainWindow</text>
</a>
</g>
</g>
<!-- Node13&#45;&gt;Node14 -->
<g id="edge14" class="edge"><title>Node13&#45;&gt;Node14</title>
<path fill="none" stroke="midnightblue" d="M246.737,-97.9554C270.122,-103.633 297.534,-110.289 318.793,-115.451"/>
<polygon fill="midnightblue" stroke="midnightblue" points="247.535,-94.5475 236.992,-95.589 245.883,-101.35 247.535,-94.5475"/>
</g>
<!-- Node15 -->
<g id="node15" class="node"><title>Node15</title>
<polygon fill="white" stroke="#bfbfbf" points="137,-418.5 137,-437.5 256,-437.5 256,-418.5 137,-418.5"/>
<text text-anchor="middle" x="196.5" y="-425.5" font-family="Helvetica,sans-Serif" font-size="10.00">InterprocessConnection</text>
</g>
<!-- Node15&#45;&gt;Node2 -->
<g id="edge15" class="edge"><title>Node15&#45;&gt;Node2</title>
<path fill="none" stroke="midnightblue" d="M259.087,-416.588C278.943,-412.908 300.3,-408.951 317.718,-405.723"/>
<polygon fill="midnightblue" stroke="midnightblue" points="258.373,-413.16 249.178,-418.424 259.648,-420.043 258.373,-413.16"/>
</g>
<!-- Node16 -->
<g id="node16" class="node"><title>Node16</title>
<polygon fill="white" stroke="#bfbfbf" points="171,-152.5 171,-171.5 222,-171.5 222,-152.5 171,-152.5"/>
<text text-anchor="middle" x="196.5" y="-159.5" font-family="Helvetica,sans-Serif" font-size="10.00">Listener</text>
</g>
<!-- Node16&#45;&gt;Node8 -->
<g id="edge16" class="edge"><title>Node16&#45;&gt;Node8</title>
<path fill="none" stroke="midnightblue" d="M231.869,-170.018C240.135,-172.78 248.682,-176.379 256,-181 275.671,-193.421 272.226,-206.743 292,-219 298.22,-222.855 305.278,-225.978 312.348,-228.491"/>
<polygon fill="midnightblue" stroke="midnightblue" points="232.613,-166.587 222.029,-167.053 230.594,-173.289 232.613,-166.587"/>
</g>
<!-- Node17 -->
<g id="node17" class="node"><title>Node17</title>
<g id="a_node17"><a xlink:href="class_l_r_connection_listener.html" target="_top" xlink:title="A lr connection listener. ">
<polygon fill="white" stroke="black" points="140.5,-494.5 140.5,-513.5 252.5,-513.5 252.5,-494.5 140.5,-494.5"/>
<text text-anchor="middle" x="196.5" y="-501.5" font-family="Helvetica,sans-Serif" font-size="10.00">LRConnectionListener</text>
</a>
</g>
</g>
<!-- Node17&#45;&gt;Node3 -->
<g id="edge17" class="edge"><title>Node17&#45;&gt;Node3</title>
<path fill="none" stroke="midnightblue" d="M250.81,-489.362C252.651,-488.032 254.392,-486.582 256,-485 291.166,-450.401 261.148,-418.496 292,-380 302.106,-367.39 317.606,-357.89 330.579,-351.543"/>
<polygon fill="midnightblue" stroke="midnightblue" points="249.026,-486.351 242.199,-494.452 252.588,-492.376 249.026,-486.351"/>
</g>
<!-- Node17&#45;&gt;Node4 -->
<g id="edge18" class="edge"><title>Node17&#45;&gt;Node4</title>
<path fill="none" stroke="midnightblue" d="M246.789,-492.032C268.72,-486.707 294.185,-480.524 314.792,-475.52"/>
<polygon fill="midnightblue" stroke="midnightblue" points="245.883,-488.65 236.992,-494.411 247.535,-495.453 245.883,-488.65"/>
</g>
<!-- Node18 -->
<g id="node18" class="node"><title>Node18</title>
<g id="a_node18"><a xlink:href="class_settings_manager.html" target="_top" xlink:title="Settings Manager. ">
<polygon fill="white" stroke="black" points="310,-494.5 310,-513.5 400,-513.5 400,-494.5 310,-494.5"/>
<text text-anchor="middle" x="355" y="-501.5" font-family="Helvetica,sans-Serif" font-size="10.00">SettingsManager</text>
</a>
</g>
</g>
<!-- Node17&#45;&gt;Node18 -->
<g id="edge19" class="edge"><title>Node17&#45;&gt;Node18</title>
<path fill="none" stroke="midnightblue" d="M262.94,-504C278.76,-504 295.297,-504 309.871,-504"/>
<polygon fill="midnightblue" stroke="midnightblue" points="262.676,-500.5 252.676,-504 262.676,-507.5 262.676,-500.5"/>
</g>
<!-- Node19 -->
<g id="node19" class="node"><title>Node19</title>
<g id="a_node19"><a xlink:href="class_m_i_d_i_command_listener.html" target="_top" xlink:title="MIDI Command Listener. ">
<polygon fill="white" stroke="black" points="139,-456.5 139,-475.5 254,-475.5 254,-456.5 139,-456.5"/>
<text text-anchor="middle" x="196.5" y="-463.5" font-family="Helvetica,sans-Serif" font-size="10.00">MIDICommandListener</text>
</a>
</g>
</g>
<!-- Node19&#45;&gt;Node2 -->
<g id="edge20" class="edge"><title>Node19&#45;&gt;Node2</title>
<path fill="none" stroke="midnightblue" d="M239.164,-453.271C244.867,-451.296 250.61,-449.182 256,-447 284.799,-435.339 316.918,-418.919 336.285,-408.624"/>
<polygon fill="midnightblue" stroke="midnightblue" points="238.042,-449.956 229.673,-456.453 240.267,-456.593 238.042,-449.956"/>
</g>
<!-- Node19&#45;&gt;Node3 -->
<g id="edge21" class="edge"><title>Node19&#45;&gt;Node3</title>
<path fill="none" stroke="midnightblue" d="M249.448,-451.678C251.756,-450.262 253.956,-448.707 256,-447 281.944,-425.329 268.785,-404.572 292,-380 303.444,-367.886 319.571,-358.162 332.508,-351.583"/>
<polygon fill="midnightblue" stroke="midnightblue" points="247.411,-448.79 240.123,-456.48 250.615,-455.014 247.411,-448.79"/>
</g>
<!-- Node19&#45;&gt;Node4 -->
<g id="edge22" class="edge"><title>Node19&#45;&gt;Node4</title>
<path fill="none" stroke="midnightblue" d="M264.446,-466C281.419,-466 299.118,-466 314.256,-466"/>
<polygon fill="midnightblue" stroke="midnightblue" points="264,-462.5 254,-466 264,-469.5 264,-462.5"/>
</g>
<!-- Node20 -->
<g id="node20" class="node"><title>Node20</title>
<g id="a_node20"><a xlink:href="class_profile_change_listener.html" target="_top" xlink:title="Profile change listener. ">
<polygon fill="white" stroke="black" points="141,-342.5 141,-361.5 252,-361.5 252,-342.5 141,-342.5"/>
<text text-anchor="middle" x="196.5" y="-349.5" font-family="Helvetica,sans-Serif" font-size="10.00">ProfileChangeListener</text>
</a>
</g>
</g>
<!-- Node20&#45;&gt;Node3 -->
<g id="edge23" class="edge"><title>Node20&#45;&gt;Node3</title>
<path fill="none" stroke="midnightblue" d="M262.321,-347.858C272.978,-347.177 283.977,-346.474 294.496,-345.802"/>
<polygon fill="midnightblue" stroke="midnightblue" points="261.993,-344.372 252.236,-348.502 262.439,-351.358 261.993,-344.372"/>
</g>
<!-- Node21 -->
<g id="node21" class="node"><title>Node21</title>
<g id="a_node21"><a xlink:href="class_resizable_child.html" target="_top" xlink:title="Derive your child Component from this class if you want to be able to set size limits per&#45;item...">
<polygon fill="white" stroke="black" points="10,-171.5 10,-190.5 91,-190.5 91,-171.5 10,-171.5"/>
<text text-anchor="middle" x="50.5" y="-178.5" font-family="Helvetica,sans-Serif" font-size="10.00">ResizableChild</text>
</a>
</g>
</g>
<!-- Node21&#45;&gt;Node11 -->
<g id="edge24" class="edge"><title>Node21&#45;&gt;Node11</title>
<path fill="none" stroke="midnightblue" d="M101.224,-187.561C117.69,-189.733 135.88,-192.133 151.854,-194.241"/>
<polygon fill="midnightblue" stroke="midnightblue" points="101.602,-184.08 91.2298,-186.242 100.686,-191.02 101.602,-184.08"/>
</g>
<!-- Node22 -->
<g id="node22" class="node"><title>Node22</title>
<polygon fill="white" stroke="#bfbfbf" points="150.5,-0.5 150.5,-19.5 242.5,-19.5 242.5,-0.5 150.5,-0.5"/>
<text text-anchor="middle" x="196.5" y="-7.5" font-family="Helvetica,sans-Serif" font-size="10.00">StreamingSocket</text>
</g>
<!-- Node23 -->
<g id="node23" class="node"><title>Node23</title>
<g id="a_node23"><a xlink:href="class_l_r___i_p_c___i_n.html" target="_top" xlink:title="A lr ipc in. ">
<polygon fill="white" stroke="black" points="323,-38.5 323,-57.5 387,-57.5 387,-38.5 323,-38.5"/>
<text text-anchor="middle" x="355" y="-45.5" font-family="Helvetica,sans-Serif" font-size="10.00">LR_IPC_IN</text>
</a>
</g>
</g>
<!-- Node22&#45;&gt;Node23 -->
<g id="edge25" class="edge"><title>Node22&#45;&gt;Node23</title>
<path fill="none" stroke="midnightblue" d="M246.983,-22.0151C271.854,-28.054 301.229,-35.1866 322.905,-40.4498"/>
<polygon fill="midnightblue" stroke="midnightblue" points="247.535,-18.5475 236.992,-19.589 245.883,-25.3498 247.535,-18.5475"/>
</g>
<!-- Node24 -->
<g id="node24" class="node"><title>Node24</title>
<polygon fill="white" stroke="#bfbfbf" points="164.5,-266.5 164.5,-285.5 228.5,-285.5 228.5,-266.5 164.5,-266.5"/>
<text text-anchor="middle" x="196.5" y="-273.5" font-family="Helvetica,sans-Serif" font-size="10.00">TextButton</text>
</g>
<!-- Node24&#45;&gt;Node7 -->
<g id="edge26" class="edge"><title>Node24&#45;&gt;Node7</title>
<path fill="none" stroke="midnightblue" d="M238.811,-279.696C261.52,-281.727 289.617,-284.241 312.376,-286.276"/>
<polygon fill="midnightblue" stroke="midnightblue" points="239.066,-276.204 228.794,-278.799 238.442,-283.177 239.066,-276.204"/>
</g>
<!-- Node25 -->
<g id="node25" class="node"><title>Node25</title>
<polygon fill="white" stroke="#bfbfbf" points="173.5,-38.5 173.5,-57.5 219.5,-57.5 219.5,-38.5 173.5,-38.5"/>
<text text-anchor="middle" x="196.5" y="-45.5" font-family="Helvetica,sans-Serif" font-size="10.00">Thread</text>
</g>
<!-- Node25&#45;&gt;Node5 -->
<g id="edge28" class="edge"><title>Node25&#45;&gt;Node5</title>
<path fill="none" stroke="midnightblue" d="M229.536,-55.7788C254.228,-61.7743 288.488,-70.0929 314.814,-76.4851"/>
<polygon fill="midnightblue" stroke="midnightblue" points="230.134,-52.3223 219.591,-53.3639 228.482,-59.1247 230.134,-52.3223"/>
</g>
<!-- Node25&#45;&gt;Node23 -->
<g id="edge27" class="edge"><title>Node25&#45;&gt;Node23</title>
<path fill="none" stroke="midnightblue" d="M229.789,-48C257.069,-48 295.894,-48 322.847,-48"/>
<polygon fill="midnightblue" stroke="midnightblue" points="229.591,-44.5001 219.591,-48 229.591,-51.5001 229.591,-44.5001"/>
</g>
<!-- Node26 -->
<g id="node26" class="node"><title>Node26</title>
<polygon fill="white" stroke="#bfbfbf" points="176,-114.5 176,-133.5 217,-133.5 217,-114.5 176,-114.5"/>
<text text-anchor="middle" x="196.5" y="-121.5" font-family="Helvetica,sans-Serif" font-size="10.00">Timer</text>
</g>
<!-- Node26&#45;&gt;Node2 -->
<g id="edge30" class="edge"><title>Node26&#45;&gt;Node2</title>
<path fill="none" stroke="midnightblue" d="M227.047,-127.191C237.624,-129.813 248.719,-134.533 256,-143 320.026,-217.459 237.177,-279.527 292,-361 300.74,-373.988 315.559,-383.309 328.518,-389.469"/>
<polygon fill="midnightblue" stroke="midnightblue" points="227.691,-123.751 217.205,-125.267 226.348,-130.621 227.691,-123.751"/>
</g>
<!-- Node26&#45;&gt;Node3 -->
<g id="edge31" class="edge"><title>Node26&#45;&gt;Node3</title>
<path fill="none" stroke="midnightblue" d="M227.154,-127.467C237.606,-130.128 248.587,-134.802 256,-143 306.633,-198.995 246.456,-248.793 292,-309 300.092,-319.697 312.677,-327.294 324.4,-332.48"/>
<polygon fill="midnightblue" stroke="midnightblue" points="227.524,-123.971 217.029,-125.422 226.139,-130.833 227.524,-123.971"/>
</g>
<!-- Node26&#45;&gt;Node14 -->
<g id="edge32" class="edge"><title>Node26&#45;&gt;Node14</title>
<path fill="none" stroke="midnightblue" d="M227.03,-124C253.074,-124 291.077,-124 318.715,-124"/>
<polygon fill="midnightblue" stroke="midnightblue" points="227.004,-120.5 217.004,-124 227.004,-127.5 227.004,-120.5"/>
</g>
<!-- Node26&#45;&gt;Node23 -->
<g id="edge29" class="edge"><title>Node26&#45;&gt;Node23</title>
<path fill="none" stroke="midnightblue" d="M226.965,-117.537C236.673,-114.617 247.221,-110.543 256,-105 275.671,-92.5787 272.226,-79.2569 292,-67 301.282,-61.2467 312.431,-57.1254 322.7,-54.2255"/>
<polygon fill="midnightblue" stroke="midnightblue" points="225.993,-114.174 217.262,-120.176 227.83,-120.929 225.993,-114.174"/>
</g>
</g>
</svg>
