<?xml version="1.0" encoding="UTF-8" standalone="no"?>
<!DOCTYPE svg PUBLIC "-//W3C//DTD SVG 1.1//EN"
 "http://www.w3.org/Graphics/SVG/1.1/DTD/svg11.dtd">
<!-- Generated by graphviz version 2.38.0 (20140413.2041)
 -->
<!-- Title: MIDI_Message::MIDI_Message Pages: 1 -->
<svg width="305pt" height="192pt"
 viewBox="0.00 0.00 305.00 191.50" xmlns="http://www.w3.org/2000/svg" xmlns:xlink="http://www.w3.org/1999/xlink">
<g id="graph0" class="graph" transform="scale(1 1) rotate(0) translate(4 187.5)">
<title>MIDI_Message::MIDI_Message</title>
<polygon fill="white" stroke="none" points="-4,4 -4,-187.5 301,-187.5 301,4 -4,4"/>
<!-- Node1 -->
<g id="node1" class="node"><title>Node1</title>
<polygon fill="#bfbfbf" stroke="black" points="0,-71 0,-101 107,-101 107,-71 0,-71"/>
<text text-anchor="start" x="8" y="-89" font-family="Helvetica,sans-Serif" font-size="10.00">MIDI_Message::MIDI</text>
<text text-anchor="middle" x="53.5" y="-78" font-family="Helvetica,sans-Serif" font-size="10.00">_Message</text>
</g>
<!-- Node2 -->
<g id="node2" class="node"><title>Node2</title>
<g id="a_node2"><a xlink:href="class_command_table_model.html#a34e3b342c1741fe6363e2873b68171b1" target="_top" xlink:title="Adds a row. ">
<polygon fill="white" stroke="black" points="162,-153 162,-183 278,-183 278,-153 162,-153"/>
<text text-anchor="start" x="170" y="-171" font-family="Helvetica,sans-Serif" font-size="10.00">CommandTableModel::</text>
<text text-anchor="middle" x="220" y="-160" font-family="Helvetica,sans-Serif" font-size="10.00">addRow</text>
</a>
</g>
</g>
<!-- Node1&#45;&gt;Node2 -->
<g id="edge1" class="edge"><title>Node1&#45;&gt;Node2</title>
<path fill="none" stroke="midnightblue" d="M83.019,-107.021C99.8522,-118.74 121.929,-132.951 143,-143 150.648,-146.647 158.966,-149.976 167.201,-152.93"/>
<polygon fill="midnightblue" stroke="midnightblue" points="84.9125,-104.073 74.7274,-101.155 80.8699,-109.788 84.9125,-104.073"/>
</g>
<!-- Node3 -->
<g id="node3" class="node"><title>Node3</title>
<g id="a_node3"><a xlink:href="class_profile_manager.html#af96e39d2bbd4b14492698c0ecb39b4e0" target="_top" xlink:title="Handles the MIDI Cc. ">
<polygon fill="white" stroke="black" points="146.5,-114.5 146.5,-133.5 293.5,-133.5 293.5,-114.5 146.5,-114.5"/>
<text text-anchor="middle" x="220" y="-121.5" font-family="Helvetica,sans-Serif" font-size="10.00">ProfileManager::handleMidiCC</text>
</a>
</g>
</g>
<!-- Node1&#45;&gt;Node3 -->
<g id="edge2" class="edge"><title>Node1&#45;&gt;Node3</title>
<path fill="none" stroke="midnightblue" d="M116.827,-100.398C137.173,-105.098 159.251,-110.198 177.66,-114.45"/>
<polygon fill="midnightblue" stroke="midnightblue" points="117.532,-96.9686 107.001,-98.1279 115.957,-103.789 117.532,-96.9686"/>
</g>
<!-- Node4 -->
<g id="node4" class="node"><title>Node4</title>
<g id="a_node4"><a xlink:href="class_l_r___i_p_c___o_u_t.html#ad2d2b544157950b3b74ff6f7791c98cc" target="_top" xlink:title="Handles MIDI CC messages. ">
<polygon fill="white" stroke="black" points="150,-76.5 150,-95.5 290,-95.5 290,-76.5 150,-76.5"/>
<text text-anchor="middle" x="220" y="-83.5" font-family="Helvetica,sans-Serif" font-size="10.00">LR_IPC_OUT::handleMidiCC</text>
</a>
</g>
</g>
<!-- Node1&#45;&gt;Node4 -->
<g id="edge3" class="edge"><title>Node1&#45;&gt;Node4</title>
<path fill="none" stroke="midnightblue" d="M117.103,-86C127.817,-86 139.004,-86 149.877,-86"/>
<polygon fill="midnightblue" stroke="midnightblue" points="117.001,-82.5001 107.001,-86 117.001,-89.5001 117.001,-82.5001"/>
</g>
<!-- Node5 -->
<g id="node5" class="node"><title>Node5</title>
<g id="a_node5"><a xlink:href="class_profile_manager.html#a6515de39866335b7ef722a771767bfb6" target="_top" xlink:title="Handles the MIDI note. ">
<polygon fill="white" stroke="black" points="143,-38.5 143,-57.5 297,-57.5 297,-38.5 143,-38.5"/>
<text text-anchor="middle" x="220" y="-45.5" font-family="Helvetica,sans-Serif" font-size="10.00">ProfileManager::handleMidiNote</text>
</a>
</g>
</g>
<!-- Node1&#45;&gt;Node5 -->
<g id="edge4" class="edge"><title>Node1&#45;&gt;Node5</title>
<path fill="none" stroke="midnightblue" d="M116.827,-71.6023C137.173,-66.9022 159.251,-61.8023 177.66,-57.5497"/>
<polygon fill="midnightblue" stroke="midnightblue" points="115.957,-68.2111 107.001,-73.8721 117.532,-75.0314 115.957,-68.2111"/>
</g>
<!-- Node6 -->
<g id="node6" class="node"><title>Node6</title>
<g id="a_node6"><a xlink:href="class_l_r___i_p_c___o_u_t.html#ab586f83cf46e3a10ab03a934c749d60d" target="_top" xlink:title="Handles MIDI note messages. ">
<polygon fill="white" stroke="black" points="146.5,-0.5 146.5,-19.5 293.5,-19.5 293.5,-0.5 146.5,-0.5"/>
<text text-anchor="middle" x="220" y="-7.5" font-family="Helvetica,sans-Serif" font-size="10.00">LR_IPC_OUT::handleMidiNote</text>
</a>
</g>
</g>
<!-- Node1&#45;&gt;Node6 -->
<g id="edge5" class="edge"><title>Node1&#45;&gt;Node6</title>
<path fill="none" stroke="midnightblue" d="M82.0871,-64.8716C98.9108,-52.8649 121.292,-38.3986 143,-29 151.737,-25.2174 161.378,-22.0829 170.776,-19.5247"/>
<polygon fill="midnightblue" stroke="midnightblue" points="79.8516,-62.1698 73.8289,-70.8863 83.9728,-67.8281 79.8516,-62.1698"/>
</g>
</g>
</svg>
